<svg xmlns="http://www.w3.org/2000/svg" id="Camada_1" version="1.1" viewBox="0 0 841.9 595.3">
  <!-- Generator: Adobe Illustrator 29.3.1, SVG Export Plug-In . SVG Version: 2.1.0 Build 151)  -->
  <defs>
    <style>
      .st0 {
        stroke-width: .5px;
      }

      .st0, .st1, .st2, .st3, .st4, .st5, .st6 {
        fill: #a98340;
        stroke: #a98340;
        stroke-linecap: round;
        stroke-linejoin: round;
      }

      .st7 {
        fill: #fff;
      }

      .st1 {
        stroke-width: .2px;
      }

      .st8 {
        fill: #583b5f;
      }

      .st2 {
        stroke-width: .7px;
      }

      .st3 {
        stroke-width: .6px;
      }

      .st4 {
        stroke-width: .5px;
      }

      .st5 {
        stroke-width: .4px;
      }

      .st6 {
        stroke-width: .6px;
      }
    </style>
  </defs>
  <g>
    <g>
      <path class="st1" d="M366.5,470.2c-5.8-29.5,18.2-59.5,67.4-55.9-12.9,68,39.4,94.6,65.1,68.5,17.7-18,8.3-44.6-16.1-47.9-2.2-.3-4.5,5.9-1.9,6,16.1,1,29,18.1,20,33.1-16.2,26.9-74.8,8-64-59.5,22.5,2,65.5,9.3,95.9-6.3,30.1-15.5,40.1-57.2,7.4-74-31.8-16.4-84.7,11-102.7,66.3-61.2-3.3-85.7,50.9-72.2,71.3.5.7,1.3-1.1,1.2-1.5ZM540.4,343.3c14.4,8.7,20.4,24,10.8,39.9-18.5,30.9-71.9,20.1-110.9,17.3,16.4-51,68.9-76.1,100.1-57.3Z"/>
      <path class="st1" d="M500,431.5c9.9,2,12.3,14.3,18.8,17.8,2.5,1.3,5.5.5,6.8-.8,3.2-3.3-.5-13-9.2-17.4-5.1-2.6-11.6-3.4-16.3.4Z"/>
      <path class="st1" d="M519.8,422.7c13.6,11.4,33,7.7,38.9,0,2.6-3.6,0-7.5-3.9-7.6-6.8-.3-19.7,7.5-35,7.6Z"/>
      <path class="st1" d="M564.8,377.2c-4.9,17.6-10.8,25.2-19.7,33.1,33-3.9,34.7-39.4,24.6-38.3-1.8.2-3.5,1.2-4.9,5.2Z"/>
    </g>
    <g>
      <path class="st1" d="M275.4,149.8c.7.7,1.1-.1.6-.8-12.5-15.5-6.7-42.4,16.9-52,25.7-10.4,63.8,5.5,73.8,56.5,19,97.3-86.1,170.4-109.7,242.3-13.7-19.1-1.6-46.1,12.1-65.5,23-32.7,58.5-54.4,71.5-101.4,5.7-20.7,4.3-43.6-8.7-61.3-40.2-54.5-122.2,27.3-28.7,96.5,2.1,1.6,1.6-1.6.5-2.6-8.1-7.1-16.5-13.7-23.5-21.8-30.8-35.8-11-78.4,16.3-83.7,28.9-5.7,58.6,32.4,28.8,87-13.3,24.3-34,42.5-51.9,63.3-38,44.1-33,76.9-17.4,93.2-23.3,79.6,69.7,115.8,97.9,53.9,11.2-24.6-1.1-48-4.6-52.9,1.5-7.8-11-20.4-19.2-18.6-3.2.7-4.6,4.9-3.1,7.6,3.6,6.2,17.5,7.1,21.4,10.6,4.6,4,17.4,36-3.6,63.4-32.8,42.8-107.7,10.6-85.5-60.7,12.8,10.3,30.2,8.8,38.5-.6,1.3-1.4,2.7-2.7,4-4.1.2-.2-.3-.8-.5-.6-8.5,10-27.9,14.7-41,2.3,22.3-64.7,110.1-130.4,112.8-216,1.5-48.1-23.3-86.2-56.5-92.7-40.2-8-63.9,36.1-41.2,58.8Z"/>
      <path class="st1" d="M249.7,288.7c1,1.5,3.7,2.6,6.8-.5,5-4.9,8.8-15,36.9-19.6-32.3-13.9-48.7,12.6-43.7,20Z"/>
      <path class="st1" d="M286.4,262.2c-4.4-3.5-18.5-12.6-30.5-11.2-18.4,2.4-13.5,23.4-4.2,13.5,4-3.9,28.2-2.7,34.8-2.3Z"/>
      <path class="st1" d="M260.9,246.9c11.5,2,11.8,2.1,13.6,2.4-4.8-8.8-14-17.1-23.6-14.6-6,1.6-10.9,8.8,10.1,12.3Z"/>
      <path class="st1" d="M349.4,410.2c0-6.2-8.8-10.8-15.6-9.1-5.2,1.3-9.3,5.2-5.8,9.1,6.7,7.5,13.6-3.5,21.4,0Z"/>
      <path class="st1" d="M334.2,430c1,9.7,9.7,9.5,11.6-1.4.6-3.1.3-7.6,5-14.3-10.2-.4-17.5,8.3-16.6,15.7Z"/>
    </g>
    <path class="st1" d="M451.9,414.6c-3.9,0-8.5-.7-13.6-2.2-5.3-1.5-11.2-3.9-17.8-7.3l-38.9-20c-7.6-3.9-14.6-6.8-20.7-8.5-6.2-1.7-11.8-2.6-16.6-2.6h-12.9c-11,0-18.9,6-23,17.5-4.1,12-7.5,12.9-8.5,12.9-3.5,0-4.8-.3-5.1-.4-.4-.4-1.8-2.1-1.8-9,0-10.7,9.2-20.8,27.3-30,21-10.9,30.8-19.5,31.1-27.1.2-6.1.2-29.8,0-68.4v-2.1c0-3-9-13.2-15.5-14.4-4-.8-6.9-2.1-8.6-3.8v-3.4c12.2-.6,24.7-4.2,37.2-11l19.8-11c6.2-3.4,12.4-6.9,18.8-10.5v3.8c-2,1.8-4,4.5-6.1,8.1-3.4,5.9-5.1,10.8-5.1,15.1v73.4c0,4.3,2.1,8.9,6.5,13.9,2.1,2.4,2.2,3.7,2.2,3.9,0,0,0,0,0,0,0,0-1.1,1.5-7,3.9-5,1.9-9.5,4.5-13.2,7.6l-6.7,5.7h27.7c6,0,16.3,3.7,30.6,11.1,0,0,42.3,24.3,48.6,25.6,6.3,1.3,14.8,0,14.8,0,6.5,0,14.7-5.4,25.6-16.9,12.8-13.3,19.2-27.1,19.2-40.8s-10.1-25.6-30.7-39.4c-19.2-12.3-34.6-18.3-47.2-18.3s-28.6,6.5-32.9,19.4c-3.3,9.8-7.6,14.8-12.6,14.8s-2.8-.6-4-2c-1.7-2-1.9-3.2-1.9-3.6,0-3.7,3.1-11.1,17.9-25.1,15.4-14.4,38.4-30.6,68.2-48.3l2.3-1.4-1-2.5c-4.5-11.7-11.2-21.6-19.7-29.4-8.4-7.8-14.3-10.9-26.5-12.6-12.2-1.7-25.5,1.9-32.2,4.4-6.4,2.3-14.4,6-23.8,11l-51.2,26.8c-9.6,5-17.9,8.7-24.6,10.9-6.5,2.2-11.2,3.4-15,3.8,0,0-7.9.6-12.1.6s-12.8-3.2-16.9-7.1c-4.1-4.1-6.1-7.8-6.1-11.1s.2-2.1,2.2-3.6c1.7-1.3,3.7-1.9,6.1-1.9s4.6.7,5.9,5.8c1.6,6.8,6.7,10.6,14.3,10.6s25.7-7.2,47.3-21.9c17-11.5,30.3-20.5,40.1-27.1,9.7-6.5,15.9-10.6,18.6-12.2,23.7-14.1,44.3-21.2,61.3-21.2s28.8,4.5,39.6,13.3c2.8,2.2,6,5.5,9.6,9.7,3.7,4.3,7.8,9.7,12.3,15.9,6.4,8.9,11.8,13.9,16.8,15.2,0,0,0,.2,0,.2,0,.3,0,.6,0,.9-.2,1.2-.3,2.1-.4,2.8-.1.9-.2,1.6-.2,2,0,2-2.9,4.7-8.1,7.3-27.8,14.1-29.5,16.4-30.5,17.7l-2,2.8,51.5,31.2c11.3,10.4,17.1,22.2,17.1,34.9,0,19.7-13.4,43.8-39.9,71.7-26.4,27.7-49.4,41.7-68.3,41.7h-11.5Z"/>
  </g>
  <path class="st8" d="M511.1,213.6l17.3-9.4s-31.4-34.4-42.1-43c-13-10.5-44.9-3.9-54.7.4-9.9,4.4-81.3,48.3-81.3,48.3,0,0,71.8-35.5,81.5-37.9,18.3-4.6,35.4-1.5,45.8,5.2,5.1,3.3,11.9,10.7,18.5,17.9,8.3,9.1,15.1,18.4,15.1,18.4Z"/>
  <g>
    <polygon class="st7" points="363.6 250 376.6 245.2 376.6 324 365.5 329.5 363.6 250"/>
    <path class="st7" d="M468.4,260.1l24.6-17.2s49.2,28.3,55,34.8c5.8,6.6,11.6,11.1,12.1,20,.4,8.9-4.5,26.9-6.3,31.8-1.8,4.9.1-21.2-11.6-29.9-4-2.9-18-14.8-33.9-23.1-19-10-40-16.4-40-16.4Z"/>
    <path class="st7" d="M368.2,358.2c7-1.3,20.7-3.2,33.2,0,13.6,3.6,73.3,41.5,80.9,39,7.6-2.5-8.5,8-24.2,7.2-15.7-.7-52.4-29.1-63-32.7-9.2-3.1-38.6-7.7-48.9-5.8-10.3,1.9,15-6.6,22-7.8Z"/>
    <path class="st7" d="M511.1,213.6l17.3-9.4s-28.2-33.9-42.1-43c-13.9-9.2-44.9-3.9-54.7.4-9.9,4.4-81.3,48.3-81.3,48.3,0,0,71.8-35.5,81.5-37.9,18.3-4.6,35.4-1.5,45.8,5.2,5.1,3.3,11.9,10.7,18.5,17.9,8.3,9.1,15.1,18.4,15.1,18.4Z"/>
  </g>
  <path class="st1" d="M321.3,349.6s2-3.5,6.2-.7c4.2,2.8,2,5.8,1.1,7.3-.9,1.5-5.7,4.1-10.6.6-4.9-3.5-6.6-11.7-1.6-18.7,5-7,18.7-8.1,26.1-2.8,5.4,3.9,6.8,9.5,9.7,5.2,2.2-3.3-4-3.6-8.5-6.9-4.5-3.3-21.9-20.5-9.9-38.2,0,0,4.8-8.1,13.8-2.8,6.1,3.6.9,9.2.9,9.2,0,0-2.9,2.9-5.6,1.1-2.7-1.8-2.4-4.8-1.5-6.2.9-1.4,3-2.2,5.4-1.1,0,0-6.2-5.5-10.9,2-4.7,7.5-.7,16.8,8.7,24.5,9.4,7.7,23.4,13.6,16.3,24.1-7.1,10.5-18.7-.8-21.7-2.8-3-2-14.9-11.7-21.2-2.4-3.9,5.7-.4,12-.4,12,0,0,2.7,3,4.3.4,1.6-2.6-2.2-.6-.6-3.8Z"/>
  <g>
    <path class="st0" d="M518,393.2c1-.3,1.9-.7,2.9-.9.8-.2,1.3.2,1.5,1.1,0,.2,0,.4,0,.6-.3,2.9-1.3,5.5-3.9,7.1-.7.4-1.7.7-2.6.8-1.1.1-2.2,0-3.3,0-.7,0-.9-.6-.5-1.1.5-.7,1-1.5,1.4-2.2,1.1-2.1,2.5-3.8,4.4-5.2Z"/>
    <path class="st0" d="M516.1,399c.5-.4.9-.9,1.4-1.3,3.6-3.3,5.9-7.4,7.3-12.1.7-2.3,1.3-4.7,1.4-7.2,0-1.4,0-2.8-.3-4.1,0-.1,0-.2,0-.3,0-.3,0-.6,0-.9.2.2.4.4.6.7.8,1.6.9,3.4.7,5.1-.5,5-1.8,9.8-4.6,14.2-1.4,2.3-3.3,4-5.4,5.6-.3.2-.6.3-.9.5,0,0,0-.2-.1-.2Z"/>
  </g>
  <g>
    <path class="st5" d="M472.4,375.5c.6-1.7,1.2-3.5,1.9-5.2,1.7-4,3.7-7.7,6.5-11.1,1.3-1.5,2.7-2.7,4.5-3.5.7-.3,1.4-.4,2.1-.4,1.5,0,2.3,1.1,1.9,2.6-.3,1.2-1.1,2-2,2.7-2.9,2.2-5.6,4.6-8.1,7.2-1.4,1.4-2.5,3.1-3.5,4.8-1.7,2.9-3,6-4,9.1-.1.4-.2.8-.3,1.2,0,.1-.1.2-.2.3-.1,0-.2-.2-.3-.3-.4-.4-.4-1-.5-1.5-.5-2-1-4-1-6.1,0-.8,0-1.7.3-2.5.1-.5.5-.9.9-1.3.4-.4,1.1-.3,1.3.2.2.4.4.9.4,1.4,0,.7,0,1.4,0,2.1,0,0,0,0,0,0Z"/>
    <path class="st5" d="M511.5,353.3c.9,1.3,1.2,2.6.7,4.1-.5,1.6-1.6,2.7-2.8,3.8-.5.4-1,.8-1.5,1.2-.1,0-.4.2-.5,0-.1,0-.2-.3-.2-.5,0-1.3,0-2.6,0-3.9,0-1.6.8-2.9,1.8-4.1.3-.4.5-.8.8-1.2.2-.4.5-.6.9-.2.3.3.6.6.8.8Z"/>
    <path class="st5" d="M488.5,349c.3,0,.7-.2,1-.2,2.2-.5,4.3-.2,6.2.9,1.6.9,2.5,2.3,2.9,4.1.4,1.6-.4,3.3-1.7,4-.8.4-2.2-.2-2.4-1.1,0-.1,0-.3,0-.5.3.3.5.4.7.6.6.5,1,.5,1.7,0,1.1-.9,1.4-2.5.7-4-.6-1.4-1.7-2.3-3.1-2.8-2.7-1-5.3-.7-7.9.5-2.1,1-3.6,2.7-5,4.3-4.3,4.8-6.8,10.5-8.4,16.6-.9,3.5-1.5,7-1.7,10.6,0,.6-.1,1.3-.2,1.9,0,0-.1,0-.2,0,0-.2-.1-.3-.1-.5,0-1.1,0-2.2,0-3.3.5-6.2,1.8-12.2,4.5-17.9,1.9-3.9,4.4-7.4,7.6-10.4,3.9-3.7,8.4-6.1,13.9-6.6,3.6-.3,7.1.3,10.1,2.4,1.5,1,2.7,2.3,3.3,4,.8,2.4.5,4.6-.9,6.7,0,0-.1.2-.2.2-.1,0-.3,0-.4.1,0-.1-.2-.3-.1-.4.2-.4.4-.9.6-1.3.7-1.9,1-3.8,0-5.6-.5-1.1-1.3-2-2.3-2.7-2.6-2-5.5-2.7-8.7-2.6-3.6.1-6.9,1.2-9.9,3.1Z"/>
  </g>
  <g>
    <path class="st0" d="M442.9,345.6c-.1-.3-.2-.5-.4-.8-1.3-2-2.1.5-3.2,0-.5-.2-.9-.8-1.4-1-1.3-.8-2.4,1-3.8.7,1-.4,1.8-1.1,2.4-2.1.3-.4.5-.9,1-.8.5,0,1,.7,1.5.9.7.2,1.2-.5,1.4-1.3.2-.7.2-1.6.7-2.1.5-.5,1.4-.4,2,.2.4.5.7,1.2,1.1,1.7.4.6,1,1.1,1.5.8,0-.8-.6-1.5-.9-2.3-.7-1.7,1.3-4.3,2.8-2.5.3.4,1,.8,1.3.3,0-.2,0-.3,0-.5-.1-.6-.5-1.2-.9-1.6-.2-.2-.5-.4-.7-.6-.3-.5-.2-1.2.2-1.7.3-.5.8-.9,1.1-1.5.5-.9.4-2.1-.2-2.9.6.7,1.2,1.4,1.8,2,.4.4.7.9.7,1.4,0,.4-.4.8-.3,1.3.2.6,1,.6,1.5,1.1.4.4.4,1,.5,1.6,0,.2.2.4.4.4.2,0,.3-.3.4-.5.2-.6.9-.8,1.5-.8.6,0,1.2.3,1.7.6.6.3,1.2.6,1.4,1.2.3.6,0,1.4-.2,2-.3.6-.8,1.2-1,1.9,0,.3,0,.6.2.7,0,0,.2,0,.2,0,.9-.4,1.5-.9,2.4-.6.5.1,1.8,1.7,2.2,1.4.5,0,.8-.6,1.1-1.1.3-.5.7-1,1.2-.7.2.1.4.4.7.5.2.1.4.1.6,0,.8,0,1.6,0,2.3,0-1.1,0-1.7,1.3-2.8,1.2-.2,0-.4,0-.5,0-.5,0-.7.6-1,1-.2.5-.5,1-.7,1.5-.6,1.2-1.7.5-2.6,1-1.6.7-.8,3.7-2.6,4.4-.8.3-1.7.1-2.5-.5-.1-.1-.3-.2-.4-.2-.2,0-.4,0-.5.2-1,1.1-.7,2.2-.5,3.5.3,2.6.1,7.1-2,12.8-1,2.8-3.5,6.8-2.3,4.1,1.4-3,4.1-10.9.9-19.6-.3-.7-.8-1.4-1.5-1.8-1.2-.6-1.4.1-2.4.5-.8.3-1.9-.3-2.5-1.2-.4-.6-.5-1.3-.8-1.9Z"/>
    <path class="st0" d="M452.5,341.1c0-1.3,0-3.2-1.1-4.2-2-1.9-1.1,2.3-.9,3.2.3,1.4.4,4.6,1.6,5.6,0,0,.2.1.3,0,0,0,0-.1.1-.2.3-1.4.2-3.1,0-4.5ZM451.1,345.2c-.4-1-.7-2-1.1-3-.4-1.2-1.3-3.9-3-3.7-1.9.2.4,2.8.9,3.4.4.5.9,1,1.3,1.6.2.4.3.9.6,1.3.2.4.5.8.9,1,0,0,.2,0,.3,0,.2,0,.2-.4,0-.6ZM456.1,339.4c.3-.4.6-.8.6-1.2,0-.6-.7-1.2-1.3-1.2-.3,0-.5.2-.7.4-.2.3-.3.7-.5,1.1-.7,1.9-.9,3.7-1,5.7,0,.4,0,1,.4,1.2,0,0,0,0,.1,0,.2,0,.2-.2.3-.3.4-2,.8-4.1,2.1-5.7ZM459,344.4c.3-.2.6-.4.9-.5.8-.3,1.2-.6.6-1.3-.6-.7-1.6-.7-2.4-.2-.1,0-.3.2-.4.3-.5.6-.6,1.3-.8,2-.2.7-.4,1.4-.8,2-.3.4-1,0-1.2.5-.2.5.5.7.8.8,1.3,0,1.8-1.5,2.3-2.4.2-.4.4-.8.8-1.1ZM445.5,345.3c0-.2-.2-.4-.2-.5,0-.2-.2-.4-.3-.7-.3-.8-.9-1.9-1.4-2.3-1-.7-2.9.1-1.7,1.3.3.3.8.5,1.1.7.6.5.9,1.2,1.2,1.8.4.7,1.8,2.1,2.7,1.3,1-.9-1.2-.9-1.5-1.6ZM453.1,358.7c.2-1.2.4-2.3.4-3.5,0-.7-.2-1.3-.2-1.9,0-.6,0-1.1-.3-1.7,0-.2-.3-.3-.4-.3,0,0,0,.1,0,.2,0,.2,0,.5,0,.7.1.8.2,1.6.2,2.5,0,1.3.2,2.6,0,3.9,0,.3,0,.6,0,.9.2-.1.3-.5.4-.8Z"/>
    <path class="st0" d="M459.3,343.2c.2,0,.4-.1.5-.2.2,0,.3-.2.4-.4-.2-.1-.5-.1-.8,0-.3.1-.7.4-.9.6-.4.4-.6,1-.9,1.5-.2.5-.4,1.1-.8,1.6-.3.5-.8.8-1.4,1,0,.1.2.2.4.1,1-.3,1.5-1.2,1.9-2.1.3-.7.7-1.8,1.5-2.1ZM453.9,343.7c.1-1.2.3-2.3.7-3.4.3-.7.6-1.4.9-2.1.1-.3.3-.6.2-.9-.5.2-.6.7-.9,1.1-.3.5-.4,1-.6,1.5-.3.9-.4,1.8-.5,2.7,0,.7-.2,1.3-.3,2,0,.1,0,.3.1.3.2-.4.2-.8.3-1.2ZM452.2,344.4c0-1.8-.7-3.5-.9-5.3,0-.3,0-1.9-.5-2.1-.5-.1,0,1.8,0,2.1.2,1,.3,2.1.5,3.1,0,.5.2,1,.3,1.5,0,.2.4,1.4.3,1.5.2-.2.2-.5.2-.8ZM447.5,339.3c-.1-.1-.2-.2-.4-.3-.4-.2-.5,0-.2.3,1.6,1.3,2.5,3.3,3.3,5.3,0,.2.2.5.5.5-.5-2.2-1.5-4.2-3.1-5.8ZM446.5,346.3c-.7-.2-1.2-.8-1.5-1.4-.4-.6-.6-1.3-1-1.8-.4-.5-1.1-1.1-1.8-1,0,0,0,0,0,0,0,0,0,.1,0,.2.3.2.6.3.9.5.3.2.5.5.7.8.5.8,1,1.5,1.6,2.3.3.4.8.9,1.3.8,0,0,0,0,.1,0,0,0,0-.2-.2-.2ZM453.2,356.6c0-.6,0-1.2,0-1.7,0-1,0-2.2-.5-3.1,0,0-.1.1,0,.2,0,.5.2,1,.3,1.5,0,.5.1,1,.1,1.5,0,1,0,2.1-.2,3.1,0,.1,0,.3.1.3.1,0,.2-1.6.2-1.7Z"/>
    <path class="st0" d="M459.4,342.9c0-.2-.3-.3-.5-.2-.2,0-.3.3-.2.5,0,.2.3.3.5.2.2,0,.3-.3.2-.5ZM453.7,343.8c0,0-.1.1,0,.2,0,0,.1.1.2,0,0,0,.1-.1,0-.2,0,0-.1-.1-.2,0ZM451.9,343.5c0,0-.1.1,0,.2,0,0,.1.1.2,0,0,0,.1-.1,0-.2,0,0-.1-.1-.2,0ZM449.9,343.7c0,0-.1.1,0,.2,0,0,.1.1.2,0,0,0,.1-.1,0-.2,0,0-.1-.1-.2,0ZM445.9,345.8c0,0-.1.1,0,.2,0,0,.1.1.2,0,0,0,.1-.1,0-.2,0,0-.1-.1-.2,0ZM456.6,347c0,0-.1-.1-.2,0,0,0-.1.1,0,.2,0,0,.1.1.2,0,0,0,.1-.1,0-.2ZM443.9,342.5c0-.2-.3-.3-.5-.2-.2,0-.3.3-.2.5,0,.2.3.3.5.2.2,0,.3-.3.2-.5ZM448.1,339.8c0-.2-.3-.3-.5-.2-.2,0-.3.3-.2.5,0,.2.3.3.5.2.2,0,.3-.3.2-.5ZM451.5,338.4c0-.2-.3-.3-.5-.2-.2,0-.3.3-.2.5,0,.2.3.3.5.2.2,0,.3-.3.2-.5ZM455.4,338.6c0-.2-.3-.3-.5-.2-.2,0-.3.3-.2.5,0,.2.3.3.5.2.2,0,.3-.3.2-.5ZM457.9,345.1c0-.1-.2-.2-.3-.1-.1,0-.2.2-.1.3,0,.1.2.2.3.1.1,0,.2-.2.1-.3ZM454.3,341.1c0-.1-.2-.2-.3-.1-.1,0-.2.2-.1.3s.2.2.3.1c.1,0,.2-.2.1-.3ZM451.6,341c0-.1-.2-.2-.3-.1-.1,0-.2.2-.1.3,0,.1.2.2.3.1.1,0,.2-.2.1-.3ZM445,344.4c0-.1-.2-.2-.3-.1-.1,0-.2.2-.1.3,0,.1.2.2.3.1.1,0,.2-.2.1-.3ZM449.2,341.8c0-.1-.2-.2-.3-.1-.1,0-.2.2-.1.3,0,.1.2.2.3.1.1,0,.2-.2.1-.3Z"/>
    <path class="st0" d="M451.6,365.5c.7-2,1.2-3.8,1.6-5.5-1.7,1.6-.2-3.5-1.4-8.3-.3-1.1.7-2.4,1.6-.8,0-.6.2-1.2.7-1.7.1-.1.3-.3.5-.2.1,0,.3.1.4.2.8.6,1.7.8,2.5.5,1.9-.7,1-3.6,2.6-4.4.9-.4,2,.2,2.6-1l.7-1.5c.2-.5.5-1,1-1,.2,0,.3,0,.5,0,1.1,0,1.7-1.3,2.8-1.2-.8,0-1.6,0-2.3,0-.2,0-.4,0-.6,0-.2-.1-.4-.4-.7-.5-.5-.3-1,.2-1.2.7-.3.5-.5,1.1-1.1,1.1-.4.3-1.8-1.3-2.2-1.4-.9-.3-1.5.2-2.4.6,0,0-.2,0-.2,0-.3,0-.3-.4-.2-.7.2-.7.6-1.3,1-1.9.3-.6.5-1.4.2-2-.3-.6-.9-.9-1.4-1.2-.5-.3-1.1-.5-1.7-.6-.6,0-1.3.2-1.5.8,0,.2-.2.5-.4.5-.2,0-.3-.2-.4-.4-.1-.5-.1-1.2-.5-1.6-.5-.4-1.3-.5-1.5-1.1-.1-.4.3-.8.3-1.3,0-.5-.3-1-.7-1.4-.6-.7-1.2-1.4-1.8-2,.6.8.6,2,.2,2.9-.3.5-.8,1-1.1,1.5-.3.5-.5,1.2-.2,1.7.2.3.5.4.7.6.5.4.8,1,.9,1.6,0,.2,0,.4,0,.5-.3.5-1,0-1.3-.3-1.4-1.8-3.4.8-2.8,2.5.3.8.9,1.5.9,2.3-.4.3-1.1-.2-1.5-.8-.4-.6-.6-1.3-1.1-1.7-.6-.7-1.5-.8-2-.2-.5.5-.5,1.4-.7,2.1-.2.7-.7,1.5-1.4,1.3-.5-.2-1-.9-1.5-.9-.5,0-.7.4-1,.8-.6.9-1.4,1.7-2.4,2.1,1.4.3,2.5-1.5,3.8-.7.5.3.9.9,1.4,1,1.2.4,2-2,3.2,0,.2.2.3.5.4.8.3.6.4,1.3.8,1.9.6,1,1.7,1.5,2.5,1.2,1.1-.4,1.2-1.1,2.4-.5.7.3,1.3,1.1,1.5,1.8,3.2,8.8.5,16.6-.9,19.6-1.2,2.7,1.3-1.4,2.3-4.1ZM453.5,348.5s0,0-.1.1c0,0-.1.2-.2.3-.6.8-1.8.4-2.5-.2-.7-.6-1.4-1.5-2.3-1.6-1.1-.1-2.2.8-3.2.4-1.3-.5-1.2-2.4-2.3-3.3-.7-.6-2.2-1.2-2.1-2.3,0-.6.3-1.1.7-1.5,1.7-1.3,2.7,1.9,4,2.4,2.1.7-.3-4.2-.1-4.6.2-.4.5-.6.9-.7.2,0,.4-.2.6-.2.3,0,.5.3.7.5.3.2.6.4.9.5.2,0,.4,0,.5,0,.1,0,.2-.2.2-.4.2-.8,0-1.8.1-2.5,0-.3.3-.5.5-.6.2,0,.4,0,.6,0,1.3.2,1.5,1.3,1.7,2.3,0,.2,0,.3.2.4.3.3.8,0,1-.5.2-.4.2-.9.5-1.2.4-.5,1.1-.4,1.7-.3.6.2,1.3.4,1.6,1,.6.9,0,2.1-.7,3-.4.7-1.6,2.7,0,2.9.3,0,.6-.1.8-.3.4-.5.3-.9,1.1-1.1.5-.1,1.1,0,1.6.3.7.3,1.2.9,1.7,1.5.2.2.4.5.4.8,0,.6-.9.6-1.5.7-.7,0-1.3.5-1.7,1.1-.4.6-.5,1.3-.8,1.9-.3.6-.8,1.3-1.5,1.3-.5,0-1-.3-1.5-.5-.5-.2-1.1-.3-1.5.1ZM451.9,347.5c.2-.1.3,0,.6,0,.2,0,.5.1.6,0-.3-.5-1.9-1.3-2.7-1.1-.1,0-.2,0-.3.1-.1.1-.1.4,0,.6.3.7,1,1.2,1.7,1.5.3.2.6.3.8,0,.4-.5-.4-.8-.6-1.1Z"/>
  </g>
  <g>
    <path class="st3" d="M447.8,318.4c-1.7,1-3.5,1.5-5.4,1.6-1.9,0-3.8-.2-5.6-.4-.3,0-.6-.4-.9-.7.2-.3.4-.6.7-.8,2.3-1.2,4.4-2.7,6.5-4.4,1.1-.9,2.2-1.7,3.4-2.4,2-1.2,4.3-1.3,6.5-1.1.5,0,1,0,1.5,0,.2,0,.5.1.6.3,0,.1,0,.4-.1.6-.2.3-.6.5-.8.8-1,1.1-2,2.2-2.9,3.3-1,1.2-2,2.5-3.4,3.3Z"/>
    <path class="st3" d="M459.3,322.6c2.8-1.7,5.4-1.7,8.1-1.2.7.1,1.4.4,2,.6.4.1.7.3,0,.7-.7.5-1.3,1.1-1.8,1.8-1.4,1.6-3.2,2.2-5.2,2.4-1.5.1-3,.4-4.5.7-.3,0-.6.4-1,.4-.2,0-.6,0-.8,0-.2-.2-.3-.6-.2-.8.8-2,1.8-3.8,3.3-4.6Z"/>
    <path class="st3" d="M451.9,372.1c-.2-.3-.4-.5-.5-.8-.7-2.8-.6-5.6.2-8.4,1.4-5.1,4.1-9.4,7.7-13.1,3.6-3.7,7.4-7.2,11-10.8,1.3-1.3,2.6-2.8,3.8-4.3,1.2-1.4,2-3.1,2.3-4.9.1-.6,0-1.4-.3-2-1.4-2.8-5.1-5.6-9.5-4.8-2.3.4-4.4,1-6.6,1.9-.2,0-.4.1-.6.2,0,0,0-.1-.1-.2.2-.2.4-.4.6-.5,2-.7,4-1.5,6-2,4.4-1.1,8.2.5,10.7,4.3,0,0,.1.1.3.4,0-.4,0-.6,0-.9,0-2-.4-3.8-1.4-5.6-2.3-4.2-5.4-7.5-9.9-9.3-.8-.3-1.7-.6-2.6-.6-4.2-.4-8.2,0-12,2-1.8,1-3.6,1.9-5.4,2.9-.3.1-.6.2-.9.3,0,0,0-.1-.1-.2.2-.2.3-.4.5-.5,3-1.9,6-4,9.6-4.8,3.9-.9,7.9-1.2,11.9.2,3,1.1,5.3,3.1,7.3,5.4,1.5,1.7,2.7,3.6,3.6,5.7,1.2,2.8,1.2,5.6.4,8.5-.1.3-.2.7-.2,1.1.1-.2.2-.4.3-.6,2.5-6,2.8-12.1.3-18.2-1.6-3.9-4.4-6.8-8-8.8-7.4-4.3-15.3-4.6-23.4-2.4-2.6.7-5.1,1.7-7.3,3.2-4.4,3.1-7.9,6.9-8.9,12.5-.5,2.8-.1,5.4.7,8,0,0,0,0,0,.1-.6.2-.9.1-1-.5-.6-2-1.2-4.1-.9-6.3.5-5,2.8-9,6.5-12.4,4.2-3.8,9.2-5.7,14.6-6.5,7.1-1.1,13.9-.3,20.2,3.3,6.6,3.7,10,9.4,10.4,16.9.4,8.4-3.1,15.1-9.1,20.7-2.5,2.3-5.4,4.2-8,6.4-5.4,4.6-9.8,9.9-11.8,16.8-.8,2.6-.7,5.3-.3,8,0,.2,0,.4,0,.6,0,0-.2,0-.3.1Z"/>
  </g>
  <g>
    <path class="st6" d="M517,321.3s-10.3-2.9-14.8,1.9c-2.3,2.5-.1,3.9-.1,3.9,0,0,1.7,2,3.6-.5,1.6-2.1-.8-3.1-1.1-3.1-.3,0,0,0,0,0,0,0,1.7-2.4,12.4-2.2Z"/>
    <path class="st6" d="M518.7,319.9s-17.6-6.4-28.6,2.9c0,0-3.8,2.6-2.2,4.7,0,0,2.8-2.6,4.8-.2,2.1,2.4-.8,4.6-.8,4.6,0,0-3,2.2-5.1-.3-2.1-2.4-3.8-6.5,2.6-11.3,6.4-4.8,22.3-5.5,29.1-.5Z"/>
  </g>
  <g>
    <path class="st6" d="M529.3,391.5s9.9-4,10.5-10.6c.3-3.4-2.3-3.2-2.3-3.2,0,0-2.6-.5-2.5,2.7,0,2.7,2.5,2,2.8,1.8.2-.2,0,0,0,0,0,0,.1,3-8.4,9.4Z"/>
    <path class="st6" d="M528.8,393.6s17.9-5.7,20.8-19.8c0,0,1.4-4.4-1.1-5,0,0-.6,3.7-3.7,3.1-3.1-.6-2.2-4.1-2.2-4.1,0,0,1-3.6,4.2-2.9,3.1.6,7,2.8,4.9,10.5-2.1,7.7-14.2,18-22.7,18.2Z"/>
  </g>
  <g>
    <path class="st0" d="M482.5,222.5c0,2.9-.9,5.7-2.2,8.3-.5.9-.9,1.9-1.3,2.8-.1.3-.5.4-.7.6-.2-.2-.5-.5-.6-.7-.3-2.7-1.1-5.2-2.2-7.6-.6-1.5-.6-3.1,0-4.6.4-1.2,1-2.3,1.5-3.4.5-1.2,1.1-2.4,1.7-3.6.4-.9.9-1,1.4-.2.7,1,1.2,2.1,1.7,3.3.6,1.6.8,3.4.8,5.1Z"/>
    <path class="st0" d="M359.1,206.6c.2-1.4.3-2.7.6-4.1.4-1.8,1.5-3.2,3.3-3.9,1.3-.6,2.8-.9,4.2-1.2.7-.2,1.2.4.9,1.1-.6,1.6-1.1,3.2-1.7,4.7-.6,1.4-1.6,2.5-2.8,3.4-.5.3-1.1.6-1.5,1-.5.5-.9,1.2-1.4,1.7-.2.3-.5.6-.8.6-.5,0-.6-.4-.6-.8,0-.8,0-1.7,0-2.5,0,0,0,0-.1,0Z"/>
    <path class="st0" d="M392.6,232.5c.3-1.3.6-2.5.8-3.8.4-2.3.8-4.7,1-7,.2-2.3.2-4.7.1-7-.2-4.1-1.1-8-3.3-11.6-2.6-4.2-6.3-6.7-11.2-7.7-3.8-.8-7.4-.3-10.9,1.3-2.3,1.1-4,3-5.4,5.2-.1.2-.2.4-.3.6,0,0-.1,0-.2-.1.2-.3.3-.7.5-1,2.5-4.1,6-6.6,10.8-7.1,5.5-.6,10.6.7,14.7,4.6,2.9,2.8,4.7,6.2,5.5,10.2.4,2.1.6,4.4.7,6.5,0,2.8-.2,5.6-.4,8.4,0-.1.2-.2.2-.3,3.8-8.2,9.5-15,16.5-20.7,6.4-5.3,13.6-9.2,21.6-11.4,4.9-1.4,9.9-1.8,15-1.3,8.4.8,15.8,4.1,22.3,9.5,2.2,1.8,4.2,3.9,5.9,6.2,2.1,2.9,3.5,6.1,4,9.6.4,2.9.4,5.8,0,8.7-.1.7-.2,1.4-.3,2.1,0,.2-.1.4-.2.6,0,0-.1,0-.2,0,0-.8.2-1.5.2-2.3,0-2,.2-4,0-6-.2-1.9-.5-3.9-1-5.7-1.5-4.7-4.6-8.5-8.2-11.7-5.3-4.8-11.4-7.9-18.4-9.3-3.4-.7-6.8-.8-10.2-.6-4.2.3-8.2,1.1-12.1,2.5-.2,0-.5.2-.7.3,1.5,0,2.9-.2,4.3-.2,3.2,0,5.9,1.3,8,3.6,1.8,2,2.6,4.3,1.6,6.9-.9,2.6-2.7,4.3-5.5,4.8-1.9.4-3.6-.1-5-1.4-1.8-1.6-1.9-3.9-.9-6.1.9-1.9,2.9-2.8,5-2.4.4,0,.8,0,1.1.2.2,0,.3.3.5.4-.2.1-.4.3-.6.3-.6,0-1.3,0-1.9,0-2,0-3.4,1-3.9,2.8-.6,2.1.1,3.8,1.9,4.8,1.9,1.1,4.2.9,5.9-.5,2.6-2.1,3.5-5.1,1.3-8.1-1.9-2.6-4.5-4.1-7.7-4.3-2.6-.2-5.2.1-7.8.7-2.1.5-4,1.7-5.9,2.8-8,4.8-14.8,10.9-20,18.6-1.9,2.9-3.7,5.9-5,9.1-.5,1.3-.7,2.8-1.1,4.2,0,.3,0,.7-.5.8,0,0-.1.2-.2.4-.1.3-.3.5-.4.8,0,0-.1,0-.2,0Z"/>
  </g>
  <g>
    <path class="st2" d="M540.8,204.9s-11.9-1.3-14.6-8.2c-1.4-3.6,1.5-4.1,1.5-4.1,0,0,2.6-1.3,3.5,2.1.8,2.9-2.1,2.9-2.4,2.7-.3-.2,0,0,0,0,0,0,.8,3.3,12,7.5Z"/>
    <path class="st2" d="M542,206.9s-21-.7-28.4-15c0,0-2.8-4.3-.3-5.7,0,0,1.8,3.9,5,2.2,3.2-1.7,1.1-5.1,1.1-5.1,0,0-2.2-3.5-5.4-1.9-3.2,1.7-6.6,5.2-2,12.8,4.6,7.7,20.8,15.1,30.1,12.7Z"/>
    <path class="st2" d="M534.6,210.7s-7.3-2.8-11.9-.2c-2.5,1.4.1,2.4.1,2.4,0,0,1.8-1.1,3,1.4s-1.3,3.5-2.6,4c-1.3.6-4,.6-5-3.3-1-3.9,2.2-5.5,4.6-6.5,2.5-.9,7.5-1.1,11.7,2.2Z"/>
  </g>
  <path class="st0" d="M424.3,336.5c-.1-.2-.2-.4-.3-.6-1.1-2-2.4-3.9-3.9-5.6-.7-.9-1.4-1.9-2-2.9-.7-1.3-.3-2.6.8-3.3.9-.6,1.9-.5,2.8,0,1.5.8,2.7,2,3.5,3.4,1.3,2.3,1.9,4.7,2,7.4,0,1.2,0,2.5,0,3.8,0,1.1.2,2.3.2,3.4,0,.7-.1,1.4-.2,2.2,0,.3,0,.6,0,1,0,.5,0,1.1,0,1.6,0,.2-.3.3-.4.5-.1-.1-.3-.3-.4-.5-.1-.2-.2-.5-.2-.7-1.1-4.6-3.9-7.5-8.5-8.6-2-.5-4.2-.6-6.3-1-.8-.1-1.5-.3-2.2-.7-1.5-.7-2.2-2-2.1-3.6.1-1.6.9-2.9,2.5-3.5,1.8-.7,3.7-.6,5.4,0,3.1,1.1,5.6,3.2,7.6,5.7.5.7,1,1.3,1.5,2,0,0,0,0,0,0Z"/>
  <g>
    <path class="st0" d="M415.2,235c-1.6.7-3.3,1-5,.8-1.7-.2-3.3-.6-5-1-.3,0-.5-.5-.7-.7.2-.2.5-.5.7-.6,2.2-.8,4.3-1.9,6.3-3.2,1.1-.7,2.2-1.3,3.3-1.8,1.9-.8,4-.7,6-.3.4,0,.9,0,1.3.2.2,0,.4.2.5.3,0,.1,0,.4-.2.5-.3.2-.6.4-.8.6-1,.9-2.1,1.7-3,2.6-1,1-2.1,2-3.4,2.5Z"/>
    <path class="st0" d="M425,240.1c2.7-1.2,5.1-.9,7.4-.1.6.2,1.2.5,1.7.8.3.2.5.4,0,.7-.7.3-1.3.9-1.9,1.4-1.4,1.3-3.1,1.6-5,1.5-1.4,0-2.7,0-4.1,0-.3,0-.6.2-.9.3-.2,0-.6,0-.7-.1-.1-.2-.2-.6,0-.8.9-1.7,2-3.2,3.5-3.8Z"/>
    <path class="st0" d="M412.6,283.5c-.1-.3-.3-.5-.4-.8-.3-2.6.1-5.1,1.1-7.5,1.8-4.4,4.7-8,8.5-10.9,3.7-2.9,7.5-5.6,11.1-8.4,1.4-1,2.6-2.2,3.9-3.4,1.2-1.1,2.1-2.6,2.7-4.2.2-.5.1-1.3,0-1.8-.9-2.7-3.9-5.6-8-5.4-2.1,0-4.1.4-6.1.9-.2,0-.4,0-.6,0,0,0,0-.1,0-.2.2-.1.4-.3.6-.4,1.9-.4,3.7-.9,5.6-1.1,4.1-.4,7.3,1.4,9.1,5.1,0,0,0,.1.2.4,0-.3.1-.6.1-.8.2-1.8,0-3.5-.6-5.2-1.5-4-3.9-7.4-7.8-9.5-.7-.4-1.5-.7-2.3-.9-3.7-.8-7.3-1-10.9.4-1.7.7-3.4,1.3-5.1,2-.3,0-.5.1-.8.2,0,0,0-.1-.1-.2.2-.1.3-.3.5-.4,2.9-1.3,5.9-2.9,9.1-3.2,3.6-.4,7.2-.1,10.6,1.6,2.5,1.3,4.4,3.3,5.9,5.7,1.1,1.7,2,3.5,2.6,5.5.7,2.6.5,5.2-.6,7.7-.1.3-.3.6-.3,1,.1-.2.2-.3.3-.5,3-5.1,3.9-10.5,2.4-16.3-1-3.7-3.1-6.6-6.1-8.8-6.1-4.7-13.1-5.9-20.6-4.8-2.4.3-4.8.9-6.9,2-4.3,2.3-7.9,5.3-9.4,10.2-.8,2.4-.7,4.8-.3,7.3,0,0,0,0,0,.1-.5.1-.8,0-.9-.6-.3-1.9-.6-3.8-.1-5.7,1.1-4.4,3.6-7.8,7.3-10.3,4.2-2.9,8.9-4,13.9-4.1,6.5-.1,12.5,1.4,17.7,5.3,5.5,4.1,7.9,9.6,7.3,16.3-.6,7.5-4.5,13.2-10.6,17.4-2.5,1.8-5.4,3.1-7.9,4.8-5.3,3.5-9.9,7.7-12.5,13.7-1,2.3-1.2,4.7-1.2,7.2,0,.2,0,.4,0,.5,0,0-.2,0-.2,0Z"/>
  </g>
  <g>
    <path class="st0" d="M546,240.7c1.7.5,3.4.6,5.1.2,1.7-.4,3.3-1,4.9-1.5.3,0,.4-.5.6-.8-.3-.2-.5-.4-.8-.5-2.3-.6-4.5-1.4-6.6-2.5-1.1-.5-2.3-1-3.5-1.4-2-.6-4-.3-6,.4-.4.1-.9.2-1.3.3-.2,0-.4.2-.5.4,0,.1.1.4.2.5.3.2.6.3.9.5,1.1.7,2.2,1.5,3.3,2.3,1.1.9,2.3,1.7,3.7,2.2Z"/>
    <path class="st0" d="M536.8,246.8c-2.8-.9-5.1-.4-7.4.7-.6.3-1.1.6-1.7,1-.3.2-.5.4.1.7.7.3,1.4.7,2,1.2,1.6,1.1,3.3,1.3,5.1,1,1.3-.2,2.7-.3,4.1-.4.3,0,.6.2.9.2.2,0,.6,0,.7-.2.1-.2.1-.6,0-.8-1.1-1.5-2.3-2.9-3.9-3.4Z"/>
    <path class="st0" d="M553.8,288.7c0-.3.3-.6.3-.9,0-2.6-.7-5.1-1.9-7.4-2.3-4.2-5.6-7.4-9.6-9.9-4-2.4-8-4.8-12-7.2-1.5-.9-2.9-1.9-4.2-3-1.4-1-2.4-2.3-3.1-3.9-.2-.5-.2-1.2-.1-1.8.6-2.7,3.3-6,7.3-6.2,2.1-.1,4.1,0,6.2.3.2,0,.4,0,.6,0,0,0,0-.1,0-.2-.2-.1-.4-.3-.6-.3-1.9-.2-3.8-.5-5.7-.5-4.1,0-7.1,2.2-8.5,6.1,0,0,0,.1-.2.4-.1-.3-.2-.5-.2-.8-.4-1.7-.4-3.5,0-5.2,1.1-4.2,3.1-7.8,6.7-10.3.7-.5,1.4-.9,2.2-1.1,3.6-1.2,7.2-1.8,10.9-.8,1.8.5,3.5.9,5.3,1.4.3,0,.6,0,.8.1,0,0,0-.1,0-.2-.2-.1-.3-.3-.5-.3-3.1-1-6.1-2.2-9.4-2.2-3.7,0-7.2.7-10.4,2.7-2.4,1.6-4,3.8-5.3,6.3-1,1.8-1.6,3.7-2,5.7-.4,2.7,0,5.2,1.4,7.5.2.3.3.6.4.9-.1-.1-.3-.3-.4-.4-3.5-4.7-5-10-4.1-15.9.6-3.8,2.4-6.9,5.1-9.4,5.6-5.3,12.4-7.3,20-7,2.4,0,4.8.4,7.1,1.3,4.6,1.8,8.4,4.4,10.4,9.1,1,2.3,1.2,4.7,1.1,7.2,0,0,0,0,0,.1.5,0,.8,0,.8-.7.1-1.9.2-3.8-.5-5.7-1.5-4.3-4.4-7.3-8.3-9.5-4.5-2.4-9.3-3.1-14.2-2.6-6.4.5-12.2,2.7-17,7.2-5,4.6-6.8,10.3-5.6,17,1.4,7.4,5.9,12.6,12.4,16.2,2.7,1.5,5.7,2.5,8.4,3.9,5.7,2.9,10.7,6.6,13.9,12.3,1.2,2.2,1.7,4.5,2,7,0,.2,0,.4,0,.5,0,0,.2,0,.3,0Z"/>
  </g>
  <g>
    <path class="st0" d="M444.8,287.8c2.3-.7,4.6-1.6,6.9-2.2,5.5-1.6,11-2.5,16.7-2.3,2.5,0,5,.5,7.3,1.8.8.5,1.6,1.1,2.2,1.8,1.3,1.5.7,3.3-1.1,4.1-1.4.6-2.9.5-4.4.1-4.6-1.2-9.3-2-14.1-2.5-2.6-.3-5.3,0-7.9.3-4.3.7-8.6,1.8-12.7,3.4-.5.2-1,.5-1.5.7-.1,0-.3,0-.5,0,0-.2,0-.4,0-.5.1-.7.7-1.2,1.1-1.7,1.6-2.2,3.4-4.3,5.4-6.1.8-.7,1.8-1.3,2.8-1.8.6-.3,1.3-.2,2-.1.8.1,1.2.8.9,1.6-.3.6-.7,1.2-1.1,1.6-.7.6-1.5,1.1-2.2,1.7,0,0,0,0,0,0Z"/>
    <path class="st0" d="M499.6,309.8c-.7,2-1.8,3.4-3.6,4-2,.8-4.1.6-6.2.2-.8-.1-1.6-.3-2.5-.5-.2,0-.5-.3-.5-.5,0-.2.1-.5.3-.6,1.3-1.1,2.7-2.1,4-3.1,1.7-1.3,3.6-1.5,5.6-1.5.6,0,1.3-.1,1.9-.2.6-.1,1,0,1,.8,0,.6,0,1.1-.1,1.5Z"/>
    <path class="st0" d="M485.1,282.7c.4.3.7.6,1.1.9,2.3,1.9,3.7,4.2,4.2,7.1.4,2.4-.3,4.5-1.8,6.3-1.3,1.7-3.7,2.3-5.6,1.5-1.1-.5-1.6-2.4-.8-3.3.1-.1.3-.2.6-.3,0,.5,0,.8,0,1.2,0,1.1.3,1.5,1.4,1.7,1.9.4,3.7-.6,4.6-2.6.9-1.8,1-3.6.4-5.5-1.1-3.6-3.6-6.1-7-7.8-2.7-1.3-5.6-1.5-8.6-1.6-8.4-.5-16.3,1.6-23.9,5.1-4.3,2-8.4,4.2-12.3,7-.7.5-1.4.9-2.1,1.3,0,0-.1-.1-.2-.2.1-.2.2-.4.4-.6,1.1-.9,2.2-1.9,3.4-2.7,6.8-4.6,14.1-8.1,22.1-10,5.6-1.3,11.2-1.5,16.9-.7,7,1,13.2,3.6,18.2,8.8,3.3,3.5,5.5,7.5,5.8,12.4.2,2.3-.1,4.6-1.4,6.6-1.8,2.7-4.4,4.3-7.7,4.6-.1,0-.3,0-.4,0-.2,0-.3-.2-.4-.3.1-.2.2-.4.4-.5.6-.2,1.2-.3,1.8-.5,2.5-.8,4.7-2.1,5.9-4.5.7-1.4.9-3,.9-4.6-.1-4.2-1.8-7.9-4.5-11.1-3-3.6-6.9-6.1-11.3-7.7Z"/>
  </g>
  <g>
    <path class="st0" d="M442.2,143c1.4,2.1,1.8,5,1,8.2-.1.6-.4,1.1-.8,1.6-.4.6-1,.6-1.6,0-.7-.6-1.5-1.1-2.1-1.7-1.3-1.3-1.8-2.9-1.7-4.7,0-.7.2-1.5.2-2.2.1-1.6,0-3.2-.9-4.6-.2-.4-.5-.8,0-1.2.4-.4.9-.2,1.4,0,0,0,0,0,0,0,1.6.9,3.1,2.4,4.4,4.6Z"/>
    <path class="st0" d="M459.8,167.6c-1.3-2.1-.9-4.1,1.5-4.7,1.1-.3,2.2-.2,3.3.2,3.2,1.2,5.2,3.5,6.4,6.6.1.3,0,.8-.1,1-.2.2-.7.2-1,0-1.2-.6-2.4-1-3.8-1-1.5,0-2.9-.1-4.2-.7-.9-.4-1.7-.9-2-1.5Z"/>
    <path class="st0" d="M424.5,195.9c.8-5.5,2.1-10.7,5.5-15.3,0,0-.1,0-.2-.1-.2.2-.4.5-.7.7-.2.2-.5.4-.8.6,0,0-.1-.1-.2-.2.2-.3.3-.6.5-.8,1.5-2.1,3.1-4.2,4.6-6.3,3-4.4,5.2-9.2,6.6-14.3.4-1.5.9-3.1,1.2-4.6.8-3.8,0-7.5-1.3-11.2-.3-.8-.7-1.6-1-2.5,0,0,0,0,.1-.1.3.3.6.6.8,1,1.3,2.4,2.1,4.9,2.5,7.6.3,2.4.2,4.8-.4,7.1-1.3,5.6-3.6,10.9-6.5,15.8,0,.1-.1.3,0,.5.6-.6,1.2-1.3,1.9-1.9,5.6-5.1,12-8.3,19.7-8,3.1.1,6,1.1,8.7,2.7.7.4,1.2,1,1.6,1.6,0,0,0,.1,0,.2-.2,0-.4,0-.5-.1-3-2.4-6.5-3.3-10.3-3.4-3.9,0-7.5.9-11,2.6-7,3.5-11.9,9-15.9,15.6-2.3,3.7-3.4,7.9-4.3,12.1,0,.3-.2.6-.3,1,0,0-.2,0-.3,0Z"/>
  </g>
  <g>
    <path class="st0" d="M467.5,185c2-1.5,4.9-2,8.1-1.5.6.1,1.1.4,1.6.7.6.4.6,1,.2,1.6-.5.7-1,1.5-1.6,2.2-1.2,1.3-2.8,2-4.6,1.9-.7,0-1.5,0-2.2,0-1.6,0-3.2.2-4.5,1.2-.4.3-.8.5-1.2.1-.5-.4-.3-.9,0-1.4,0,0,0,0,0,0,.8-1.6,2.2-3.2,4.3-4.7Z"/>
    <path class="st0" d="M491,166c-2,1.4-4,1.1-4.8-1.3-.4-1.1-.4-2.2,0-3.3,1.1-3.2,3.3-5.4,6.3-6.8.3-.1.8-.1,1,0,.2.2.2.7,0,1-.5,1.2-.8,2.5-.7,3.8,0,1.5,0,2.9-.5,4.3-.3.9-.8,1.7-1.4,2.1Z"/>
    <path class="st0" d="M521.4,199.7c-5.5-.5-10.9-1.5-15.6-4.7,0,0,0,.1,0,.2.3.2.5.4.7.6.2.2.4.5.7.7,0,0-.1.1-.2.2-.3-.1-.6-.3-.8-.4-2.2-1.4-4.3-2.9-6.6-4.3-4.5-2.7-9.4-4.7-14.6-5.8-1.6-.3-3.1-.7-4.7-.9-3.9-.5-7.5.4-11.1,1.9-.8.3-1.6.8-2.4,1.2,0,0,0,0-.1-.1.3-.3.6-.6.9-.9,2.3-1.4,4.8-2.4,7.4-2.9,2.4-.5,4.7-.4,7.1,0,5.7,1,11,2.9,16.1,5.6.1,0,.3.1.5,0-.7-.6-1.4-1.2-2-1.8-5.5-5.3-9-11.5-9.1-19.3,0-3.1.8-6.1,2.2-8.8.4-.7.9-1.3,1.5-1.7,0,0,.1,0,.2,0,0,.2,0,.4-.1.5-2.2,3.2-3,6.7-2.8,10.5.2,3.9,1.3,7.5,3.2,10.8,3.9,6.8,9.7,11.4,16.5,15,3.9,2.1,8,3,12.3,3.6.3,0,.7.1,1,.2,0,.1,0,.2,0,.3Z"/>
  </g>
  <g>
    <path class="st0" d="M396.3,427.8c2.2,1.2,5.2,1.3,8.2.3.6-.2,1.1-.5,1.5-.9.5-.5.5-1.1,0-1.6-.6-.6-1.2-1.4-1.9-1.9-1.4-1.2-3-1.6-4.8-1.3-.7.1-1.4.3-2.2.4-1.6.3-3.2.3-4.7-.5-.4-.2-.9-.4-1.2,0-.4.5-.2.9.1,1.4,0,0,0,0,0,0,1,1.5,2.6,2.9,4.9,4Z"/>
    <path class="st0" d="M422.3,443.3c-2.2-1.1-4.1-.5-4.6,1.9-.2,1.2,0,2.2.5,3.3,1.5,3,4,4.9,7.2,5.8.3,0,.9,0,1-.2.2-.2,0-.8,0-1-.7-1.1-1.2-2.4-1.3-3.7-.1-1.4-.4-2.9-1.1-4.2-.5-.9-1-1.6-1.6-1.9Z"/>
    <path class="st0" d="M447.5,405.7c-5.4,1.2-10.5,3-14.8,6.8,0,0,0-.1-.1-.2.2-.2.5-.5.6-.7.2-.3.4-.5.5-.8,0,0-.1-.1-.2-.2-.3.2-.5.3-.8.6-2,1.7-3.9,3.5-5.9,5.1-4.1,3.4-8.7,5.9-13.7,7.8-1.5.6-3,1.1-4.5,1.6-3.8,1.1-7.5.6-11.2-.3-.9-.2-1.7-.5-2.5-.8,0,0,0,.1-.1.2.3.2.7.6,1,.7,2.5,1.1,5.1,1.7,7.7,1.8,2.4.1,4.7-.3,7.1-1,5.5-1.8,10.5-4.5,15.2-7.8.1,0,.2-.1.4-.1-.6.7-1.2,1.3-1.7,2.1-4.7,6-7.3,12.6-6.3,20.4.4,3.1,1.6,5.9,3.4,8.4.5.7,1.1,1.1,1.8,1.5,0,0,.1,0,.2-.1,0-.2,0-.4-.2-.5-2.6-2.8-3.9-6.2-4.3-10-.4-3.9.2-7.6,1.6-11.2,2.9-7.2,8-12.6,14.2-17.1,3.5-2.6,7.5-4.1,11.7-5.3.3,0,.6-.2.9-.4,0,0,0-.2-.1-.3Z"/>
  </g>
  <path class="st0" d="M439.2,249c.3,0,.6-.1.8-.3,1.9-.9,3.8-1.8,5.6-2.9,7-4,12.6-9.3,16.2-16.6,1.9-4,3.1-8.1,2.5-12.6-.8-5.9-3.6-10.4-9.3-12.7-2.4-1-4.9-1.2-7.4-.3-1.6.6-2.8,1.7-3.7,3.1-1.6,2.5,0,5.2,3,5.6.6,0,1.2,0,1.7,0,1.9-.3,2.3-2.4,1.5-3.9.4-.2.6,0,.7.4.7,1.9-.3,3.8-2.4,4.2-1.4.3-2.7,0-4-.6-1.9-1-2.3-4-1.5-5.5,1.4-2.4,3.4-4,6.2-4.4,5.3-.6,9.5,1.6,12.8,5.7,3.8,4.8,4.4,10.3,2.9,16.1-1.5,5.9-4.7,10.7-8.9,15-4.1,4.2-9,7.2-14.3,9.6-.7.3-1.6.4-2.4.6,0-.1,0-.2,0-.3Z"/>
  <path class="st0" d="M553.6,329.2c.2-.2.4-.5.5-.7.9-1.9,1.8-3.8,2.6-5.8,2.9-7.5,3.9-15.2,2.1-23.1-1-4.3-2.8-8.3-6-11.3-4.3-4.1-9.3-5.8-15.2-4.1-2.5.7-4.5,2.2-5.9,4.5-.9,1.5-1.1,3.1-.9,4.7.3,2.9,3.2,4.1,5.9,2.4.5-.3.9-.7,1.3-1.2,1.3-1.4.3-3.3-1.3-3.9.2-.4.5-.3.8-.2,1.8,1,2.1,3.1.7,4.8-.9,1.1-2.1,1.7-3.5,2-2.1.5-4.3-1.6-4.6-3.4-.5-2.7,0-5.3,2.1-7.3,3.8-3.8,8.4-4.8,13.5-3.7,6,1.3,9.9,5.2,12.4,10.7,2.5,5.5,3.1,11.3,2.6,17.3-.5,5.8-2.5,11.2-5,16.4-.4.7-1,1.3-1.5,2,0,0-.2-.1-.3-.2Z"/>
  <path class="st0" d="M481.2,402.4c-.3.1-.5.3-.8.4-2,.7-4,1.4-6,2-7.7,2.2-15.5,2.4-23.2-.2-4.2-1.4-7.9-3.6-10.7-7.1-3.6-4.7-4.8-9.9-2.5-15.5,1-2.4,2.6-4.3,5-5.4,1.5-.7,3.2-.8,4.8-.5,2.9.6,3.8,3.6,1.8,6.1-.4.4-.8.8-1.3,1.2-1.6,1.1-3.3,0-3.8-1.7-.5.2-.4.5-.2.8.9,1.9,2.9,2.4,4.7,1.2,1.2-.8,1.9-1.9,2.4-3.3.7-2.1-1.2-4.5-2.9-4.9-2.7-.7-5.3-.4-7.5,1.3-4.2,3.4-5.6,7.9-5,13,.7,6.1,4.2,10.3,9.4,13.4,5.2,3.1,10.9,4.2,16.9,4.3,5.9,0,11.4-1.3,16.8-3.4.8-.3,1.4-.8,2.1-1.3,0,0-.1-.2-.2-.3Z"/>
  <g>
    <path class="st0" d="M522.2,315.2c.2-1,.4-2,.7-2.9.3-.8.9-1,1.7-.8.2,0,.4.1.5.2,2.4,1.8,4.1,3.9,4,7.1,0,.9-.3,1.8-.7,2.6-.5,1-1.1,1.9-1.8,2.8-.4.6-1,.5-1.3-.1-.4-.8-.7-1.6-1.2-2.4-1.2-2-2-4.1-2.2-6.5Z"/>
    <path class="st0" d="M526.2,319.9c-.1-.6-.3-1.2-.4-1.9-.9-4.8-3.2-8.9-6.5-12.5-1.7-1.8-3.4-3.5-5.4-4.9-1.1-.8-2.3-1.5-3.7-1.8-.1,0-.2,0-.3-.1-.2-.2-.5-.4-.7-.5.3,0,.6-.2.9-.1,1.8.2,3.3,1,4.7,2.1,4,3.1,7.4,6.7,9.7,11.2,1.2,2.4,1.7,5,2,7.6,0,.3,0,.7,0,1,0,0-.2,0-.3,0Z"/>
  </g>
  <g>
    <path class="st0" d="M410.4,315.4c-.2,1-.4,2-.7,2.9-.3.8-.9,1-1.7.8-.2,0-.4-.1-.5-.2-2.4-1.8-4.1-3.9-4-7.1,0-.9.3-1.8.7-2.6.5-1,1.1-1.9,1.8-2.8.4-.6,1-.5,1.3.1.4.8.7,1.6,1.2,2.4,1.2,2,2,4.1,2.2,6.5Z"/>
    <path class="st0" d="M406.4,310.7c.1.6.3,1.2.4,1.9.9,4.8,3.2,8.9,6.5,12.5,1.7,1.8,3.4,3.5,5.4,4.9,1.1.8,2.3,1.5,3.7,1.8.1,0,.2,0,.3.1.2.2.5.4.7.5-.3,0-.6.2-.9.1-1.8-.2-3.3-1-4.7-2.1-4-3.1-7.4-6.7-9.7-11.2-1.2-2.4-1.7-5-2-7.6,0-.3,0-.7,0-1,0,0,.2,0,.3,0Z"/>
  </g>
  <g>
    <path class="st0" d="M374.3,217.5c.9.4,1.9.7,2.8,1.1.8.4.9,1,.5,1.8,0,.2-.2.4-.3.5-2.1,2.1-4.5,3.5-7.5,3.1-.9-.1-1.7-.5-2.5-1-.9-.6-1.7-1.4-2.5-2.1-.5-.5-.3-1,.3-1.2.8-.3,1.7-.5,2.5-.9,2.1-.9,4.3-1.4,6.7-1.3Z"/>
    <path class="st0" d="M369.1,220.9c.6,0,1.3-.1,1.9-.1,4.9-.3,9.3-2,13.3-4.8,2-1.4,3.9-2.9,5.6-4.7.9-1,1.8-2.1,2.3-3.4,0,0,0-.2.2-.3.2-.2.4-.4.6-.6,0,.3,0,.6,0,.9-.4,1.8-1.5,3.2-2.7,4.4-3.6,3.6-7.6,6.5-12.5,8.1-2.5.9-5.1,1-7.8.9-.3,0-.6-.1-1-.2,0,0,0-.2,0-.3Z"/>
  </g>
  <g>
    <path class="st0" d="M515.6,361.6c1-.1,2-.3,3-.4.9,0,1.3.4,1.3,1.3,0,.2,0,.4,0,.6-.7,2.9-2.1,5.3-5,6.4-.8.3-1.8.4-2.7.3-1.1,0-2.2-.3-3.2-.6-.7-.2-.8-.7-.4-1.2.6-.6,1.2-1.3,1.7-2,1.4-1.9,3.1-3.4,5.2-4.4Z"/>
    <path class="st0" d="M512.8,367c.5-.4,1-.7,1.6-1.1,4.1-2.7,7-6.3,9.1-10.8,1-2.2,2-4.4,2.5-6.8.3-1.4.5-2.7.3-4.1,0-.1,0-.2,0-.3,0-.3.2-.6.2-.9.2.3.4.5.4.8.5,1.7.3,3.5-.1,5.2-1.3,4.9-3.4,9.4-6.8,13.2-1.8,2-3.9,3.4-6.3,4.7-.3.2-.6.2-.9.3,0,0,0-.2-.1-.2Z"/>
  </g>
  <path class="st4" d="M493.3,402.9c.3.2.6.3.8.5-.2.2-.5.3-.6.5-.3,1.1-1.4.9-2.1,1.1-4.2,1.5-8.1,3.7-11.7,6.4-1.1.8-2.3,1.5-3.6,1.8-.9.2-1.7.2-2.3-.6-.7-.8-.7-1.6-.3-2.5.5-1.2,1.4-2.1,2.4-3,2.1-1.8,3.9-2.6,7.5-3.5-.2,0-.3-.1-.4-.2-4.1-1.4-7.6-3.7-10.6-6.8-2-2-3.3-4.3-3.6-7.2,0-.8,0-1.7.2-2.6.6-2.3,3.3-3.3,5.2-1.9,1,.7,1.9,1.7,2.7,2.6,2.5,3,4.9,6.1,7.7,8.7,1.3,1.2,2.7,2.4,4.1,3.5,1.2.9,2.5,1.6,4,2,.7.2.8.4.6,1Z"/>
  <g>
    <path class="st6" d="M431.7,173.7s-10.3-2.9-14.8,1.9c-2.3,2.5-.1,3.9-.1,3.9,0,0,1.7,2,3.6-.5,1.6-2.1-.8-3.1-1.1-3.1-.3,0,0,0,0,0,0,0,1.7-2.4,12.4-2.2Z"/>
    <path class="st6" d="M433.4,172.4s-17.6-6.4-28.6,2.9c0,0-3.8,2.6-2.2,4.7,0,0,2.8-2.6,4.8-.2,2.1,2.4-.8,4.6-.8,4.6,0,0-3,2.2-5.1-.3-2.1-2.4-3.8-6.5,2.6-11.3,6.4-4.8,22.3-5.5,29.1-.5Z"/>
  </g>
  <g>
    <path class="st0" d="M419.2,389.9c.3,1,.7,1.9.9,2.9.2.8-.2,1.3-1.1,1.5-.2,0-.4,0-.6,0-2.9-.3-5.5-1.3-7.1-3.9-.4-.7-.7-1.7-.8-2.6-.1-1.1,0-2.2,0-3.3,0-.7.6-.9,1.1-.5.7.5,1.5,1,2.2,1.4,2.1,1.1,3.8,2.5,5.2,4.4Z"/>
    <path class="st0" d="M413.4,388c.4.5.9.9,1.3,1.4,3.3,3.6,7.4,5.9,12.1,7.3,2.3.7,4.7,1.3,7.2,1.4,1.4,0,2.8,0,4.1-.3.1,0,.2,0,.3,0,.3,0,.6,0,.9,0-.2.2-.4.4-.7.6-1.6.8-3.4.9-5.1.7-5-.5-9.8-1.8-14.2-4.6-2.3-1.4-4-3.3-5.6-5.4-.2-.3-.3-.6-.5-.9,0,0,.2,0,.2-.1Z"/>
  </g>
</svg>