<svg xmlns="http://www.w3.org/2000/svg" viewBox="0 0 300 300">
    <defs>
        <style>
            .st19 {
                fill: #000;
            }
        </style>
    </defs>

    <g>
      <path class="st19" d="M126.3,209.9c-2.2-11.4,7.1-23.1,26.1-21.7-5,26.4,15.3,36.7,25.2,26.5,6.8-7,3.2-17.3-6.2-18.6-.8-.1-1.7,2.3-.7,2.3,6.2.4,11.2,7,7.7,12.8-6.3,10.4-29,3.1-24.8-23.1,8.7.8,25.4,3.6,37.2-2.5,11.7-6,15.6-22.2,2.9-28.7-12.3-6.3-32.8,4.3-39.8,25.7-23.7-1.3-33.2,19.7-28,27.6.2.3.5-.4.5-.6ZM193.6,160.8c5.6,3.4,7.9,9.3,4.2,15.5-7.2,12-27.9,7.8-43,6.7,6.3-19.8,26.7-29.5,38.8-22.2Z"/>
      <path class="st19" d="M178,195c3.8.8,4.8,5.5,7.3,6.9,1,.5,2.1.2,2.6-.3,1.2-1.3-.2-5-3.6-6.8-2-1-4.5-1.3-6.3.2Z"/>
      <path class="st19" d="M185.7,191.5c5.3,4.4,12.8,3,15.1,0,1-1.4,0-2.9-1.5-2.9-2.6-.1-7.7,2.9-13.6,3Z"/>
      <path class="st19" d="M203.1,173.9c-1.9,6.8-4.2,9.7-7.6,12.8,12.8-1.5,13.4-15.3,9.5-14.8-.7,0-1.4.5-1.9,2Z"/>
    </g>
    <g>
      <path class="st19" d="M91,85.8c.3.3.4,0,.2-.3-4.8-6-2.6-16.4,6.6-20.1,10-4,24.7,2.1,28.6,21.9,7.4,37.7-33.4,66-42.5,93.9-5.3-7.4-.6-17.9,4.7-25.4,8.9-12.7,22.7-21.1,27.7-39.3,2.2-8,1.7-16.9-3.4-23.8-15.6-21.1-47.3,10.6-11.1,37.4.8.6.6-.6.2-1-3.1-2.7-6.4-5.3-9.1-8.5-11.9-13.9-4.3-30.4,6.3-32.4,11.2-2.2,22.7,12.5,11.2,33.7-5.1,9.4-13.2,16.5-20.1,24.5-14.7,17.1-12.8,29.8-6.8,36.1-9,30.8,27,44.9,37.9,20.9,4.3-9.5-.4-18.6-1.8-20.5.6-3-4.3-7.9-7.4-7.2-1.2.3-1.8,1.9-1.2,2.9,1.4,2.4,6.8,2.7,8.3,4.1,1.8,1.5,6.7,14-1.4,24.6-12.7,16.6-41.7,4.1-33.1-23.5,5,4,11.7,3.4,14.9-.2.5-.6,1.1-1,1.5-1.6,0,0-.1-.3-.2-.2-3.3,3.9-10.8,5.7-15.9.9,8.6-25.1,42.7-50.5,43.7-83.7.6-18.7-9-33.4-21.9-35.9-15.6-3.1-24.8,14-16,22.8Z"/>
      <path class="st19" d="M81,139.6c.4.6,1.4,1,2.6-.2,1.9-1.9,3.4-5.8,14.3-7.6-12.5-5.4-18.9,4.9-16.9,7.8Z"/>
      <path class="st19" d="M95.2,129.4c-1.7-1.4-7.2-4.9-11.8-4.3-7.1.9-5.2,9.1-1.6,5.2,1.6-1.5,10.9-1,13.5-.9Z"/>
      <path class="st19" d="M85.3,123.4c4.4.8,4.6.8,5.3.9-1.9-3.4-5.4-6.6-9.2-5.7-2.3.6-4.2,3.4,3.9,4.8Z"/>
      <path class="st19" d="M119.6,186.7c0-2.4-3.4-4.2-6-3.5-2,.5-3.6,2-2.2,3.5,2.6,2.9,5.3-1.3,8.3,0Z"/>
      <path class="st19" d="M113.7,194.4c.4,3.7,3.8,3.7,4.5-.6.2-1.2.1-3,2-5.5-4-.2-6.8,3.2-6.4,6.1Z"/>
    </g>
    <path class="st19" d="M159.4,188.4c-1.5,0-3.3-.3-5.3-.9-2-.6-4.4-1.5-6.9-2.8l-15.1-7.7c-3-1.5-5.7-2.6-8-3.3-2.4-.7-4.6-1-6.4-1h-5c-4.3,0-7.3,2.3-8.9,6.8-1.6,4.7-2.9,5-3.3,5-1.4,0-1.9-.1-2-.2-.1-.1-.7-.8-.7-3.5,0-4.1,3.6-8.1,10.6-11.6,8.1-4.2,11.9-7.6,12-10.5,0-2.4,0-11.5,0-26.5v-.8c0-1.2-3.5-5.1-6-5.6-1.6-.3-2.7-.8-3.3-1.5v-1.3c4.7-.2,9.6-1.6,14.4-4.3l7.7-4.3c2.4-1.3,4.8-2.7,7.3-4.1v1.5c-.8.7-1.5,1.7-2.4,3.1-1.3,2.3-2,4.2-2,5.8v28.4c0,1.7.8,3.4,2.5,5.4.8.9.9,1.4.9,1.5,0,0,0,0,0,0,0,0-.4.6-2.7,1.5-2,.8-3.7,1.7-5.1,3l-2.6,2.2h10.7c2.3,0,6.3,1.5,11.8,4.3,0,0,16.4,9.4,18.8,9.9s5.7,0,5.7,0c2.5,0,5.7-2.1,9.9-6.5,4.9-5.2,7.5-10.5,7.5-15.8s-3.9-9.9-11.9-15.3c-7.4-4.8-13.4-7.1-18.3-7.1s-11.1,2.5-12.7,7.5c-1.3,3.8-2.9,5.7-4.9,5.7s-1.1-.2-1.5-.8c-.7-.8-.7-1.2-.7-1.4,0-1.4,1.2-4.3,6.9-9.7,6-5.6,14.9-11.9,26.4-18.7l.9-.5-.4-1c-1.8-4.5-4.3-8.4-7.6-11.4-3.3-3-5.5-4.2-10.3-4.9-4.7-.7-9.9.8-12.5,1.7-2.5.9-5.6,2.3-9.2,4.3l-19.8,10.4c-3.7,1.9-6.9,3.4-9.5,4.2-2.5.8-4.4,1.3-5.8,1.5,0,0-3.1.2-4.7.2s-5-1.2-6.6-2.8c-1.6-1.6-2.4-3-2.4-4.3s0-.8.8-1.4c.7-.5,1.4-.8,2.4-.8s1.8.3,2.3,2.3c.6,2.6,2.6,4.1,5.6,4.1s10-2.8,18.3-8.5c6.6-4.5,11.8-8,15.5-10.5,3.7-2.5,6.2-4.1,7.2-4.7,9.2-5.4,17.2-8.2,23.8-8.2s11.1,1.7,15.4,5.1c1.1.9,2.3,2.1,3.7,3.8,1.4,1.7,3,3.7,4.8,6.2,2.5,3.5,4.6,5.4,6.5,5.9,0,0,0,0,0,0,0,.1,0,.2,0,.3,0,.5-.1.8-.1,1.1,0,.3,0,.6,0,.8,0,.8-1.1,1.8-3.1,2.8-10.8,5.4-11.4,6.4-11.8,6.9l-.8,1.1,19.9,12.1c4.4,4,6.6,8.6,6.6,13.5,0,7.6-5.2,17-15.5,27.8-10.2,10.7-19.2,16.2-26.5,16.2h-4.5Z"/>
</svg>