<?xml version="1.0" encoding="utf-8"?>
<svg xmlns="http://www.w3.org/2000/svg" viewBox="34.2567 45.5851 128.5283 155.8478" width="128.528px" height="155.848px">
  <g transform="matrix(1, 0, 0, 1, -187.1300048828125, -244.74400329589844)">
    <g>
      <path class="st19" d="M269.1,437.5c-2.2-11.4,7.1-23.1,26.1-21.7-5,26.4,15.3,36.7,25.2,26.5,6.8-7,3.2-17.3-6.2-18.6-.8-.1-1.7,2.3-.7,2.3,6.2.4,11.2,7,7.7,12.8-6.3,10.4-29,3.1-24.8-23.1,8.7.8,25.4,3.6,37.2-2.5,11.7-6,15.6-22.2,2.9-28.7-12.3-6.3-32.8,4.3-39.8,25.7-23.7-1.3-33.2,19.7-28,27.6.2.3.5-.4.5-.6ZM336.5,388.3c5.6,3.4,7.9,9.3,4.2,15.5-7.2,12-27.9,7.8-43,6.7,6.3-19.8,26.7-29.5,38.8-22.2Z" style="fill: rgb(64, 27, 121);"/>
      <path class="st19" d="M320.8,422.5c3.8.8,4.8,5.5,7.3,6.9,1,.5,2.1.2,2.6-.3,1.2-1.3-.2-5-3.6-6.8-2-1-4.5-1.3-6.3.2Z" style="fill: rgb(64, 27, 121);"/>
      <path class="st19" d="M328.5,419.1c5.3,4.4,12.8,3,15.1,0,1-1.4,0-2.9-1.5-2.9-2.6-.1-7.7,2.9-13.6,3Z" style="fill: rgb(64, 27, 121);"/>
      <path class="st19" d="M345.9,401.5c-1.9,6.8-4.2,9.7-7.6,12.8,12.8-1.5,13.4-15.3,9.5-14.8-.7,0-1.4.5-1.9,2Z" style="fill: rgb(64, 27, 121);"/>
    </g>
    <g>
      <path class="st19" d="M233.8,313.4c.3.3.4,0,.2-.3-4.8-6-2.6-16.4,6.6-20.1,10-4,24.7,2.1,28.6,21.9,7.4,37.7-33.4,66-42.5,93.9-5.3-7.4-.6-17.9,4.7-25.4,8.9-12.7,22.7-21.1,27.7-39.3,2.2-8,1.7-16.9-3.4-23.8-15.6-21.1-47.3,10.6-11.1,37.4.8.6.6-.6.2-1-3.1-2.7-6.4-5.3-9.1-8.5-11.9-13.9-4.3-30.4,6.3-32.4,11.2-2.2,22.7,12.5,11.2,33.7-5.1,9.4-13.2,16.5-20.1,24.5-14.7,17.1-12.8,29.8-6.8,36.1-9,30.8,27,44.9,37.9,20.9,4.3-9.5-.4-18.6-1.8-20.5.6-3-4.3-7.9-7.4-7.2-1.2.3-1.8,1.9-1.2,2.9,1.4,2.4,6.8,2.7,8.3,4.1,1.8,1.5,6.7,14-1.4,24.6-12.7,16.6-41.7,4.1-33.1-23.5,5,4,11.7,3.4,14.9-.2.5-.6,1.1-1,1.5-1.6,0,0-.1-.3-.2-.2-3.3,3.9-10.8,5.7-15.9.9,8.6-25.1,42.7-50.5,43.7-83.7.6-18.7-9-33.4-21.9-35.9-15.6-3.1-24.8,14-16,22.8Z" style="fill: rgb(64, 27, 121);"/>
      <path class="st19" d="M223.8,367.2c.4.6,1.4,1,2.6-.2,1.9-1.9,3.4-5.8,14.3-7.6-12.5-5.4-18.9,4.9-16.9,7.8Z" style="fill: rgb(64, 27, 121);"/>
      <path class="st19" d="M238,356.9c-1.7-1.4-7.2-4.9-11.8-4.3-7.1.9-5.2,9.1-1.6,5.2,1.6-1.5,10.9-1,13.5-.9Z" style="fill: rgb(64, 27, 121);"/>
      <path class="st19" d="M228.2,351c4.4.8,4.6.8,5.3.9-1.9-3.4-5.4-6.6-9.2-5.7-2.3.6-4.2,3.4,3.9,4.8Z" style="fill: rgb(64, 27, 121);"/>
      <path class="st19" d="M262.5,414.3c0-2.4-3.4-4.2-6-3.5-2,.5-3.6,2-2.2,3.5,2.6,2.9,5.3-1.3,8.3,0Z" style="fill: rgb(64, 27, 121);"/>
      <path class="st19" d="M256.5,422c.4,3.7,3.8,3.7,4.5-.6.2-1.2.1-3,2-5.5-4-.2-6.8,3.2-6.4,6.1Z" style="fill: rgb(64, 27, 121);"/>
    </g>
    <path class="st19" d="M302.2,416c-1.5,0-3.3-.3-5.3-.9-2-.6-4.4-1.5-6.9-2.8l-15.1-7.7c-3-1.5-5.7-2.6-8-3.3-2.4-.7-4.6-1-6.4-1h-5c-4.3,0-7.3,2.3-8.9,6.8-1.6,4.7-2.9,5-3.3,5-1.4,0-1.9-.1-2-.2-.1-.1-.7-.8-.7-3.5,0-4.1,3.6-8.1,10.6-11.6,8.1-4.2,11.9-7.6,12-10.5,0-2.4,0-11.5,0-26.5v-.8c0-1.2-3.5-5.1-6-5.6-1.6-.3-2.7-.8-3.3-1.5v-1.3c4.7-.2,9.6-1.6,14.4-4.3l7.7-4.3c2.4-1.3,4.8-2.7,7.3-4.1v1.5c-.8.7-1.5,1.7-2.4,3.1-1.3,2.3-2,4.2-2,5.8v28.4c0,1.7.8,3.4,2.5,5.4.8.9.9,1.4.9,1.5,0,0,0,0,0,0,0,0-.4.6-2.7,1.5-2,.8-3.7,1.7-5.1,3l-2.6,2.2h10.7c2.3,0,6.3,1.5,11.8,4.3,0,0,16.4,9.4,18.8,9.9s5.7,0,5.7,0c2.5,0,5.7-2.1,9.9-6.5,4.9-5.2,7.5-10.5,7.5-15.8s-3.9-9.9-11.9-15.3c-7.4-4.8-13.4-7.1-18.3-7.1s-11.1,2.5-12.7,7.5c-1.3,3.8-2.9,5.7-4.9,5.7s-1.1-.2-1.5-.8c-.7-.8-.7-1.2-.7-1.4,0-1.4,1.2-4.3,6.9-9.7,6-5.6,14.9-11.9,26.4-18.7l.9-.5-.4-1c-1.8-4.5-4.3-8.4-7.6-11.4-3.3-3-5.5-4.2-10.3-4.9-4.7-.7-9.9.8-12.5,1.7-2.5.9-5.6,2.3-9.2,4.3l-19.8,10.4c-3.7,1.9-6.9,3.4-9.5,4.2-2.5.8-4.4,1.3-5.8,1.5,0,0-3.1.2-4.7.2s-5-1.2-6.6-2.8c-1.6-1.6-2.4-3-2.4-4.3s0-.8.8-1.4c.7-.5,1.4-.8,2.4-.8s1.8.3,2.3,2.3c.6,2.6,2.6,4.1,5.6,4.1s10-2.8,18.3-8.5c6.6-4.5,11.8-8,15.5-10.5,3.7-2.5,6.2-4.1,7.2-4.7,9.2-5.4,17.2-8.2,23.8-8.2s11.1,1.7,15.4,5.1c1.1.9,2.3,2.1,3.7,3.8,1.4,1.7,3,3.7,4.8,6.2,2.5,3.5,4.6,5.4,6.5,5.9,0,0,0,0,0,0,0,.1,0,.2,0,.3,0,.5-.1.8-.1,1.1,0,.3,0,.6,0,.8,0,.8-1.1,1.8-3.1,2.8-10.8,5.4-11.4,6.4-11.8,6.9l-.8,1.1,19.9,12.1c4.4,4,6.6,8.6,6.6,13.5,0,7.6-5.2,17-15.5,27.8-10.2,10.7-19.2,16.2-26.5,16.2h-4.5Z" style="fill: rgb(64, 27, 121);"/>
  </g>
  <path class="st18" d="M 137.97 93.356 L 144.67 89.756 C 144.67 89.756 132.47 76.456 128.37 73.056 C 123.37 68.956 110.97 71.556 107.17 73.256 C 103.37 74.956 75.67 91.956 75.67 91.956 C 75.67 91.956 103.47 78.256 107.27 77.256 C 114.37 75.456 120.97 76.656 124.97 79.256 C 126.97 80.556 129.57 83.356 132.17 86.156 C 135.37 89.656 138.07 93.256 138.07 93.256 L 137.97 93.356 Z" style="fill: rgb(88, 59, 95);"/>
  <g transform="matrix(1, 0, 0, 1, -187.1300048828125, -244.74400329589844)">
    <polygon class="st17" points="267.9 352.2 273 350.3 273 380.9 268.7 383 267.9 352.2" style="fill: rgb(65, 122, 185);"/>
    <path class="st17" d="M308.6,356.1l9.5-6.7s19.1,11,21.3,13.5c2.3,2.5,4.5,4.3,4.7,7.8.2,3.5-1.7,10.4-2.4,12.3s0-8.2-4.5-11.6c-1.6-1.1-7-5.7-13.1-9-7.4-3.9-15.5-6.4-15.5-6.4Z" style="fill: rgb(65, 122, 185);"/>
    <path class="st17" d="M269.7,394.1c2.7-.5,8-1.2,12.8,0,5.3,1.4,28.4,16.1,31.4,15.1,2.9-1-3.3,3.1-9.4,2.8-6.1-.3-20.3-11.3-24.4-12.7s-15-3-19-2.2c-4,.7,5.8-2.5,8.5-3Z" style="fill: rgb(65, 122, 185);"/>
    <path class="st17" d="M325.1,338.1l6.7-3.6s-10.9-13.1-16.3-16.7c-5.4-3.6-17.4-1.5-21.2.2s-31.5,18.7-31.5,18.7c0,0,27.8-13.7,31.6-14.7,7.1-1.8,13.7-.6,17.7,2,2,1.3,4.6,4.1,7.2,6.9,3.2,3.5,5.9,7.1,5.9,7.1Z" style="fill: rgb(65, 122, 185);"/>
  </g>
  <g transform="matrix(1, 0, 0, 1, -187.1300048828125, -244.74400329589844)">
    <path class="st3" d="M251.5,390.8s.8-1.4,2.4-.3c1.6,1.1.8,2.3.4,2.8-.3.6-2.2,1.6-4.1.2-1.9-1.3-2.6-4.5-.6-7.3,1.9-2.7,7.3-3.1,10.1-1.1,2.1,1.5,2.6,3.7,3.7,2s-1.6-1.4-3.3-2.7c-1.7-1.3-8.5-7.9-3.8-14.8,0,0,1.9-3.1,5.3-1.1,2.4,1.4.4,3.6.4,3.6,0,0-1.1,1.1-2.2.4s-.9-1.9-.6-2.4,1.1-.9,2.1-.4c0,0-2.4-2.1-4.2.8-1.8,2.9-.3,6.5,3.4,9.5,3.7,3,9.1,5.3,6.3,9.3-2.7,4.1-7.2-.3-8.4-1.1-1.2-.8-5.8-4.5-8.2-.9-1.5,2.2-.2,4.6-.2,4.6,0,0,1,1.2,1.7.2.6-1-.9-.2-.2-1.5Z" style="fill: rgb(169, 131, 64); stroke: rgb(169, 131, 64); stroke-linecap: round; stroke-linejoin: round; stroke-width: 0px;"/>
    <g>
      <path class="st0" d="M327.8,407.7c.4-.1.7-.3,1.1-.3.3,0,.5,0,.6.4,0,0,0,.1,0,.2-.1,1.1-.5,2.1-1.5,2.8-.3.2-.7.3-1,.3-.4,0-.9,0-1.3,0-.3,0-.4-.2-.2-.4.2-.3.4-.6.5-.9.4-.8,1-1.5,1.7-2Z" style="fill: rgb(169, 131, 64); stroke: rgb(169, 131, 64); stroke-linecap: round; stroke-linejoin: round; stroke-width: 0.2px;"/>
      <path class="st0" d="M327,410c.2-.2.4-.3.5-.5,1.4-1.3,2.3-2.9,2.8-4.7.3-.9.5-1.8.5-2.8,0-.5,0-1.1-.1-1.6,0,0,0,0,0-.1,0-.1,0-.2,0-.3,0,0,.2.2.2.3.3.6.3,1.3.3,2-.2,2-.7,3.8-1.8,5.5-.5.9-1.3,1.6-2.1,2.2-.1,0-.2.1-.3.2,0,0,0,0,0,0Z" style="fill: rgb(169, 131, 64); stroke: rgb(169, 131, 64); stroke-linecap: round; stroke-linejoin: round; stroke-width: 0.2px;"/>
    </g>
    <g>
      <path class="st12" d="M310.1,400.8c.2-.7.5-1.3.8-2,.6-1.5,1.4-3,2.5-4.3.5-.6,1.1-1.1,1.8-1.3.3,0,.5-.2.8-.2.6,0,.9.4.8,1-.1.4-.4.8-.8,1-1.1.8-2.2,1.8-3.2,2.8-.5.6-1,1.2-1.4,1.9-.6,1.1-1.2,2.3-1.5,3.5,0,.2,0,.3-.1.5,0,0,0,0,0,.1,0,0,0,0-.1-.1-.2-.2-.1-.4-.2-.6-.2-.8-.4-1.6-.4-2.4,0-.3,0-.7,0-1,0-.2.2-.4.3-.5.2-.2.4-.1.5,0,0,.2.1.4.2.6,0,.3,0,.5,0,.8,0,0,0,0,0,0Z" style="fill: rgb(169, 131, 64); stroke: rgb(169, 131, 64); stroke-linecap: round; stroke-linejoin: round; stroke-width: 0.2px;"/>
      <path class="st12" d="M325.3,392.2c.3.5.5,1,.3,1.6-.2.6-.6,1.1-1.1,1.5-.2.2-.4.3-.6.5,0,0-.2,0-.2,0,0,0,0-.1,0-.2,0-.5,0-1,0-1.5,0-.6.3-1.1.7-1.6.1-.1.2-.3.3-.5,0-.2.2-.2.4,0,.1.1.2.2.3.3Z" style="fill: rgb(169, 131, 64); stroke: rgb(169, 131, 64); stroke-linecap: round; stroke-linejoin: round; stroke-width: 0.2px;"/>
      <path class="st12" d="M316.3,390.6c.1,0,.3,0,.4,0,.8-.2,1.6,0,2.4.3.6.3,1,.9,1.1,1.6.1.6-.2,1.3-.7,1.6-.3.2-.9,0-.9-.4,0,0,0-.1,0-.2.1,0,.2.2.3.2.2.2.4.2.7,0,.4-.3.5-1,.3-1.5-.3-.5-.7-.9-1.2-1.1-1.1-.4-2.1-.3-3.1.2-.8.4-1.4,1-2,1.7-1.7,1.9-2.6,4.1-3.2,6.4-.3,1.3-.6,2.7-.6,4.1,0,.2,0,.5,0,.7,0,0,0,0,0,0,0,0,0-.1,0-.2,0-.4,0-.9,0-1.3.2-2.4.7-4.7,1.8-6.9.7-1.5,1.7-2.9,2.9-4,1.5-1.4,3.3-2.4,5.4-2.6,1.4-.1,2.7.1,3.9.9.6.4,1,.9,1.3,1.5.3.9.2,1.8-.4,2.6,0,0,0,0,0,0,0,0-.1,0-.2,0,0,0,0-.1,0-.2,0-.2.2-.3.2-.5.3-.7.4-1.5,0-2.2-.2-.4-.5-.8-.9-1.1-1-.8-2.1-1-3.4-1-1.4,0-2.7.5-3.9,1.2Z" style="fill: rgb(169, 131, 64); stroke: rgb(169, 131, 64); stroke-linecap: round; stroke-linejoin: round; stroke-width: 0.2px;"/>
    </g>
    <g>
      <path class="st0" d="M298.7,389.2c0-.1,0-.2-.1-.3-.5-.8-.8.2-1.3,0-.2,0-.3-.3-.5-.4-.5-.3-.9.4-1.5.3.4-.2.7-.4.9-.8,0-.2.2-.3.4-.3.2,0,.4.3.6.3.3,0,.5-.2.5-.5,0-.3,0-.6.3-.8.2-.2.6-.2.8,0,.2.2.3.5.4.7.1.2.4.4.6.3,0-.3-.2-.6-.4-.9-.3-.6.5-1.7,1.1-1,.1.2.4.3.5.1,0,0,0-.1,0-.2,0-.2-.2-.5-.4-.6,0,0-.2-.1-.3-.3-.1-.2,0-.5,0-.7.1-.2.3-.4.4-.6.2-.3.2-.8,0-1.1l.7.8c.1.2.3.3.3.5,0,.2-.2.3-.1.5,0,.2.4.2.6.4.2.2.2.4.2.6,0,0,0,.2.1.2,0,0,.1-.1.2-.2,0-.2.3-.3.6-.3.2,0,.4.1.7.2.2.1.5.2.6.5.1.2,0,.5,0,.8-.1.2-.3.5-.4.7,0,.1,0,.2,0,.3,0,0,0,0,0,0,.3-.2.6-.3.9-.2.2,0,.7.7.9.5.2,0,.3-.2.4-.4,0-.2.3-.4.5-.3,0,0,.2.1.3.2,0,0,.2,0,.2,0,.3,0,.6,0,.9,0-.4,0-.7.5-1.1.5,0,0-.1,0-.2,0-.2,0-.3.2-.4.4,0,.2-.2.4-.3.6-.2.5-.6.2-1,.4-.6.3-.3,1.4-1,1.7-.3.1-.7,0-1-.2,0,0-.1,0-.2,0,0,0-.1,0-.2,0-.4.4-.3.9-.2,1.4.1,1,0,2.7-.8,4.9-.4,1.1-1.4,2.6-.9,1.6.5-1.2,1.6-4.2.4-7.6-.1-.3-.3-.6-.6-.7-.5-.2-.5,0-.9.2-.3.1-.7,0-1-.5-.1-.2-.2-.5-.3-.7Z" style="fill: rgb(169, 131, 64); stroke: rgb(169, 131, 64); stroke-linecap: round; stroke-linejoin: round; stroke-width: 0.2px;"/>
      <path class="st0" d="M302.4,387.5c0-.5,0-1.2-.4-1.6-.8-.7-.4.9-.4,1.2.1.6.2,1.8.6,2.2,0,0,0,0,.1,0,0,0,0,0,0,0,.1-.6,0-1.2,0-1.8ZM301.8,389.1c-.1-.4-.3-.8-.4-1.2-.2-.5-.5-1.5-1.2-1.4-.7,0,.2,1.1.4,1.3.2.2.4.4.5.6,0,.2.1.3.2.5,0,.2.2.3.4.4,0,0,0,0,.1,0,0,0,0-.1,0-.2ZM303.8,386.8c.1-.1.2-.3.2-.5,0-.2-.3-.5-.5-.5-.1,0-.2,0-.3.2,0,.1-.1.3-.2.4-.3.7-.4,1.4-.4,2.2,0,.2,0,.4.1.5,0,0,0,0,0,0,0,0,0,0,.1-.1.2-.8.3-1.6.8-2.2ZM304.9,388.8c.1,0,.2-.1.4-.2.3-.1.5-.2.2-.5-.2-.3-.6-.3-.9,0,0,0-.1,0-.1.1-.2.2-.2.5-.3.8,0,.3-.1.5-.3.8-.1.2-.4,0-.4.2,0,.2.2.3.3.3.5,0,.7-.6.9-.9,0-.2.2-.3.3-.4ZM299.7,389.1c0,0,0-.1,0-.2,0,0,0-.2,0-.3-.1-.3-.3-.8-.5-.9-.4-.3-1.1,0-.6.5.1.1.3.2.4.3.2.2.3.5.5.7.2.3.7.8,1.1.5.4-.4-.4-.4-.6-.6ZM302.6,394.3c0-.5.1-.9.1-1.4,0-.3,0-.5,0-.7,0-.2,0-.4-.1-.7,0,0-.1-.1-.2-.1,0,0,0,0,0,0,0,0,0,.2,0,.3,0,.3,0,.6,0,1,0,.5,0,1,0,1.5,0,.1,0,.3,0,.4,0,0,.1-.2.1-.3Z" style="fill: rgb(169, 131, 64); stroke: rgb(169, 131, 64); stroke-linecap: round; stroke-linejoin: round; stroke-width: 0.2px;"/>
      <path class="st0" d="M305,388.3c0,0,.1,0,.2,0,0,0,.1,0,.2-.1,0,0-.2,0-.3,0-.1,0-.3.1-.4.2-.2.2-.2.4-.3.6,0,.2-.2.4-.3.6-.1.2-.3.3-.5.4,0,0,0,0,.1,0,.4-.1.6-.5.7-.8.1-.3.3-.7.6-.8ZM302.9,388.5c0-.4.1-.9.3-1.3,0-.3.2-.5.4-.8,0-.1.1-.2,0-.3-.2,0-.2.3-.3.4-.1.2-.1.4-.2.6-.1.3-.2.7-.2,1,0,.3,0,.5-.1.8,0,0,0,.1,0,.1,0-.1,0-.3.1-.5ZM302.3,388.8c0-.7-.3-1.4-.4-2,0-.1,0-.7-.2-.8-.2,0,0,.7,0,.8,0,.4.1.8.2,1.2,0,.2,0,.4.1.6,0,0,.1.5.1.6,0,0,0-.2,0-.3ZM300.5,386.8s0,0-.1-.1c-.1,0-.2,0,0,.1.6.5,1,1.3,1.3,2,0,0,0,.2.2.2-.2-.9-.6-1.6-1.2-2.3ZM300.1,389.5c-.3,0-.5-.3-.6-.5-.1-.2-.2-.5-.4-.7-.1-.2-.4-.4-.7-.4,0,0,0,0,0,0,0,0,0,0,0,0,.1,0,.2.1.3.2.1,0,.2.2.3.3.2.3.4.6.6.9.1.2.3.3.5.3,0,0,0,0,0,0,0,0,0,0,0,0ZM302.7,393.5c0-.2,0-.5,0-.7,0-.4,0-.8-.2-1.2,0,0,0,0,0,0,0,.2,0,.4,0,.6,0,.2,0,.4,0,.6,0,.4,0,.8,0,1.2,0,0,0,.1,0,0,0,0,0-.6,0-.7Z" style="fill: rgb(169, 131, 64); stroke: rgb(169, 131, 64); stroke-linecap: round; stroke-linejoin: round; stroke-width: 0.2px;"/>
      <path class="st0" d="M305.1,388.2c0,0-.1-.1-.2,0,0,0-.1.1,0,.2,0,0,.1.1.2,0,0,0,.1-.1,0-.2ZM302.9,388.5s0,0,0,0c0,0,0,0,0,0,0,0,0,0,0,0,0,0,0,0,0,0ZM302.2,388.4s0,0,0,0c0,0,0,0,0,0,0,0,0,0,0,0,0,0,0,0,0,0ZM301.4,388.5s0,0,0,0c0,0,0,0,0,0,0,0,0,0,0,0,0,0,0,0,0,0ZM299.9,389.3s0,0,0,0c0,0,0,0,0,0,0,0,0,0,0,0,0,0,0,0,0,0ZM304,389.8s0,0,0,0c0,0,0,0,0,0,0,0,0,0,0,0,0,0,0,0,0,0ZM299.1,388.1c0,0-.1-.1-.2,0,0,0-.1.1,0,.2,0,0,.1.1.2,0,0,0,.1-.1,0-.2ZM300.7,387c0,0-.1-.1-.2,0,0,0-.1.1,0,.2,0,0,.1.1.2,0,0,0,.1-.1,0-.2ZM302,386.5c0,0-.1-.1-.2,0,0,0-.1.1,0,.2,0,0,.1.1.2,0,0,0,.1-.1,0-.2ZM303.5,386.5c0,0-.1-.1-.2,0,0,0-.1.1,0,.2,0,0,.1.1.2,0,0,0,.1-.1,0-.2ZM304.5,389.1s0,0-.1,0c0,0,0,0,0,.1,0,0,0,0,.1,0,0,0,0,0,0-.1ZM303.1,387.5s0,0-.1,0c0,0,0,0,0,.1s0,0,.1,0c0,0,0,0,0-.1ZM302.1,387.5s0,0-.1,0c0,0,0,0,0,.1,0,0,0,0,.1,0,0,0,0,0,0-.1ZM299.5,388.8s0,0-.1,0c0,0,0,0,0,.1,0,0,0,0,.1,0,0,0,0,0,0-.1ZM301.1,387.8s0,0-.1,0c0,0,0,0,0,.1,0,0,0,0,.1,0,0,0,0,0,0-.1Z" style="fill: rgb(169, 131, 64); stroke: rgb(169, 131, 64); stroke-linecap: round; stroke-linejoin: round; stroke-width: 0.2px;"/>
      <path class="st0" d="M302,397c.3-.8.5-1.5.6-2.1-.6.6,0-1.3-.5-3.2-.1-.4.3-.9.6-.3,0-.2,0-.5.3-.7,0,0,.1-.1.2,0,0,0,.1,0,.2,0,.3.2.7.3,1,.2.7-.3.4-1.4,1-1.7.4-.2.8,0,1-.4l.3-.6c0-.2.2-.4.4-.4,0,0,.1,0,.2,0,.4,0,.7-.5,1.1-.5-.3,0-.6,0-.9,0,0,0-.2,0-.2,0,0,0-.2-.1-.3-.2-.2-.1-.4,0-.5.3,0,.2-.2.4-.4.4-.2.1-.7-.5-.9-.5-.4-.1-.6,0-.9.2,0,0,0,0,0,0-.1,0-.1-.2,0-.3,0-.3.2-.5.4-.7.1-.2.2-.5,0-.8-.1-.2-.3-.3-.6-.5-.2-.1-.4-.2-.7-.2-.2,0-.5,0-.6.3,0,0,0,.2-.2.2,0,0-.1,0-.1-.2,0-.2,0-.5-.2-.6-.2-.2-.5-.2-.6-.4,0-.2,0-.3.1-.5,0-.2-.1-.4-.3-.5-.2-.3-.5-.5-.7-.8.2.3.3.8,0,1.1-.1.2-.3.4-.4.6-.1.2-.2.5,0,.7,0,.1.2.2.3.3.2.2.3.4.4.6,0,0,0,.1,0,.2,0,.2-.4,0-.5-.1-.6-.7-1.3.3-1.1,1,.1.3.4.6.4.9-.2.1-.4,0-.6-.3-.1-.2-.2-.5-.4-.7-.2-.3-.6-.3-.8,0-.2.2-.2.5-.3.8,0,.3-.3.6-.5.5-.2,0-.4-.3-.6-.3-.2,0-.3.2-.4.3-.2.4-.6.6-.9.8.5.1,1-.6,1.5-.3.2.1.3.3.5.4.5.2.8-.8,1.3,0,0,0,.1.2.1.3,0,.2.2.5.3.7.2.4.7.6,1,.5.4-.1.5-.4.9-.2.3.1.5.4.6.7,1.2,3.4.2,6.4-.4,7.6-.5,1,.5-.5.9-1.6ZM302.8,390.4s0,0,0,0c0,0,0,0,0,.1-.2.3-.7.2-1,0-.3-.2-.5-.6-.9-.6-.4,0-.9.3-1.3.2-.5-.2-.5-.9-.9-1.3-.3-.2-.9-.5-.8-.9,0-.2.1-.4.3-.6.7-.5,1,.7,1.6.9.8.3-.1-1.6,0-1.8,0-.1.2-.2.3-.3,0,0,.2,0,.2,0,.1,0,.2.1.3.2.1,0,.2.2.4.2,0,0,.1,0,.2,0,0,0,0,0,0-.1,0-.3,0-.7,0-1,0-.1.1-.2.2-.2,0,0,.1,0,.2,0,.5,0,.6.5.7.9,0,0,0,.1,0,.2.1.1.3,0,.4-.2,0-.2,0-.3.2-.5.2-.2.4-.2.7-.1.2,0,.5.2.6.4.2.4,0,.8-.3,1.2-.2.3-.6,1,0,1.1.1,0,.2,0,.3-.1.2-.2.1-.4.4-.4.2,0,.4,0,.6,0,.3.1.4.4.6.6,0,0,.2.2.2.3,0,.2-.4.2-.6.3-.3,0-.5.2-.7.4-.1.2-.2.5-.3.7-.1.2-.3.5-.6.5-.2,0-.4-.1-.6-.2-.2,0-.4-.1-.6,0ZM302.2,390c0,0,.1,0,.2,0,0,0,.2,0,.2,0-.1-.2-.7-.5-1.1-.4,0,0,0,0-.1,0,0,0,0,.1,0,.2.1.3.4.4.6.6.1,0,.2.1.3,0,.2-.2-.1-.3-.2-.4Z" style="fill: rgb(169, 131, 64); stroke: rgb(169, 131, 64); stroke-linecap: round; stroke-linejoin: round; stroke-width: 0.2px;"/>
    </g>
    <g>
      <path class="st2" d="M300.6,378.7c-.6.4-1.4.6-2.1.6-.7,0-1.5,0-2.2-.1-.1,0-.2-.2-.3-.3,0-.1.2-.2.3-.3.9-.5,1.7-1.1,2.5-1.7.4-.3.8-.7,1.3-.9.8-.5,1.7-.5,2.5-.4.2,0,.4,0,.6,0,0,0,.2,0,.2.1,0,0,0,.2,0,.2,0,.1-.2.2-.3.3-.4.4-.8.8-1.1,1.3-.4.5-.8,1-1.3,1.3Z" style="fill: rgb(169, 131, 64); stroke: rgb(169, 131, 64); stroke-linecap: round; stroke-linejoin: round; stroke-width: 0.2px;"/>
      <path class="st2" d="M305,380.3c1.1-.6,2.1-.7,3.1-.5.3,0,.5.1.8.3.1,0,.3.1,0,.3-.3.2-.5.4-.7.7-.5.6-1.2.9-2,.9-.6,0-1.2.2-1.7.3-.1,0-.2.1-.4.2,0,0-.2,0-.3,0,0,0-.1-.2,0-.3.3-.8.7-1.5,1.3-1.8Z" style="fill: rgb(169, 131, 64); stroke: rgb(169, 131, 64); stroke-linecap: round; stroke-linejoin: round; stroke-width: 0.2px;"/>
      <path class="st2" d="M302.2,399.5c0-.1-.2-.2-.2-.3-.3-1.1-.2-2.2,0-3.3.5-2,1.6-3.7,3-5.1,1.4-1.4,2.9-2.8,4.3-4.2.5-.5,1-1.1,1.5-1.7.5-.6.8-1.2.9-1.9,0-.2,0-.5-.1-.8-.5-1.1-2-2.2-3.7-1.9-.9.2-1.7.4-2.5.7,0,0-.2,0-.2,0,0,0,0,0,0,0,0,0,.1-.2.2-.2.8-.3,1.5-.6,2.3-.8,1.7-.4,3.2.2,4.2,1.7,0,0,0,0,.1.1,0-.2,0-.2,0-.3,0-.8-.2-1.5-.5-2.2-.9-1.6-2.1-2.9-3.8-3.6-.3-.1-.7-.2-1-.3-1.6-.2-3.2,0-4.6.8-.7.4-1.4.7-2.1,1.1-.1,0-.2,0-.3.1,0,0,0,0,0,0,0,0,.1-.2.2-.2,1.2-.7,2.3-1.5,3.7-1.9,1.5-.4,3.1-.5,4.6,0,1.2.4,2,1.2,2.8,2.1.6.7,1.1,1.4,1.4,2.2.4,1.1.5,2.2.2,3.3,0,.1,0,.3,0,.4,0,0,0-.1.1-.2,1-2.3,1.1-4.7.1-7.1-.6-1.5-1.7-2.6-3.1-3.4-2.9-1.7-5.9-1.8-9.1-.9-1,.3-2,.7-2.8,1.3-1.7,1.2-3.1,2.7-3.4,4.8-.2,1.1,0,2.1.3,3.1,0,0,0,0,0,0-.2,0-.3,0-.4-.2-.2-.8-.5-1.6-.4-2.4.2-1.9,1.1-3.5,2.5-4.8,1.6-1.5,3.6-2.2,5.7-2.5,2.7-.4,5.4,0,7.8,1.3,2.6,1.4,3.9,3.6,4,6.5.2,3.2-1.2,5.9-3.5,8-1,.9-2.1,1.6-3.1,2.5-2.1,1.8-3.8,3.8-4.6,6.5-.3,1-.3,2.1-.1,3.1,0,0,0,.2,0,.2,0,0,0,0-.1,0Z" style="fill: rgb(169, 131, 64); stroke: rgb(169, 131, 64); stroke-linecap: round; stroke-linejoin: round; stroke-width: 0.2px;"/>
    </g>
    <path class="st6" d="M317.8,404c0,0,.1,0,.2-.1.7-.5,1.3-1,1.9-1.6.3-.3.6-.6,1-.8.4-.3.9-.2,1.2.2.3.3.2.7.1,1-.2.6-.6,1-1.1,1.4-.8.5-1.7.8-2.6.9-.5,0-.9,0-1.4,0-.4,0-.8.1-1.2.2-.3,0-.5,0-.8,0-.1,0-.2,0-.3,0-.2,0-.4,0-.6,0,0,0-.1,0-.2-.1,0,0,0-.1.2-.2,0,0,.2,0,.3-.1,1.6-.5,2.6-1.6,2.8-3.3.1-.8,0-1.5.2-2.3,0-.3,0-.6.2-.8.2-.5.6-.9,1.2-.9.6,0,1.1.3,1.3.8.3.6.3,1.3.1,2-.3,1.2-1,2.1-1.8,2.9-.2.2-.5.4-.7.6,0,0,0,0,0,0Z" style="fill: rgb(169, 131, 64); stroke: rgb(169, 131, 64); stroke-linecap: round; stroke-linejoin: round; stroke-width: 0.2px;"/>
    <g>
      <path class="st7" d="M327.4,379.8s-4-1.1-5.7.7c-.9,1,0,1.5,0,1.5,0,0,.7.8,1.4-.2.6-.8-.3-1.2-.4-1.2-.1,0,0,0,0,0,0,0,.7-.9,4.8-.9Z" style="fill: rgb(169, 131, 64); stroke: rgb(169, 131, 64); stroke-linecap: round; stroke-linejoin: round; stroke-width: 0.2px;"/>
      <path class="st7" d="M328,379.3s-6.8-2.5-11.1,1.1c0,0-1.5,1-.8,1.8,0,0,1.1-1,1.9,0s-.3,1.8-.3,1.8c0,0-1.2.8-2-.1-.8-.9-1.5-2.5,1-4.4,2.5-1.9,8.6-2.1,11.3-.2Z" style="fill: rgb(169, 131, 64); stroke: rgb(169, 131, 64); stroke-linecap: round; stroke-linejoin: round; stroke-width: 0.2px;"/>
    </g>
    <g>
      <path class="st7" d="M332.2,407s3.8-1.6,4.1-4.1c.1-1.3-.9-1.2-.9-1.2,0,0-1-.2-1,1,0,1,1,.8,1.1.7,0,0,0,0,0,0,0,0,0,1.2-3.3,3.6Z" style="fill: rgb(169, 131, 64); stroke: rgb(169, 131, 64); stroke-linecap: round; stroke-linejoin: round; stroke-width: 0.2px;"/>
      <path class="st7" d="M332,407.8s6.9-2.2,8-7.7c0,0,.5-1.7-.4-1.9,0,0-.2,1.5-1.4,1.2s-.9-1.6-.9-1.6c0,0,.4-1.4,1.6-1.1,1.2.3,2.7,1.1,1.9,4.1-.8,3-5.5,7-8.8,7.1Z" style="fill: rgb(169, 131, 64); stroke: rgb(169, 131, 64); stroke-linecap: round; stroke-linejoin: round; stroke-width: 0.2px;"/>
    </g>
    <g>
      <path class="st0" d="M314,341.5c0,1.1-.3,2.2-.8,3.2-.2.4-.3.7-.5,1.1,0,.1-.2.2-.3.2,0,0-.2-.2-.2-.3-.1-1-.4-2-.8-3-.2-.6-.2-1.2,0-1.8.2-.4.4-.9.6-1.3.2-.5.4-.9.7-1.4.2-.3.4-.4.6,0,.3.4.5.8.7,1.3.2.6.3,1.3.3,2Z" style="fill: rgb(169, 131, 64); stroke: rgb(169, 131, 64); stroke-linecap: round; stroke-linejoin: round; stroke-width: 0.2px;"/>
      <path class="st0" d="M266.2,335.4c0-.5.1-1.1.3-1.6.2-.7.6-1.2,1.3-1.5.5-.2,1.1-.3,1.6-.5.3,0,.4.2.3.4-.2.6-.4,1.2-.7,1.8-.2.6-.6,1-1.1,1.3-.2.1-.4.2-.6.4-.2.2-.3.5-.5.7,0,0-.2.2-.3.2-.2,0-.2-.1-.2-.3,0-.3,0-.7,0-1,0,0,0,0,0,0Z" style="fill: rgb(169, 131, 64); stroke: rgb(169, 131, 64); stroke-linecap: round; stroke-linejoin: round; stroke-width: 0.2px;"/>
      <path class="st0" d="M279.2,345.4c0-.5.2-1,.3-1.5.1-.9.3-1.8.4-2.7,0-.9,0-1.8,0-2.7,0-1.6-.4-3.1-1.3-4.5-1-1.6-2.5-2.6-4.3-3-1.5-.3-2.9-.1-4.2.5-.9.4-1.6,1.2-2.1,2,0,0,0,.1-.1.2,0,0,0,0,0,0,0-.1.1-.3.2-.4,1-1.6,2.3-2.6,4.2-2.7,2.1-.2,4.1.3,5.7,1.8,1.1,1.1,1.8,2.4,2.1,3.9.2.8.2,1.7.3,2.5,0,1.1,0,2.2-.2,3.3,0,0,0,0,0-.1,1.5-3.2,3.7-5.8,6.4-8,2.5-2,5.3-3.5,8.4-4.4,1.9-.5,3.9-.7,5.8-.5,3.3.3,6.1,1.6,8.6,3.7.9.7,1.6,1.5,2.3,2.4.8,1.1,1.4,2.3,1.6,3.7.2,1.1.2,2.2,0,3.4,0,.3,0,.5-.1.8,0,0,0,.1,0,.2,0,0,0,0,0,0,0-.3,0-.6,0-.9,0-.8,0-1.6,0-2.3,0-.7-.2-1.5-.4-2.2-.6-1.8-1.8-3.3-3.2-4.5-2.1-1.8-4.4-3.1-7.1-3.6-1.3-.3-2.6-.3-3.9-.2-1.6.1-3.2.4-4.7,1,0,0-.2,0-.3.1.6,0,1.1,0,1.7,0,1.2,0,2.3.5,3.1,1.4.7.8,1,1.7.6,2.7-.4,1-1.1,1.7-2.1,1.9-.7.1-1.4,0-1.9-.5-.7-.6-.7-1.5-.3-2.4.3-.7,1.1-1.1,2-.9.1,0,.3,0,.4,0,0,0,.1.1.2.2,0,0-.1.1-.2.1-.2,0-.5,0-.7,0-.8,0-1.3.4-1.5,1.1-.2.8,0,1.5.7,1.9.7.4,1.6.3,2.3-.2,1-.8,1.3-2,.5-3.2-.7-1-1.7-1.6-3-1.7-1,0-2,0-3,.3-.8.2-1.6.7-2.3,1.1-3.1,1.8-5.7,4.2-7.8,7.2-.8,1.1-1.4,2.3-1.9,3.5-.2.5-.3,1.1-.4,1.6,0,.1,0,.3-.2.3,0,0,0,0,0,.1,0,.1-.1.2-.2.3,0,0,0,0,0,0Z" style="fill: rgb(169, 131, 64); stroke: rgb(169, 131, 64); stroke-linecap: round; stroke-linejoin: round; stroke-width: 0.2px;"/>
    </g>
    <g>
      <path class="st11" d="M336.6,334.7s-4.6-.5-5.7-3.2c-.5-1.4.6-1.6.6-1.6,0,0,1-.5,1.4.8.3,1.1-.8,1.1-.9,1.1-.1,0,0,0,0,0,0,0,.3,1.3,4.6,2.9Z" style="fill: rgb(169, 131, 64); stroke: rgb(169, 131, 64); stroke-linecap: round; stroke-linejoin: round; stroke-width: 0.3px;"/>
      <path class="st11" d="M337.1,335.5s-8.1-.3-11-5.8c0,0-1.1-1.7-.1-2.2,0,0,.7,1.5,1.9.9s.4-2,.4-2c0,0-.9-1.4-2.1-.7s-2.6,2-.8,5c1.8,3,8.1,5.8,11.6,4.9Z" style="fill: rgb(169, 131, 64); stroke: rgb(169, 131, 64); stroke-linecap: round; stroke-linejoin: round; stroke-width: 0.3px;"/>
      <path class="st11" d="M334.2,337s-2.8-1.1-4.6,0c-1,.5,0,.9,0,.9,0,0,.7-.4,1.2.5s-.5,1.3-1,1.6c-.5.2-1.5.2-1.9-1.3-.4-1.5.8-2.1,1.8-2.5,1-.4,2.9-.4,4.5.8Z" style="fill: rgb(169, 131, 64); stroke: rgb(169, 131, 64); stroke-linecap: round; stroke-linejoin: round; stroke-width: 0.3px;"/>
    </g>
    <path class="st0" d="M291.5,385.7c0,0,0-.2-.1-.2-.4-.8-.9-1.5-1.5-2.2-.3-.3-.5-.7-.8-1.1-.3-.5-.1-1,.3-1.3.4-.2.7-.2,1.1,0,.6.3,1,.8,1.4,1.3.5.9.7,1.8.8,2.8,0,.5,0,1,0,1.5,0,.4,0,.9,0,1.3,0,.3,0,.6,0,.8,0,.1,0,.2,0,.4,0,.2,0,.4,0,.6,0,0-.1.1-.2.2,0,0-.1-.1-.2-.2,0,0,0-.2,0-.3-.4-1.8-1.5-2.9-3.3-3.3-.8-.2-1.6-.2-2.4-.4-.3,0-.6-.1-.9-.3-.6-.3-.9-.8-.8-1.4,0-.6.4-1.1,1-1.3.7-.3,1.4-.2,2.1,0,1.2.4,2.2,1.2,2.9,2.2.2.3.4.5.6.8,0,0,0,0,0,0Z" style="fill: rgb(169, 131, 64); stroke: rgb(169, 131, 64); stroke-linecap: round; stroke-linejoin: round; stroke-width: 0.2px;"/>
    <g>
      <path class="st0" d="M288,346.4c-.6.3-1.3.4-1.9.3-.7,0-1.3-.2-1.9-.4-.1,0-.2-.2-.3-.3,0,0,.2-.2.3-.2.9-.3,1.7-.7,2.4-1.2.4-.3.8-.5,1.3-.7.8-.3,1.5-.3,2.3,0,.2,0,.3,0,.5,0,0,0,.2,0,.2.1,0,0,0,.1,0,.2,0,0-.2.1-.3.2-.4.3-.8.7-1.2,1-.4.4-.8.8-1.3,1Z" style="fill: rgb(169, 131, 64); stroke: rgb(169, 131, 64); stroke-linecap: round; stroke-linejoin: round; stroke-width: 0.2px;"/>
      <path class="st0" d="M291.8,348.4c1-.5,2-.4,2.9,0,.2,0,.5.2.7.3.1,0,.2.1,0,.3-.3.1-.5.3-.7.5-.6.5-1.2.6-1.9.6-.5,0-1.1,0-1.6,0-.1,0-.2,0-.4.1,0,0-.2,0-.3,0,0,0,0-.2,0-.3.4-.6.8-1.2,1.4-1.5Z" style="fill: rgb(169, 131, 64); stroke: rgb(169, 131, 64); stroke-linecap: round; stroke-linejoin: round; stroke-width: 0.2px;"/>
      <path class="st0" d="M286.9,365.2c0-.1-.1-.2-.1-.3-.1-1,0-2,.4-2.9.7-1.7,1.8-3.1,3.3-4.2,1.4-1.1,2.9-2.2,4.3-3.3.5-.4,1-.9,1.5-1.3.5-.4.8-1,1-1.6,0-.2,0-.5,0-.7-.4-1-1.5-2.2-3.1-2.1-.8,0-1.6.2-2.4.4,0,0-.2,0-.2,0,0,0,0,0,0,0,0,0,.1-.1.2-.1.7-.2,1.4-.3,2.2-.4,1.6-.2,2.8.6,3.5,2,0,0,0,0,0,.1,0-.1,0-.2,0-.3,0-.7,0-1.3-.2-2-.6-1.6-1.5-2.9-3-3.7-.3-.2-.6-.3-.9-.3-1.4-.3-2.8-.4-4.2.2-.7.3-1.3.5-2,.8-.1,0-.2,0-.3,0,0,0,0,0,0,0,0,0,.1-.1.2-.2,1.1-.5,2.3-1.1,3.5-1.2,1.4-.1,2.8,0,4.1.6,1,.5,1.7,1.3,2.3,2.2.4.7.8,1.4,1,2.1.3,1,.2,2-.2,3,0,.1-.1.2-.1.4,0,0,0-.1.1-.2,1.2-2,1.5-4.1.9-6.3-.4-1.4-1.2-2.5-2.4-3.4-2.4-1.8-5.1-2.3-8-1.9-.9.1-1.8.4-2.7.8-1.7.9-3,2-3.6,3.9-.3.9-.3,1.9-.1,2.8,0,0,0,0,0,0-.2,0-.3,0-.3-.2-.1-.7-.2-1.5,0-2.2.4-1.7,1.4-3,2.8-4,1.6-1.1,3.4-1.6,5.4-1.6,2.5,0,4.8.5,6.9,2.1,2.1,1.6,3.1,3.7,2.8,6.3-.2,2.9-1.8,5.1-4.1,6.8-1,.7-2.1,1.2-3.1,1.9-2.1,1.3-3.8,3-4.8,5.3-.4.9-.5,1.8-.5,2.8,0,0,0,.1,0,.2,0,0,0,0,0,0Z" style="fill: rgb(169, 131, 64); stroke: rgb(169, 131, 64); stroke-linecap: round; stroke-linejoin: round; stroke-width: 0.2px;"/>
    </g>
    <g>
      <path class="st0" d="M338.6,348.6c.6.2,1.3.2,2,0,.6-.1,1.3-.4,1.9-.6.1,0,.2-.2.2-.3-.1,0-.2-.2-.3-.2-.9-.2-1.7-.6-2.6-1-.4-.2-.9-.4-1.3-.5-.8-.2-1.6,0-2.3.2-.2,0-.3,0-.5.1,0,0-.2,0-.2.1,0,0,0,.1,0,.2.1,0,.2.1.4.2.4.3.9.6,1.3.9.4.3.9.7,1.4.8Z" style="fill: rgb(169, 131, 64); stroke: rgb(169, 131, 64); stroke-linecap: round; stroke-linejoin: round; stroke-width: 0.2px;"/>
      <path class="st0" d="M335.1,351c-1.1-.3-2-.1-2.9.3-.2.1-.4.2-.6.4-.1,0-.2.2,0,.3.3.1.5.3.8.5.6.4,1.3.5,2,.4.5,0,1.1-.1,1.6-.1.1,0,.2,0,.4,0,0,0,.2,0,.3,0,0,0,0-.2,0-.3-.4-.6-.9-1.1-1.5-1.3Z" style="fill: rgb(169, 131, 64); stroke: rgb(169, 131, 64); stroke-linecap: round; stroke-linejoin: round; stroke-width: 0.2px;"/>
      <path class="st0" d="M341.7,367.2c0-.1.1-.2.1-.3,0-1-.3-2-.7-2.9-.9-1.6-2.2-2.9-3.7-3.8-1.5-.9-3.1-1.8-4.6-2.8-.6-.3-1.1-.7-1.6-1.1-.5-.4-.9-.9-1.2-1.5,0-.2,0-.5,0-.7.2-1.1,1.3-2.3,2.8-2.4.8,0,1.6,0,2.4.1,0,0,.2,0,.2,0,0,0,0,0,0,0,0,0-.2-.1-.2-.1-.7,0-1.5-.2-2.2-.2-1.6,0-2.7.9-3.3,2.4,0,0,0,0,0,.1,0-.1,0-.2,0-.3-.1-.7-.2-1.3,0-2,.4-1.6,1.2-3,2.6-4,.3-.2.5-.3.8-.4,1.4-.5,2.8-.7,4.2-.3.7.2,1.4.4,2.1.5.1,0,.2,0,.3,0,0,0,0,0,0,0,0,0-.1-.1-.2-.1-1.2-.4-2.4-.9-3.6-.9-1.4,0-2.8.3-4,1.1-.9.6-1.5,1.5-2,2.4-.4.7-.6,1.4-.8,2.2-.2,1,0,2,.6,2.9,0,.1.1.2.1.4,0,0-.1-.1-.1-.2-1.4-1.8-1.9-3.9-1.6-6.2.2-1.5.9-2.7,2-3.7,2.2-2.1,4.8-2.8,7.7-2.7.9,0,1.9.2,2.7.5,1.8.7,3.2,1.7,4,3.5.4.9.5,1.8.4,2.8,0,0,0,0,0,0,.2,0,.3,0,.3-.3,0-.7,0-1.5-.2-2.2-.6-1.7-1.7-2.8-3.2-3.7-1.7-.9-3.6-1.2-5.5-1-2.5.2-4.7,1.1-6.6,2.8-1.9,1.8-2.6,4-2.2,6.6.5,2.9,2.3,4.9,4.8,6.3,1,.6,2.2,1,3.3,1.5,2.2,1.1,4.1,2.6,5.4,4.8.5.8.7,1.8.8,2.7,0,0,0,.1,0,.2,0,0,0,0,0,0Z" style="fill: rgb(169, 131, 64); stroke: rgb(169, 131, 64); stroke-linecap: round; stroke-linejoin: round; stroke-width: 0.2px;"/>
    </g>
    <g>
      <path class="st0" d="M299.4,366.9c.9-.3,1.8-.6,2.7-.9,2.1-.6,4.3-1,6.5-.9,1,0,2,.2,2.8.7.3.2.6.4.8.7.5.6.3,1.3-.4,1.6-.6.2-1.1.2-1.7,0-1.8-.5-3.6-.8-5.5-1-1-.1-2,0-3,.1-1.7.3-3.3.7-4.9,1.3-.2,0-.4.2-.6.3,0,0-.1,0-.2,0,0,0,0-.1,0-.2,0-.3.3-.5.4-.7.6-.8,1.3-1.7,2.1-2.3.3-.3.7-.5,1.1-.7.2-.1.5,0,.8,0,.3,0,.5.3.3.6,0,.2-.3.5-.4.6-.3.2-.6.4-.9.6,0,0,0,0,0,0Z" style="fill: rgb(169, 131, 64); stroke: rgb(169, 131, 64); stroke-linecap: round; stroke-linejoin: round; stroke-width: 0.2px;"/>
      <path class="st0" d="M320.6,375.4c-.3.8-.7,1.3-1.4,1.6-.8.3-1.6.2-2.4,0-.3,0-.6-.1-1-.2,0,0-.2-.1-.2-.2,0,0,0-.2.1-.3.5-.4,1-.8,1.6-1.2.6-.5,1.4-.6,2.2-.6.2,0,.5,0,.7,0,.3,0,.4,0,.4.3,0,.2,0,.4,0,.6Z" style="fill: rgb(169, 131, 64); stroke: rgb(169, 131, 64); stroke-linecap: round; stroke-linejoin: round; stroke-width: 0.2px;"/>
      <path class="st0" d="M315,364.9c.1.1.3.2.4.3.9.7,1.4,1.6,1.6,2.8.1.9-.1,1.7-.7,2.5-.5.6-1.5.9-2.2.6-.4-.2-.6-.9-.3-1.3,0,0,.1,0,.2-.1,0,.2,0,.3,0,.5,0,.4.1.6.5.7.7.2,1.4-.2,1.8-1,.3-.7.4-1.4.1-2.1-.4-1.4-1.4-2.4-2.7-3-1-.5-2.2-.6-3.3-.6-3.3-.2-6.3.6-9.3,2-1.7.8-3.3,1.6-4.7,2.7-.3.2-.5.3-.8.5,0,0,0,0,0,0,0,0,0-.2.2-.2.4-.4.9-.7,1.3-1,2.6-1.8,5.5-3.2,8.6-3.9,2.2-.5,4.4-.6,6.5-.3,2.7.4,5.1,1.4,7,3.4,1.3,1.3,2.1,2.9,2.3,4.8,0,.9,0,1.8-.5,2.6-.7,1.1-1.7,1.7-3,1.8,0,0-.1,0-.1,0,0,0-.1,0-.2-.1,0,0,0-.2.1-.2.2,0,.5-.1.7-.2,1-.3,1.8-.8,2.3-1.8.3-.6.4-1.2.4-1.8,0-1.6-.7-3.1-1.7-4.3-1.2-1.4-2.7-2.4-4.4-3Z" style="fill: rgb(169, 131, 64); stroke: rgb(169, 131, 64); stroke-linecap: round; stroke-linejoin: round; stroke-width: 0.2px;"/>
    </g>
    <g>
      <path class="st0" d="M298.4,310.7c.5.8.7,2,.4,3.2,0,.2-.2.4-.3.6-.2.2-.4.2-.6,0-.3-.2-.6-.4-.8-.7-.5-.5-.7-1.1-.6-1.8,0-.3,0-.6,0-.8,0-.6,0-1.2-.4-1.8,0-.1-.2-.3,0-.5.2-.2.4,0,.5,0,0,0,0,0,0,0,.6.3,1.2.9,1.7,1.8Z" style="fill: rgb(169, 131, 64); stroke: rgb(169, 131, 64); stroke-linecap: round; stroke-linejoin: round; stroke-width: 0.2px;"/>
      <path class="st0" d="M305.2,320.3c-.5-.8-.3-1.6.6-1.8.4-.1.9,0,1.3,0,1.2.5,2,1.4,2.5,2.6,0,.1,0,.3,0,.4,0,0-.3,0-.4,0-.5-.2-.9-.4-1.5-.4-.6,0-1.1,0-1.6-.3-.3-.1-.7-.3-.8-.6Z" style="fill: rgb(169, 131, 64); stroke: rgb(169, 131, 64); stroke-linecap: round; stroke-linejoin: round; stroke-width: 0.2px;"/>
      <path class="st0" d="M291.5,331.2c.3-2.1.8-4.2,2.1-5.9,0,0,0,0,0,0,0,0-.2.2-.3.3,0,0-.2.2-.3.2,0,0,0,0,0,0,0-.1.1-.2.2-.3.6-.8,1.2-1.6,1.8-2.4,1.2-1.7,2-3.5,2.6-5.5.2-.6.3-1.2.5-1.8.3-1.5,0-2.9-.5-4.3-.1-.3-.3-.6-.4-1,0,0,0,0,0,0,.1.1.2.2.3.4.5.9.8,1.9,1,2.9.1.9,0,1.8-.2,2.8-.5,2.2-1.4,4.2-2.5,6.1,0,0,0,0,0,.2.2-.2.5-.5.7-.7,2.2-2,4.6-3.2,7.7-3.1,1.2,0,2.3.4,3.4,1,.3.2.5.4.6.6,0,0,0,0,0,0,0,0-.2,0-.2,0-1.2-.9-2.5-1.3-4-1.3-1.5,0-2.9.3-4.3,1-2.7,1.3-4.6,3.5-6.1,6-.9,1.5-1.3,3-1.7,4.7,0,.1,0,.2-.1.4,0,0,0,0-.1,0Z" style="fill: rgb(169, 131, 64); stroke: rgb(169, 131, 64); stroke-linecap: round; stroke-linejoin: round; stroke-width: 0.2px;"/>
    </g>
    <g>
      <path class="st0" d="M308.2,327c.8-.6,1.9-.8,3.1-.6.2,0,.4.1.6.3.2.2.2.4,0,.6-.2.3-.4.6-.6.8-.5.5-1.1.8-1.8.7-.3,0-.6,0-.9,0-.6,0-1.2,0-1.8.5-.1.1-.3.2-.5,0-.2-.2-.1-.3,0-.5,0,0,0,0,0,0,.3-.6.9-1.2,1.7-1.8Z" style="fill: rgb(169, 131, 64); stroke: rgb(169, 131, 64); stroke-linecap: round; stroke-linejoin: round; stroke-width: 0.2px;"/>
      <path class="st0" d="M317.3,319.6c-.8.5-1.6.4-1.9-.5-.1-.4-.1-.9,0-1.3.4-1.2,1.3-2.1,2.4-2.6.1,0,.3,0,.4,0,0,0,0,.3,0,.4-.2.5-.3,1-.3,1.5,0,.6,0,1.1-.2,1.7-.1.4-.3.7-.5.8Z" style="fill: rgb(169, 131, 64); stroke: rgb(169, 131, 64); stroke-linecap: round; stroke-linejoin: round; stroke-width: 0.2px;"/>
      <path class="st0" d="M329.1,332.7c-2.1-.2-4.2-.6-6.1-1.8,0,0,0,0,0,0,0,0,.2.2.3.2,0,0,.2.2.3.3,0,0,0,0,0,0-.1,0-.2-.1-.3-.2-.8-.6-1.7-1.1-2.5-1.7-1.8-1.1-3.7-1.8-5.7-2.2-.6-.1-1.2-.3-1.8-.4-1.5-.2-2.9.2-4.3.7-.3.1-.6.3-.9.5,0,0,0,0,0,0,.1-.1.2-.3.4-.3.9-.6,1.8-.9,2.9-1.1.9-.2,1.8-.2,2.8,0,2.2.4,4.3,1.1,6.3,2.2,0,0,.1,0,.2,0-.3-.2-.5-.5-.8-.7-2.1-2-3.5-4.4-3.5-7.5,0-1.2.3-2.3.9-3.4.1-.3.4-.5.6-.7,0,0,0,0,0,0,0,0,0,.2,0,.2-.9,1.2-1.1,2.6-1.1,4.1,0,1.5.5,2.9,1.2,4.2,1.5,2.6,3.8,4.4,6.4,5.8,1.5.8,3.1,1.1,4.8,1.4.1,0,.3,0,.4,0,0,0,0,0,0,.1Z" style="fill: rgb(169, 131, 64); stroke: rgb(169, 131, 64); stroke-linecap: round; stroke-linejoin: round; stroke-width: 0.2px;"/>
    </g>
    <g>
      <path class="st0" d="M280.6,421.1c.9.5,2,.5,3.2.1.2,0,.4-.2.6-.4.2-.2.2-.4,0-.6-.2-.2-.5-.5-.7-.7-.5-.4-1.2-.6-1.9-.5-.3,0-.6.1-.8.2-.6.1-1.2.1-1.8-.2-.2,0-.3-.2-.5,0-.2.2,0,.4,0,.5,0,0,0,0,0,0,.4.6,1,1.1,1.9,1.6Z" style="fill: rgb(169, 131, 64); stroke: rgb(169, 131, 64); stroke-linecap: round; stroke-linejoin: round; stroke-width: 0.2px;"/>
      <path class="st0" d="M290.7,427.1c-.8-.4-1.6-.2-1.8.7,0,.4,0,.9.2,1.3.6,1.2,1.5,1.9,2.8,2.2.1,0,.3,0,.4,0,0,0,0-.3,0-.4-.3-.4-.4-.9-.5-1.4,0-.6-.1-1.1-.4-1.6-.2-.3-.4-.6-.6-.7Z" style="fill: rgb(169, 131, 64); stroke: rgb(169, 131, 64); stroke-linecap: round; stroke-linejoin: round; stroke-width: 0.2px;"/>
      <path class="st0" d="M300.5,412.5c-2.1.5-4.1,1.2-5.7,2.6,0,0,0,0,0,0,0,0,.2-.2.3-.3,0,0,.1-.2.2-.3,0,0,0,0,0,0-.1,0-.2.1-.3.2-.8.7-1.5,1.4-2.3,2-1.6,1.3-3.4,2.3-5.3,3-.6.2-1.2.4-1.8.6-1.5.4-2.9.3-4.4-.1-.3,0-.7-.2-1-.3,0,0,0,0,0,0,.1,0,.3.2.4.3,1,.4,2,.7,3,.7.9,0,1.8,0,2.7-.4,2.1-.7,4.1-1.7,5.9-3,0,0,0,0,.2,0-.2.3-.5.5-.7.8-1.8,2.3-2.8,4.9-2.5,7.9.1,1.2.6,2.3,1.3,3.3.2.3.4.4.7.6,0,0,0,0,0,0,0,0,0-.2,0-.2-1-1.1-1.5-2.4-1.6-3.9-.1-1.5,0-2.9.6-4.3,1.1-2.8,3.1-4.9,5.5-6.6,1.4-1,2.9-1.6,4.5-2.1.1,0,.2,0,.4-.1,0,0,0,0,0-.1Z" style="fill: rgb(169, 131, 64); stroke: rgb(169, 131, 64); stroke-linecap: round; stroke-linejoin: round; stroke-width: 0.2px;"/>
    </g>
    <path class="st0" d="M297.2,351.8c.1,0,.2,0,.3,0,.7-.4,1.5-.7,2.2-1.1,2.7-1.5,4.9-3.6,6.3-6.4.7-1.5,1.2-3.2,1-4.9-.3-2.3-1.4-4-3.6-4.9-.9-.4-1.9-.4-2.9-.1-.6.2-1.1.6-1.4,1.2-.6,1,0,2,1.2,2.2.2,0,.4,0,.7,0,.7-.1.9-.9.6-1.5.2,0,.2,0,.3.2.3.7-.1,1.5-.9,1.6-.5.1-1.1,0-1.6-.2-.8-.4-.9-1.5-.6-2.1.5-.9,1.3-1.6,2.4-1.7,2.1-.2,3.7.6,4.9,2.2,1.5,1.9,1.7,4,1.1,6.2-.6,2.3-1.8,4.2-3.5,5.8-1.6,1.6-3.5,2.8-5.5,3.7-.3.1-.6.2-.9.2,0,0,0,0,0-.1Z" style="fill: rgb(169, 131, 64); stroke: rgb(169, 131, 64); stroke-linecap: round; stroke-linejoin: round; stroke-width: 0.2px;"/>
    <path class="st0" d="M341.6,382.9c0,0,.1-.2.2-.3.3-.7.7-1.5,1-2.2,1.1-2.9,1.5-5.9.8-8.9-.4-1.7-1.1-3.2-2.3-4.4-1.7-1.6-3.6-2.2-5.9-1.6-1,.3-1.8.8-2.3,1.7-.3.6-.4,1.2-.4,1.8.1,1.1,1.3,1.6,2.3.9.2-.1.3-.3.5-.4.5-.6,0-1.3-.5-1.5,0-.2.2-.1.3,0,.7.4.8,1.2.3,1.8-.4.4-.8.7-1.4.8-.8.2-1.7-.6-1.8-1.3-.2-1.1,0-2,.8-2.8,1.5-1.5,3.3-1.9,5.2-1.4,2.3.5,3.8,2,4.8,4.1,1,2.1,1.2,4.4,1,6.7-.2,2.3-1,4.3-2,6.4-.1.3-.4.5-.6.8,0,0,0,0-.1,0Z" style="fill: rgb(169, 131, 64); stroke: rgb(169, 131, 64); stroke-linecap: round; stroke-linejoin: round; stroke-width: 0.2px;"/>
    <path class="st0" d="M313.5,411.3c0,0-.2.1-.3.2-.8.3-1.5.5-2.3.8-3,.8-6,.9-9,0-1.6-.6-3.1-1.4-4.1-2.8-1.4-1.8-1.9-3.8-1-6,.4-.9,1-1.7,1.9-2.1.6-.3,1.2-.3,1.9-.2,1.1.2,1.5,1.4.7,2.4-.1.2-.3.3-.5.4-.6.4-1.3,0-1.5-.6-.2,0-.2.2,0,.3.3.7,1.1.9,1.8.5.5-.3.7-.7.9-1.3.3-.8-.5-1.7-1.1-1.9-1-.3-2-.2-2.9.5-1.6,1.3-2.2,3.1-1.9,5.1.3,2.4,1.6,4,3.6,5.2,2,1.2,4.2,1.6,6.6,1.6,2.3,0,4.4-.5,6.5-1.3.3-.1.5-.3.8-.5,0,0,0,0,0-.1Z" style="fill: rgb(169, 131, 64); stroke: rgb(169, 131, 64); stroke-linecap: round; stroke-linejoin: round; stroke-width: 0.2px;"/>
    <g>
      <path class="st0" d="M329.4,377.5c0-.4.2-.8.3-1.1.1-.3.3-.4.7-.3,0,0,.1,0,.2,0,.9.7,1.6,1.5,1.6,2.7,0,.3-.1.7-.3,1-.2.4-.4.7-.7,1.1-.2.2-.4.2-.5,0-.1-.3-.3-.6-.5-.9-.5-.8-.8-1.6-.8-2.5Z" style="fill: rgb(169, 131, 64); stroke: rgb(169, 131, 64); stroke-linecap: round; stroke-linejoin: round; stroke-width: 0.2px;"/>
      <path class="st0" d="M331,379.3c0-.2-.1-.5-.2-.7-.4-1.9-1.3-3.5-2.5-4.8-.6-.7-1.3-1.4-2.1-1.9-.4-.3-.9-.6-1.4-.7,0,0,0,0-.1,0,0,0-.2-.1-.3-.2.1,0,.2,0,.3,0,.7,0,1.3.4,1.8.8,1.6,1.2,2.9,2.6,3.8,4.4.5.9.7,1.9.8,2.9,0,.1,0,.3,0,.4,0,0,0,0-.1,0Z" style="fill: rgb(169, 131, 64); stroke: rgb(169, 131, 64); stroke-linecap: round; stroke-linejoin: round; stroke-width: 0.2px;"/>
    </g>
    <g>
      <path class="st0" d="M286.1,377.5c0,.4-.2.8-.3,1.1-.1.3-.3.4-.7.3,0,0-.1,0-.2,0-.9-.7-1.6-1.5-1.6-2.7,0-.3.1-.7.3-1,.2-.4.4-.7.7-1.1.2-.2.4-.2.5,0,.1.3.3.6.5.9.5.8.8,1.6.8,2.5Z" style="fill: rgb(169, 131, 64); stroke: rgb(169, 131, 64); stroke-linecap: round; stroke-linejoin: round; stroke-width: 0.2px;"/>
      <path class="st0" d="M284.5,375.7c0,.2.1.5.2.7.4,1.9,1.3,3.5,2.5,4.8.6.7,1.3,1.4,2.1,1.9.4.3.9.6,1.4.7,0,0,0,0,.1,0,0,0,.2.1.3.2-.1,0-.2,0-.3,0-.7,0-1.3-.4-1.8-.8-1.6-1.2-2.9-2.6-3.8-4.4-.5-.9-.7-1.9-.8-2.9,0-.1,0-.3,0-.4,0,0,0,0,.1,0Z" style="fill: rgb(169, 131, 64); stroke: rgb(169, 131, 64); stroke-linecap: round; stroke-linejoin: round; stroke-width: 0.2px;"/>
    </g>
    <g>
      <path class="st0" d="M272.1,339.6c.4.1.7.3,1.1.4.3.2.4.4.2.7,0,0,0,.1-.1.2-.8.8-1.7,1.4-2.9,1.2-.3,0-.7-.2-1-.4-.4-.2-.7-.5-1-.8-.2-.2-.1-.4.1-.5.3-.1.7-.2,1-.3.8-.4,1.7-.6,2.6-.5Z" style="fill: rgb(169, 131, 64); stroke: rgb(169, 131, 64); stroke-linecap: round; stroke-linejoin: round; stroke-width: 0.2px;"/>
      <path class="st0" d="M270.1,340.9c.2,0,.5,0,.7,0,1.9-.1,3.6-.8,5.1-1.9.8-.5,1.5-1.1,2.2-1.8.4-.4.7-.8.9-1.3,0,0,0,0,0-.1,0,0,.2-.2.2-.2,0,.1,0,.2,0,.3-.2.7-.6,1.2-1,1.7-1.4,1.4-3,2.5-4.8,3.1-1,.3-2,.4-3,.4-.1,0-.2,0-.4,0,0,0,0,0,0-.1Z" style="fill: rgb(169, 131, 64); stroke: rgb(169, 131, 64); stroke-linecap: round; stroke-linejoin: round; stroke-width: 0.2px;"/>
    </g>
    <g>
      <path class="st0" d="M326.9,395.4c.4,0,.8-.1,1.2-.2.3,0,.5.2.5.5,0,0,0,.2,0,.2-.3,1.1-.8,2-1.9,2.5-.3.1-.7.2-1,.1-.4,0-.8-.1-1.3-.2-.3,0-.3-.3-.1-.5.2-.2.5-.5.7-.8.5-.7,1.2-1.3,2-1.7Z" style="fill: rgb(169, 131, 64); stroke: rgb(169, 131, 64); stroke-linecap: round; stroke-linejoin: round; stroke-width: 0.2px;"/>
      <path class="st0" d="M325.8,397.5c.2-.1.4-.3.6-.4,1.6-1,2.7-2.5,3.5-4.2.4-.9.8-1.7,1-2.7.1-.5.2-1.1.1-1.6,0,0,0,0,0-.1,0-.1,0-.2,0-.3,0,0,.1.2.2.3.2.7.1,1.3,0,2-.5,1.9-1.3,3.6-2.6,5.1-.7.8-1.5,1.3-2.4,1.8-.1,0-.2,0-.4.1,0,0,0,0,0,0Z" style="fill: rgb(169, 131, 64); stroke: rgb(169, 131, 64); stroke-linecap: round; stroke-linejoin: round; stroke-width: 0.2px;"/>
    </g>
    <path class="st0" d="M263.6,396.2c.1,0,.3,0,.4,0,1.3,0,2.5,0,3.8.3.8.2,1.6.6,2.3,1.1.4.4.8.8.9,1.4.1.7-.3,1.3-1.1,1.1-.4,0-.8-.2-1.2-.4-1.1-.5-2.2-1.1-3.2-1.6-1.3-.6-2.7-.9-4.1-.9-.1,0-.3,0-.4,0-.1,0-.2,0-.3,0,0,0-.2,0-.3,0,0-.1,0-.2,0-.3,0,0-.2,0-.3,0,0,0,0,0,0,0,.1,0,.2-.2.3-.3.7-.3,1.4-.6,2.1-.9,1.4-.4,2.7-.9,4.1-1.2,2.5-.5,4.9-.6,7.4.1.7.2,1.3.5,1.9.9.5.4.9.9,1,1.6,0,.7-.3,1.3-.8,1.5-.2,0-.6.1-.8,0-.5-.1-.9-.3-1.4-.5-2.4-1.2-4.9-1.8-7.6-2-.8,0-1.6,0-2.4,0,0,0-.2,0-.2,0,0,0,0,0,0,0Z" style="fill: rgb(169, 131, 64); stroke: rgb(169, 131, 64); stroke-linecap: round; stroke-linejoin: round; stroke-width: 0.2px;"/>
    <path class="st1" d="M318.2,411.5c.1,0,.2.1.3.2,0,0-.2.1-.2.2-.1.4-.5.3-.8.4-1.6.6-3.1,1.4-4.5,2.5-.4.3-.9.6-1.4.7-.3,0-.7,0-.9-.2-.3-.3-.3-.6-.1-1,.2-.5.5-.8.9-1.2.8-.7,1.5-1,2.9-1.3,0,0-.1,0-.1,0-1.6-.5-2.9-1.4-4.1-2.6-.8-.8-1.3-1.7-1.4-2.8,0-.3,0-.7,0-1,.3-.9,1.3-1.3,2-.7.4.3.7.6,1.1,1,.9,1.2,1.9,2.3,3,3.4.5.5,1.1.9,1.6,1.3.5.4,1,.6,1.5.8.3,0,.3.1.2.4Z" style="fill: rgb(169, 131, 64); stroke: rgb(169, 131, 64); stroke-linecap: round; stroke-linejoin: round; stroke-width: 0.2px;"/>
    <g>
      <path class="st13" d="M267.9,354.9c-.4-.3-.9-.7-1.3-1.1-.2-.1-.3-.3-.4-.5-.2-.4,0-.8.4-.8.3,0,.5,0,.8,0,.1,0,.2,0,.3.1,0,0,0-.1-.1-.2-.2-.3-.4-.6-.6-1,0-.2,0-.4,0-.6,0-.3.3-.5.6-.4.2,0,.4,0,.6.2.3.2.6.5,1,.7,0,0,0-.1,0-.2-.1-.5-.2-1-.4-1.4,0,0,0-.1,0-.2,0-.6.5-.9,1-.5.3.2.6.5.9.9.3.4.5.8.7,1.3,0,0,0,.2.1.2,0-.5,0-1,0-1.5,0-.3,0-.6.1-.8,0-.1.1-.3.2-.4.2-.3.6-.4.8-.1.2.2.4.4.5.7.3.6.4,1.3.4,2,0,0,0,.1,0,.2.1-.4.2-.8.4-1.1.1-.3.3-.6.5-.9.2-.3.5-.4.9-.3.4.1.5.4.6.8,0,.5,0,.9-.1,1.3-.3,1.2-.8,2.3-1.3,3.4-.4.8-.9,1.3-1.7,1.6-.2,0-.4.2-.7.2,0,0-.2.1-.2.1-.1,0-.2,0-.3,0-.2,0-.5,0-.7.1-.2.1-.4.2-.6.1-.6,0-1.1,0-1.7-.1-.8-.1-1.6-.4-2.3-.7-.2-.1-.5-.3-.6-.5-.2-.2-.3-.5-.2-.8.1-.3.4-.4.7-.4.5,0,1,.1,1.5.2.2,0,.4.1.5.1Z" style="fill: rgb(169, 131, 64); stroke: rgb(169, 131, 64); stroke-linecap: round; stroke-linejoin: round; stroke-width: 0.2px;"/>
      <g>
        <path class="st22" d="M272.4,356.4c0,0,0,0-.1,0-.2-.3-.6-.4-.9-.6-.9-.5-1.7-1-2.4-1.7-.5-.5-1-1.1-1.5-1.7,1,1.2,2.2,2.3,3.6,3-1.1-.9-2-2-2.8-3.1,1,1.1,1.9,2.2,3.1,3.1,0,0,0,0,0,0,0,0,0-.1-.1-.2-.9-1.1-1.6-2.2-2.1-3.5,0-.1,0-.3,0-.3.5.8.9,1.7,1.5,2.6.5.8,1.2,1.6,1.8,2.5Z" style="fill: rgb(17, 42, 79);"/>
        <path class="st22" d="M271.5,351.5c.2.6.5,1.1.7,1.7.2.6.3,1.2.4,1.8,0,0,0,0,0,0,0-.5,0-1.1,0-1.6,0-.5,0-1.1-.1-1.6,0-.5-.1-1.1-.1-1.6.3,1.5.4,2.9.5,4.4,0,0,0,0,0,0,.2-1,.4-2,.6-3,0,1.4-.3,2.8-.8,4.2-.2-.7-.3-1.4-.5-2.1-.2-.7-.4-1.4-.7-2,0,0,0,0,0,0Z" style="fill: rgb(17, 42, 79);"/>
        <path class="st22" d="M269.8,351.1c.8,1.3,1.6,2.7,2.3,4.1,0,0,0,0,0,0-.7-1.7-1.4-3.5-2.4-5.1,0,0,0,0,0,0,0,0,.1.1.2.2.4.6.8,1.3,1.1,1.9.5,1.2,1,2.4,1.4,3.7,0,0,0,.1,0,.2-.5-.4-2.7-4.5-2.8-4.9Z" style="fill: rgb(17, 42, 79);"/>
        <path class="st22" d="M274.8,350.3c.2.6-1.4,5.6-1.9,5.8.9-1.8,1.4-3.8,1.9-5.8Z" style="fill: rgb(17, 42, 79);"/>
        <path class="st22" d="M271,356.8c-.2,0-.4,0-.6,0-1.2-.3-2.3-.8-3.5-1.2,0,0-.2,0-.3-.2,1.5.5,3,1,4.4,1.4Z" style="fill: rgb(17, 42, 79);"/>
        <path class="st22" d="M271.6,356.1c-.3-.1-.6-.3-1-.4-1-.4-1.8-1.1-2.7-1.7,0,0,0,0,0-.1,1.2.9,2.5,1.7,4,2.2,0,0,0,0,0,0h-.2s0,0,0,0Z" style="fill: rgb(17, 42, 79);"/>
        <path class="st22" d="M271.6,356.1c0,0,.2.1.2.2-.4.1-3.4-1-3.9-1.5.4.2.8.3,1.2.5.8.3,1.6.6,2.3.8,0,0,.1,0,.2,0,0,0,0,0,0,0Z" style="fill: rgb(17, 42, 79);"/>
      </g>
    </g>
    <g>
      <path class="st10" d="M317,355.6c-.8.4-1.4,0-1.8-.4-.5-.5-.9-1-1.3-1.5,0,0,0,.1,0,.2,0,.6,0,1.1-.2,1.7,0,.2-.1.3-.2.5-.4.6-1.1.6-1.4,0-.1-.3-.2-.6-.3-.9,0,0,0-.1,0-.2-.1.2-.3.4-.4.6-.4.6-1.1.5-1.3,0-.2-.4-.2-.9,0-1.4.3-1.5,1-2.8,2-4,0-.1.2-.2.3-.3.2-.1.4-.2.6-.1.1,0,.2,0,.4,0,0-.1,0-.2,0-.3,0,0,0,0,0,0,0-.1.1-.2.2-.3,0-.1.2-.2.3-.3.5-.4,1.2-.5,1.8-.6.8,0,1.6-.1,2.3-.1.4,0,.7,0,.9.3.5.4.4,1.1-.3,1.4-.2,0-.4.1-.7.2.2,0,.4.2.6.3.3.1.5.3.7.6.3.5,0,1.1-.6,1.2-.5.1-.9,0-1.3,0-.3,0-.5-.2-.8-.2.1.2.3.3.4.5.3.4.6.8.8,1.2.3.6.3,1.2-.2,1.9l-.2.2Z" style="fill: rgb(169, 131, 64);"/>
      <g>
        <path class="st22" d="M312.8,350.6c.1,1.1.7,2,1,3,0,0,0,0-.1-.1-.3-.7-.6-1.4-1-2.1,0,0,0-.1,0-.2h0c0,1.3,0,2.6,0,3.9,0,0,0,0,0,0,0-1.4,0-2.8-.1-4.2,0,0,0,0,0,.1-.3,1.2-.6,2.3-.6,3.5,0,.1,0,.3-.1.4-.1-1.3,0-2.5.5-3.8,0-.3.3-.5.4-.8,0-.1,0-.2.1-.3,0-.2.1-.2.3,0,.6.6,1.3,1.1,1.9,1.7.5.5.9,1,1.4,1.4,0,0,0,.1,0,.2-.4-.5-.9-.9-1.3-1.4-.5-.5-1-.9-1.5-1.3,0,0,0,0,0,0,1,1.3,1.9,2.6,2.9,3.9,0,0,0,0,0,0-1-1.3-2-2.6-3.1-3.7,0,0,0,0,0,0,.6,1,1.1,2,1.7,3-.8-1-1.4-2.2-2-3.3Z" style="fill: rgb(17, 42, 79);"/>
        <path class="st22" d="M313.3,349.4c1.6-.1,3,.2,4.4.6,0,0,0,0-.1,0,0,0,0,0,0,0,0,0,0,0,.1,0,0,0,0,0,0,0-1.4-.4-2.8-.6-4.3-.7,0,0,0,0,0-.1Z" style="fill: rgb(17, 42, 79);"/>
        <path class="st22" d="M310.8,354.8c-.2-1.1.7-4.1,1.4-4.4-.9,1.4-1.3,2.8-1.4,4.4Z" style="fill: rgb(17, 42, 79);"/>
        <path class="st22" d="M313.2,349.7c1.5.3,2.8.9,4.1,1.6,0,0-.2,0-.3,0-.9-.3-1.8-.7-2.8-1-.3-.1-.6-.2-.8-.3,0,0-.2,0-.3-.1,0,0,0,0,0,0Z" style="fill: rgb(17, 42, 79);"/>
        <path class="st22" d="M313,349.9c1.3.5,2.4,1.1,3.2,2.2-1-.8-2-1.6-3.2-2.2Z" style="fill: rgb(17, 42, 79);"/>
        <path class="st22" d="M317.2,349.3c-1.2-.1-2.4-.3-3.7,0,0,0,0,0,0-.1,1.3-.3,2.5,0,3.7.2Z" style="fill: rgb(17, 42, 79);"/>
      </g>
    </g>
    <g>
      <path class="st7" d="M294.3,322.6s-4-1.1-5.7.7c-.9,1,0,1.5,0,1.5,0,0,.7.8,1.4-.2.6-.8-.3-1.2-.4-1.2-.1,0,0,0,0,0,0,0,.7-.9,4.8-.9Z" style="fill: rgb(169, 131, 64); stroke: rgb(169, 131, 64); stroke-linecap: round; stroke-linejoin: round; stroke-width: 0.2px;"/>
      <path class="st7" d="M295,322.1s-6.8-2.5-11.1,1.1c0,0-1.5,1-.8,1.8,0,0,1.1-1,1.9,0s-.3,1.8-.3,1.8c0,0-1.2.8-2-.1s-1.5-2.5,1-4.4c2.5-1.9,8.6-2.1,11.3-.2Z" style="fill: rgb(169, 131, 64); stroke: rgb(169, 131, 64); stroke-linecap: round; stroke-linejoin: round; stroke-width: 0.2px;"/>
    </g>
    <g>
      <path class="st0" d="M289.5,406.4c.1.4.3.7.3,1.1,0,.3,0,.5-.4.6,0,0-.1,0-.2,0-1.1-.1-2.1-.5-2.8-1.5-.2-.3-.3-.7-.3-1,0-.4,0-.9,0-1.3,0-.3.2-.4.4-.2.3.2.6.4.9.5.8.4,1.5,1,2,1.7Z" style="fill: rgb(169, 131, 64); stroke: rgb(169, 131, 64); stroke-linecap: round; stroke-linejoin: round; stroke-width: 0.2px;"/>
      <path class="st0" d="M287.2,405.7c.2.2.3.4.5.5,1.3,1.4,2.9,2.3,4.7,2.8.9.3,1.8.5,2.8.5.5,0,1.1,0,1.6-.1,0,0,0,0,.1,0,.1,0,.2,0,.3,0,0,0-.2.2-.3.2-.6.3-1.3.3-2,.3-2-.2-3.8-.7-5.5-1.8-.9-.5-1.6-1.3-2.2-2.1,0-.1-.1-.2-.2-.3,0,0,0,0,0,0Z" style="fill: rgb(169, 131, 64); stroke: rgb(169, 131, 64); stroke-linecap: round; stroke-linejoin: round; stroke-width: 0.2px;"/>
    </g>
  </g>
</svg>