<svg xmlns="http://www.w3.org/2000/svg" id="Camada_1" version="1.1" viewBox="0 0 841.9 595.3">
  <!-- Generator: Adobe Illustrator 29.3.1, SVG Export Plug-In . SVG Version: 2.1.0 Build 151)  -->
  <defs>
    <style>
      .st0 {
        stroke-width: .3px;
      }

      .st0, .st1, .st2, .st3, .st4, .st5, .st6, .st7 {
        fill: #a98340;
        stroke: #a98340;
        stroke-linecap: round;
        stroke-linejoin: round;
      }

      .st8 {
        fill: #fff;
      }

      .st1 {
        stroke-width: .2px;
      }

      .st9 {
        fill: #583b5f;
      }

      .st2 {
        stroke-width: .4px;
      }

      .st10 {
        fill: none;
        stroke: #fff;
        stroke-miterlimit: 10;
        stroke-width: 1.3px;
      }

      .st3 {
        stroke-width: .4px;
      }

      .st4 {
        stroke-width: .1px;
      }

      .st5 {
        stroke-width: .5px;
      }

      .st6 {
        stroke-width: .3px;
      }

      .st7 {
        stroke-width: .3px;
      }
    </style>
  </defs>
  <path class="st1" d="M568.3,342.7c-5.5,2.3-10.7,5.7-15.9,5.7,5.2,0,10.4,3.4,15.9,5.7,3.1-2.3,4.8-3.8,10-5.7-5.2-1.9-6.9-3.4-10-5.7Z"/>
  <path class="st1" d="M768.3,350.7h-195.3c-1.1,0-1.9-1.2-1.9-2.3s.9-2.3,1.9-2.3h195.3c1.1,0,1.9,1.2,1.9,2.3s-.9,2.3-1.9,2.3Z"/>
  <path class="st8" d="M545.7,341.4c-3.3.8-5.4,4.8-5.9,6.1-.6,1.6-1.1,3.2-1.2,4.8h-1.1c-.3-2.8.7-6.4,2.1-10.8,1.6-5-1.9-10.5-3.3-10.5s-4.9,5.5-3.3,10.5c1.4,4.4,2.3,8.1,2.1,10.8h-1.1c0-1.6-.6-3.2-1.2-4.8-.4-1.2-2.6-5.2-5.9-6.1-2.8-.7-6.5,1.6-6.7,5.7,0,1.6,1,4.8,3.8,5,1.2,0,2.5-.6,2.2-1.1-.7-1-.6-2.3-.4-2.6.8-1.3,2.4-1.2,3.4-.5,1.5,1.1,2.5,2.1,3.2,4.2h-1.6c-1,0-1.1,1.9,0,1.9h3.2c-.2.1-.4.3-.7.5-.9.6-2,1.3-3,1-.5-.1-.9,0-.8.3.5,2.8,3.7,2.5,4.5,1.4-1,1.2,1.4,4.5,2.2,4.5s3.2-3.3,2.1-4.5c.8,1.1,4,1.4,4.5-1.4,0-.4-.3-.5-.8-.3-1,.3-2.1-.4-3-1-.2-.2-.5-.3-.7-.5h3.2c1.1,0,1-1.9,0-1.9h-1.6c.7-2.1,1.7-3.1,3.2-4.2,1-.8,2.6-.8,3.4.5.2.3.3,1.6-.4,2.6-.3.5,1,1.2,2.2,1.1,2.8-.2,3.9-3.4,3.8-5-.2-4.1-3.9-6.4-6.7-5.7Z"/>
  <path class="st1" d="M777.9,355.4c-.6-2.5-3.7-4.1-4.6-4.5-1.2-.4-2.4-.8-3.6-.9v-.8c2.1-.2,4.9.5,8.2,1.6,3.8,1.2,8-1.5,8-2.5s-4.2-3.7-8-2.5c-3.3,1.1-6.1,1.8-8.2,1.6v-.8c1.2,0,2.4-.4,3.6-.9.9-.3,4-1.9,4.6-4.5.5-2.1-1.2-5-4.4-5.1-1.2,0-3.7.7-3.8,2.9,0,.9.4,1.9.8,1.7.8-.5,1.8-.4,2-.3,1,.6.9,1.8.3,2.6-.9,1.2-1.6,1.9-3.2,2.4v-1.2c0-.8-1.5-.9-1.5,0v2.5c-.1-.2-.2-.3-.4-.5-.5-.7-1-1.5-.8-2.3,0-.4,0-.7-.2-.6-2.2.4-1.9,2.8-1.1,3.4-.9-.8-3.4,1.1-3.4,1.6s2.5,2.4,3.4,1.6c-.8.6-1.1,3,1.1,3.4.3,0,.3-.2.2-.6-.2-.8.3-1.6.8-2.3.1-.2.2-.4.4-.5v2.5c0,.9,1.5.8,1.5,0v-1.2c1.6.5,2.4,1.3,3.2,2.4.6.8.6,2-.3,2.6-.2.1-1.2.2-2-.3-.4-.2-.9.7-.8,1.7.1,2.2,2.6,2.9,3.8,2.9,3.2-.1,4.9-3,4.4-5.1Z"/>
  <path class="st1" d="M503.3,342.7c5.5,2.3,10.7,5.7,15.9,5.7-5.2,0-10.4,3.4-15.9,5.7-3.1-2.3-4.8-3.8-10-5.7,5.2-1.9,6.9-3.4,10-5.7Z"/>
  <path class="st1" d="M303.3,350.7h195.3c1.1,0,1.9-1.2,1.9-2.3s-.9-2.3-1.9-2.3h-195.3c-1.1,0-1.9,1.2-1.9,2.3s.9,2.3,1.9,2.3Z"/>
  <path class="st1" d="M293.7,355.4c.6-2.5,3.7-4.1,4.6-4.5,1.2-.4,2.4-.8,3.6-.9v-.8c-2.1-.2-4.9.5-8.2,1.6-3.8,1.2-8-1.5-8-2.5s4.2-3.7,8-2.5c3.3,1.1,6.1,1.8,8.2,1.6v-.8c-1.2,0-2.4-.4-3.6-.9-.9-.3-4-1.9-4.6-4.5-.5-2.1,1.2-5,4.4-5.1,1.2,0,3.7.7,3.8,2.9,0,.9-.4,1.9-.8,1.7-.8-.5-1.8-.4-2-.3-1,.6-.9,1.8-.3,2.6.9,1.2,1.6,1.9,3.2,2.4v-1.2c0-.8,1.5-.9,1.5,0v2.5c.1-.2.2-.3.4-.5.5-.7,1-1.5.8-2.3,0-.4,0-.7.2-.6,2.2.4,1.9,2.8,1.1,3.4.9-.8,3.4,1.1,3.4,1.6s-2.5,2.4-3.4,1.6c.8.6,1.1,3-1.1,3.4-.3,0-.3-.2-.2-.6.2-.8-.3-1.6-.8-2.3-.1-.2-.2-.4-.4-.5v2.5c0,.9-1.5.8-1.5,0v-1.2c-1.6.5-2.4,1.3-3.2,2.4-.6.8-.6,2,.3,2.6.2.1,1.2.2,2-.3.4-.2.9.7.8,1.7-.1,2.2-2.6,2.9-3.8,2.9-3.2-.1-4.9-3-4.4-5.1Z"/>
  <line class="st10" x1="309.3" y1="348.3" x2="498.6" y2="348.3"/>
  <line class="st10" x1="574" y1="348.3" x2="763.3" y2="348.3"/>
  <g>
    <path class="st1" d="M289.8,314.5l-.6-.9c.5-.6.9-1.1,1.2-1.5.6-.7,1.1-1.3,1.5-1.8,2.6-3.6,3.9-6.4,3.9-8.7v-52.4c0-4.9-1.9-8.5-5.6-10.8h-.1c0,0-8.7-3.3-8.7-3.3,1-1.1,3.2-3.2,7.8-6.8,6.5-5.3,8.8-6.7,9.6-7.1,1.4.7,2,1.1,2.2,1.2h0c0,0,0,0,0,0,4.7,3.2,8.6,7.8,11.6,13.7l.6,1.2,1.3-.3c1.2-.3,3.1-1.6,8.7-8.8,3.3-4.4,7.2-6.5,11.9-6.5s3.1.3,9.2,1.8c4.1,1.1,6.2,1.9,7.3,2.4l-17.8,26c0-.4,0-.9,0-1.3,0-.7,0-1.8.1-3.2.1-1.5.2-2.5.2-3.1,0-2.3-.5-4.2-1.5-5.4-1.3-1.7-3.7-2.5-7.2-2.5s-4.6,1.5-7.4,4.5c-2.8,2.9-4.1,5.4-4.1,7.7v53.7c0,2.6,1.2,5.1,3.6,7.3,2.4,2.3,2.6,3.4,2.6,3.8,0,.6-.1.8-.1.8-.2,0-.5.2-1.2.2-1.5-.9-3.2-1.8-5.1-2.6-2.3-1-4.9-1.4-7.9-1.4s-6.5.5-8.9,1.4c-2.1.8-4.4,1.7-6.7,2.7h-.5Z"/>
    <path class="st1" d="M433.1,314.6c-.7,0-4-1.3-13.2-16.8l-.9-1.5-29.6,18.2c-3.8-1.1-8.9-4.2-15.3-9.1-9.5-7.4-10.4-9.9-11.5-14.3-1.1-4.3,0-47.4,0-47.4,0-3-.6-5.1-1.8-6.3-1.2-1.2-2.8-1.8-4.7-1.8s-1.6,0-2.5.2c-.7,0-1.2.1-1.3.1-.5,0-.7,0-.7-.4.5-.6,2.5-2.4,10.9-7.6,8.8-5.4,11.3-6.6,12-6.9.2.1,1.3.8,3.7,4,2.8,3.7,4.2,8,4.2,13l-2,35.8c0,6.9,1.8,13,5.4,18.2,4.1,5.7,9.5,8.6,16,8.6s5.6-1.4,10.3-4.5c5.5-3.7,8.2-7.3,8.2-10.9v-52.7c0-.8-.3-2-1-3.6h0c0,0,0-.2,0-.2-.5-.9-1.1-1.9-1.7-2.9-.6-.9-1.3-1.9-2.2-2.9v-.6h1.8c2.5,0,3.7.3,4.4.6,1.1.5,2.3,1,3.6,1.5h.3c0,.1,8.6.1,8.6.1.5,0,1.3-.1,4.5-1.5,2.4-1.2,3.4-1.3,3.7-1.3.6,0,.8.1.8.1,0,.2.2.5.2,1.2-1.1,1.7-2,3.5-2.8,5.4-.7,1.7-1.3,3.6-1.9,5.6-.5,2-1.1,4.1-1.6,6.4v.2s-.6,43.8,0,47.5,2.9,8.6,4.3,10,4.2,1,6.1,1.5c1.6.4,3.3.8,5.2,1.3v.8c-6,4.5-10.9,7.9-14.4,10.2-3.6,2.5-4.7,2.9-5,2.9Z"/>
    <path class="st1" d="M584.9,316.6c-1.2-.1-3.9-1.2-9-7-4-4.6-6.1-8.6-6.1-11.7.2-1.3.4-3.4.5-6.2.1-2.8.3-6.5.5-11.1.2-4.6.3-9.4.4-14.5,0-5.1.1-10.5.1-16.1s-1.3-5.6-4-9c-3-4-6.3-6-9.6-6s-2.8.5-11.6,6.1c-9.2,5.7-10,7.5-10,8.9v51.4c0,.4.1.9.6,2.2.4.9,1,2.2,1.7,3.8.8,1.5,1.5,2.8,2,4,.2.4.4.8.6,1.2-.3-.2-.6-.3-1.1-.3-1.3,0-2.7,0-4-.1-1.2,0-2.4-.3-3.6-.8h-.1s-.1,0-.1,0c-.4,0-.8-.2-1.1-.3-.5-.2-1.1-.4-1.7-.6h-.4c0-.1-4.2.7-4.2.7-1.5.3-2.9.7-4.2,1.3-1.2.5-2.3,1-3.4,1.5h-2v-.8c.9-2.9,1.6-5.9,2.3-9,.7-3.3,1.1-6.3,1.1-8.9v-44.2c0-4.4-1.9-8.2-5.7-11.4-3.2-2.6-6-3.9-8.5-3.9h-.5l-.4.2c-1.9,1.1-3.5,2.1-4.8,2.9-1.4.9-2.5,1.6-3.4,2.4-7.8,5.7-8.8,8.2-8.8,9.8v48.6c0,5.1.9,8.7,2.7,10.9,1.9,2.2,2.1,3,2.1,3,0,1.2-.3,1.2-.9,1.2-.1,0-1.2-.3-6.3-2.6-2.2-1.1-4.6-1.6-7.1-1.6s-2,.2-5.9,1.9c-3.4,1.4-4.8,1.6-5.3,1.6-.9,0-1.5,0-1.9-.1,0,0,0-.2,0-.4,1-1.6,2-3.6,2.8-6.3.9-2.9,1.4-6.6,1.4-11.2v-47.1c0-2.5-1.1-5-3.3-7.9-2.3-3-4.7-4.5-7.3-4.5s-2.8.1-4,.4c-.3,0-.7.2-1,.2.8-1.3,3.1-3.9,9.5-8.7l4.4-3.3c1.6-1.2,3.5-2.6,5.7-4,1.2.3,3.9,2,8.9,9.7.7,1.1,1.6,2.5,2.5,4.2.9,1.8,2,3.8,3.3,6.1l.9,1.7,29.8-21.8c2,.3,5.8,2.3,12.2,9.5.9,1,2.1,2.4,3.4,4.1,1.3,1.7,2.8,3.7,4.5,6l1,1.3,31.5-21.4c4.2,2.1,8.5,5.6,12.7,10.5,4.8,5.4,7.2,10.2,7.2,14.2v40.9c0,7.6.9,12.7,2.8,15.5.9,1.4,2.7,3.1,6.4,3.1s1.7,0,2,.1c0,.1,0,.3.1.6-.5.5-2.1,2-7.7,5.9-6,4.3-7.8,5.3-8.3,5.5Z"/>
    <path class="st1" d="M637.6,314.4c-6.4,0-13.2-3.5-20.3-10.3-8.5-8.2-12.8-18.2-12.8-29.9s5.7-22.1,16.9-34.2c11.9-12.8,24.2-19.3,36.5-19.3s4.8.9,11.2,5.3c5.9,4,9.9,5.8,12.6,5.8s7.9-2.2,13.7-6.9h.5v.4c-3.5,4.2-6.4,8.3-8.8,12.3-3,4.8-4.5,10.1-4.5,15.6v31.4c0,7,3.2,11.7,9.4,14.1,3.2,1.2,5,2,6.1,2.6l-8.1,5.5c-8.1,5.4-10.2,6.5-10.8,6.7-2.1,0-4.2-1.5-6.4-4.2l-8.7-11.2h-.8c-.7,0-1,0-13.4,8.3-9.8,6.6-12.1,7.6-12.6,7.7ZM640.4,232.7c-5.1,0-9.6,2.6-13.2,7.7-3.3,4.6-6.7,13-6.6,22.6,0,9.7,4.1,15.4,10.6,23.8,5.4,7.1,11.8,10.7,19,10.7s5.7-.6,8.7-1.7l5.6-2.4v-28.4c.5-.6.9-1.2,1.3-1.8.5-.7,1-1.4,1.4-2.2,1-1.6,2.2-3.7,3.5-6,1-1.9,2.1-4,3.3-6.3l.9-1.7-1.8-.7c-1-.4-2.1-.6-3.3-.6s-2,.1-2.8.4c-.6.2-1.2.3-1.7.5-3.4-.1-7.4-2.3-11.8-6.5-5.3-5-9.6-7.5-13-7.5Z"/>
    <path class="st1" d="M740.1,314.5c-9,0-16.9-1.8-23.4-5.5-7.7-4.2-11.4-9.7-11.4-16.9s1-5.6,3.1-7.9c2.1-2.4,4.3-3.6,6.7-3.6s2.5.3,5.5,1.7c.9.4,1.4.7,1.6.9-.1.1-.3.3-.8.6-3.1,2-4.6,5.5-4.6,10.2s2.5,8.9,7.4,12c4.7,2.8,10.2,4.2,16.4,4.2s14.7-2.9,20.2-8.5c5.6-5.7,8.4-12.1,8.4-19.3s-1.6-8.8-4.8-12.5c-3.2-3.8-7.1-5.7-11.4-5.7s-6.5,1.7-9,5.1c-2,2.9-3,5.2-3,7s.4,2.7,1.2,3.7c.3.4.6.7.8,1v.5c-9.3-.3-16.9-2.8-22.7-7.6-4.6-3.8-7.9-8.8-9-11.8-1-2.9-2-7.8-2.2-13.7-.2-5.9,2.9-15.2,8.5-20.3,5-4.8,11.4-7.1,18.8-7.1s9.4.9,13.9,2.7c4.7,1.9,9.6,3.7,14.5,5.6h.3c0,.1.3.1.3.1,1.4,0,2.8-.9,4.4-2.6.8-1,1.6-1.4,2.4-1.4h1.7l-6,10.4c-2.2,4-5.3,6-9.5,6h-6.1c-1,0-4.1-.8-12.9-5.9-7.2-4.4-12.7-6.5-16.8-6.5h-.4l-.3.2c-1.9.9-3.1,1.6-3.8,2.4-2.6,2.5-4,6-4,10.3s2.5,8.5,7.4,12.3c5.3,4.3,12,6.5,19.7,6.5s4-.8,12.4-6.9c2.4-1.8,4.7-2.7,6.9-2.7h5.5c3.8,0,7.9,2,12.1,6,5,4.7,7.5,9.8,7.5,15.8v7.6c0,7.5-4.2,14.9-12.4,22.1-9.2,8-20.4,12-33.3,12ZM709.2,248.7"/>
  </g>
  <g>
    <path class="st8" d="M388.8,306.9c-2.2-1.1-5.6-3.1-10.5-6.9-7.8-6.1-8.3-7.6-9-10.4-.5-3.5-.3-25.9.2-45.7v-.2c0-4.4-1-7.8-3.1-10.3,2.9-1.8,5-3,6.6-3.9,1.6,2.4,2.5,5.1,2.5,8.2l-2,35.8v.2c0,8.3,2.2,15.8,6.7,22.1,3.2,4.4,7.1,7.6,11.4,9.5l-2.8,1.7ZM433.8,306.3c-1.6-1.9-4.2-5.5-8.1-12l-1-1.6c1.3-2.2,2.2-4.8,2.2-7.7v-52.7c0-.4,0-.7,0-1.1h5.2c0,.3-.2.6-.2.9-.6,2.1-1.1,4.4-1.6,6.7l-.2.8v.7c-.2,13.4-.6,44.9,0,48.7.8,4.7,3.5,10.9,6,13.6.4.5.9.9,1.4,1.2-1.2.8-2.2,1.5-3.2,2.2,0,0-.4.3-.5.3Z"/>
    <g>
      <path class="st8" d="M302.5,303.7c.1-.7.2-1.4.2-2.1v-52.4c0-7-3-12.8-8.4-16.3,2-1.6,3.5-2.8,4.6-3.6,3.1,2.5,5.7,5.8,7.7,9.9l1.8,3.6c-.9,1.9-1.3,3.9-1.3,5.8v53.7c0,.4,0,.8,0,1.3-.4,0-.9,0-1.3,0-1.2,0-2.3,0-3.4.1ZM337.7,234.3c-1.7-2-4-3.4-6.9-4.2,1.6-1.4,3.1-1.6,4.4-1.6.3,0,1.6.2,5.7,1.2l-3.2,4.6Z"/>
      <path class="st8" d="M584.6,308.8c-.9-.7-2-1.9-3.6-3.7-3.5-4.1-4.2-6.3-4.4-7,.2-1.5.3-3.4.5-6,.1-2.8.3-6.6.5-11.2.2-4.6.3-9.5.4-14.6,0-5.1.1-10.5.1-16.2s-1.8-8.6-5.5-13.2c-2.1-2.8-4.2-4.7-6.3-6l3.6-2.5c2.4,1.7,4.8,4,7.3,6.9,5,5.7,5.5,8.7,5.5,9.8v40.9c0,9.1,1.2,15.2,3.8,19.2.3.5.7,1,1.1,1.4-1.3.9-2.3,1.6-3.1,2.2ZM524.2,304.1c.6-3.3,1-6.3,1-9.1v-44.2c0-6.4-2.8-12.2-8.2-16.6-1.1-.9-2.1-1.7-3.2-2.3l4.1-3c1.3,1,3.4,2.8,6.4,6.1.9.9,1.9,2.2,3.1,3.8,1.2,1.5,2.5,3.3,4,5.3-1.5,1.9-2.1,3.8-2.1,6.1v51.4c0,.6,0,1.2.2,1.7h0s-5.1,1-5.1,1ZM474,303.7c.4-2.4.5-5.1.5-8v-47.1c0-4-1.5-8-4.7-12.1-1.1-1.4-2.2-2.6-3.3-3.5l3.5-2.7c.4-.3.8-.6,1.3-1,.9,1.1,2,2.6,3.5,4.9.7,1,1.4,2.2,2.2,3.7.9,1.8,2,3.8,3.3,6.2l.5,1c-1,1.8-1.6,3.6-1.6,5.6v48.6c0,1.5,0,2.9.2,4.2-1-.1-1.9-.2-2.9-.2s-1.7,0-2.6.3Z"/>
      <path class="st8" d="M636.2,307.5c-4.2-.6-9.1-3.4-14.2-8.3-7.2-6.9-10.7-15.1-10.7-24.9s.8-7.3,2.5-11.2h0c.1,12.5,5.9,20,12,27.9,5.5,7.4,11.6,10.9,17,12.4-3.6,2.3-5.6,3.5-6.6,4.1ZM679,306.1c-.2-.2-.4-.4-.6-.7l-7.1-9.1v-28.9s0,0,0,0c.6-.8,1.2-1.7,1.7-2.6.9-1.4,1.8-2.9,2.8-4.7v24.8c0,7.7,3,13.8,8.6,17.8-2.5,1.7-4.2,2.8-5.4,3.5ZM675.5,240.1c-1.8-.7-3.8-1.1-5.8-1.1s-3.2.2-4.7.6c-.1,0-.3,0-.4.1-1.1-.3-3.2-1.3-6.6-4.5-2.9-2.8-5.7-4.9-8.3-6.4,2.6-.7,5.3-1.1,7.9-1.1.4,0,2.5.7,7.5,4.1,5.8,3.9,10.1,6,13.8,6.8-.4.8-.7,1.7-1,2.6l-2.4-1Z"/>
      <path class="st8" d="M775,291c.7-2.7,1.1-5.6,1.1-8.5,0-6.3-2.2-12-6.4-16.9-3-3.5-6.5-5.9-10.4-7.1.7-.4,1.2-.5,1.4-.5h5.5c2,0,4.6,1.5,7.4,4.1,3.6,3.4,5.3,6.8,5.3,10.8v7.6c0,3.4-1.3,7-4,10.6ZM734.7,273.4c-3.8-1-7.1-2.6-9.9-4.9-3.5-2.9-6-6.6-6.8-8.6,5.4,4.2,11.9,6.7,19.3,7.4-1.3,2.2-2.2,4.2-2.6,6.1ZM753,234.6c-.7-.2-3.3-1.1-9.9-5-1.1-.7-2.1-1.3-3.2-1.8,2.7.3,5.4,1,8.1,2,4,1.5,8,3.1,12,4.6-.4.2-.9.2-1.4.2h-5.7Z"/>
    </g>
  </g>
  <g>
    <g>
      <path class="st1" d="M134.6,407.4c-3.8-19.1,11.9-38.7,43.8-36.4-8.4,44.2,25.6,61.5,42.3,44.5,11.5-11.7,5.4-29-10.5-31.1-1.4-.2-2.9,3.8-1.3,3.9,10.4.7,18.8,11.8,13,21.5-10.5,17.5-48.6,5.2-41.6-38.7,14.6,1.3,42.6,6,62.3-4.1,19.6-10,26.1-37.2,4.8-48.1-20.7-10.6-55.1,7.2-66.8,43.1-39.8-2.2-55.8,33.1-46.9,46.4.3.5.8-.7.8-1ZM247.6,324.9c9.3,5.6,13.3,15.6,7,26-12,20.1-46.7,13.1-72.1,11.3,10.6-33.2,44.8-49.5,65.1-37.2Z"/>
      <path class="st1" d="M221.4,382.2c6.4,1.3,8,9.3,12.2,11.6,1.6.9,3.6.3,4.4-.5,2.1-2.1-.3-8.4-6-11.3-3.3-1.7-7.5-2.2-10.6.3Z"/>
      <path class="st1" d="M234.3,376.5c8.8,7.4,21.5,5,25.3,0,1.7-2.3,0-4.9-2.6-4.9-4.4-.2-12.8,4.9-22.7,5Z"/>
      <path class="st1" d="M263.5,347c-3.2,11.5-7,16.4-12.8,21.5,21.5-2.5,22.6-25.6,16-24.9-1.2.1-2.3.8-3.2,3.4Z"/>
    </g>
    <g>
      <path class="st1" d="M75.3,199c.5.5.7,0,.4-.5-8.1-10-4.3-27.6,11-33.8,16.7-6.8,41.5,3.5,48,36.8,12.4,63.3-56,110.8-71.3,157.6-8.9-12.4-1-30,7.8-42.6,15-21.3,38.1-35.4,46.5-65.9,3.7-13.4,2.8-28.4-5.7-39.9-26.1-35.4-79.4,17.7-18.7,62.8,1.4,1,1.1-1,.3-1.7-5.2-4.6-10.7-8.9-15.3-14.2-20-23.3-7.1-51,10.6-54.4,18.8-3.7,38.1,21,18.7,56.6-8.6,15.8-22.1,27.7-33.8,41.1-24.7,28.7-21.5,50-11.3,60.6-15.1,51.7,45.3,75.3,63.7,35,7.3-16-.7-31.2-3-34.4,1-5-7.2-13.3-12.5-12.1-2.1.5-3,3.2-2,4.9,2.3,4,11.4,4.6,13.9,6.9,3,2.6,11.3,23.4-2.3,41.2-21.4,27.8-70,6.9-55.6-39.5,8.3,6.7,19.6,5.7,25-.4.8-.9,1.8-1.7,2.6-2.7.1-.1-.2-.5-.3-.4-5.5,6.5-18.1,9.6-26.7,1.5,14.5-42,71.6-84.8,73.3-140.5,1-31.3-15.2-56-36.7-60.3-26.1-5.2-41.5,23.5-26.8,38.3Z"/>
      <path class="st1" d="M58.6,289.4c.7,1,2.4,1.7,4.4-.3,3.2-3.2,5.7-9.8,24-12.7-21-9-31.6,8.2-28.4,13Z"/>
      <path class="st1" d="M82.5,272.2c-2.8-2.3-12-8.2-19.9-7.3-12,1.5-8.8,15.2-2.8,8.8,2.6-2.6,18.3-1.8,22.6-1.5Z"/>
      <path class="st1" d="M65.9,262.2c7.4,1.3,7.7,1.4,8.8,1.5-3.1-5.7-9.1-11.1-15.4-9.5-3.9,1-7.1,5.7,6.5,8Z"/>
      <path class="st1" d="M123.4,368.4c0-4-5.7-7-10.1-5.9-3.4.9-6,3.4-3.8,5.9,4.4,4.9,8.8-2.3,13.9,0Z"/>
      <path class="st1" d="M113.5,381.3c.6,6.3,6.3,6.2,7.5-.9.4-2,.2-5,3.3-9.3-6.6-.3-11.4,5.4-10.8,10.2Z"/>
    </g>
    <path class="st1" d="M190.1,371.3c-2.5,0-5.5-.5-8.9-1.4-3.4-1-7.3-2.6-11.5-4.7l-25.3-13c-5-2.5-9.5-4.4-13.5-5.5-4-1.1-7.7-1.7-10.8-1.7h-8.4c-7.1,0-12.3,3.9-15,11.4-2.7,7.8-4.9,8.4-5.5,8.4-2.3,0-3.1-.2-3.3-.3-.3-.2-1.2-1.4-1.2-5.8,0-7,6-13.5,17.7-19.5,13.6-7.1,20-12.7,20.2-17.6.1-4,.1-19.3,0-44.4v-1.4c0-1.9-5.8-8.6-10.1-9.4-2.6-.5-4.5-1.4-5.6-2.5v-2.2c8-.4,16.1-2.8,24.2-7.2l12.8-7.1c4-2.2,8.1-4.5,12.2-6.9v2.5c-1.3,1.2-2.6,2.9-4,5.3-2.2,3.8-3.3,7-3.3,9.8v47.7c0,2.8,1.4,5.8,4.3,9,1.3,1.6,1.4,2.4,1.4,2.5,0,0,0,0,0,0,0,0-.7,1-4.6,2.5-3.3,1.3-6.2,2.9-8.6,5l-4.4,3.7h18c3.9,0,10.6,2.4,19.9,7.2,0,0,27.5,15.8,31.6,16.6,4.1.8,9.6,0,9.6,0,4.3,0,9.5-3.5,16.7-11,8.3-8.7,12.5-17.6,12.5-26.5s-6.5-16.7-20-25.6c-12.5-8-22.5-11.9-30.7-11.9s-18.6,4.3-21.4,12.6c-2.2,6.4-4.9,9.6-8.2,9.6s-1.8-.4-2.6-1.3c-1.1-1.3-1.2-2.1-1.2-2.3,0-2.4,2-7.2,11.6-16.3,10-9.3,25-19.9,44.3-31.4l1.5-.9-.6-1.6c-3-7.6-7.3-14.1-12.8-19.1-5.5-5.1-9.3-7.1-17.2-8.2-7.9-1.1-16.6,1.3-20.9,2.8-4.2,1.5-9.4,3.9-15.5,7.2l-33.3,17.4c-6.3,3.3-11.7,5.6-16,7.1-4.2,1.4-7.3,2.2-9.8,2.5,0,0-5.1.4-7.9.4s-8.3-2.1-11-4.6c-2.6-2.6-4-5.1-4-7.2s.1-1.4,1.4-2.3c1.1-.9,2.4-1.3,4-1.3s3,.5,3.9,3.8c1,4.4,4.3,6.9,9.3,6.9s16.7-4.7,30.7-14.3c11-7.5,19.7-13.3,26.1-17.6,6.3-4.2,10.4-6.9,12.1-8,15.4-9.1,28.8-13.8,39.9-13.8s18.7,2.9,25.8,8.6c1.8,1.5,3.9,3.6,6.2,6.3,2.4,2.8,5.1,6.3,8,10.4,4.1,5.8,7.7,9,10.9,9.9,0,0,0,.1,0,.2,0,.2,0,.4,0,.6-.1.8-.2,1.4-.2,1.8,0,.6-.1,1-.1,1.3,0,1.3-1.9,3.1-5.3,4.7-18.1,9.1-19.2,10.7-19.8,11.5l-1.3,1.8,33.5,20.3c7.4,6.8,11.1,14.4,11.1,22.7,0,12.8-8.7,28.5-26,46.7-17.2,18-32.1,27.1-44.4,27.1h-7.5Z"/>
  </g>
  <path class="st9" d="M228.6,240.6l11.2-6.1s-20.4-22.4-27.4-28c-8.4-6.8-29.2-2.6-35.6.3-6.4,2.8-52.9,31.4-52.9,31.4,0,0,46.7-23.1,53-24.6,11.9-3,23-1,29.8,3.4,3.3,2.1,7.7,6.9,12,11.6s9.8,12,9.8,12Z"/>
  <g>
    <polygon class="st8" points="132.7 264.2 141.1 261.1 141.1 312.4 133.9 315.9 132.7 264.2"/>
    <path class="st8" d="M200.8,270.8l16-11.2s32,18.4,35.8,22.7c3.8,4.3,7.6,7.2,7.9,13,.3,5.8-2.9,17.5-4.1,20.7s0-13.8-7.6-19.4c-2.6-1.9-11.7-9.6-22-15-12.4-6.5-26-10.7-26-10.7Z"/>
    <path class="st8" d="M135.7,334.6c4.5-.8,13.5-2.1,21.6,0,8.8,2.3,47.7,27,52.6,25.4,4.9-1.6-5.5,5.2-15.7,4.7-10.2-.5-34-18.9-40.9-21.2-6-2-25.1-5-31.8-3.8-6.7,1.2,9.7-4.3,14.3-5.1Z"/>
    <path class="st8" d="M228.6,240.6l11.2-6.1s-18.3-22-27.4-28c-9.1-6-29.2-2.6-35.6.3-6.4,2.8-52.9,31.4-52.9,31.4,0,0,46.7-23.1,53-24.6,11.9-3,23-1,29.8,3.4,3.3,2.1,7.7,6.9,12,11.6s9.8,12,9.8,12Z"/>
  </g>
  <g>
    <path class="st4" d="M105.1,329s1.3-2.3,4-.5c2.7,1.8,1.3,3.8.7,4.8-.6,1-3.7,2.7-6.9.4-3.2-2.2-4.3-7.6-1-12.2,3.3-4.6,12.2-5.3,17-1.8,3.5,2.5,4.4,6.2,6.3,3.4s-2.6-2.4-5.5-4.5c-2.9-2.1-14.2-13.3-6.4-24.8,0,0,3.1-5.3,9-1.8,4,2.3.6,6,.6,6,0,0-1.9,1.9-3.6.7-1.8-1.2-1.6-3.1-1-4,.6-.9,1.9-1.4,3.5-.7,0,0-4-3.6-7.1,1.3-3,4.9-.4,10.9,5.7,15.9,6.1,5,15.2,8.8,10.6,15.6-4.6,6.8-12.2-.5-14.1-1.8-1.9-1.3-9.7-7.6-13.8-1.5-2.5,3.7-.3,7.8-.3,7.8,0,0,1.8,2,2.8.3,1.1-1.7-1.5-.4-.4-2.5Z"/>
    <g>
      <path class="st7" d="M233.1,357.3c.6-.2,1.2-.4,1.9-.6.6-.1.9.1,1,.7,0,.1,0,.3,0,.4-.2,1.9-.8,3.6-2.6,4.6-.5.3-1.1.4-1.7.5-.7,0-1.4,0-2.1,0-.5,0-.6-.4-.4-.7.3-.5.6-1,.9-1.5.7-1.3,1.6-2.5,2.9-3.4Z"/>
      <path class="st7" d="M231.8,361.1c.3-.3.6-.6.9-.8,2.4-2.1,3.9-4.8,4.7-7.9.4-1.5.8-3.1.9-4.7,0-.9,0-1.8-.2-2.7,0,0,0-.1,0-.2,0-.2,0-.4,0-.6.1.1.3.3.4.4.5,1.1.6,2.2.4,3.3-.3,3.3-1.2,6.4-3,9.2-.9,1.5-2.2,2.6-3.5,3.7-.2.1-.4.2-.6.3,0,0,0,0,0-.1Z"/>
    </g>
    <g>
      <path class="st0" d="M203.4,345.8c.4-1.1.8-2.3,1.3-3.4,1.1-2.6,2.4-5,4.2-7.2.8-1,1.8-1.8,3-2.2.4-.2.9-.3,1.4-.3,1,0,1.5.7,1.3,1.7-.2.7-.7,1.3-1.3,1.7-1.9,1.4-3.6,3-5.3,4.7-.9.9-1.7,2-2.3,3.1-1.1,1.9-1.9,3.9-2.6,5.9,0,.3-.1.5-.2.8,0,0,0,.1-.1.2,0,0-.1-.1-.2-.2-.3-.3-.2-.6-.3-1-.3-1.3-.6-2.6-.7-4,0-.5,0-1.1.2-1.6,0-.3.3-.6.6-.8.3-.3.7-.2.9.2.2.3.3.6.3.9,0,.5,0,.9,0,1.4,0,0,0,0,0,0Z"/>
      <path class="st0" d="M228.8,331.4c.6.9.8,1.7.4,2.6-.3,1-1,1.8-1.8,2.5-.3.3-.6.5-1,.8,0,0-.3,0-.3,0,0,0-.2-.2-.2-.3,0-.8,0-1.7,0-2.5,0-1.1.5-1.9,1.2-2.6.2-.2.3-.5.5-.8.1-.3.3-.4.6-.2.2.2.4.4.5.5Z"/>
      <path class="st0" d="M213.9,328.6c.2,0,.5-.1.7-.2,1.4-.3,2.8-.1,4,.6,1,.6,1.6,1.5,1.9,2.7.2,1-.3,2.1-1.1,2.6-.5.3-1.4-.1-1.5-.7,0,0,0-.2,0-.3.2.2.3.3.4.4.4.3.7.3,1.1,0,.7-.6.9-1.6.4-2.6-.4-.9-1.1-1.5-2-1.8-1.8-.7-3.5-.5-5.1.3-1.4.6-2.3,1.7-3.3,2.8-2.8,3.1-4.4,6.8-5.4,10.8-.6,2.3-1,4.5-1.1,6.9,0,.4,0,.8-.1,1.2,0,0,0,0-.1,0,0-.1,0-.2,0-.3,0-.7,0-1.4,0-2.1.3-4,1.2-8,2.9-11.6,1.2-2.6,2.9-4.8,4.9-6.7,2.5-2.4,5.5-4,9-4.3,2.4-.2,4.6.2,6.6,1.6,1,.7,1.7,1.5,2.1,2.6.5,1.5.3,3-.6,4.4,0,0,0,.1-.1.1,0,0-.2,0-.3,0,0,0,0-.2,0-.3.1-.3.3-.6.4-.9.5-1.2.6-2.4,0-3.7-.3-.7-.9-1.3-1.5-1.8-1.7-1.3-3.6-1.7-5.7-1.7-2.3,0-4.5.8-6.5,2Z"/>
    </g>
    <g>
      <path class="st7" d="M184.2,326.4c0-.2-.1-.3-.2-.5-.8-1.3-1.3.3-2.1,0-.3-.1-.6-.5-.9-.7-.9-.5-1.6.7-2.5.4.6-.3,1.2-.7,1.5-1.4.2-.3.3-.6.7-.6.3,0,.6.5,1,.6.5.1.8-.3.9-.8.1-.5.1-1.1.4-1.4.3-.4.9-.3,1.3.1.3.3.4.8.7,1.1.2.4.7.7.9.5,0-.5-.4-1-.6-1.5-.4-1.1.9-2.8,1.8-1.6.2.3.7.5.8.2,0,0,0-.2,0-.3,0-.4-.3-.8-.6-1-.2-.1-.3-.2-.4-.4-.2-.3-.1-.8.1-1.1.2-.3.5-.6.7-1,.3-.6.3-1.3-.1-1.9l1.2,1.3c.2.3.5.6.4.9,0,.3-.3.6-.2.8.1.4.7.4,1,.7.3.3.3.7.3,1,0,.1.1.3.2.3.2,0,.2-.2.3-.4.2-.4.6-.5,1-.5.4,0,.8.2,1.1.4.4.2.8.4.9.8.2.4,0,.9-.2,1.3-.2.4-.5.8-.6,1.2,0,.2,0,.4.2.4,0,0,.1,0,.2,0,.6-.3.9-.6,1.6-.4.3,0,1.2,1.1,1.5.9.3,0,.5-.4.7-.7.2-.3.5-.6.8-.5.1,0,.3.2.4.3.1,0,.3,0,.4,0,.5,0,1,0,1.5,0-.7,0-1.1.8-1.8.8-.1,0-.2,0-.3,0-.3,0-.5.4-.6.7-.2.3-.3.7-.5,1-.4.8-1.1.4-1.7.6-1,.5-.5,2.4-1.7,2.8-.5.2-1.1,0-1.6-.3,0,0-.2-.1-.3-.2-.1,0-.2,0-.3.2-.6.7-.4,1.4-.3,2.3.2,1.7,0,4.6-1.3,8.3-.7,1.8-2.3,4.4-1.5,2.7.9-2,2.7-7.1.6-12.8-.2-.5-.5-.9-1-1.2-.8-.4-.9,0-1.6.3-.5.2-1.3-.2-1.6-.8-.2-.4-.4-.8-.5-1.2Z"/>
      <path class="st7" d="M190.5,323.4c0-.9,0-2.1-.7-2.7-1.3-1.2-.7,1.5-.6,2.1.2.9.3,3,1,3.7,0,0,.1,0,.2,0,0,0,0,0,0-.1.2-.9.1-2,0-3ZM189.5,326.1c-.2-.6-.5-1.3-.7-1.9-.3-.8-.9-2.5-2-2.4-1.2.1.3,1.8.6,2.2.3.3.6.7.8,1,.1.3.2.6.4.8.1.3.3.5.6.6,0,0,.1,0,.2,0,.1,0,.1-.3,0-.4ZM192.8,322.4c.2-.2.4-.5.4-.8,0-.4-.4-.8-.9-.8-.2,0-.4.1-.5.3-.1.2-.2.5-.3.7-.5,1.2-.6,2.4-.7,3.7,0,.3,0,.6.2.8,0,0,0,0,0,0,.1,0,.2-.1.2-.2.3-1.3.5-2.7,1.4-3.7ZM194.7,325.6c.2-.1.4-.2.6-.3.5-.2.8-.4.4-.9-.4-.5-1.1-.5-1.5-.1,0,0-.2.1-.2.2-.3.4-.4.8-.5,1.3-.1.5-.2.9-.5,1.3-.2.3-.7,0-.8.3-.1.3.3.5.5.5.8,0,1.2-1,1.5-1.5.1-.3.3-.5.5-.7ZM185.9,326.2c0-.1-.1-.2-.1-.4,0-.1,0-.3-.2-.4-.2-.5-.6-1.3-.9-1.5-.6-.4-1.9,0-1.1.8.2.2.5.3.7.5.4.3.6.8.8,1.2.3.5,1.2,1.4,1.8.8.7-.6-.8-.6-1-1ZM190.9,334.9c.1-.8.2-1.5.2-2.3,0-.4-.1-.8-.1-1.3,0-.4,0-.7-.2-1.1,0-.1-.2-.2-.3-.2,0,0,0,0,0,.1,0,.1,0,.3,0,.5,0,.5.1,1.1.1,1.6,0,.9.1,1.7,0,2.6,0,.2,0,.4,0,.6.2,0,.2-.3.2-.5Z"/>
      <path class="st7" d="M194.9,324.8c.1,0,.2,0,.3-.1.1,0,.2-.1.3-.3-.2,0-.3,0-.5,0-.2,0-.5.2-.6.4-.3.3-.4.6-.6,1-.1.4-.3.7-.5,1-.2.3-.5.5-.9.7,0,0,.1.1.2,0,.6-.2,1-.8,1.2-1.4.2-.5.5-1.2,1-1.4ZM191.4,325.2c0-.7.2-1.5.4-2.2.2-.5.4-.9.6-1.3,0-.2.2-.4.2-.6-.3.1-.4.4-.6.7-.2.3-.3.7-.4,1-.2.6-.3,1.1-.3,1.7,0,.4-.1.9-.2,1.3,0,0,0,.2,0,.2.1-.2.1-.5.2-.8ZM190.3,325.6c0-1.2-.5-2.3-.6-3.4,0-.2,0-1.2-.3-1.3-.3,0,0,1.2,0,1.4.1.7.2,1.3.3,2,0,.3.1.6.2,1,0,.1.3.9.2,1,.1-.1.2-.3.2-.5ZM187.2,322.3c0,0-.1-.1-.2-.2-.2-.1-.3,0-.1.2,1.1.8,1.6,2.2,2.1,3.4,0,.2.1.3.3.4-.3-1.5-1-2.7-2-3.8ZM186.6,326.9c-.4-.1-.8-.5-1-.9-.2-.4-.4-.8-.7-1.2-.2-.3-.7-.7-1.2-.7,0,0,0,0,0,0,0,0,0,0,0,.1.2.2.4.2.6.3.2.1.3.4.5.5.3.5.7,1,1.1,1.5.2.3.5.6.8.5,0,0,0,0,0,0,0,0,0-.1-.1-.2ZM191,333.6c0-.4,0-.8,0-1.1,0-.7,0-1.4-.3-2,0,0,0,0,0,.1,0,.3.1.6.2,1,0,.3,0,.7,0,1,0,.7,0,1.3-.1,2,0,0,0,.2,0,.2,0,0,.1-1,.1-1.1Z"/>
      <path class="st7" d="M194.9,324.7c0-.1-.2-.2-.3-.1-.1,0-.2.2-.1.3,0,.1.2.2.3.1.1,0,.2-.2.1-.3ZM191.3,325.2s0,0,0,.1c0,0,0,0,.1,0,0,0,0,0,0-.1,0,0,0,0-.1,0ZM190.1,325s0,0,0,.1c0,0,0,0,.1,0,0,0,0,0,0-.1,0,0,0,0-.1,0ZM188.8,325.1s0,0,0,.1c0,0,0,0,.1,0,0,0,0,0,0-.1,0,0,0,0-.1,0ZM186.2,326.5s0,0,0,.1c0,0,0,0,.1,0,0,0,0,0,0-.1,0,0,0,0-.1,0ZM193.1,327.3c0,0,0,0-.1,0,0,0,0,0,0,.1,0,0,0,0,.1,0,0,0,0,0,0-.1ZM184.9,324.4c0-.1-.2-.2-.3-.1-.1,0-.2.2-.1.3,0,.1.2.2.3.1.1,0,.2-.2.1-.3ZM187.6,322.6c0-.1-.2-.2-.3-.1-.1,0-.2.2-.1.3,0,.1.2.2.3.1.1,0,.2-.2.1-.3ZM189.8,321.7c0-.1-.2-.2-.3-.1-.1,0-.2.2-.1.3,0,.1.2.2.3.1.1,0,.2-.2.1-.3ZM192.3,321.8c0-.1-.2-.2-.3-.1-.1,0-.2.2-.1.3,0,.1.2.2.3.1.1,0,.2-.2.1-.3ZM194,326.1c0,0-.1-.1-.2,0,0,0-.1.1,0,.2,0,0,.1.1.2,0,0,0,.1-.1,0-.2ZM191.6,323.4c0,0-.1-.1-.2,0,0,0-.1.1,0,.2s.1.1.2,0c0,0,.1-.1,0-.2ZM189.9,323.4c0,0-.1-.1-.2,0,0,0-.1.1,0,.2,0,0,.1.1.2,0,0,0,.1-.1,0-.2ZM185.6,325.6c0,0-.1-.1-.2,0,0,0-.1.1,0,.2,0,0,.1.1.2,0,0,0,.1-.1,0-.2ZM188.3,323.9c0,0-.1-.1-.2,0,0,0-.1.1,0,.2,0,0,.1.1.2,0,0,0,.1-.1,0-.2Z"/>
      <path class="st7" d="M189.9,339.3c.5-1.3.8-2.5,1-3.6-1.1,1-.1-2.3-.9-5.4-.2-.7.4-1.5,1.1-.5,0-.4.1-.8.4-1.1,0,0,.2-.2.3-.2,0,0,.2,0,.3.2.5.4,1.1.5,1.6.3,1.2-.5.7-2.4,1.7-2.8.6-.3,1.3.2,1.7-.6l.5-1c.1-.3.3-.6.6-.7.1,0,.2,0,.3,0,.7,0,1.1-.8,1.8-.8-.5,0-1,0-1.5,0-.1,0-.3,0-.4,0-.1,0-.3-.2-.4-.3-.3-.2-.6.1-.8.5-.2.3-.3.7-.7.7-.3.2-1.2-.8-1.5-.9-.6-.2-1,.1-1.6.4,0,0-.1,0-.2,0-.2,0-.2-.3-.2-.4.1-.4.4-.8.6-1.2.2-.4.4-.9.2-1.3-.2-.4-.6-.6-.9-.8-.3-.2-.7-.4-1.1-.4-.4,0-.8.2-1,.5,0,.1-.1.4-.3.4-.1,0-.2-.1-.2-.3,0-.4,0-.8-.3-1-.3-.3-.9-.3-1-.7,0-.3.2-.5.2-.8,0-.3-.2-.7-.4-.9-.4-.4-.8-.9-1.2-1.3.4.5.4,1.3.1,1.9-.2.3-.5.6-.7,1-.2.3-.3.8-.1,1.1.1.2.3.3.5.4.3.3.5.6.6,1,0,.1,0,.2,0,.3-.2.3-.6,0-.8-.2-.9-1.2-2.2.5-1.8,1.6.2.5.6,1,.6,1.5-.3.2-.7-.1-.9-.5-.2-.4-.4-.8-.7-1.1-.4-.4-1-.5-1.3-.1-.3.3-.3.9-.4,1.4-.1.5-.4,1-.9.8-.3-.1-.6-.6-1-.6-.3,0-.5.3-.7.6-.4.6-.9,1.1-1.5,1.4.9.2,1.6-.9,2.5-.4.3.2.6.6.9.7.8.3,1.3-1.3,2.1,0,0,.2.2.3.2.5.2.4.3.9.5,1.2.4.6,1.1,1,1.6.8.7-.2.8-.7,1.6-.3.5.2.8.7,1,1.2,2.1,5.7.3,10.8-.6,12.8-.8,1.7.8-.9,1.5-2.7ZM191.2,328.3s0,0,0,0c0,0,0,.1-.1.2-.4.5-1.2.3-1.6-.1-.5-.4-.9-.9-1.5-1-.7,0-1.4.5-2.1.3-.8-.3-.8-1.6-1.5-2.2-.4-.4-1.5-.8-1.3-1.5,0-.4.2-.7.5-1,1.1-.9,1.8,1.3,2.6,1.6,1.3.5-.2-2.7,0-3,.1-.2.4-.4.6-.5.1,0,.3-.1.4-.1.2,0,.3.2.5.3.2.2.4.3.6.3.1,0,.2,0,.3,0,0,0,.1-.2.1-.2.2-.5,0-1.2,0-1.6,0-.2.2-.3.3-.4.1,0,.2,0,.4,0,.9.1.9.8,1.1,1.5,0,.1,0,.2.1.3.2.2.5,0,.7-.3.1-.3.1-.6.3-.8.3-.3.7-.3,1.1-.2.4,0,.8.3,1,.6.4.6,0,1.4-.4,2-.3.4-1,1.7,0,1.9.2,0,.4,0,.5-.2.3-.3.2-.6.7-.7.3,0,.7,0,1,.2.4.2.8.6,1.1,1,.1.2.3.3.3.5,0,.4-.6.4-1,.5-.4,0-.9.3-1.1.7-.2.4-.3.8-.5,1.3-.2.4-.5.8-.9.9-.3,0-.7-.2-1-.3-.3-.1-.7-.2-1,0ZM190.1,327.6c.1,0,.2,0,.4,0,.1,0,.3,0,.4,0-.2-.3-1.2-.9-1.8-.7,0,0-.1,0-.2,0,0,0,0,.2,0,.4.2.5.6.8,1.1,1,.2,0,.4.2.6,0,.3-.3-.2-.5-.4-.7Z"/>
    </g>
    <g>
      <path class="st3" d="M187.4,308.7c-1.1.6-2.3,1-3.5,1-1.2,0-2.4-.1-3.7-.3-.2,0-.4-.3-.6-.4.2-.2.3-.4.5-.5,1.5-.8,2.9-1.8,4.2-2.8.7-.6,1.4-1.1,2.2-1.6,1.3-.8,2.8-.9,4.3-.7.3,0,.6,0,1,0,.1,0,.3,0,.4.2,0,0,0,.3,0,.4-.2.2-.4.3-.5.5-.6.7-1.3,1.4-1.9,2.2-.6.8-1.3,1.6-2.2,2.1Z"/>
      <path class="st3" d="M194.9,311.5c1.8-1.1,3.5-1.1,5.3-.8.5,0,.9.2,1.3.4.2,0,.4.2,0,.5-.5.3-.8.7-1.2,1.2-.9,1-2.1,1.5-3.4,1.6-1,0-2,.3-2.9.4-.2,0-.4.2-.6.3-.2,0-.4,0-.5,0-.1-.1-.2-.4-.1-.5.5-1.3,1.1-2.5,2.2-3Z"/>
      <path class="st3" d="M190.1,343.6c-.1-.2-.3-.4-.3-.5-.4-1.8-.4-3.7.1-5.5.9-3.3,2.6-6.1,5-8.5,2.4-2.4,4.8-4.7,7.2-7,.9-.9,1.7-1.8,2.5-2.8.8-.9,1.3-2,1.5-3.2,0-.4,0-.9-.2-1.3-.9-1.8-3.3-3.6-6.2-3.1-1.5.3-2.9.7-4.3,1.2-.1,0-.3,0-.4.1,0,0,0,0,0-.1.1-.1.2-.3.4-.3,1.3-.5,2.6-1,3.9-1.3,2.9-.7,5.3.3,7,2.8,0,0,0,0,.2.2,0-.3,0-.4,0-.6,0-1.3-.3-2.5-.9-3.6-1.5-2.7-3.5-4.9-6.4-6.1-.5-.2-1.1-.4-1.7-.4-2.7-.3-5.3,0-7.8,1.3-1.2.6-2.3,1.3-3.5,1.9-.2,0-.4.1-.6.2,0,0,0,0,0-.1.1-.1.2-.3.3-.3,2-1.2,3.9-2.6,6.2-3.1,2.6-.6,5.2-.8,7.7.2,1.9.7,3.4,2,4.8,3.5,1,1.1,1.8,2.3,2.3,3.7.8,1.8.8,3.7.3,5.5,0,.2-.1.4-.1.7,0-.1.1-.2.2-.4,1.6-3.9,1.8-7.9.2-11.8-1-2.5-2.9-4.4-5.2-5.7-4.8-2.8-9.9-3-15.2-1.5-1.7.5-3.3,1.1-4.7,2.1-2.9,2-5.1,4.5-5.8,8.1-.3,1.8,0,3.5.5,5.2,0,0,0,0,0,0-.4.1-.6,0-.7-.3-.4-1.3-.8-2.7-.6-4.1.3-3.2,1.8-5.9,4.2-8.1,2.7-2.5,6-3.7,9.5-4.2,4.6-.7,9-.2,13.1,2.1,4.3,2.4,6.5,6.1,6.8,11,.3,5.4-2,9.8-5.9,13.4-1.6,1.5-3.5,2.7-5.2,4.2-3.5,3-6.4,6.4-7.7,10.9-.5,1.7-.4,3.5-.2,5.2,0,.1,0,.3,0,.4,0,0-.1,0-.2,0Z"/>
    </g>
    <path class="st6" d="M216.3,351.1c.1,0,.2-.1.3-.2,1.2-.8,2.2-1.7,3.2-2.6.5-.5,1.1-1,1.6-1.3.7-.5,1.6-.3,2.1.3.4.5.4,1.1.2,1.7-.4,1-1.1,1.7-1.9,2.3-1.3.9-2.8,1.4-4.4,1.6-.8,0-1.5,0-2.3.1-.7,0-1.4.2-2.1.3-.4,0-.9,0-1.3,0-.2,0-.4,0-.6,0-.3,0-.7,0-1,0-.1,0-.2-.2-.3-.2,0,0,.2-.2.3-.3.1,0,.3-.1.4-.2,2.7-.9,4.3-2.8,4.8-5.6.2-1.3.2-2.6.3-3.8,0-.5.1-.9.3-1.4.4-.9,1.1-1.5,2.1-1.5,1,0,1.8.4,2.2,1.3.5,1.1.5,2.2.2,3.3-.5,2-1.6,3.5-3.1,4.9-.4.3-.8.7-1.2,1,0,0,0,0,0,0Z"/>
    <g>
      <path class="st2" d="M232.4,310.6s-6.7-1.9-9.6,1.3c-1.5,1.6,0,2.5,0,2.5,0,0,1.1,1.3,2.4-.4,1.1-1.4-.5-2-.7-2-.2,0,0,0,0,0,0,0,1.1-1.6,8.1-1.4Z"/>
      <path class="st2" d="M233.5,309.7s-11.5-4.2-18.6,1.9c0,0-2.5,1.7-1.4,3,0,0,1.8-1.7,3.1-.1s-.5,3-.5,3c0,0-1.9,1.4-3.3-.2-1.4-1.6-2.4-4.2,1.7-7.3,4.1-3.1,14.5-3.6,18.9-.3Z"/>
    </g>
    <g>
      <path class="st2" d="M240.4,356.2s6.5-2.6,6.8-6.9c.2-2.2-1.5-2.1-1.5-2.1,0,0-1.7-.3-1.6,1.7,0,1.7,1.6,1.3,1.8,1.1.2-.2,0,0,0,0,0,0,0,2-5.5,6.1Z"/>
      <path class="st2" d="M240.1,357.6s11.6-3.7,13.5-12.9c0,0,.9-2.8-.7-3.3,0,0-.4,2.4-2.4,2-2-.4-1.4-2.7-1.4-2.7,0,0,.7-2.3,2.7-1.9,2,.4,4.5,1.8,3.2,6.8-1.4,5-9.3,11.7-14.8,11.8Z"/>
    </g>
    <g>
      <path class="st7" d="M210,246.3c0,1.9-.6,3.7-1.4,5.4-.3.6-.6,1.2-.9,1.8,0,.2-.3.3-.5.4-.1-.2-.4-.3-.4-.5-.2-1.7-.7-3.4-1.4-5-.4-1-.4-2,0-3,.3-.7.6-1.5,1-2.2.4-.8.7-1.5,1.1-2.3.3-.6.6-.7.9-.2.4.7.8,1.4,1.1,2.1.4,1.1.5,2.2.5,3.3Z"/>
      <path class="st7" d="M129.7,236c.1-.9.2-1.8.4-2.6.3-1.2,1-2.1,2.1-2.6.9-.4,1.8-.6,2.7-.8.5-.1.7.3.6.7-.4,1-.7,2.1-1.1,3.1-.4.9-1,1.6-1.8,2.2-.3.2-.7.4-1,.7-.3.3-.6.8-.9,1.1-.1.2-.3.4-.5.4-.3,0-.4-.2-.4-.5,0-.5,0-1.1,0-1.6,0,0,0,0,0,0Z"/>
      <path class="st7" d="M151.5,252.8c.2-.8.4-1.6.5-2.5.2-1.5.5-3,.6-4.6.1-1.5.1-3,0-4.5-.1-2.7-.7-5.2-2.1-7.5-1.7-2.7-4.1-4.3-7.3-5-2.5-.5-4.8-.2-7.1.9-1.5.7-2.6,2-3.5,3.4,0,.1-.2.2-.2.4,0,0,0,0-.1,0,.1-.2.2-.4.3-.7,1.6-2.7,3.9-4.3,7-4.6,3.6-.4,6.9.4,9.5,3,1.9,1.8,3,4.1,3.5,6.6.3,1.4.4,2.8.4,4.3,0,1.8-.1,3.6-.3,5.5,0,0,.1-.1.1-.2,2.5-5.4,6.2-9.7,10.7-13.4,4.2-3.4,8.8-6,14-7.4,3.2-.9,6.5-1.2,9.8-.8,5.5.5,10.3,2.7,14.5,6.2,1.4,1.2,2.7,2.5,3.8,4,1.3,1.9,2.3,3.9,2.6,6.3.3,1.9.3,3.8,0,5.7,0,.5-.1.9-.2,1.4,0,.1,0,.2-.1.4,0,0,0,0-.1,0,0-.5.1-1,.1-1.5,0-1.3.2-2.6,0-3.9,0-1.2-.3-2.5-.7-3.7-1-3.1-3-5.5-5.3-7.6-3.4-3.1-7.4-5.1-12-6-2.2-.4-4.4-.5-6.6-.4-2.7.2-5.3.7-7.9,1.6-.2,0-.3.1-.5.2,1,0,1.9-.1,2.8-.1,2.1,0,3.8.9,5.2,2.4,1.2,1.3,1.7,2.8,1.1,4.5-.6,1.7-1.8,2.8-3.6,3.1-1.2.2-2.3,0-3.2-.9-1.2-1.1-1.2-2.6-.6-4,.6-1.2,1.9-1.8,3.3-1.6.2,0,.5,0,.7.1.1,0,.2.2.3.3-.1,0-.2.2-.4.2-.4,0-.8,0-1.2,0-1.3,0-2.2.6-2.6,1.9-.4,1.3,0,2.5,1.2,3.1,1.2.7,2.7.6,3.9-.3,1.7-1.4,2.2-3.3.9-5.3-1.2-1.7-2.9-2.7-5-2.8-1.7-.1-3.4,0-5,.5-1.4.4-2.6,1.1-3.8,1.8-5.2,3.1-9.6,7.1-13,12.1-1.3,1.9-2.4,3.8-3.2,5.9-.4.9-.5,1.8-.7,2.7,0,.2,0,.5-.3.5,0,0,0,.2-.1.2,0,.2-.2.4-.3.5,0,0,0,0-.1,0Z"/>
    </g>
    <g>
      <path class="st5" d="M247.9,234.9s-7.8-.9-9.5-5.4c-.9-2.3,1-2.7,1-2.7,0,0,1.7-.9,2.3,1.4.5,1.9-1.4,1.9-1.6,1.8-.2-.1,0,0,0,0,0,0,.5,2.1,7.8,4.9Z"/>
      <path class="st5" d="M248.7,236.2s-13.7-.5-18.5-9.8c0,0-1.8-2.8-.2-3.7,0,0,1.1,2.5,3.2,1.4,2.1-1.1.7-3.3.7-3.3,0,0-1.4-2.3-3.5-1.2s-4.3,3.4-1.3,8.4c3,5,13.6,9.8,19.5,8.3Z"/>
      <path class="st5" d="M243.9,238.6s-4.7-1.8-7.7-.1c-1.6.9,0,1.6,0,1.6,0,0,1.2-.7,2,.9s-.8,2.3-1.7,2.6c-.8.4-2.6.4-3.3-2.1-.7-2.5,1.4-3.6,3-4.2,1.6-.6,4.9-.7,7.6,1.4Z"/>
    </g>
    <path class="st7" d="M172.1,320.5c0-.1-.1-.3-.2-.4-.7-1.3-1.6-2.5-2.5-3.7-.5-.6-.9-1.2-1.3-1.9-.4-.8-.2-1.7.5-2.2.6-.4,1.2-.3,1.8,0,1,.5,1.7,1.3,2.3,2.2.9,1.5,1.2,3.1,1.3,4.8,0,.8,0,1.6,0,2.4,0,.7.1,1.5.2,2.2,0,.5,0,.9-.1,1.4,0,.2,0,.4,0,.6,0,.3,0,.7,0,1,0,.1-.2.2-.3.3,0,0-.2-.2-.3-.3,0-.1-.1-.3-.1-.5-.7-3-2.6-4.8-5.5-5.6-1.3-.3-2.7-.4-4.1-.6-.5,0-1-.2-1.4-.4-.9-.5-1.5-1.3-1.4-2.4,0-1.1.6-1.9,1.6-2.3,1.2-.5,2.4-.4,3.5,0,2,.7,3.6,2.1,4.9,3.7.3.4.6.9,1,1.3,0,0,0,0,0,0Z"/>
    <g>
      <path class="st7" d="M166.2,254.4c-1,.4-2.1.6-3.3.5-1.1-.1-2.2-.4-3.2-.7-.2,0-.3-.3-.5-.5.2-.1.3-.3.5-.4,1.4-.5,2.8-1.2,4.1-2.1.7-.4,1.4-.8,2.1-1.1,1.3-.5,2.6-.4,3.9-.2.3,0,.6,0,.9.1.1,0,.3.1.3.2,0,0,0,.2-.1.3-.2.1-.4.2-.5.4-.7.6-1.3,1.1-2,1.7-.7.6-1.3,1.3-2.2,1.6Z"/>
      <path class="st7" d="M172.6,257.8c1.8-.8,3.3-.6,4.8,0,.4.1.8.3,1.1.5.2.1.4.2,0,.4-.4.2-.8.6-1.2.9-.9.8-2,1.1-3.2,1-.9,0-1.8,0-2.7,0-.2,0-.4.2-.6.2-.1,0-.4,0-.4,0,0-.1-.1-.4,0-.5.6-1.1,1.3-2.1,2.3-2.4Z"/>
      <path class="st7" d="M164.5,286c0-.2-.2-.3-.2-.5-.2-1.7,0-3.3.7-4.9,1.2-2.8,3.1-5.2,5.5-7.1,2.4-1.9,4.8-3.6,7.2-5.5.9-.7,1.7-1.4,2.5-2.2.8-.7,1.4-1.7,1.7-2.7.1-.4,0-.8,0-1.2-.6-1.7-2.5-3.6-5.2-3.5-1.3,0-2.7.3-4,.6-.1,0-.3,0-.4,0,0,0,0,0,0-.1.1,0,.2-.2.4-.2,1.2-.3,2.4-.6,3.7-.7,2.7-.3,4.7.9,5.9,3.3,0,0,0,0,.1.2,0-.2,0-.4,0-.5.1-1.1,0-2.3-.4-3.4-1-2.6-2.5-4.8-5.1-6.2-.5-.3-1-.5-1.5-.6-2.4-.5-4.8-.7-7.1.3-1.1.4-2.2.9-3.3,1.3-.2,0-.4,0-.5.1,0,0,0,0,0-.1.1,0,.2-.2.3-.3,1.9-.9,3.8-1.9,5.9-2.1,2.4-.3,4.7,0,6.9,1,1.6.8,2.8,2.2,3.9,3.7.7,1.1,1.3,2.3,1.7,3.6.5,1.7.3,3.4-.4,5,0,.2-.2.4-.2.6,0-.1.2-.2.2-.3,1.9-3.3,2.5-6.8,1.6-10.6-.6-2.4-2-4.3-4-5.7-4-3-8.5-3.8-13.4-3.2-1.6.2-3.1.6-4.5,1.3-2.8,1.5-5.1,3.4-6.1,6.6-.5,1.6-.5,3.1-.2,4.7,0,0,0,0,0,0-.3,0-.5,0-.6-.4-.2-1.2-.4-2.5,0-3.7.7-2.9,2.3-5,4.7-6.7,2.7-1.9,5.8-2.6,9-2.7,4.2,0,8.1.9,11.5,3.4,3.6,2.6,5.1,6.2,4.8,10.6-.4,4.9-3,8.6-6.9,11.3-1.6,1.2-3.5,2-5.2,3.1-3.5,2.3-6.4,5-8.1,8.9-.6,1.5-.8,3.1-.8,4.7,0,.1,0,.2,0,.3,0,0-.1,0-.2,0Z"/>
    </g>
    <g>
      <path class="st7" d="M251.3,258.2c1.1.3,2.2.4,3.3.1,1.1-.2,2.1-.6,3.2-1,.2,0,.3-.3.4-.5-.2-.1-.3-.3-.5-.3-1.5-.4-2.9-.9-4.3-1.6-.7-.4-1.5-.7-2.3-.9-1.3-.4-2.6-.2-3.9.3-.3,0-.6.1-.8.2-.1,0-.3.1-.3.2,0,0,0,.2.2.3.2.1.4.2.6.3.7.5,1.4,1,2.1,1.5.7.6,1.5,1.1,2.4,1.4Z"/>
      <path class="st7" d="M245.3,262.2c-1.8-.6-3.3-.2-4.8.4-.4.2-.7.4-1.1.7-.2.1-.3.3,0,.4.5.2.9.5,1.3.8,1,.7,2.1.8,3.3.6.9-.1,1.8-.2,2.7-.2.2,0,.4.1.6.1.1,0,.4,0,.4-.1,0-.1,0-.4,0-.5-.7-1-1.5-1.9-2.5-2.2Z"/>
      <path class="st7" d="M256.4,289.4c0-.2.2-.4.2-.6,0-1.7-.4-3.3-1.3-4.8-1.5-2.7-3.6-4.8-6.2-6.4-2.6-1.6-5.2-3.1-7.8-4.7-1-.6-1.9-1.3-2.8-1.9-.9-.7-1.6-1.5-2-2.5-.2-.3-.2-.8,0-1.2.4-1.8,2.1-3.9,4.8-4.1,1.3,0,2.7,0,4,.2.1,0,.3,0,.4,0,0,0,0,0,0-.1-.1,0-.3-.2-.4-.2-1.2-.1-2.5-.3-3.7-.3-2.7,0-4.6,1.4-5.5,4,0,0,0,0-.1.2,0-.2-.1-.4-.1-.5-.2-1.1-.3-2.2,0-3.4.7-2.7,2-5,4.4-6.7.4-.3.9-.6,1.4-.7,2.3-.8,4.7-1.2,7.1-.5,1.2.3,2.3.6,3.5.9.2,0,.4,0,.5,0,0,0,0,0,0-.1-.1,0-.2-.2-.3-.2-2-.7-4-1.4-6.1-1.4-2.4,0-4.7.4-6.7,1.8-1.5,1-2.6,2.5-3.4,4.1-.6,1.2-1.1,2.4-1.3,3.7-.3,1.7,0,3.4.9,4.9.1.2.2.4.2.6,0,0-.2-.2-.3-.3-2.3-3.1-3.3-6.5-2.7-10.3.4-2.4,1.6-4.5,3.3-6.1,3.6-3.5,8.1-4.7,13-4.6,1.6,0,3.1.3,4.6.8,3,1.2,5.4,2.9,6.8,5.9.7,1.5.8,3.1.7,4.7,0,0,0,0,0,0,.3,0,.5,0,.5-.4,0-1.2.1-2.5-.3-3.7-1-2.8-2.9-4.8-5.4-6.2-2.9-1.6-6-2-9.2-1.7-4.2.4-8,1.8-11.1,4.7-3.2,3-4.4,6.7-3.6,11.1.9,4.8,3.9,8.2,8,10.5,1.8,1,3.7,1.6,5.5,2.6,3.7,1.9,6.9,4.3,9,8,.8,1.4,1.1,3,1.3,4.5,0,.1,0,.2,0,.3,0,0,.1,0,.2,0Z"/>
    </g>
    <g>
      <path class="st7" d="M185.5,288.8c1.5-.5,3-1,4.5-1.5,3.5-1,7.2-1.6,10.9-1.5,1.7,0,3.3.4,4.7,1.2.5.3,1,.7,1.4,1.2.8,1,.5,2.2-.7,2.7-.9.4-1.9.3-2.8,0-3-.8-6.1-1.3-9.1-1.6-1.7-.2-3.4,0-5.1.2-2.8.4-5.6,1.2-8.2,2.2-.3.1-.6.3-.9.5,0,0-.2,0-.3,0,0-.1,0-.2,0-.3,0-.5.5-.8.7-1.1,1.1-1.4,2.2-2.8,3.5-3.9.5-.5,1.2-.9,1.8-1.2.4-.2.9-.2,1.3,0,.5,0,.8.5.6,1-.2.4-.4.8-.7,1-.4.4-1,.7-1.4,1.1,0,0,0,0,0,0Z"/>
      <path class="st7" d="M221.1,303.1c-.4,1.3-1.1,2.2-2.3,2.6-1.3.5-2.7.4-4,.2-.5,0-1.1-.2-1.6-.4-.1,0-.3-.2-.3-.3,0-.1,0-.3.2-.4.9-.7,1.8-1.3,2.6-2,1.1-.9,2.4-1,3.7-1,.4,0,.8,0,1.2-.2.4,0,.7,0,.7.5,0,.4,0,.7,0,1Z"/>
      <path class="st7" d="M211.7,285.5c.2.2.5.4.7.6,1.5,1.2,2.4,2.7,2.7,4.6.2,1.5-.2,2.9-1.2,4.1-.9,1.1-2.4,1.5-3.6,1-.7-.3-1-1.6-.5-2.2,0,0,.2-.1.4-.2,0,.3,0,.6,0,.8,0,.7.2,1,.9,1.1,1.2.3,2.4-.4,3-1.7.6-1.2.6-2.3.2-3.6-.7-2.4-2.4-4-4.5-5-1.8-.9-3.7-1-5.6-1.1-5.5-.3-10.6,1-15.6,3.3-2.8,1.3-5.5,2.7-8,4.5-.4.3-.9.6-1.4.9,0,0,0,0-.1-.1,0-.1.2-.3.3-.4.7-.6,1.4-1.2,2.2-1.8,4.4-3,9.2-5.3,14.4-6.5,3.6-.8,7.3-1,11-.4,4.5.7,8.6,2.4,11.8,5.7,2.2,2.3,3.6,4.9,3.8,8.1.1,1.5,0,3-.9,4.3-1.2,1.8-2.8,2.8-5,3,0,0-.2,0-.2,0-.1,0-.2-.1-.3-.2,0-.1.1-.3.2-.3.4-.1.8-.2,1.2-.3,1.6-.5,3-1.3,3.8-3,.5-.9.6-1.9.6-3,0-2.8-1.2-5.1-2.9-7.2-2-2.3-4.5-4-7.4-5Z"/>
    </g>
    <g>
      <path class="st7" d="M183.8,194.7c.9,1.4,1.1,3.3.7,5.3,0,.4-.3.7-.5,1-.3.4-.7.4-1,0-.5-.4-1-.7-1.4-1.1-.8-.8-1.2-1.9-1.1-3.1,0-.5,0-.9.1-1.4,0-1.1,0-2.1-.6-3-.2-.2-.3-.5,0-.8.3-.3.6-.2.9,0,0,0,0,0,0,0,1,.6,2,1.6,2.9,3Z"/>
      <path class="st7" d="M195.2,210.6c-.8-1.3-.6-2.7,1-3.1.7-.2,1.4-.2,2.1.1,2,.8,3.4,2.3,4.2,4.3,0,.2,0,.6,0,.7-.1.1-.5,0-.7,0-.8-.4-1.6-.6-2.5-.6-.9,0-1.9,0-2.8-.5-.6-.2-1.1-.6-1.3-1Z"/>
      <path class="st7" d="M172.2,229.1c.5-3.6,1.4-7,3.6-10,0,0,0,0-.1,0-.1.2-.3.3-.4.5-.2.1-.3.3-.5.4,0,0,0,0-.1-.1.1-.2.2-.4.3-.5,1-1.4,2-2.7,3-4.1,1.9-2.8,3.4-6,4.3-9.3.3-1,.6-2,.8-3,.5-2.5,0-4.9-.8-7.3-.2-.5-.4-1.1-.7-1.6,0,0,0,0,0,0,.2.2.4.4.5.6.9,1.5,1.4,3.2,1.6,4.9.2,1.6,0,3.1-.3,4.6-.8,3.7-2.3,7.1-4.2,10.3,0,0,0,.2,0,.3.4-.4.8-.8,1.2-1.2,3.6-3.3,7.8-5.4,12.8-5.2,2,0,3.9.7,5.6,1.7.5.3.8.6,1.1,1.1,0,0,0,0,0,.1-.1,0-.3,0-.3,0-2-1.6-4.2-2.2-6.7-2.2-2.5,0-4.9.6-7.1,1.7-4.5,2.3-7.7,5.9-10.3,10.1-1.5,2.4-2.2,5.1-2.8,7.8,0,.2-.1.4-.2.6,0,0-.1,0-.2,0Z"/>
    </g>
    <g>
      <path class="st7" d="M200.2,221.9c1.3-1,3.2-1.3,5.3-1,.4,0,.7.3,1.1.5.4.3.4.6.1,1-.3.5-.6,1-1,1.4-.8.9-1.8,1.3-3,1.3-.5,0-1,0-1.4,0-1.1,0-2.1.1-3,.8-.2.2-.5.3-.8,0-.3-.3-.2-.6,0-.9,0,0,0,0,0,0,.5-1,1.4-2.1,2.8-3Z"/>
      <path class="st7" d="M215.5,209.6c-1.3.9-2.6.7-3.1-.8-.2-.7-.2-1.4,0-2.1.7-2.1,2.1-3.5,4.1-4.4.2,0,.5,0,.7,0,.1.1.1.5,0,.7-.4.8-.5,1.6-.5,2.5,0,.9,0,1.9-.3,2.8-.2.6-.5,1.1-.9,1.4Z"/>
      <path class="st7" d="M235.2,231.5c-3.6-.3-7.1-1-10.2-3,0,0,0,0,0,.1.2.1.3.3.5.4.2.1.3.3.4.5,0,0,0,0-.1.1-.2,0-.4-.2-.5-.3-1.4-.9-2.8-1.9-4.3-2.8-3-1.8-6.1-3-9.5-3.8-1-.2-2-.5-3.1-.6-2.5-.4-4.9.3-7.2,1.2-.5.2-1,.5-1.6.8,0,0,0,0,0,0,.2-.2.4-.4.6-.6,1.5-.9,3.1-1.5,4.8-1.9,1.5-.3,3.1-.3,4.6,0,3.7.6,7.2,1.9,10.5,3.6,0,0,.2,0,.3,0-.4-.4-.9-.8-1.3-1.2-3.5-3.4-5.8-7.5-5.9-12.5,0-2,.5-3.9,1.4-5.7.2-.5.6-.8,1-1.1,0,0,0,0,.1,0,0,.1,0,.3,0,.3-1.4,2.1-1.9,4.3-1.8,6.8.1,2.5.8,4.9,2.1,7,2.5,4.4,6.3,7.4,10.7,9.7,2.5,1.3,5.2,1.9,8,2.4.2,0,.4,0,.6.1,0,0,0,.1,0,.2Z"/>
    </g>
    <g>
      <path class="st7" d="M153.9,379.9c1.4.8,3.4.9,5.3.2.4-.1.7-.4,1-.6.4-.3.3-.7,0-1-.4-.4-.8-.9-1.2-1.3-.9-.8-2-1-3.2-.8-.5,0-.9.2-1.4.3-1,.2-2.1.2-3-.3-.3-.1-.6-.3-.8,0-.3.3-.1.6,0,.9,0,0,0,0,0,0,.7,1,1.7,1.9,3.2,2.6Z"/>
      <path class="st7" d="M170.8,389.9c-1.4-.7-2.7-.3-3,1.3-.1.7,0,1.5.3,2.1,1,2,2.6,3.2,4.7,3.8.2,0,.6,0,.7-.1.1-.1,0-.5,0-.7-.5-.7-.8-1.5-.8-2.4,0-.9-.2-1.9-.7-2.7-.3-.6-.7-1-1.1-1.2Z"/>
      <path class="st7" d="M187.2,365.5c-3.5.8-6.8,2-9.6,4.4,0,0,0,0,0-.1.1-.2.3-.3.4-.5.1-.2.2-.4.4-.5,0,0,0,0-.1-.1-.2.1-.3.2-.5.4-1.3,1.1-2.5,2.3-3.8,3.3-2.7,2.2-5.6,3.9-8.9,5.1-1,.4-1.9.7-2.9,1-2.5.7-4.9.4-7.3-.2-.6-.1-1.1-.4-1.7-.5,0,0,0,0,0,.1.2.2.4.4.7.5,1.6.7,3.3,1.1,5,1.2,1.6,0,3.1-.2,4.6-.6,3.6-1.2,6.8-2.9,9.9-5.1,0,0,.2,0,.3,0-.4.4-.8.9-1.1,1.3-3,3.9-4.7,8.2-4.1,13.2.2,2,1.1,3.8,2.2,5.5.3.4.7.7,1.2,1,0,0,0,0,.1,0,0-.1,0-.3-.1-.3-1.7-1.8-2.5-4-2.8-6.5-.2-2.5.1-4.9,1.1-7.3,1.9-4.7,5.2-8.2,9.2-11.1,2.3-1.7,4.9-2.6,7.6-3.5.2,0,.4-.2.6-.2,0,0,0-.1,0-.2Z"/>
    </g>
    <path class="st7" d="M181.8,263.6c.2,0,.4,0,.5-.2,1.2-.6,2.5-1.2,3.7-1.9,4.6-2.6,8.2-6.1,10.5-10.8,1.3-2.6,2-5.3,1.6-8.2-.5-3.8-2.3-6.8-6-8.3-1.6-.6-3.2-.8-4.8-.2-1,.4-1.8,1.1-2.4,2-1,1.6,0,3.4,2,3.6.4,0,.8,0,1.1,0,1.2-.2,1.5-1.5,1-2.5.3-.1.4,0,.5.3.5,1.3-.2,2.4-1.6,2.7-.9.2-1.8,0-2.6-.4-1.3-.6-1.5-2.6-.9-3.6.9-1.6,2.2-2.6,4-2.8,3.5-.4,6.2,1,8.3,3.7,2.5,3.1,2.8,6.7,1.9,10.4-1,3.8-3.1,7-5.8,9.8-2.7,2.7-5.8,4.7-9.3,6.2-.5.2-1,.3-1.5.4,0,0,0-.1,0-.2Z"/>
    <path class="st7" d="M256.2,315.7c.1-.2.2-.3.3-.5.6-1.2,1.2-2.5,1.7-3.7,1.9-4.9,2.5-9.9,1.3-15-.6-2.8-1.8-5.4-3.9-7.4-2.8-2.6-6.1-3.8-9.9-2.6-1.6.5-3,1.4-3.8,2.9-.6.9-.7,2-.6,3.1.2,1.9,2.1,2.7,3.8,1.6.3-.2.6-.5.8-.8.8-.9.2-2.1-.8-2.6.1-.3.3-.2.5-.1,1.2.7,1.4,2,.5,3.1-.6.7-1.4,1.1-2.3,1.3-1.4.3-2.8-1.1-3-2.2-.3-1.8,0-3.4,1.3-4.7,2.4-2.5,5.5-3.1,8.8-2.4,3.9.9,6.4,3.4,8,6.9,1.6,3.6,2,7.4,1.7,11.2-.3,3.8-1.6,7.3-3.3,10.7-.2.5-.6.9-.9,1.3,0,0-.1,0-.2-.1Z"/>
    <path class="st7" d="M209.1,363.3c-.2,0-.3.2-.5.3-1.3.4-2.6.9-3.9,1.3-5,1.4-10.1,1.6-15.1-.2-2.7-.9-5.2-2.3-6.9-4.6-2.4-3-3.1-6.4-1.6-10.1.6-1.6,1.7-2.8,3.3-3.5,1-.5,2.1-.5,3.1-.3,1.9.4,2.4,2.4,1.2,3.9-.2.3-.5.5-.8.8-1,.7-2.1,0-2.5-1.1-.3.1-.3.3-.2.5.6,1.2,1.9,1.6,3,.8.8-.5,1.3-1.3,1.5-2.1.4-1.3-.8-2.9-1.9-3.2-1.7-.5-3.4-.3-4.9.9-2.7,2.2-3.6,5.1-3.2,8.5.5,3.9,2.8,6.7,6.1,8.7,3.4,2,7.1,2.7,11,2.8,3.8,0,7.4-.9,10.9-2.2.5-.2.9-.5,1.4-.8,0,0,0-.1-.1-.2Z"/>
    <g>
      <path class="st7" d="M235.8,306.6c.2-.6.3-1.3.5-1.9.2-.5.6-.7,1.1-.5.1,0,.2,0,.3.2,1.5,1.1,2.7,2.6,2.6,4.6,0,.6-.2,1.2-.4,1.7-.3.6-.7,1.2-1.1,1.8-.3.4-.6.3-.8,0-.2-.5-.5-1-.8-1.5-.8-1.3-1.3-2.7-1.4-4.2Z"/>
      <path class="st7" d="M238.4,309.7c0-.4-.2-.8-.3-1.2-.6-3.1-2.1-5.8-4.3-8.1-1.1-1.2-2.2-2.3-3.5-3.2-.7-.5-1.5-1-2.4-1.2,0,0-.1,0-.2,0-.2-.1-.3-.2-.5-.4.2,0,.4,0,.6,0,1.2.1,2.2.7,3.1,1.3,2.6,2,4.8,4.3,6.3,7.3.8,1.6,1.1,3.2,1.3,4.9,0,.2,0,.4,0,.6,0,0-.1,0-.2,0Z"/>
    </g>
    <g>
      <path class="st7" d="M163.1,306.7c-.2.6-.3,1.3-.5,1.9-.2.5-.6.7-1.1.5-.1,0-.2,0-.3-.2-1.5-1.1-2.7-2.6-2.6-4.6,0-.6.2-1.2.4-1.7.3-.6.7-1.2,1.1-1.8.3-.4.6-.3.8,0,.2.5.5,1,.8,1.5.8,1.3,1.3,2.7,1.4,4.2Z"/>
      <path class="st7" d="M160.5,303.7c0,.4.2.8.3,1.2.6,3.1,2.1,5.8,4.3,8.1,1.1,1.2,2.2,2.3,3.5,3.2.7.5,1.5,1,2.4,1.2,0,0,.1,0,.2,0,.2.1.3.2.5.4-.2,0-.4,0-.6,0-1.2-.1-2.2-.7-3.1-1.3-2.6-2-4.8-4.3-6.3-7.3-.8-1.6-1.1-3.2-1.3-4.9,0-.2,0-.4,0-.6,0,0,.1,0,.2,0Z"/>
    </g>
    <g>
      <path class="st7" d="M139.6,243.1c.6.2,1.2.4,1.8.7.5.3.6.7.3,1.2,0,.1-.1.2-.2.3-1.3,1.4-2.9,2.3-4.9,2-.6,0-1.1-.4-1.6-.7-.6-.4-1.1-.9-1.6-1.4-.3-.3-.2-.7.2-.8.5-.2,1.1-.3,1.6-.6,1.4-.6,2.8-.9,4.4-.8Z"/>
      <path class="st7" d="M136.3,245.3c.4,0,.8,0,1.2,0,3.2-.2,6-1.3,8.6-3.1,1.3-.9,2.6-1.9,3.6-3,.6-.7,1.2-1.4,1.5-2.2,0,0,0-.1,0-.2.1-.1.3-.3.4-.4,0,.2,0,.4,0,.6-.3,1.1-.9,2.1-1.8,2.9-2.3,2.3-5,4.2-8.1,5.3-1.6.6-3.3.7-5.1.6-.2,0-.4,0-.6-.1,0,0,0-.1,0-.2Z"/>
    </g>
    <g>
      <path class="st7" d="M231.5,336.8c.6,0,1.3-.2,1.9-.3.6,0,.8.3.9.9,0,.1,0,.3,0,.4-.5,1.9-1.4,3.4-3.3,4.2-.5.2-1.2.3-1.7.2-.7,0-1.4-.2-2.1-.4-.4,0-.5-.5-.2-.8.4-.4.8-.8,1.1-1.3.9-1.2,2-2.2,3.4-2.9Z"/>
      <path class="st7" d="M229.7,340.3c.3-.2.7-.5,1-.7,2.7-1.7,4.6-4.1,5.9-7,.7-1.4,1.3-2.9,1.7-4.4.2-.9.3-1.8.2-2.7,0,0,0-.1,0-.2,0-.2.1-.4.2-.6,0,.2.2.3.3.5.3,1.1.2,2.2,0,3.4-.9,3.2-2.2,6.1-4.4,8.6-1.1,1.3-2.6,2.2-4.1,3-.2,0-.4.1-.6.2,0,0,0-.1,0-.2Z"/>
    </g>
    <g>
      <path class="st2" d="M176.9,214.6s-6.7-1.9-9.6,1.3c-1.5,1.6,0,2.5,0,2.5,0,0,1.1,1.3,2.4-.4,1.1-1.4-.5-2-.7-2-.2,0,0,0,0,0,0,0,1.1-1.6,8.1-1.4Z"/>
      <path class="st2" d="M178,213.8s-11.5-4.2-18.6,1.9c0,0-2.5,1.7-1.4,3,0,0,1.8-1.7,3.1-.1s-.5,3-.5,3c0,0-1.9,1.4-3.3-.2-1.4-1.6-2.4-4.2,1.7-7.3,4.1-3.1,14.5-3.6,18.9-.3Z"/>
    </g>
    <g>
      <path class="st7" d="M168.8,355.2c.2.6.4,1.2.6,1.9.1.6-.1.9-.7,1-.1,0-.3,0-.4,0-1.9-.2-3.6-.8-4.6-2.6-.3-.5-.4-1.1-.5-1.7,0-.7,0-1.4,0-2.1,0-.5.4-.6.7-.4.5.3,1,.6,1.5.9,1.3.7,2.5,1.6,3.4,2.9Z"/>
      <path class="st7" d="M165,354c.3.3.6.6.8.9,2.1,2.4,4.8,3.9,7.9,4.7,1.5.4,3.1.8,4.7.9.9,0,1.8,0,2.7-.2,0,0,.1,0,.2,0,.2,0,.4,0,.6,0-.1.1-.3.3-.4.4-1.1.5-2.2.6-3.3.4-3.3-.3-6.4-1.2-9.2-3-1.5-.9-2.6-2.2-3.7-3.5-.1-.2-.2-.4-.3-.6,0,0,0,0,.1,0Z"/>
    </g>
  </g>
  <g>
    <path class="st1" d="M297.7,403.1v12.1c0,.8.3,1.5.8,2.1.6.6,1.2.9,2,.9h.5v.5s-13.5,0-13.5,0v-.5h.6c.8,0,1.4-.3,2-.9.5-.6.8-1.3.9-2.1v-26.8c0-.8-.4-1.5-.9-2-.5-.6-1.2-.8-1.9-.8h-.6v-.5h17.1c1.3,0,2.4-.1,3.4-.3,1-.2,1.6-.4,1.9-.5v8.1h-.4v-.5c0-1.9-.7-3.3-2-4.1-.6-.4-1.4-.6-2.2-.6h-7.6v14h12.8c1.1,0,2-.4,2.7-1.2.7-.8,1.1-1.8,1.1-2.9v-.4h.4v11.1h-.4v-.4c0-1.2-.3-2.2-1-2.9-.7-.8-1.6-1.2-2.6-1.2h-12.9Z"/>
    <path class="st1" d="M319.5,418.2c.8,0,1.4-.3,2-.9.5-.6.8-1.3.9-2.1v-26.8c0-1.1-.6-2-1.5-2.5-.4-.3-.9-.4-1.4-.4h-.6v-.5h17.1c.9,0,1.9,0,3-.3,1.1-.2,1.9-.4,2.3-.6v8.4h-.4v-.6c0-1.4-.4-2.6-1.2-3.5-.8-.9-1.8-1.4-3.2-1.4h-7.5v14h5.9c1.1,0,2-.4,2.7-1.2.7-.8,1.1-1.8,1.1-2.9v-.4h.4v11.1h-.4v-.4c0-1.6-.6-2.8-1.8-3.6-.6-.4-1.2-.5-2-.6h-5.9v13.5h5.8c2.2,0,4-.7,5.5-2,1.5-1.3,2.6-3.3,3.3-5.7h.4l-2,9.8h-23.1v-.5h.6Z"/>
    <path class="st1" d="M349.6,414.2c0-2.3.5-4.3,1.4-5.9h.4c0,.3,0,.5,0,.8,0,2.2.7,4.1,2.2,5.8,1.5,1.7,3.5,2.5,6,2.5s3.5-.5,4.7-1.5c1.1-1,1.7-2.3,1.7-3.9s-1.2-3.5-3.6-4.9l-7.7-5.5c-1.5-1-2.6-2.1-3.3-3.5-.7-1.4-1-2.7-1-4.2,0-3,.9-5.3,2.6-7,1.8-1.6,4-2.5,6.8-2.5s3.7.2,6.1.5h2.8l-.6,7.1h-.4c0-1.7-.6-3-1.7-4-1.1-1-2.7-1.5-4.6-1.5s-4,.8-5,2.3c-.5.7-.8,1.6-.8,2.5,0,1.5,1,3,3.1,4.3l8.5,6c2.7,1.7,4,4.1,4,7.4s-1.1,6-3.2,7.9c-2.2,1.8-5,2.7-8.6,2.7s-3.9-.3-5.6-.8c-1.7-.5-3-1.2-3.8-2.1-.2-.6-.3-1.3-.3-2.2Z"/>
    <path class="st1" d="M393.6,387v28.2c0,.8.3,1.5.9,2.1.5.6,1.2.9,2,.9h.5v.5s-13.5,0-13.5,0v-.5h.6c.7,0,1.4-.3,1.9-.9.5-.6.9-1.3.9-2.1v-28.3h-6c-1.4,0-2.4.5-3.3,1.4-.8.9-1.2,2.1-1.2,3.5v.6h-.4v-8.4c.4.2,1.2.4,2.2.6,1.1.2,2.1.3,3,.3h17.9c1.5,0,2.6-.2,3.6-.4.9-.2,1.5-.4,1.7-.5v8.4h-.4v-.6c0-1.4-.4-2.6-1.2-3.5-.8-.9-1.9-1.4-3.3-1.4h-6Z"/>
    <path class="st1" d="M409.7,418.2c.8,0,1.4-.3,2-.9.5-.6.8-1.3.9-2.1v-26.7c0-.8-.3-1.5-.9-2.1-.5-.6-1.2-.9-2-.9h-.6v-.5h13.5v.5h-.6c-.8,0-1.4.3-2,.9-.6.6-.8,1.3-.8,2.1v26.7c0,.8.3,1.5.8,2.1.6.6,1.2.9,2,.9h.5v.5s-13.5,0-13.5,0v-.5h.6Z"/>
    <path class="st1" d="M467.9,373.1c.7,0,1.4,0,1.9,0v.5c-1.8,0-3.4.6-4.8,1.4-1.5,1-2.6,1.9-3.2,2.8-.6.8-1.1,1.5-1.5,2.1s-.7,1.2-1.1,1.9c-.6,1.1-1.1,2.2-1.6,3.3l-11.9,28.2c-1.4,3.2-2.1,5.3-2.2,6.3h-.4l-13.5-31.4c-.4-.9-1-1.6-1.7-2-.7-.5-1.4-.7-2.1-.7h-.4v-.5h14.2v.5h-.4c-.7,0-1.1.2-1.4.6s-.5.8-.5,1.2,0,.8.2,1.2l7.6,19.8,9.2-23.2c1.4-3.6,3-6.2,4.9-8,2.8-2.7,5.7-4,8.7-4Z"/>
    <path class="st1" d="M488.6,418.2h.4v.5h-14.2v-.5h.4c.7,0,1.1-.2,1.4-.6s.5-.8.5-1.2,0-.8-.2-1.2l-2.2-5.9h-10.4l-2.3,5.9c-.1.4-.2.8-.2,1.2s.2.8.5,1.2c.3.4.8.6,1.5.6h.4v.5h-9.5v-.5h.4c.7,0,1.4-.2,2-.7.7-.4,1.2-1.1,1.7-2l10.3-25.1c1.4-3.2,2.1-5.3,2.2-6.3h.4l13.2,31.3c.4.9,1,1.6,1.7,2.1.7.5,1.4.7,2.1.7ZM465,407.2h8.9l-4.3-11.8-4.6,11.8Z"/>
    <path class="st1" d="M492.3,418.2c.8,0,1.4-.3,2-.9.5-.6.8-1.3.9-2.1v-26.6c0-.8-.3-1.5-.9-2.1-.5-.6-1.2-.9-2-.9h-.6v-.5h13.5v.5h-.6c-.8,0-1.4.3-2,.9-.6.6-.8,1.3-.8,2.1v28.1h5.8c2.2,0,4-.7,5.5-2,1.5-1.3,2.6-3.3,3.3-5.7h.4l-2,9.8h-23.1v-.5h.6Z"/>
    <path class="st1" d="M528.6,381.8c1.7-.8,3.2-1.2,4.4-1.2s2.3.1,3.3.4c.9.3,1.9.7,2.9,1.3,1,.6,1.9,1.3,2.8,2.2,1.7,1.7,3.1,3.6,4.2,5.8l8.9,18,12.9-24h.4l4.6,28.3c.7,4.4,1.9,7.8,3.7,10.4,1.8,2.6,4.2,3.9,7.2,3.9h.6v.5c-1.6.5-3.2.7-4.8.7-3.2,0-6.1-1.4-8.8-4.1-2.6-2.6-4.3-6.4-5.2-11.4l-2.2-14-8.4,15.7c-1.1,2-1.7,3.8-1.7,5.3h-.4l-11.1-22.7-2.2,19.2c0,.7.2,1.3.9,1.8.3.2.5.3.8.3h.7v.4h-9.3v-.5h.7c.8,0,1.5-.2,2.1-.7.6-.5,1-1.2,1.1-2l3-22.9c-1.3-2.6-2.9-4.8-4.6-6.8-1.9-2.2-3.9-3.4-6.1-3.4s-.4,0-.6,0v-.5Z"/>
    <path class="st1" d="M580.7,418.2c.8,0,1.4-.3,2-.9.5-.6.8-1.3.9-2.1v-26.8c0-1.1-.6-2-1.5-2.5-.4-.3-.9-.4-1.4-.4h-.6v-.5h17.1c.9,0,1.9,0,3-.3,1.1-.2,1.9-.4,2.3-.6v8.4h-.4v-.6c0-1.4-.4-2.6-1.2-3.5-.8-.9-1.8-1.4-3.2-1.4h-7.5v14h5.9c1.1,0,2-.4,2.7-1.2.7-.8,1.1-1.8,1.1-2.9v-.4h.4v11.1h-.4v-.4c0-1.6-.6-2.8-1.8-3.6-.6-.4-1.2-.5-2-.6h-5.9v13.5h5.8c2.2,0,4-.7,5.5-2,1.5-1.3,2.6-3.3,3.3-5.7h.4l-2,9.8h-23.1v-.5h.6Z"/>
    <path class="st1" d="M638.9,389.5c3.1,3,4.6,7.1,4.6,12.3s-1.5,9.3-4.6,12.3c-3.1,3-7.2,4.5-12.5,4.5h-16.2v-.5h.6c.8,0,1.4-.3,2-.9.5-.6.8-1.3.9-2.1v-26.9c0-.8-.4-1.4-.9-1.9-.5-.5-1.2-.8-1.9-.8h-.6v-.5h16.2c5.3,0,9.4,1.5,12.5,4.5ZM625.8,416.6c2.1,0,4-.6,5.5-1.8,1.6-1.2,2.8-2.9,3.6-5.1.8-2.2,1.2-4.8,1.2-7.9,0-4.5-.9-8.2-2.8-10.8-1.9-2.7-4.4-4-7.6-4h-5.5v29.6h5.5Z"/>
    <path class="st1" d="M649,418.2c.8,0,1.4-.3,2-.9.5-.6.8-1.3.9-2.1v-26.7c0-.8-.3-1.5-.9-2.1-.5-.6-1.2-.9-2-.9h-.6v-.5h13.5v.5h-.6c-.8,0-1.4.3-2,.9-.6.6-.8,1.3-.8,2.1v26.7c0,.8.3,1.5.8,2.1.6.6,1.2.9,2,.9h.5v.5s-13.5,0-13.5,0v-.5h.6Z"/>
    <path class="st1" d="M668.4,418.2c.8,0,1.4-.3,2-.9.5-.6.8-1.3.9-2.1v-26.8c0-1.1-.6-2-1.5-2.5-.4-.3-.9-.4-1.4-.4h-.6v-.5h17.1c.9,0,1.9,0,3-.3,1.1-.2,1.9-.4,2.3-.6v8.4h-.4v-.6c0-1.4-.4-2.6-1.2-3.5-.8-.9-1.8-1.4-3.2-1.4h-7.5v14h5.9c1.1,0,2-.4,2.7-1.2.7-.8,1.1-1.8,1.1-2.9v-.4h.4v11.1h-.4v-.4c0-1.6-.6-2.8-1.8-3.6-.6-.4-1.2-.5-2-.6h-5.9v13.5h5.8c2.2,0,4-.7,5.5-2,1.5-1.3,2.6-3.3,3.3-5.7h.4l-2,9.8h-23.1v-.5h.6Z"/>
    <path class="st1" d="M730,385.5h-.4c-.7,0-1.4.2-2,.7-.7.4-1.2,1.1-1.7,2l-10.6,25.1c-1.4,3.2-2.1,5.3-2.2,6.3h-.4l-13.5-31.4c-.4-.9-1-1.6-1.7-2-.7-.5-1.4-.7-2.1-.7h-.4v-.5h14.2v.5h-.4c-.7,0-1.1.2-1.4.6s-.5.8-.5,1.2,0,.8.2,1.2l7.6,19.8,7.8-19.8c.1-.4.2-.8.2-1.2s-.2-.8-.5-1.2c-.3-.4-.8-.6-1.4-.6h-.4v-.5h9.5v.5Z"/>
    <path class="st1" d="M758.7,418.2h.4v.5h-14.2v-.5h.4c.7,0,1.1-.2,1.4-.6s.5-.8.5-1.2,0-.8-.2-1.2l-2.2-5.9h-10.4l-2.3,5.9c-.1.4-.2.8-.2,1.2s.2.8.5,1.2c.3.4.8.6,1.5.6h.4v.5h-9.5v-.5h.4c.7,0,1.4-.2,2-.7.7-.4,1.2-1.1,1.7-2l10.3-25.1c1.4-3.2,2.1-5.3,2.2-6.3h.4l13.2,31.3c.4.9,1,1.6,1.7,2.1.7.5,1.4.7,2.1.7ZM735.2,407.2h8.9l-4.3-11.8-4.6,11.8Z"/>
    <path class="st1" d="M762.4,418.2c.8,0,1.4-.3,2-.9.5-.6.8-1.3.9-2.1v-26.6c0-.8-.3-1.5-.9-2.1-.5-.6-1.2-.9-2-.9h-.6v-.5h13.5v.5h-.6c-.8,0-1.4.3-2,.9-.6.6-.8,1.3-.8,2.1v28.1h5.8c2.2,0,4-.7,5.5-2,1.5-1.3,2.6-3.3,3.3-5.7h.4l-2,9.8h-23.1v-.5h.6Z"/>
  </g>
</svg>