<?xml version="1.0" encoding="utf-8"?>
<svg xmlns="http://www.w3.org/2000/svg" viewBox="8.4976 4.574 436.7133 159.3708" width="436.713px" height="159.371px">
  <path class="st4" d="M 314.61 113.245 C 311.31 114.545 308.21 116.645 305.11 116.645 C 308.21 116.645 311.31 118.645 314.61 120.045 C 316.51 118.745 317.51 117.745 320.61 116.645 C 317.51 115.545 316.51 114.645 314.61 113.245 Z" style="fill: rgb(169, 131, 64); stroke: rgb(169, 131, 64); stroke-linecap: round; stroke-linejoin: round; stroke-width: 0.1px;" transform="matrix(1, 0, 0, 1, 0, -1.4210854715202004e-14)"/>
  <path class="st4" d="M 433.81 118.045 L 317.41 118.045 C 316.81 118.045 316.21 117.345 316.21 116.645 C 316.21 115.945 316.71 115.245 317.41 115.245 L 433.81 115.245 C 434.41 115.245 435.01 115.945 435.01 116.645 C 435.01 117.345 434.51 118.045 433.81 118.045 Z" style="fill: rgb(169, 131, 64); stroke: rgb(169, 131, 64); stroke-linecap: round; stroke-linejoin: round; stroke-width: 0.1px;" transform="matrix(1, 0, 0, 1, 0, -1.4210854715202004e-14)"/>
  <path class="st19" d="M 301.21 112.445 C 299.21 112.945 298.01 115.345 297.71 116.045 C 297.41 116.945 297.11 117.945 297.01 118.845 L 296.41 118.845 C 296.21 117.245 296.81 115.045 297.61 112.445 C 298.61 109.445 296.41 106.245 295.61 106.245 C 294.81 106.245 292.71 109.545 293.61 112.445 C 294.41 115.045 295.01 117.245 294.81 118.845 L 294.21 118.845 C 294.21 117.945 293.91 116.945 293.51 116.045 C 293.21 115.345 292.01 112.945 290.01 112.445 C 288.31 112.045 286.11 113.445 286.01 115.845 C 286.01 116.845 286.61 118.745 288.31 118.845 C 289.01 118.845 289.81 118.545 289.61 118.145 C 289.21 117.545 289.31 116.745 289.41 116.545 C 289.91 115.745 290.81 115.845 291.41 116.245 C 292.31 116.945 292.91 117.545 293.31 118.745 L 292.31 118.745 C 291.71 118.745 291.61 119.945 292.31 119.945 L 294.21 119.945 C 294.11 119.945 293.91 120.145 293.81 120.245 C 293.31 120.645 292.61 121.045 292.01 120.845 C 291.71 120.845 291.51 120.845 291.51 121.045 C 291.81 122.745 293.71 122.545 294.21 121.845 C 293.61 122.545 295.01 124.545 295.51 124.545 C 296.01 124.545 297.41 122.545 296.81 121.845 C 297.31 122.545 299.21 122.645 299.51 121.045 C 299.51 120.845 299.31 120.745 299.01 120.845 C 298.41 121.045 297.81 120.645 297.21 120.245 C 297.11 120.245 296.91 120.045 296.81 119.945 L 298.71 119.945 C 299.41 119.945 299.31 118.745 298.71 118.745 L 297.71 118.745 C 298.11 117.445 298.71 116.845 299.61 116.245 C 300.21 115.745 301.21 115.745 301.61 116.545 C 301.71 116.745 301.81 117.445 301.41 118.145 C 301.21 118.445 302.01 118.845 302.71 118.845 C 304.41 118.745 305.01 116.845 305.01 115.845 C 305.01 113.345 302.71 112.045 301.01 112.445 L 301.21 112.445 Z" style="fill: rgb(64, 27, 121);" transform="matrix(1, 0, 0, 1, 0, -1.4210854715202004e-14)"/>
  <path class="st4" d="M 439.51 120.845 C 439.11 119.345 437.31 118.345 436.71 118.145 C 436.01 117.845 435.31 117.645 434.51 117.645 L 434.51 117.145 C 435.81 117.045 437.41 117.445 439.41 118.045 C 441.71 118.745 444.21 117.145 444.21 116.545 C 444.21 115.945 441.71 114.345 439.41 115.045 C 437.41 115.645 435.71 116.145 434.51 115.945 L 434.51 115.445 C 435.21 115.445 436.01 115.145 436.71 114.945 C 437.31 114.745 439.11 113.745 439.51 112.245 C 439.81 110.945 438.81 109.245 436.91 109.245 C 436.21 109.245 434.71 109.645 434.61 110.945 C 434.61 111.545 434.91 112.045 435.11 111.945 C 435.61 111.645 436.21 111.645 436.31 111.745 C 436.91 112.145 436.91 112.845 436.51 113.345 C 436.01 114.045 435.51 114.445 434.61 114.745 L 434.61 114.045 C 434.61 113.545 433.71 113.545 433.71 114.045 L 433.71 115.545 C 433.71 115.545 433.61 115.345 433.51 115.245 C 433.21 114.845 432.91 114.345 433.01 113.945 C 433.01 113.745 433.01 113.545 432.91 113.545 C 431.61 113.745 431.81 115.245 432.31 115.545 C 431.71 115.045 430.31 116.145 430.31 116.545 C 430.31 116.945 431.81 117.945 432.31 117.545 C 431.81 117.945 431.71 119.345 432.91 119.645 C 433.11 119.645 433.11 119.545 433.01 119.245 C 432.91 118.745 433.21 118.345 433.51 117.945 C 433.51 117.845 433.61 117.745 433.71 117.645 L 433.71 119.145 C 433.71 119.645 434.61 119.645 434.61 119.145 L 434.61 118.445 C 435.61 118.745 436.01 119.245 436.51 119.845 C 436.91 120.345 436.91 121.045 436.31 121.445 C 436.21 121.445 435.61 121.545 435.11 121.245 C 434.91 121.145 434.61 121.645 434.61 122.245 C 434.61 123.545 436.21 124.045 436.91 123.945 C 438.81 123.945 439.81 122.145 439.51 120.945 L 439.51 120.845 Z" style="fill: rgb(169, 131, 64); stroke: rgb(169, 131, 64); stroke-linecap: round; stroke-linejoin: round; stroke-width: 0.1px;" transform="matrix(1, 0, 0, 1, 0, -1.4210854715202004e-14)"/>
  <path class="st4" d="M 275.91 113.245 C 279.21 114.545 282.31 116.645 285.41 116.645 C 282.31 116.645 279.21 118.645 275.91 120.045 C 274.01 118.745 273.01 117.745 269.91 116.645 C 273.01 115.545 274.01 114.645 275.91 113.245 Z" style="fill: rgb(169, 131, 64); stroke: rgb(169, 131, 64); stroke-linecap: round; stroke-linejoin: round; stroke-width: 0.1px;" transform="matrix(1, 0, 0, 1, 0, -1.4210854715202004e-14)"/>
  <path class="st4" d="M 156.71 118.045 L 273.11 118.045 C 273.71 118.045 274.31 117.345 274.31 116.645 C 274.31 115.945 273.81 115.245 273.11 115.245 L 156.71 115.245 C 156.11 115.245 155.51 115.945 155.51 116.645 C 155.51 117.345 156.01 118.045 156.71 118.045 Z" style="fill: rgb(169, 131, 64); stroke: rgb(169, 131, 64); stroke-linecap: round; stroke-linejoin: round; stroke-width: 0.1px;" transform="matrix(1, 0, 0, 1, 0, -1.4210854715202004e-14)"/>
  <path class="st4" d="M 151.01 120.845 C 151.41 119.345 153.21 118.345 153.81 118.145 C 154.51 117.845 155.21 117.645 156.01 117.645 L 156.01 117.145 C 154.71 117.045 153.11 117.445 151.11 118.045 C 148.81 118.745 146.31 117.145 146.31 116.545 C 146.31 115.945 148.81 114.345 151.11 115.045 C 153.11 115.645 154.81 116.145 156.01 115.945 L 156.01 115.445 C 155.31 115.445 154.51 115.145 153.81 114.945 C 153.21 114.745 151.41 113.745 151.01 112.245 C 150.71 110.945 151.71 109.245 153.61 109.245 C 154.31 109.245 155.81 109.645 155.91 110.945 C 155.91 111.545 155.61 112.045 155.41 111.945 C 154.91 111.645 154.31 111.645 154.21 111.745 C 153.61 112.145 153.61 112.845 154.01 113.345 C 154.51 114.045 155.01 114.445 155.91 114.745 L 155.91 114.045 C 155.91 113.545 156.81 113.545 156.81 114.045 L 156.81 115.545 C 156.81 115.545 156.91 115.345 157.01 115.245 C 157.31 114.845 157.61 114.345 157.51 113.945 C 157.51 113.745 157.51 113.545 157.61 113.545 C 158.91 113.745 158.71 115.245 158.21 115.545 C 158.81 115.045 160.21 116.145 160.21 116.545 C 160.21 116.945 158.71 117.945 158.21 117.545 C 158.71 117.945 158.81 119.345 157.61 119.645 C 157.41 119.645 157.41 119.545 157.51 119.245 C 157.61 118.745 157.31 118.345 157.01 117.945 C 157.01 117.845 156.91 117.745 156.81 117.645 L 156.81 119.145 C 156.81 119.645 155.91 119.645 155.91 119.145 L 155.91 118.445 C 154.91 118.745 154.51 119.245 154.01 119.845 C 153.61 120.345 153.61 121.045 154.21 121.445 C 154.31 121.445 154.91 121.545 155.41 121.245 C 155.61 121.145 155.91 121.645 155.91 122.245 C 155.91 123.545 154.31 124.045 153.61 123.945 C 151.71 123.945 150.71 122.145 151.01 120.945 L 151.01 120.845 Z" style="fill: rgb(169, 131, 64); stroke: rgb(169, 131, 64); stroke-linecap: round; stroke-linejoin: round; stroke-width: 0.1px;" transform="matrix(1, 0, 0, 1, 0, -1.4210854715202004e-14)"/>
  <line class="st20" x1="160.31" y1="116.545" x2="273.11" y2="116.545" style="fill: none; stroke: rgb(255, 255, 255); stroke-miterlimit: 10; stroke-width: 0.8px;" transform="matrix(1, 0, 0, 1, 0, -1.4210854715202004e-14)"/>
  <line class="st20" x1="318.01" y1="116.545" x2="430.81" y2="116.545" style="fill: none; stroke: rgb(255, 255, 255); stroke-miterlimit: 10; stroke-width: 0.8px;" transform="matrix(1, 0, 0, 1, 0, -1.4210854715202004e-14)"/>
  <path class="st19" d="M 148.61 96.445 L 148.21 95.845 C 148.51 95.545 148.71 95.245 148.91 94.945 C 149.31 94.545 149.61 94.145 149.81 93.845 C 151.41 91.745 152.11 90.045 152.11 88.645 L 152.11 57.445 C 152.11 54.545 151.01 52.345 148.71 51.045 C 148.71 51.045 143.51 49.045 143.51 49.045 C 144.11 48.345 145.41 47.145 148.21 44.945 C 152.11 41.845 153.51 40.945 153.91 40.745 C 154.81 41.145 155.11 41.345 155.21 41.445 C 155.21 41.445 155.21 41.445 155.21 41.445 C 158.01 43.345 160.31 46.145 162.11 49.545 L 162.51 50.245 L 163.31 50.045 C 164.01 49.845 165.11 49.145 168.51 44.845 C 170.51 42.245 172.81 40.945 175.61 40.945 C 178.41 40.945 177.41 41.145 181.11 42.045 C 183.61 42.645 184.81 43.145 185.41 43.445 L 174.81 58.945 C 174.81 58.745 174.81 58.445 174.81 58.145 C 174.81 57.745 174.81 57.045 174.81 56.245 C 174.81 55.345 174.81 54.745 174.81 54.345 C 174.81 52.945 174.51 51.845 173.91 51.145 C 173.11 50.145 171.71 49.645 169.61 49.645 C 167.51 49.645 166.91 50.545 165.21 52.345 C 163.61 54.045 162.81 55.545 162.81 56.945 L 162.81 88.945 C 162.81 90.545 163.51 91.945 165.01 93.245 C 166.41 94.645 166.61 95.345 166.61 95.545 C 166.61 95.945 166.61 96.045 166.61 96.045 C 166.61 96.045 166.31 96.145 165.91 96.145 C 165.01 95.645 164.01 95.045 162.81 94.545 C 161.41 93.945 159.91 93.645 158.11 93.645 C 156.31 93.645 154.21 93.945 152.81 94.545 C 151.51 95.045 150.21 95.545 148.81 96.145 L 148.51 96.145 L 148.61 96.445 Z" style="fill: rgb(64, 27, 121);" transform="matrix(1, 0, 0, 1, 0, -1.4210854715202004e-14)"/>
  <path class="st19" d="M 234.11 96.445 C 233.71 96.445 231.71 95.645 226.21 86.445 L 225.71 85.545 L 208.11 96.345 C 205.81 95.645 202.81 93.845 199.01 90.945 C 193.41 86.545 192.81 85.045 192.21 82.445 C 191.61 79.845 192.21 54.145 192.21 54.145 C 192.21 52.345 191.81 51.145 191.11 50.345 C 190.41 49.645 189.41 49.245 188.31 49.245 C 187.21 49.245 187.41 49.245 186.81 49.245 C 186.41 49.245 186.11 49.245 186.01 49.245 C 185.71 49.245 185.61 49.245 185.61 48.945 C 185.91 48.545 187.11 47.445 192.11 44.345 C 197.31 41.145 198.81 40.445 199.21 40.245 C 199.31 40.245 200.01 40.745 201.41 42.645 C 203.11 44.845 203.91 47.445 203.91 50.345 L 202.71 71.645 C 202.71 75.745 203.81 79.445 205.91 82.445 C 208.41 85.845 211.61 87.545 215.41 87.545 C 219.21 87.545 218.71 86.645 221.51 84.845 C 224.81 82.645 226.41 80.545 226.41 78.345 L 226.41 46.945 C 226.41 46.445 226.21 45.745 225.81 44.845 C 225.81 44.845 225.81 44.845 225.81 44.845 C 225.51 44.345 225.21 43.745 224.81 43.145 C 224.51 42.545 224.01 42.045 223.51 41.445 L 223.51 41.145 L 224.61 41.145 C 226.11 41.145 226.81 41.345 227.21 41.545 C 227.91 41.845 228.61 42.145 229.41 42.445 L 229.61 42.445 C 229.61 42.445 234.71 42.445 234.71 42.445 C 235.01 42.445 235.51 42.445 237.41 41.545 C 238.81 40.845 239.41 40.745 239.61 40.745 C 240.01 40.745 240.11 40.745 240.11 40.745 C 240.11 40.745 240.21 41.045 240.21 41.445 C 239.51 42.445 239.01 43.545 238.51 44.645 C 238.11 45.645 237.71 46.745 237.41 47.945 C 237.11 49.145 236.81 50.445 236.51 51.745 C 236.51 51.845 236.11 77.945 236.51 80.145 C 236.91 82.345 238.21 85.245 239.01 86.145 C 239.81 87.045 241.51 86.745 242.61 87.045 C 243.51 87.245 244.61 87.545 245.71 87.845 L 245.71 88.345 C 242.11 91.045 239.21 93.045 237.11 94.445 C 235.01 95.945 234.31 96.145 234.11 96.145 L 234.11 96.445 Z" style="fill: rgb(64, 27, 121);" transform="matrix(1, 0, 0, 1, 0, -1.4210854715202004e-14)"/>
  <path class="st19" d="M 324.51 97.745 C 323.81 97.745 322.21 97.045 319.11 93.545 C 316.71 90.745 315.51 88.445 315.41 86.545 C 315.51 85.745 315.61 84.545 315.71 82.845 C 315.71 81.145 315.91 78.945 316.01 76.245 C 316.11 73.545 316.21 70.645 316.31 67.645 C 316.31 64.645 316.31 61.345 316.31 58.045 C 316.31 54.745 315.51 54.745 313.91 52.745 C 312.11 50.345 310.21 49.145 308.21 49.145 C 306.21 49.145 306.51 49.445 301.31 52.745 C 295.81 56.145 295.41 57.145 295.41 58.045 L 295.41 88.645 C 295.41 88.845 295.41 89.145 295.81 89.945 C 296.01 90.545 296.41 91.245 296.81 92.245 C 297.31 93.145 297.71 93.945 298.01 94.645 C 298.11 94.845 298.21 95.145 298.31 95.345 C 298.11 95.245 297.91 95.145 297.71 95.145 C 296.91 95.145 296.11 95.145 295.31 95.145 C 294.61 95.145 293.91 94.945 293.11 94.645 C 293.11 94.645 293.11 94.645 293.11 94.645 C 292.91 94.645 292.61 94.545 292.41 94.445 C 292.11 94.345 291.81 94.245 291.41 94.045 L 291.11 94.045 C 291.11 94.045 288.61 94.445 288.61 94.445 C 287.71 94.645 286.91 94.845 286.11 95.145 C 285.41 95.445 284.71 95.745 284.11 96.045 L 282.91 96.045 L 282.91 95.545 C 283.41 93.845 283.91 92.045 284.31 90.145 C 284.71 88.145 284.91 86.445 284.91 84.845 L 284.91 58.445 C 284.91 55.845 283.81 53.545 281.51 51.645 C 279.61 50.045 277.91 49.345 276.41 49.345 L 275.91 49.345 C 274.81 50.145 273.81 50.745 273.01 51.245 C 272.21 51.745 271.51 52.245 271.01 52.645 C 266.41 56.045 265.71 57.545 265.71 58.445 L 265.71 87.445 C 265.71 90.545 266.21 92.645 267.31 93.945 C 268.41 95.245 268.51 95.745 268.51 95.745 C 268.51 96.445 268.31 96.445 268.01 96.445 C 268.01 96.445 267.31 96.245 264.21 94.845 C 262.91 94.245 261.41 93.845 260.01 93.845 C 258.61 93.845 258.81 93.945 256.51 94.945 C 254.51 95.745 253.61 95.945 253.31 95.945 C 252.71 95.945 252.41 95.945 252.21 95.945 C 252.21 95.945 252.21 95.845 252.21 95.645 C 252.81 94.745 253.41 93.445 253.91 91.945 C 254.51 90.245 254.71 87.945 254.71 85.245 L 254.71 57.145 C 254.71 55.645 254.11 54.145 252.71 52.445 C 251.31 50.645 249.91 49.745 248.31 49.745 C 246.71 49.745 246.61 49.745 245.91 49.945 C 245.71 49.945 245.51 49.945 245.31 50.045 C 245.81 49.245 247.21 47.745 251.01 44.845 L 253.61 42.845 C 254.51 42.145 255.71 41.345 257.01 40.445 C 257.71 40.645 259.31 41.645 262.31 46.245 C 262.71 46.945 263.21 47.745 263.81 48.745 C 264.41 49.745 265.01 51.045 265.81 52.445 L 266.41 53.445 L 284.21 40.445 C 285.41 40.645 287.61 41.745 291.51 46.045 C 292.11 46.645 292.71 47.445 293.51 48.545 C 294.31 49.545 295.21 50.745 296.21 52.045 L 296.81 52.845 L 315.61 40.145 C 318.11 41.345 320.71 43.545 323.21 46.445 C 326.01 49.645 327.51 52.545 327.51 54.945 L 327.51 79.345 C 327.51 83.845 328.01 86.945 329.11 88.645 C 329.61 89.445 330.71 90.545 332.91 90.545 C 335.11 90.545 333.91 90.545 334.11 90.545 C 334.11 90.545 334.11 90.745 334.11 90.845 C 333.81 91.145 332.81 92.045 329.51 94.345 C 325.91 96.945 324.91 97.545 324.61 97.645 L 324.51 97.745 Z" style="fill: rgb(64, 27, 121);" transform="matrix(1, 0, 0, 1, 0, -1.4210854715202004e-14)"/>
  <path class="st19" d="M 355.91 96.445 C 352.11 96.445 348.01 94.345 343.81 90.245 C 338.81 85.345 336.21 79.345 336.21 72.445 C 336.21 65.545 339.61 59.245 346.31 52.045 C 353.41 44.445 360.71 40.545 368.11 40.545 C 375.51 40.545 370.91 41.045 374.71 43.645 C 378.21 46.045 380.61 47.145 382.21 47.145 C 383.81 47.145 386.91 45.845 390.41 43.045 L 390.71 43.045 L 390.71 43.345 C 388.61 45.845 386.91 48.345 385.51 50.645 C 383.71 53.545 382.81 56.645 382.81 59.945 L 382.81 78.645 C 382.81 82.845 384.71 85.645 388.41 87.045 C 390.31 87.745 391.41 88.245 392.11 88.545 L 387.31 91.845 C 382.51 95.045 381.21 95.745 380.91 95.845 C 379.61 95.845 378.41 94.945 377.11 93.345 L 371.91 86.645 L 371.41 86.645 C 371.01 86.645 370.81 86.645 363.41 91.645 C 357.61 95.545 356.21 96.145 355.91 96.245 L 355.91 96.445 Z M 357.61 47.745 C 354.51 47.745 351.91 49.245 349.71 52.345 C 347.81 55.145 345.71 60.045 345.81 65.845 C 345.81 71.645 348.21 75.045 352.11 80.045 C 355.31 84.245 359.11 86.445 363.41 86.445 C 367.71 86.445 366.81 86.145 368.61 85.445 L 371.91 84.045 L 371.91 67.045 C 372.21 66.645 372.41 66.345 372.71 65.945 C 373.01 65.545 373.31 65.045 373.51 64.645 C 374.11 63.645 374.81 62.445 375.61 61.045 C 376.21 59.945 376.91 58.645 377.61 57.345 L 378.11 56.345 L 377.11 55.945 C 376.51 55.745 375.81 55.545 375.11 55.545 C 374.41 55.545 373.91 55.545 373.41 55.745 C 373.01 55.845 372.71 55.945 372.41 56.045 C 370.41 56.045 368.01 54.645 365.31 52.145 C 362.11 49.145 359.61 47.645 357.61 47.645 L 357.61 47.745 Z" style="fill: rgb(64, 27, 121);" transform="matrix(1, 0, 0, 1, 0, -1.4210854715202004e-14)"/>
  <path class="st17" d="M 207.61 91.845 C 206.31 91.245 204.31 89.945 201.41 87.745 C 196.71 84.145 196.51 83.245 196.01 81.545 C 195.71 79.445 195.81 66.145 196.01 54.245 C 196.01 51.545 195.41 49.445 194.21 47.945 C 195.91 46.845 197.21 46.145 198.11 45.645 C 199.11 47.045 199.61 48.645 199.61 50.545 L 198.41 71.845 C 198.41 76.945 199.71 81.345 202.41 85.145 C 204.31 87.745 206.61 89.645 209.21 90.845 L 207.61 91.845 Z M 234.51 91.545 C 233.51 90.345 232.01 88.245 229.71 84.345 L 229.11 83.345 C 229.91 82.045 230.41 80.445 230.41 78.745 L 230.41 47.345 C 230.41 47.145 230.41 46.945 230.41 46.745 L 233.51 46.745 C 233.51 46.945 233.51 47.045 233.41 47.245 C 233.11 48.545 232.71 49.845 232.41 51.245 L 232.41 51.745 C 232.31 51.745 232.31 52.145 232.31 52.145 C 232.21 60.145 232.01 78.845 232.31 81.145 C 232.81 83.945 234.41 87.645 235.91 89.245 C 236.21 89.545 236.41 89.745 236.71 89.945 C 236.01 90.445 235.41 90.845 234.81 91.245 C 234.81 91.245 234.61 91.445 234.51 91.445 L 234.51 91.545 Z" style="fill: rgb(65, 122, 185);" transform="matrix(1, 0, 0, 1, 0, -1.4210854715202004e-14)"/>
  <path class="st17" d="M 156.21 89.945 C 156.21 89.545 156.21 89.145 156.21 88.645 L 156.21 57.445 C 156.21 53.245 154.41 49.845 151.21 47.745 C 152.41 46.745 153.31 46.045 154.01 45.545 C 155.81 47.045 157.41 49.045 158.61 51.445 L 159.71 53.545 C 159.21 54.745 158.91 55.845 158.91 57.045 L 158.91 89.045 C 158.91 89.245 158.91 89.545 158.91 89.845 C 158.61 89.845 158.41 89.845 158.11 89.845 C 157.41 89.845 156.71 89.845 156.01 89.845 L 156.21 89.945 Z M 177.21 48.645 C 176.21 47.445 174.81 46.645 173.11 46.145 C 174.11 45.345 174.91 45.145 175.71 45.145 C 175.91 45.145 176.71 45.245 179.11 45.845 L 177.21 48.645 Z" style="fill: rgb(65, 122, 185);" transform="matrix(1, 0, 0, 1, 0, -1.4210854715202004e-14)"/>
  <path class="st17" d="M 324.41 93.045 C 323.91 92.645 323.21 91.945 322.21 90.845 C 320.11 88.445 319.71 87.045 319.61 86.645 C 319.71 85.745 319.81 84.645 319.91 83.045 C 319.91 81.345 320.11 79.145 320.21 76.345 C 320.31 73.645 320.41 70.645 320.51 67.645 C 320.51 64.645 320.51 61.345 320.51 57.945 C 320.51 54.545 319.41 52.845 317.21 50.145 C 315.91 48.545 314.71 47.345 313.41 46.545 L 315.61 45.045 C 317.01 46.045 318.51 47.445 319.91 49.145 C 322.91 52.545 323.21 54.345 323.21 54.945 L 323.21 79.345 C 323.21 84.745 323.91 88.345 325.51 90.745 C 325.71 91.045 325.91 91.345 326.11 91.645 C 325.31 92.145 324.71 92.645 324.21 92.945 L 324.41 93.045 Z M 288.41 90.245 C 288.81 88.245 289.01 86.445 289.01 84.845 L 289.01 58.445 C 289.01 54.645 287.31 51.145 284.11 48.545 C 283.51 48.045 282.81 47.545 282.21 47.145 L 284.71 45.345 C 285.51 45.945 286.71 47.045 288.51 49.045 C 289.01 49.645 289.61 50.345 290.41 51.245 C 291.11 52.145 291.91 53.145 292.81 54.345 C 291.91 55.445 291.51 56.645 291.51 57.945 L 291.51 88.545 C 291.51 88.945 291.51 89.245 291.51 89.545 C 291.51 89.545 288.41 90.145 288.41 90.145 L 288.41 90.245 Z M 258.51 90.045 C 258.71 88.645 258.81 87.045 258.81 85.345 L 258.81 57.245 C 258.81 54.845 257.91 52.545 256.01 50.045 C 255.41 49.245 254.71 48.545 254.01 47.945 L 256.11 46.345 C 256.31 46.145 256.61 45.945 256.91 45.745 C 257.41 46.345 258.11 47.345 259.01 48.645 C 259.41 49.245 259.81 49.945 260.31 50.845 C 260.91 51.945 261.51 53.145 262.31 54.545 L 262.61 55.145 C 262.01 56.245 261.71 57.245 261.71 58.445 L 261.71 87.445 C 261.71 88.345 261.71 89.145 261.81 89.945 C 261.21 89.945 260.71 89.845 260.11 89.845 C 259.51 89.845 259.11 89.845 258.51 90.045 Z" style="fill: rgb(65, 122, 185);" transform="matrix(1, 0, 0, 1, 0, -1.4210854715202004e-14)"/>
  <path class="st17" d="M 355.11 92.245 C 352.61 91.945 349.71 90.245 346.61 87.245 C 342.31 83.145 340.21 78.245 340.21 72.345 C 340.21 66.445 340.71 68.045 341.71 65.645 C 341.71 73.145 345.21 77.545 348.81 82.245 C 352.11 86.645 355.71 88.745 358.91 89.645 C 356.81 91.045 355.61 91.745 355.01 92.145 L 355.11 92.245 Z M 380.61 91.445 C 380.51 91.345 380.41 91.145 380.21 91.045 L 376.01 85.645 L 376.01 68.445 C 376.01 68.445 376.01 68.445 376.01 68.445 C 376.41 67.945 376.71 67.445 377.01 66.845 C 377.51 66.045 378.11 65.045 378.71 64.045 L 378.71 78.845 C 378.71 83.445 380.51 87.145 383.81 89.445 C 382.31 90.445 381.31 91.045 380.61 91.545 L 380.61 91.445 Z M 378.51 52.045 C 377.41 51.645 376.31 51.445 375.11 51.445 C 373.91 51.445 373.21 51.545 372.31 51.845 C 372.31 51.845 372.21 51.845 372.11 51.845 C 371.51 51.645 370.21 51.045 368.21 49.145 C 366.41 47.445 364.81 46.245 363.31 45.345 C 364.91 44.945 366.41 44.645 368.01 44.645 C 368.21 44.645 369.51 45.045 372.51 47.045 C 375.91 49.345 378.51 50.645 380.71 51.045 C 380.51 51.545 380.31 52.045 380.11 52.545 L 378.61 51.945 L 378.51 52.045 Z" style="fill: rgb(65, 122, 185);" transform="matrix(1, 0, 0, 1, 0, -1.4210854715202004e-14)"/>
  <g transform="matrix(1, 0, 0, 1, -70.08910369873047, -58.155101776123054)">
    <path class="st8" d="M451.8,111c0,0-.1.1-.2.2-.4.6.4.5.4.9,0,.2,0,.4-.1.5,0,.5.6.5.7,1-.3-.2-.6-.4-.9-.4-.2,0-.3,0-.4-.2,0-.2,0-.4,0-.6,0-.2-.3-.3-.5-.2-.2,0-.5.2-.7,0-.2,0-.3-.3-.2-.6,0-.2.2-.4.4-.5.1-.2.2-.4,0-.5-.2.1-.3.4-.5.6-.4.4-1.4.2-1.1-.5,0-.2,0-.4,0-.4,0,0-.1,0-.1,0-.2.1-.3.3-.3.5,0,0,0,.2,0,.3-.1.2-.3.2-.5.2-.2,0-.4,0-.6-.1-.3,0-.7.2-.8.4l.3-.8c0-.2.1-.3.3-.4.1,0,.3,0,.4,0,.2-.1,0-.4,0-.6,0-.2.2-.3.4-.4,0,0,0-.1,0-.2,0,0-.1,0-.2,0-.2,0-.4-.1-.4-.3,0-.2,0-.4,0-.6,0-.2,0-.4.1-.6.1-.2.4-.2.6-.2.2,0,.4,0,.7,0,0,0,.2,0,.2-.2,0,0,0,0,0,0-.2-.2-.5-.3-.5-.6,0-.1.2-.7,0-.8,0-.2-.3-.1-.5-.2-.2,0-.4,0-.4-.3,0,0,0-.2,0-.3,0,0,0-.1,0-.2-.1-.2-.2-.4-.3-.7.1.3.6.3.7.6,0,0,0,.1,0,.2,0,.1.3.1.4.1.2,0,.4,0,.5,0,.4,0,.4.4.6.6.4.4,1.2-.3,1.6.2.2.2.3.5.2.8,0,0,0,.1,0,.2,0,0,0,0,.1.1.4.1.7-.1,1.1-.3.7-.4,2-1,3.9-1.2.9,0,2.4,0,1.5,0-1.1,0-3.7.3-5.7,2.4-.2.2-.3.4-.3.7,0,.4.2.4.5.6.2.2.2.6,0,.9-.1.2-.3.3-.4.5Z" style="fill: rgb(169, 131, 64); stroke: rgb(169, 131, 64); stroke-linecap: round; stroke-linejoin: round; stroke-width: 0.2px;"/>
    <path class="st8" d="M449.2,108.9c-.4.2-.9.5-1,.9-.3.8.8,0,1-.2.4-.3,1.3-.7,1.4-1.2,0,0,0,0,0,0,0,0,0,0,0,0-.4.1-.9.4-1.3.6ZM450.5,108.8c-.2.2-.5.5-.7.7-.3.3-.9.9-.7,1.4.3.5.7-.5.9-.7,0-.2.2-.4.3-.6,0-.1.2-.2.3-.3,0-.1.2-.3.1-.4,0,0,0,0,0,0,0,0-.1,0-.2,0ZM448.2,108.1c-.1,0-.3,0-.4,0-.2,0-.3.4-.2.5,0,0,.1.1.2.1.1,0,.3,0,.4,0,.6,0,1.2-.2,1.8-.5.1,0,.3-.1.3-.3,0,0,0,0,0,0,0,0,0,0-.1,0-.6.2-1.3.3-1.9.2ZM449.2,106.6c-.1,0-.2-.1-.3-.2-.2-.2-.3-.3-.5,0-.1.3,0,.6.3.7,0,0,0,0,.2,0,.2,0,.5,0,.7,0,.2,0,.5,0,.7,0,.2,0,.1.3.3.3.2,0,.1-.2.1-.3-.2-.4-.7-.3-1-.3-.1,0-.3,0-.4,0ZM451.3,110.4c0,0,0,0-.1.1,0,0,0,0-.2.2-.2.2-.4.5-.5.7,0,.4.4.8.6.3,0-.1,0-.3,0-.4,0-.2.2-.4.4-.6.2-.2.4-.8,0-1-.4-.2-.1.5-.2.7ZM454.1,106.3c-.4.1-.7.2-1.1.4-.2,0-.3.2-.5.3-.2,0-.3.1-.4.3,0,0,0,.1,0,.2,0,0,0,0,0,0,0,0,.1,0,.2,0,.2-.1.4-.3.7-.4.4-.2.7-.4,1.1-.5,0,0,.2,0,.3-.1,0,0-.2,0-.3,0Z" style="fill: rgb(169, 131, 64); stroke: rgb(169, 131, 64); stroke-linecap: round; stroke-linejoin: round; stroke-width: 0.2px;"/>
    <path class="st8" d="M448.8,106.7s0,0-.1-.1c0,0-.1,0-.2,0,0,0,0,.2.1.2,0,0,.2.1.3.2.2,0,.4,0,.6,0,.2,0,.4,0,.6,0,.2,0,.3.1.5.2,0,0,0,0,0-.1-.2-.2-.6-.3-.9-.3-.3,0-.6,0-.8-.1ZM449.7,108.2c-.3.1-.7.2-1.1.3-.2,0-.5,0-.7,0,0,0-.2,0-.3,0,.1.1.3,0,.4.1.2,0,.3,0,.5,0,.3,0,.6-.1.8-.2.2,0,.4-.1.6-.2,0,0,0,0,0,0-.1,0-.3,0-.4,0ZM450.1,108.5c-.5.2-.9.7-1.4,1,0,0-.5.3-.5.4,0,.1.5-.2.6-.3.3-.2.5-.4.8-.6.1,0,.3-.2.4-.3,0,0,.3-.3.4-.3,0,0-.2,0-.3,0ZM449.3,110.6s0,0,0,.1c0,.1,0,.1.1,0,.1-.6.6-1.2,1.1-1.7,0,0,.1-.1,0-.2-.6.5-1,1-1.2,1.7ZM451.5,109.9c0,.2,0,.4-.2.6-.1.2-.3.3-.4.5,0,.2-.2.5,0,.7,0,0,0,0,0,0,0,0,0,0,0,0,0-.1,0-.2,0-.3,0-.1,0-.2.1-.3.2-.3.3-.5.4-.8,0-.1.1-.3,0-.5,0,0,0,0,0,0,0,0,0,0,0,0ZM453.5,106.6c-.2,0-.3.1-.5.2-.3.1-.6.3-.8.6,0,0,0,0,0,0,.1,0,.3-.2.4-.3.1,0,.3-.2.4-.2.3-.2.6-.3.9-.4,0,0,0,0,0,0,0,0-.5.2-.5.2Z" style="fill: rgb(169, 131, 64); stroke: rgb(169, 131, 64); stroke-linecap: round; stroke-linejoin: round; stroke-width: 0.2px;"/>
    <path class="st8" d="M448.7,106.7c0,0,0,.1,0,.2,0,0,.1,0,.2,0,0,0,0-.1,0-.2,0,0-.1,0-.2,0ZM449.8,108.2s0,0,0,0c0,0,0,0,0,0,0,0,0,0,0,0,0,0,0,0,0,0ZM449.9,108.8s0,0,0,0c0,0,0,0,0,0,0,0,0,0,0,0,0,0,0,0,0,0ZM450.2,109.3s0,0,0,0c0,0,0,0,0,0,0,0,0,0,0,0,0,0,0,0,0,0ZM451.4,110.1s0,0,0,0c0,0,0,0,0,0,0,0,0,0,0,0,0,0,0,0,0,0ZM450.3,106.9s0,0,0,0c0,0,0,0,0,0,0,0,0,0,0,0,0,0,0,0,0,0ZM450.7,111.2c0,0,0,.1,0,.2,0,0,.1,0,.2,0,0,0,0-.1,0-.2,0,0-.1,0-.2,0ZM449.4,110.4c0,0,0,.1,0,.2,0,0,.1,0,.2,0,0,0,0-.1,0-.2,0,0-.1,0-.2,0ZM448.5,109.6c0,0,0,.1,0,.2,0,0,.1,0,.2,0,0,0,0-.1,0-.2,0,0-.1,0-.2,0ZM448,108.4c0,0,0,.1,0,.2,0,0,.1,0,.2,0,0,0,0-.1,0-.2,0,0-.1,0-.2,0ZM449.6,106.8s0,0,0,.1c0,0,0,0,.1,0,0,0,0,0,0-.1,0,0,0,0-.1,0ZM448.9,108.4s0,0,0,.1c0,0,0,0,.1,0s0,0,0-.1c0,0,0,0-.1,0ZM449.2,109.2s0,0,0,.1c0,0,0,0,.1,0,0,0,0,0,0-.1,0,0,0,0-.1,0ZM451.1,110.6s0,0,0,.1c0,0,0,0,.1,0,0,0,0,0,0-.1,0,0,0,0-.1,0ZM449.8,109.8s0,0,0,.1c0,0,0,0,.1,0,0,0,0,0,0-.1,0,0,0,0-.1,0Z" style="fill: rgb(169, 131, 64); stroke: rgb(169, 131, 64); stroke-linecap: round; stroke-linejoin: round; stroke-width: 0.2px;"/>
    <path class="st8" d="M456.3,105.8c-.7,0-1.3.2-1.8.3.7.3-1,.5-2.2,1.5-.3.2-.8.1-.5-.4-.2,0-.4.1-.6,0,0,0-.1,0-.1-.1,0,0,0-.1,0-.2,0-.3,0-.6-.2-.8-.5-.4-1.2.2-1.6-.2-.2-.2-.2-.6-.6-.6h-.5c-.2,0-.3,0-.4-.1,0,0,0-.1,0-.2-.1-.3-.6-.3-.7-.6.1.2.2.4.3.7,0,0,0,.1,0,.2,0,0,0,.2,0,.3,0,.2.2.2.4.3.2,0,.4,0,.5.2.1,0-.1.7,0,.8,0,.3.3.4.5.6,0,0,0,0,0,0,0,0,0,.1-.2.2-.2,0-.4,0-.7,0-.2,0-.5,0-.6.2-.1.2-.1.4-.1.6,0,.2,0,.4,0,.6,0,.2.2.3.4.3,0,0,.2,0,.2,0,0,0,0,.1,0,.2-.1.1-.3.2-.4.4,0,.2,0,.4,0,.6-.1,0-.3,0-.4,0-.2,0-.2.2-.3.4-.1.3-.2.5-.3.8.2-.3.5-.5.8-.4.2,0,.4,0,.6.1.2,0,.4,0,.5-.2,0,0,0-.2,0-.3,0-.2.2-.4.3-.5,0,0,0,0,.1,0,.2,0,.2.3,0,.4-.3.7.7.9,1.1.5.2-.2.3-.5.5-.6.1,0,0,.3,0,.5-.1.2-.3.3-.4.5-.1.3,0,.5.2.6.2,0,.5,0,.7,0,.2,0,.5,0,.5.2,0,.2-.1.4,0,.6,0,.1.2.2.4.2.4,0,.7.2.9.4,0-.4-.8-.5-.7-1,0-.2.1-.4.1-.5,0-.4-.8-.3-.4-.9,0,0,.1-.1.2-.2.1-.2.3-.3.4-.5.2-.3.2-.7,0-.9-.3-.3-.5-.2-.5-.6,0-.2.1-.5.3-.7,2.1-2.1,4.7-2.4,5.7-2.4.9,0-.6-.2-1.5,0ZM451.1,107.6s0,0,0,0c0,0,0,0,.1,0,.3,0,.4.5.3.7,0,.3-.2.6-.1.9.1.3.5.5.6.9,0,.4-.5.7-.6,1.1,0,.3,0,.8-.4.9-.2,0-.4,0-.5,0-.6-.3.2-1,.1-1.5,0-.7-1.2.7-1.3.7-.1,0-.2,0-.3-.2,0,0-.1,0-.1-.1,0,0,0-.2,0-.3,0-.1,0-.2,0-.3,0,0,0-.1,0-.1,0,0,0,0-.1,0-.3,0-.5.3-.7.3,0,0-.2,0-.2,0,0,0,0,0,0-.2-.1-.4.2-.6.4-.8,0,0,0,0,0-.1,0-.1-.1-.2-.3-.2-.1,0-.3,0-.4,0-.2,0-.3-.3-.3-.4,0-.2,0-.4,0-.6.2-.3.6-.3,1-.2.3,0,1,0,.9-.4,0,0-.1-.1-.2-.2-.2,0-.3,0-.5-.2-.1-.1-.1-.3-.1-.5,0-.2.1-.5.2-.7,0,0,0-.2.2-.2.2,0,.3.2.4.3.1.2.3.3.5.3.2,0,.4,0,.7,0,.2,0,.5,0,.6.2,0,.1,0,.3,0,.5,0,.2,0,.4.2.4ZM451.1,108.2c0,0,0,0,0-.2,0,0,0-.2,0-.2-.1.1-.1.7,0,.9,0,0,0,0,0,0,0,0,.1,0,.2,0,.2-.2.2-.4.2-.7,0,0,0-.2,0-.3-.2,0-.2.2-.2.3Z" style="fill: rgb(169, 131, 64); stroke: rgb(169, 131, 64); stroke-linecap: round; stroke-linejoin: round; stroke-width: 0.2px;"/>
  </g>
  <g transform="matrix(1, 0, 0, 1, -70.08910369873047, -58.155101776123054)">
    <path class="st8" d="M374.4,107.4c.7-.3,1.4-.6,2.1-.8,1.7-.6,3.4-1,5.3-1,.8,0,1.6,0,2.3.5.3.1.5.3.7.5.4.5.3,1-.3,1.3-.4.2-.9.2-1.4.1-1.5-.3-3-.5-4.5-.5-.8,0-1.7,0-2.5.2-1.4.3-2.7.7-3.9,1.3-.2,0-.3.2-.4.3,0,0,0,0-.1,0,0,0,0-.1,0-.2,0-.2.2-.4.3-.6.5-.7,1-1.4,1.6-2,.3-.2.5-.5.9-.6.2,0,.4-.1.6,0,.2,0,.4.2.3.5,0,.2-.2.4-.3.5-.2.2-.4.4-.7.6,0,0,0,0,0,0Z" style="fill: rgb(169, 131, 64); stroke: rgb(169, 131, 64); stroke-linecap: round; stroke-linejoin: round; stroke-width: 0.2px;"/>
    <path class="st8" d="M392.1,113.4c-.2.6-.5,1.1-1.1,1.3-.6.3-1.3.3-2,.2-.3,0-.5,0-.8-.1,0,0-.2,0-.2-.1,0,0,0-.2,0-.2.4-.4.8-.7,1.2-1.1.5-.4,1.1-.5,1.8-.6.2,0,.4,0,.6-.1.2,0,.3,0,.3.2,0,.2,0,.4,0,.5Z" style="fill: rgb(169, 131, 64); stroke: rgb(169, 131, 64); stroke-linecap: round; stroke-linejoin: round; stroke-width: 0.2px;"/>
    <path class="st8" d="M387.1,105.1c.1,0,.2.2.4.3.8.5,1.2,1.3,1.4,2.2.2.7,0,1.4-.5,2-.4.6-1.1.8-1.7.6-.4-.1-.6-.7-.3-1,0,0,0,0,.2-.1,0,.2,0,.3,0,.4,0,.3.1.5.5.5.6.1,1.2-.3,1.4-.9.2-.6.2-1.2,0-1.7-.4-1.1-1.3-1.9-2.3-2.3-.9-.4-1.8-.4-2.7-.4-2.7,0-5.2.8-7.5,2-1.3.7-2.6,1.5-3.8,2.4-.2.2-.4.3-.6.5,0,0,0,0,0,0,0,0,0-.1.1-.2.3-.3.7-.6,1-.9,2.1-1.6,4.3-2.8,6.8-3.6,1.7-.5,3.5-.7,5.3-.5,2.2.2,4.3.9,5.9,2.5,1.1,1,1.9,2.3,2.1,3.8,0,.7,0,1.5-.3,2.1-.5.9-1.3,1.4-2.3,1.6,0,0,0,0-.1,0,0,0,0,0-.1,0,0,0,0-.1.1-.2.2,0,.4-.1.6-.2.8-.3,1.4-.7,1.8-1.5.2-.5.2-1,.2-1.5-.1-1.3-.7-2.5-1.6-3.4-1-1.1-2.3-1.8-3.7-2.2Z" style="fill: rgb(169, 131, 64); stroke: rgb(169, 131, 64); stroke-linecap: round; stroke-linejoin: round; stroke-width: 0.2px;"/>
  </g>
  <path class="st8" d="M 226.41 82.845 C 226.41 82.745 226.51 82.645 226.61 82.545 C 227.11 81.645 227.61 80.645 228.21 79.945 C 228.71 79.445 229.21 78.945 229.91 78.745 C 230.31 78.545 230.81 78.545 231.21 78.645 C 231.81 78.845 232.01 79.345 231.61 79.845 C 231.41 80.145 231.11 80.345 230.81 80.545 C 230.01 81.145 229.21 81.645 228.41 82.245 C 227.51 82.945 226.71 83.845 226.21 84.845 C 226.21 84.845 226.01 85.045 226.01 85.145 C 226.01 85.145 226.01 85.345 225.91 85.445 C 225.91 85.445 225.91 85.545 225.81 85.645 C 225.81 85.645 225.71 85.545 225.61 85.445 C 225.61 85.445 225.61 85.545 225.51 85.645 C 225.51 85.645 225.51 85.645 225.51 85.645 C 225.51 85.545 225.51 85.445 225.51 85.345 C 225.51 84.745 225.51 84.045 225.71 83.445 C 225.91 82.245 226.11 81.145 226.41 80.045 C 227.01 78.045 227.91 76.245 229.31 74.745 C 229.71 74.345 230.11 73.945 230.71 73.745 C 231.21 73.545 231.71 73.445 232.31 73.745 C 232.81 73.945 233.21 74.445 233.11 74.945 C 233.11 75.145 233.01 75.345 232.81 75.545 C 232.51 75.845 232.21 76.145 231.91 76.345 C 230.11 77.645 228.71 79.245 227.51 81.045 C 227.11 81.645 226.91 82.245 226.61 82.845 C 226.61 82.845 226.61 82.945 226.61 83.045 C 226.61 83.045 226.61 83.045 226.61 83.045 L 226.41 82.845 Z" style="fill: rgb(169, 131, 64); stroke: rgb(169, 131, 64); stroke-linecap: round; stroke-linejoin: round; stroke-width: 0.2px;" transform="matrix(1, 0, 0, 1, 0, -1.4210854715202004e-14)"/>
  <path class="st5" d="M 161.21 92.845 C 161.21 92.945 161.21 93.045 161.21 93.145 C 161.21 93.145 161.01 93.145 161.01 93.145 C 160.71 93.245 160.51 92.945 160.31 92.845 C 159.11 92.045 157.91 91.445 156.51 90.945 C 156.11 90.845 155.71 90.645 155.41 90.345 C 155.21 90.145 155.11 89.945 155.11 89.645 C 155.11 89.345 155.41 89.145 155.71 89.145 C 156.11 89.145 156.51 89.145 156.91 89.145 C 157.81 89.345 158.31 89.645 159.21 90.445 C 159.21 90.445 159.21 90.445 159.21 90.345 C 158.81 89.045 158.81 87.645 159.01 86.345 C 159.21 85.445 159.51 84.645 160.21 84.145 C 160.41 83.945 160.61 83.845 160.91 83.745 C 161.61 83.445 162.41 84.045 162.31 84.745 C 162.31 85.145 162.31 85.545 162.11 85.945 C 161.81 87.145 161.41 88.345 161.31 89.545 C 161.31 90.145 161.21 90.645 161.21 91.245 C 161.21 91.745 161.21 92.145 161.41 92.645 C 161.41 92.845 161.41 92.945 161.31 92.945 L 161.21 92.845 Z" style="fill: rgb(169, 131, 64); stroke: rgb(169, 131, 64); stroke-linecap: round; stroke-linejoin: round; stroke-width: 0.1px;" transform="matrix(1, 0, 0, 1, 0, -1.4210854715202004e-14)"/>
  <g transform="matrix(1, 0, 0, 1, -70.08910369873047, -58.155101776123054)">
    <g>
      <path class="st19" d="M126.3,209.9c-2.2-11.4,7.1-23.1,26.1-21.7-5,26.4,15.3,36.7,25.2,26.5,6.8-7,3.2-17.3-6.2-18.6-.8-.1-1.7,2.3-.7,2.3,6.2.4,11.2,7,7.7,12.8-6.3,10.4-29,3.1-24.8-23.1,8.7.8,25.4,3.6,37.2-2.5,11.7-6,15.6-22.2,2.9-28.7-12.3-6.3-32.8,4.3-39.8,25.7-23.7-1.3-33.2,19.7-28,27.6.2.3.5-.4.5-.6ZM193.6,160.8c5.6,3.4,7.9,9.3,4.2,15.5-7.2,12-27.9,7.8-43,6.7,6.3-19.8,26.7-29.5,38.8-22.2Z" style="fill: rgb(64, 27, 121);"/>
      <path class="st19" d="M178,195c3.8.8,4.8,5.5,7.3,6.9,1,.5,2.1.2,2.6-.3,1.2-1.3-.2-5-3.6-6.8-2-1-4.5-1.3-6.3.2Z" style="fill: rgb(64, 27, 121);"/>
      <path class="st19" d="M185.7,191.5c5.3,4.4,12.8,3,15.1,0,1-1.4,0-2.9-1.5-2.9-2.6-.1-7.7,2.9-13.6,3Z" style="fill: rgb(64, 27, 121);"/>
      <path class="st19" d="M203.1,173.9c-1.9,6.8-4.2,9.7-7.6,12.8,12.8-1.5,13.4-15.3,9.5-14.8-.7,0-1.4.5-1.9,2Z" style="fill: rgb(64, 27, 121);"/>
    </g>
    <g>
      <path class="st19" d="M91,85.8c.3.3.4,0,.2-.3-4.8-6-2.6-16.4,6.6-20.1,10-4,24.7,2.1,28.6,21.9,7.4,37.7-33.4,66-42.5,93.9-5.3-7.4-.6-17.9,4.7-25.4,8.9-12.7,22.7-21.1,27.7-39.3,2.2-8,1.7-16.9-3.4-23.8-15.6-21.1-47.3,10.6-11.1,37.4.8.6.6-.6.2-1-3.1-2.7-6.4-5.3-9.1-8.5-11.9-13.9-4.3-30.4,6.3-32.4,11.2-2.2,22.7,12.5,11.2,33.7-5.1,9.4-13.2,16.5-20.1,24.5-14.7,17.1-12.8,29.8-6.8,36.1-9,30.8,27,44.9,37.9,20.9,4.3-9.5-.4-18.6-1.8-20.5.6-3-4.3-7.9-7.4-7.2-1.2.3-1.8,1.9-1.2,2.9,1.4,2.4,6.8,2.7,8.3,4.1,1.8,1.5,6.7,14-1.4,24.6-12.7,16.6-41.7,4.1-33.1-23.5,5,4,11.7,3.4,14.9-.2.5-.6,1.1-1,1.5-1.6,0,0-.1-.3-.2-.2-3.3,3.9-10.8,5.7-15.9.9,8.6-25.1,42.7-50.5,43.7-83.7.6-18.7-9-33.4-21.9-35.9-15.6-3.1-24.8,14-16,22.8Z" style="fill: rgb(64, 27, 121);"/>
      <path class="st19" d="M81,139.6c.4.6,1.4,1,2.6-.2,1.9-1.9,3.4-5.8,14.3-7.6-12.5-5.4-18.9,4.9-16.9,7.8Z" style="fill: rgb(64, 27, 121);"/>
      <path class="st19" d="M95.2,129.4c-1.7-1.4-7.2-4.9-11.8-4.3-7.1.9-5.2,9.1-1.6,5.2,1.6-1.5,10.9-1,13.5-.9Z" style="fill: rgb(64, 27, 121);"/>
      <path class="st19" d="M85.3,123.4c4.4.8,4.6.8,5.3.9-1.9-3.4-5.4-6.6-9.2-5.7-2.3.6-4.2,3.4,3.9,4.8Z" style="fill: rgb(64, 27, 121);"/>
      <path class="st19" d="M119.6,186.7c0-2.4-3.4-4.2-6-3.5-2,.5-3.6,2-2.2,3.5,2.6,2.9,5.3-1.3,8.3,0Z" style="fill: rgb(64, 27, 121);"/>
      <path class="st19" d="M113.7,194.4c.4,3.7,3.8,3.7,4.5-.6.2-1.2.1-3,2-5.5-4-.2-6.8,3.2-6.4,6.1Z" style="fill: rgb(64, 27, 121);"/>
    </g>
    <path class="st19" d="M159.4,188.4c-1.5,0-3.3-.3-5.3-.9-2-.6-4.4-1.5-6.9-2.8l-15.1-7.7c-3-1.5-5.7-2.6-8-3.3-2.4-.7-4.6-1-6.4-1h-5c-4.3,0-7.3,2.3-8.9,6.8-1.6,4.7-2.9,5-3.3,5-1.4,0-1.9-.1-2-.2-.1-.1-.7-.8-.7-3.5,0-4.1,3.6-8.1,10.6-11.6,8.1-4.2,11.9-7.6,12-10.5,0-2.4,0-11.5,0-26.5v-.8c0-1.2-3.5-5.1-6-5.6-1.6-.3-2.7-.8-3.3-1.5v-1.3c4.7-.2,9.6-1.6,14.4-4.3l7.7-4.3c2.4-1.3,4.8-2.7,7.3-4.1v1.5c-.8.7-1.5,1.7-2.4,3.1-1.3,2.3-2,4.2-2,5.8v28.4c0,1.7.8,3.4,2.5,5.4.8.9.9,1.4.9,1.5,0,0,0,0,0,0,0,0-.4.6-2.7,1.5-2,.8-3.7,1.7-5.1,3l-2.6,2.2h10.7c2.3,0,6.3,1.5,11.8,4.3,0,0,16.4,9.4,18.8,9.9s5.7,0,5.7,0c2.5,0,5.7-2.1,9.9-6.5,4.9-5.2,7.5-10.5,7.5-15.8s-3.9-9.9-11.9-15.3c-7.4-4.8-13.4-7.1-18.3-7.1s-11.1,2.5-12.7,7.5c-1.3,3.8-2.9,5.7-4.9,5.7s-1.1-.2-1.5-.8c-.7-.8-.7-1.2-.7-1.4,0-1.4,1.2-4.3,6.9-9.7,6-5.6,14.9-11.9,26.4-18.7l.9-.5-.4-1c-1.8-4.5-4.3-8.4-7.6-11.4-3.3-3-5.5-4.2-10.3-4.9-4.7-.7-9.9.8-12.5,1.7-2.5.9-5.6,2.3-9.2,4.3l-19.8,10.4c-3.7,1.9-6.9,3.4-9.5,4.2-2.5.8-4.4,1.3-5.8,1.5,0,0-3.1.2-4.7.2s-5-1.2-6.6-2.8c-1.6-1.6-2.4-3-2.4-4.3s0-.8.8-1.4c.7-.5,1.4-.8,2.4-.8s1.8.3,2.3,2.3c.6,2.6,2.6,4.1,5.6,4.1s10-2.8,18.3-8.5c6.6-4.5,11.8-8,15.5-10.5,3.7-2.5,6.2-4.1,7.2-4.7,9.2-5.4,17.2-8.2,23.8-8.2s11.1,1.7,15.4,5.1c1.1.9,2.3,2.1,3.7,3.8,1.4,1.7,3,3.7,4.8,6.2,2.5,3.5,4.6,5.4,6.5,5.9,0,0,0,0,0,0,0,.1,0,.2,0,.3,0,.5-.1.8-.1,1.1,0,.3,0,.6,0,.8,0,.8-1.1,1.8-3.1,2.8-10.8,5.4-11.4,6.4-11.8,6.9l-.8,1.1,19.9,12.1c4.4,4,6.6,8.6,6.6,13.5,0,7.6-5.2,17-15.5,27.8-10.2,10.7-19.2,16.2-26.5,16.2h-4.5Z" style="fill: rgb(64, 27, 121);"/>
  </g>
  <path class="st18" d="M 112.21 52.345 L 118.91 48.745 C 118.91 48.745 106.71 35.445 102.61 32.045 C 97.61 27.945 85.21 30.545 81.41 32.245 C 77.61 33.945 49.91 50.945 49.91 50.945 C 49.91 50.945 77.71 37.245 81.51 36.245 C 88.61 34.445 95.21 35.645 99.21 38.245 C 101.21 39.545 103.81 42.345 106.41 45.145 C 109.61 48.645 112.31 52.245 112.31 52.245 L 112.21 52.345 Z" style="fill: rgb(88, 59, 95);" transform="matrix(1, 0, 0, 1, 0, -1.4210854715202004e-14)"/>
  <g transform="matrix(1, 0, 0, 1, -70.08910369873047, -58.155101776123054)">
    <polygon class="st17" points="125.1 124.6 130.2 122.8 130.2 153.3 125.9 155.4 125.1 124.6" style="fill: rgb(65, 122, 185);"/>
    <path class="st17" d="M165.7,128.5l9.5-6.7s19.1,11,21.3,13.5c2.3,2.5,4.5,4.3,4.7,7.8.2,3.5-1.7,10.4-2.4,12.3s0-8.2-4.5-11.6c-1.6-1.1-7-5.7-13.1-9-7.4-3.9-15.5-6.4-15.5-6.4Z" style="fill: rgb(65, 122, 185);"/>
    <path class="st17" d="M126.9,166.6c2.7-.5,8-1.2,12.8,0,5.3,1.4,28.4,16.1,31.4,15.1,2.9-1-3.3,3.1-9.4,2.8-6.1-.3-20.3-11.3-24.4-12.7s-15-3-19-2.2c-4,.7,5.8-2.5,8.5-3Z" style="fill: rgb(65, 122, 185);"/>
    <path class="st17" d="M182.3,110.5l6.7-3.6s-10.9-13.1-16.3-16.7c-5.4-3.6-17.4-1.5-21.2.2s-31.5,18.7-31.5,18.7c0,0,27.8-13.7,31.6-14.7,7.1-1.8,13.7-.6,17.7,2,2,1.3,4.6,4.1,7.2,6.9,3.2,3.5,5.9,7.1,5.9,7.1Z" style="fill: rgb(65, 122, 185);"/>
  </g>
  <g transform="matrix(1, 0, 0, 1, -70.08910369873047, -58.155101776123054)">
    <path class="st3" d="M108.7,163.2s.8-1.4,2.4-.3c1.6,1.1.8,2.3.4,2.8-.3.6-2.2,1.6-4.1.2-1.9-1.3-2.6-4.5-.6-7.3,1.9-2.7,7.3-3.1,10.1-1.1,2.1,1.5,2.6,3.7,3.7,2s-1.6-1.4-3.3-2.7c-1.7-1.3-8.5-7.9-3.8-14.8,0,0,1.9-3.1,5.3-1.1,2.4,1.4.4,3.6.4,3.6,0,0-1.1,1.1-2.2.4s-.9-1.9-.6-2.4,1.1-.9,2.1-.4c0,0-2.4-2.1-4.2.8-1.8,2.9-.3,6.5,3.4,9.5,3.7,3,9.1,5.3,6.3,9.3-2.7,4.1-7.2-.3-8.4-1.1-1.2-.8-5.8-4.5-8.2-.9-1.5,2.2-.2,4.6-.2,4.6,0,0,1,1.2,1.7.2.6-1-.9-.2-.2-1.5Z" style="fill: rgb(169, 131, 64); stroke: rgb(169, 131, 64); stroke-linecap: round; stroke-linejoin: round; stroke-width: 0px;"/>
    <g>
      <path class="st0" d="M184.9,180.1c.4-.1.7-.3,1.1-.3.3,0,.5,0,.6.4,0,0,0,.1,0,.2-.1,1.1-.5,2.1-1.5,2.8-.3.2-.7.3-1,.3-.4,0-.9,0-1.3,0-.3,0-.4-.2-.2-.4.2-.3.4-.6.5-.9.4-.8,1-1.5,1.7-2Z" style="fill: rgb(169, 131, 64); stroke: rgb(169, 131, 64); stroke-linecap: round; stroke-linejoin: round; stroke-width: 0.2px;"/>
      <path class="st0" d="M184.2,182.4c.2-.2.4-.3.5-.5,1.4-1.3,2.3-2.9,2.8-4.7.3-.9.5-1.8.5-2.8,0-.5,0-1.1-.1-1.6,0,0,0,0,0-.1,0-.1,0-.2,0-.3,0,0,.2.2.2.3.3.6.3,1.3.3,2-.2,2-.7,3.8-1.8,5.5-.5.9-1.3,1.6-2.1,2.2-.1,0-.2.1-.3.2,0,0,0,0,0,0Z" style="fill: rgb(169, 131, 64); stroke: rgb(169, 131, 64); stroke-linecap: round; stroke-linejoin: round; stroke-width: 0.2px;"/>
    </g>
    <g>
      <path class="st12" d="M167.3,173.2c.2-.7.5-1.3.8-2,.6-1.5,1.4-3,2.5-4.3.5-.6,1.1-1.1,1.8-1.3.3,0,.5-.2.8-.2.6,0,.9.4.8,1-.1.4-.4.8-.8,1-1.1.8-2.2,1.8-3.2,2.8-.5.6-1,1.2-1.4,1.9-.6,1.1-1.2,2.3-1.5,3.5,0,.2,0,.3-.1.5,0,0,0,0,0,.1,0,0,0,0-.1-.1-.2-.2-.1-.4-.2-.6-.2-.8-.4-1.6-.4-2.4,0-.3,0-.7,0-1,0-.2.2-.4.3-.5.2-.2.4-.1.5,0,0,.2.1.4.2.6,0,.3,0,.5,0,.8,0,0,0,0,0,0Z" style="fill: rgb(169, 131, 64); stroke: rgb(169, 131, 64); stroke-linecap: round; stroke-linejoin: round; stroke-width: 0.2px;"/>
      <path class="st12" d="M182.4,164.6c.3.5.5,1,.3,1.6-.2.6-.6,1.1-1.1,1.5-.2.2-.4.3-.6.5,0,0-.2,0-.2,0,0,0,0-.1,0-.2,0-.5,0-1,0-1.5,0-.6.3-1.1.7-1.6.1-.1.2-.3.3-.5,0-.2.2-.2.4,0,.1.1.2.2.3.3Z" style="fill: rgb(169, 131, 64); stroke: rgb(169, 131, 64); stroke-linecap: round; stroke-linejoin: round; stroke-width: 0.2px;"/>
      <path class="st12" d="M173.5,163c.1,0,.3,0,.4,0,.8-.2,1.6,0,2.4.3.6.3,1,.9,1.1,1.6.1.6-.2,1.3-.7,1.6-.3.2-.9,0-.9-.4,0,0,0-.1,0-.2.1,0,.2.2.3.2.2.2.4.2.7,0,.4-.3.5-1,.3-1.5-.3-.5-.7-.9-1.2-1.1-1.1-.4-2.1-.3-3.1.2-.8.4-1.4,1-2,1.7-1.7,1.9-2.6,4.1-3.2,6.4-.3,1.3-.6,2.7-.6,4.1,0,.2,0,.5,0,.7,0,0,0,0,0,0,0,0,0-.1,0-.2,0-.4,0-.9,0-1.3.2-2.4.7-4.7,1.8-6.9.7-1.5,1.7-2.9,2.9-4,1.5-1.4,3.3-2.4,5.4-2.6,1.4-.1,2.7.1,3.9.9.6.4,1,.9,1.3,1.5.3.9.2,1.8-.4,2.6,0,0,0,0,0,0,0,0-.1,0-.2,0,0,0,0-.1,0-.2,0-.2.2-.3.2-.5.3-.7.4-1.5,0-2.2-.2-.4-.5-.8-.9-1.1-1-.8-2.1-1-3.4-1-1.4,0-2.7.5-3.9,1.2Z" style="fill: rgb(169, 131, 64); stroke: rgb(169, 131, 64); stroke-linecap: round; stroke-linejoin: round; stroke-width: 0.2px;"/>
    </g>
    <g>
      <path class="st0" d="M155.9,161.7c0-.1,0-.2-.1-.3-.5-.8-.8.2-1.3,0-.2,0-.3-.3-.5-.4-.5-.3-.9.4-1.5.3.4-.2.7-.4.9-.8,0-.2.2-.3.4-.3.2,0,.4.3.6.3.3,0,.5-.2.5-.5,0-.3,0-.6.3-.8.2-.2.6-.2.8,0,.2.2.3.5.4.7.1.2.4.4.6.3,0-.3-.2-.6-.4-.9-.3-.6.5-1.7,1.1-1,.1.2.4.3.5.1,0,0,0-.1,0-.2,0-.2-.2-.5-.4-.6,0,0-.2-.1-.3-.3-.1-.2,0-.5,0-.7.1-.2.3-.4.4-.6.2-.3.2-.8,0-1.1l.7.8c.1.2.3.3.3.5,0,.2-.2.3-.1.5,0,.2.4.2.6.4.2.2.2.4.2.6,0,0,0,.2.1.2,0,0,.1-.1.2-.2,0-.2.3-.3.6-.3.2,0,.4.1.7.2.2.1.5.2.6.5.1.2,0,.5,0,.8-.1.2-.3.5-.4.7,0,.1,0,.2,0,.3,0,0,0,0,0,0,.3-.2.6-.3.9-.2.2,0,.7.7.9.5.2,0,.3-.2.4-.4,0-.2.3-.4.5-.3,0,0,.2.1.3.2,0,0,.2,0,.2,0,.3,0,.6,0,.9,0-.4,0-.7.5-1.1.5,0,0-.1,0-.2,0-.2,0-.3.2-.4.4,0,.2-.2.4-.3.6-.2.5-.6.2-1,.4-.6.3-.3,1.4-1,1.7-.3.1-.7,0-1-.2,0,0-.1,0-.2,0,0,0-.1,0-.2,0-.4.4-.3.9-.2,1.4.1,1,0,2.7-.8,4.9-.4,1.1-1.4,2.6-.9,1.6.5-1.2,1.6-4.2.4-7.6-.1-.3-.3-.6-.6-.7-.5-.2-.5,0-.9.2-.3.1-.7,0-1-.5-.1-.2-.2-.5-.3-.7Z" style="fill: rgb(169, 131, 64); stroke: rgb(169, 131, 64); stroke-linecap: round; stroke-linejoin: round; stroke-width: 0.2px;"/>
      <path class="st0" d="M159.6,159.9c0-.5,0-1.2-.4-1.6-.8-.7-.4.9-.4,1.2.1.6.2,1.8.6,2.2,0,0,0,0,.1,0,0,0,0,0,0,0,.1-.6,0-1.2,0-1.8ZM159,161.5c-.1-.4-.3-.8-.4-1.2-.2-.5-.5-1.5-1.2-1.4-.7,0,.2,1.1.4,1.3.2.2.4.4.5.6,0,.2.1.3.2.5,0,.2.2.3.4.4,0,0,0,0,.1,0,0,0,0-.1,0-.2ZM161,159.3c.1-.1.2-.3.2-.5,0-.2-.3-.5-.5-.5-.1,0-.2,0-.3.2,0,.1-.1.3-.2.4-.3.7-.4,1.4-.4,2.2,0,.2,0,.4.1.5,0,0,0,0,0,0,0,0,0,0,.1-.1.2-.8.3-1.6.8-2.2ZM162.1,161.2c.1,0,.2-.1.4-.2.3-.1.5-.2.2-.5-.2-.3-.6-.3-.9,0,0,0-.1,0-.1.1-.2.2-.2.5-.3.8,0,.3-.1.5-.3.8-.1.2-.4,0-.4.2,0,.2.2.3.3.3.5,0,.7-.6.9-.9,0-.2.2-.3.3-.4ZM156.8,161.5c0,0,0-.1,0-.2,0,0,0-.2,0-.3-.1-.3-.3-.8-.5-.9-.4-.3-1.1,0-.6.5.1.1.3.2.4.3.2.2.3.5.5.7.2.3.7.8,1.1.5.4-.4-.4-.4-.6-.6ZM159.8,166.7c0-.5.1-.9.1-1.4,0-.3,0-.5,0-.7,0-.2,0-.4-.1-.7,0,0-.1-.1-.2-.1,0,0,0,0,0,0,0,0,0,.2,0,.3,0,.3,0,.6,0,1,0,.5,0,1,0,1.5,0,.1,0,.3,0,.4,0,0,.1-.2.1-.3Z" style="fill: rgb(169, 131, 64); stroke: rgb(169, 131, 64); stroke-linecap: round; stroke-linejoin: round; stroke-width: 0.2px;"/>
      <path class="st0" d="M162.2,160.7c0,0,.1,0,.2,0,0,0,.1,0,.2-.1,0,0-.2,0-.3,0-.1,0-.3.1-.4.2-.2.2-.2.4-.3.6,0,.2-.2.4-.3.6-.1.2-.3.3-.5.4,0,0,0,0,.1,0,.4-.1.6-.5.7-.8.1-.3.3-.7.6-.8ZM160.1,160.9c0-.4.1-.9.3-1.3,0-.3.2-.5.4-.8,0-.1.1-.2,0-.3-.2,0-.2.3-.3.4-.1.2-.1.4-.2.6-.1.3-.2.7-.2,1,0,.3,0,.5-.1.8,0,0,0,.1,0,.1,0-.1,0-.3.1-.5ZM159.5,161.2c0-.7-.3-1.4-.4-2,0-.1,0-.7-.2-.8-.2,0,0,.7,0,.8,0,.4.1.8.2,1.2,0,.2,0,.4.1.6,0,0,.1.5.1.6,0,0,0-.2,0-.3ZM157.6,159.2s0,0-.1-.1c-.1,0-.2,0,0,.1.6.5,1,1.3,1.3,2,0,0,0,.2.2.2-.2-.9-.6-1.6-1.2-2.3ZM157.3,162c-.3,0-.5-.3-.6-.5-.1-.2-.2-.5-.4-.7-.1-.2-.4-.4-.7-.4,0,0,0,0,0,0,0,0,0,0,0,0,.1,0,.2.1.3.2.1,0,.2.2.3.3.2.3.4.6.6.9.1.2.3.3.5.3,0,0,0,0,0,0,0,0,0,0,0,0ZM159.9,165.9c0-.2,0-.5,0-.7,0-.4,0-.8-.2-1.2,0,0,0,0,0,0,0,.2,0,.4,0,.6,0,.2,0,.4,0,.6,0,.4,0,.8,0,1.2,0,0,0,.1,0,0,0,0,0-.6,0-.7Z" style="fill: rgb(169, 131, 64); stroke: rgb(169, 131, 64); stroke-linecap: round; stroke-linejoin: round; stroke-width: 0.2px;"/>
      <path class="st0" d="M162.2,160.6c0,0-.1-.1-.2,0,0,0-.1.1,0,.2,0,0,.1.1.2,0,0,0,.1-.1,0-.2ZM160.1,161s0,0,0,0c0,0,0,0,0,0,0,0,0,0,0,0,0,0,0,0,0,0ZM159.3,160.8s0,0,0,0c0,0,0,0,0,0,0,0,0,0,0,0,0,0,0,0,0,0ZM158.6,160.9s0,0,0,0c0,0,0,0,0,0,0,0,0,0,0,0,0,0,0,0,0,0ZM157,161.8s0,0,0,0c0,0,0,0,0,0,0,0,0,0,0,0,0,0,0,0,0,0ZM161.2,162.2s0,0,0,0c0,0,0,0,0,0,0,0,0,0,0,0,0,0,0,0,0,0ZM156.2,160.5c0,0-.1-.1-.2,0,0,0-.1.1,0,.2,0,0,.1.1.2,0,0,0,.1-.1,0-.2ZM157.9,159.4c0,0-.1-.1-.2,0,0,0-.1.1,0,.2,0,0,.1.1.2,0,0,0,.1-.1,0-.2ZM159.2,158.9c0,0-.1-.1-.2,0,0,0-.1.1,0,.2,0,0,.1.1.2,0,0,0,.1-.1,0-.2ZM160.7,158.9c0,0-.1-.1-.2,0,0,0-.1.1,0,.2,0,0,.1.1.2,0,0,0,.1-.1,0-.2ZM161.7,161.5s0,0-.1,0c0,0,0,0,0,.1,0,0,0,0,.1,0,0,0,0,0,0-.1ZM160.3,159.9s0,0-.1,0c0,0,0,0,0,.1s0,0,.1,0c0,0,0,0,0-.1ZM159.2,159.9s0,0-.1,0c0,0,0,0,0,.1,0,0,0,0,.1,0,0,0,0,0,0-.1ZM156.7,161.2s0,0-.1,0c0,0,0,0,0,.1,0,0,0,0,.1,0,0,0,0,0,0-.1ZM158.3,160.2s0,0-.1,0c0,0,0,0,0,.1,0,0,0,0,.1,0,0,0,0,0,0-.1Z" style="fill: rgb(169, 131, 64); stroke: rgb(169, 131, 64); stroke-linecap: round; stroke-linejoin: round; stroke-width: 0.2px;"/>
      <path class="st0" d="M159.2,169.4c.3-.8.5-1.5.6-2.1-.6.6,0-1.3-.5-3.2-.1-.4.3-.9.6-.3,0-.2,0-.5.3-.7,0,0,.1-.1.2,0,0,0,.1,0,.2,0,.3.2.7.3,1,.2.7-.3.4-1.4,1-1.7.4-.2.8,0,1-.4l.3-.6c0-.2.2-.4.4-.4,0,0,.1,0,.2,0,.4,0,.7-.5,1.1-.5-.3,0-.6,0-.9,0,0,0-.2,0-.2,0,0,0-.2-.1-.3-.2-.2-.1-.4,0-.5.3,0,.2-.2.4-.4.4-.2.1-.7-.5-.9-.5-.4-.1-.6,0-.9.2,0,0,0,0,0,0-.1,0-.1-.2,0-.3,0-.3.2-.5.4-.7.1-.2.2-.5,0-.8-.1-.2-.3-.3-.6-.5-.2-.1-.4-.2-.7-.2-.2,0-.5,0-.6.3,0,0,0,.2-.2.2,0,0-.1,0-.1-.2,0-.2,0-.5-.2-.6-.2-.2-.5-.2-.6-.4,0-.2,0-.3.1-.5,0-.2-.1-.4-.3-.5-.2-.3-.5-.5-.7-.8.2.3.3.8,0,1.1-.1.2-.3.4-.4.6-.1.2-.2.5,0,.7,0,.1.2.2.3.3.2.2.3.4.4.6,0,0,0,.1,0,.2,0,.2-.4,0-.5-.1-.6-.7-1.3.3-1.1,1,.1.3.4.6.4.9-.2.1-.4,0-.6-.3-.1-.2-.2-.5-.4-.7-.2-.3-.6-.3-.8,0-.2.2-.2.5-.3.8,0,.3-.3.6-.5.5-.2,0-.4-.3-.6-.3-.2,0-.3.2-.4.3-.2.4-.6.6-.9.8.5.1,1-.6,1.5-.3.2.1.3.3.5.4.5.2.8-.8,1.3,0,0,0,.1.2.1.3,0,.2.2.5.3.7.2.4.7.6,1,.5.4-.1.5-.4.9-.2.3.1.5.4.6.7,1.2,3.4.2,6.4-.4,7.6-.5,1,.5-.5.9-1.6ZM160,162.8s0,0,0,0c0,0,0,0,0,.1-.2.3-.7.2-1,0-.3-.2-.5-.6-.9-.6-.4,0-.9.3-1.3.2-.5-.2-.5-.9-.9-1.3-.3-.2-.9-.5-.8-.9,0-.2.1-.4.3-.6.7-.5,1,.7,1.6.9.8.3-.1-1.6,0-1.8,0-.1.2-.2.3-.3,0,0,.2,0,.2,0,.1,0,.2.1.3.2.1,0,.2.2.4.2,0,0,.1,0,.2,0,0,0,0,0,0-.1,0-.3,0-.7,0-1,0-.1.1-.2.2-.2,0,0,.1,0,.2,0,.5,0,.6.5.7.9,0,0,0,.1,0,.2.1.1.3,0,.4-.2,0-.2,0-.3.2-.5.2-.2.4-.2.7-.1.2,0,.5.2.6.4.2.4,0,.8-.3,1.2-.2.3-.6,1,0,1.1.1,0,.2,0,.3-.1.2-.2.1-.4.4-.4.2,0,.4,0,.6,0,.3.1.4.4.6.6,0,0,.2.2.2.3,0,.2-.4.2-.6.3-.3,0-.5.2-.7.4-.1.2-.2.5-.3.7-.1.2-.3.5-.6.5-.2,0-.4-.1-.6-.2-.2,0-.4-.1-.6,0ZM159.4,162.4c0,0,.1,0,.2,0,0,0,.2,0,.2,0-.1-.2-.7-.5-1.1-.4,0,0,0,0-.1,0,0,0,0,.1,0,.2.1.3.4.4.6.6.1,0,.2.1.3,0,.2-.2-.1-.3-.2-.4Z" style="fill: rgb(169, 131, 64); stroke: rgb(169, 131, 64); stroke-linecap: round; stroke-linejoin: round; stroke-width: 0.2px;"/>
    </g>
    <g>
      <path class="st2" d="M157.8,151.1c-.6.4-1.4.6-2.1.6-.7,0-1.5,0-2.2-.1-.1,0-.2-.2-.3-.3,0-.1.2-.2.3-.3.9-.5,1.7-1.1,2.5-1.7.4-.3.8-.7,1.3-.9.8-.5,1.7-.5,2.5-.4.2,0,.4,0,.6,0,0,0,.2,0,.2.1,0,0,0,.2,0,.2,0,.1-.2.2-.3.3-.4.4-.8.8-1.1,1.3-.4.5-.8,1-1.3,1.3Z" style="fill: rgb(169, 131, 64); stroke: rgb(169, 131, 64); stroke-linecap: round; stroke-linejoin: round; stroke-width: 0.2px;"/>
      <path class="st2" d="M162.2,152.8c1.1-.6,2.1-.7,3.1-.5.3,0,.5.1.8.3.1,0,.3.1,0,.3-.3.2-.5.4-.7.7-.5.6-1.2.9-2,.9-.6,0-1.2.2-1.7.3-.1,0-.2.1-.4.2,0,0-.2,0-.3,0,0,0-.1-.2,0-.3.3-.8.7-1.5,1.3-1.8Z" style="fill: rgb(169, 131, 64); stroke: rgb(169, 131, 64); stroke-linecap: round; stroke-linejoin: round; stroke-width: 0.2px;"/>
      <path class="st2" d="M159.3,172c0-.1-.2-.2-.2-.3-.3-1.1-.2-2.2,0-3.3.5-2,1.6-3.7,3-5.1,1.4-1.4,2.9-2.8,4.3-4.2.5-.5,1-1.1,1.5-1.7.5-.6.8-1.2.9-1.9,0-.2,0-.5-.1-.8-.5-1.1-2-2.2-3.7-1.9-.9.2-1.7.4-2.5.7,0,0-.2,0-.2,0,0,0,0,0,0,0,0,0,.1-.2.2-.2.8-.3,1.5-.6,2.3-.8,1.7-.4,3.2.2,4.2,1.7,0,0,0,0,.1.1,0-.2,0-.2,0-.3,0-.8-.2-1.5-.5-2.2-.9-1.6-2.1-2.9-3.8-3.6-.3-.1-.7-.2-1-.3-1.6-.2-3.2,0-4.6.8-.7.4-1.4.7-2.1,1.1-.1,0-.2,0-.3.1,0,0,0,0,0,0,0,0,.1-.2.2-.2,1.2-.7,2.3-1.5,3.7-1.9,1.5-.4,3.1-.5,4.6,0,1.2.4,2,1.2,2.8,2.1.6.7,1.1,1.4,1.4,2.2.4,1.1.5,2.2.2,3.3,0,.1,0,.3,0,.4,0,0,0-.1.1-.2,1-2.3,1.1-4.7.1-7.1-.6-1.5-1.7-2.6-3.1-3.4-2.9-1.7-5.9-1.8-9.1-.9-1,.3-2,.7-2.8,1.3-1.7,1.2-3.1,2.7-3.4,4.8-.2,1.1,0,2.1.3,3.1,0,0,0,0,0,0-.2,0-.3,0-.4-.2-.2-.8-.5-1.6-.4-2.4.2-1.9,1.1-3.5,2.5-4.8,1.6-1.5,3.6-2.2,5.7-2.5,2.7-.4,5.4,0,7.8,1.3,2.6,1.4,3.9,3.6,4,6.5.2,3.2-1.2,5.9-3.5,8-1,.9-2.1,1.6-3.1,2.5-2.1,1.8-3.8,3.8-4.6,6.5-.3,1-.3,2.1-.1,3.1,0,0,0,.2,0,.2,0,0,0,0-.1,0Z" style="fill: rgb(169, 131, 64); stroke: rgb(169, 131, 64); stroke-linecap: round; stroke-linejoin: round; stroke-width: 0.2px;"/>
    </g>
    <path class="st6" d="M175,176.4c0,0,.1,0,.2-.1.7-.5,1.3-1,1.9-1.6.3-.3.6-.6,1-.8.4-.3.9-.2,1.2.2.3.3.2.7.1,1-.2.6-.6,1-1.1,1.4-.8.5-1.7.8-2.6.9-.5,0-.9,0-1.4,0-.4,0-.8.1-1.2.2-.3,0-.5,0-.8,0-.1,0-.2,0-.3,0-.2,0-.4,0-.6,0,0,0-.1,0-.2-.1,0,0,0-.1.2-.2,0,0,.2,0,.3-.1,1.6-.5,2.6-1.6,2.8-3.3.1-.8,0-1.5.2-2.3,0-.3,0-.6.2-.8.2-.5.6-.9,1.2-.9.6,0,1.1.3,1.3.8.3.6.3,1.3.1,2-.3,1.2-1,2.1-1.8,2.9-.2.2-.5.4-.7.6,0,0,0,0,0,0Z" style="fill: rgb(169, 131, 64); stroke: rgb(169, 131, 64); stroke-linecap: round; stroke-linejoin: round; stroke-width: 0.2px;"/>
    <g>
      <path class="st7" d="M184.6,152.2s-4-1.1-5.7.7c-.9,1,0,1.5,0,1.5,0,0,.7.8,1.4-.2.6-.8-.3-1.2-.4-1.2-.1,0,0,0,0,0,0,0,.7-.9,4.8-.9Z" style="fill: rgb(169, 131, 64); stroke: rgb(169, 131, 64); stroke-linecap: round; stroke-linejoin: round; stroke-width: 0.2px;"/>
      <path class="st7" d="M185.2,151.7s-6.8-2.5-11.1,1.1c0,0-1.5,1-.8,1.8,0,0,1.1-1,1.9,0s-.3,1.8-.3,1.8c0,0-1.2.8-2-.1-.8-.9-1.5-2.5,1-4.4,2.5-1.9,8.6-2.1,11.3-.2Z" style="fill: rgb(169, 131, 64); stroke: rgb(169, 131, 64); stroke-linecap: round; stroke-linejoin: round; stroke-width: 0.2px;"/>
    </g>
    <g>
      <path class="st7" d="M189.3,179.5s3.8-1.6,4.1-4.1c.1-1.3-.9-1.2-.9-1.2,0,0-1-.2-1,1,0,1,1,.8,1.1.7,0,0,0,0,0,0,0,0,0,1.2-3.3,3.6Z" style="fill: rgb(169, 131, 64); stroke: rgb(169, 131, 64); stroke-linecap: round; stroke-linejoin: round; stroke-width: 0.2px;"/>
      <path class="st7" d="M189.1,180.3s6.9-2.2,8-7.7c0,0,.5-1.7-.4-1.9,0,0-.2,1.5-1.4,1.2s-.9-1.6-.9-1.6c0,0,.4-1.4,1.6-1.1,1.2.3,2.7,1.1,1.9,4.1-.8,3-5.5,7-8.8,7.1Z" style="fill: rgb(169, 131, 64); stroke: rgb(169, 131, 64); stroke-linecap: round; stroke-linejoin: round; stroke-width: 0.2px;"/>
    </g>
    <g>
      <path class="st0" d="M171.2,114c0,1.1-.3,2.2-.8,3.2-.2.4-.3.7-.5,1.1,0,.1-.2.2-.3.2,0,0-.2-.2-.2-.3-.1-1-.4-2-.8-3-.2-.6-.2-1.2,0-1.8.2-.4.4-.9.6-1.3.2-.5.4-.9.7-1.4.2-.3.4-.4.6,0,.3.4.5.8.7,1.3.2.6.3,1.3.3,2Z" style="fill: rgb(169, 131, 64); stroke: rgb(169, 131, 64); stroke-linecap: round; stroke-linejoin: round; stroke-width: 0.2px;"/>
      <path class="st0" d="M123.4,107.8c0-.5.1-1.1.3-1.6.2-.7.6-1.2,1.3-1.5.5-.2,1.1-.3,1.6-.5.3,0,.4.2.3.4-.2.6-.4,1.2-.7,1.8-.2.6-.6,1-1.1,1.3-.2.1-.4.2-.6.4-.2.2-.3.5-.5.7,0,0-.2.2-.3.2-.2,0-.2-.1-.2-.3,0-.3,0-.7,0-1,0,0,0,0,0,0Z" style="fill: rgb(169, 131, 64); stroke: rgb(169, 131, 64); stroke-linecap: round; stroke-linejoin: round; stroke-width: 0.2px;"/>
      <path class="st0" d="M136.3,117.8c0-.5.2-1,.3-1.5.1-.9.3-1.8.4-2.7,0-.9,0-1.8,0-2.7,0-1.6-.4-3.1-1.3-4.5-1-1.6-2.5-2.6-4.3-3-1.5-.3-2.9-.1-4.2.5-.9.4-1.6,1.2-2.1,2,0,0,0,.1-.1.2,0,0,0,0,0,0,0-.1.1-.3.2-.4,1-1.6,2.3-2.6,4.2-2.7,2.1-.2,4.1.3,5.7,1.8,1.1,1.1,1.8,2.4,2.1,3.9.2.8.2,1.7.3,2.5,0,1.1,0,2.2-.2,3.3,0,0,0,0,0-.1,1.5-3.2,3.7-5.8,6.4-8,2.5-2,5.3-3.5,8.4-4.4,1.9-.5,3.9-.7,5.8-.5,3.3.3,6.1,1.6,8.6,3.7.9.7,1.6,1.5,2.3,2.4.8,1.1,1.4,2.3,1.6,3.7.2,1.1.2,2.2,0,3.4,0,.3,0,.5-.1.8,0,0,0,.1,0,.2,0,0,0,0,0,0,0-.3,0-.6,0-.9,0-.8,0-1.6,0-2.3,0-.7-.2-1.5-.4-2.2-.6-1.8-1.8-3.3-3.2-4.5-2.1-1.8-4.4-3.1-7.1-3.6-1.3-.3-2.6-.3-3.9-.2-1.6.1-3.2.4-4.7,1,0,0-.2,0-.3.1.6,0,1.1,0,1.7,0,1.2,0,2.3.5,3.1,1.4.7.8,1,1.7.6,2.7-.4,1-1.1,1.7-2.1,1.9-.7.1-1.4,0-1.9-.5-.7-.6-.7-1.5-.3-2.4.3-.7,1.1-1.1,2-.9.1,0,.3,0,.4,0,0,0,.1.1.2.2,0,0-.1.1-.2.1-.2,0-.5,0-.7,0-.8,0-1.3.4-1.5,1.1-.2.8,0,1.5.7,1.9.7.4,1.6.3,2.3-.2,1-.8,1.3-2,.5-3.2-.7-1-1.7-1.6-3-1.7-1,0-2,0-3,.3-.8.2-1.6.7-2.3,1.1-3.1,1.8-5.7,4.2-7.8,7.2-.8,1.1-1.4,2.3-1.9,3.5-.2.5-.3,1.1-.4,1.6,0,.1,0,.3-.2.3,0,0,0,0,0,.1,0,.1-.1.2-.2.3,0,0,0,0,0,0Z" style="fill: rgb(169, 131, 64); stroke: rgb(169, 131, 64); stroke-linecap: round; stroke-linejoin: round; stroke-width: 0.2px;"/>
    </g>
    <g>
      <path class="st11" d="M193.8,107.1s-4.6-.5-5.7-3.2c-.5-1.4.6-1.6.6-1.6,0,0,1-.5,1.4.8.3,1.1-.8,1.1-.9,1.1-.1,0,0,0,0,0,0,0,.3,1.3,4.6,2.9Z" style="fill: rgb(169, 131, 64); stroke: rgb(169, 131, 64); stroke-linecap: round; stroke-linejoin: round; stroke-width: 0.3px;"/>
      <path class="st11" d="M194.2,107.9s-8.1-.3-11-5.8c0,0-1.1-1.7-.1-2.2,0,0,.7,1.5,1.9.9s.4-2,.4-2c0,0-.9-1.4-2.1-.7s-2.6,2-.8,5c1.8,3,8.1,5.8,11.6,4.9Z" style="fill: rgb(169, 131, 64); stroke: rgb(169, 131, 64); stroke-linecap: round; stroke-linejoin: round; stroke-width: 0.3px;"/>
      <path class="st11" d="M191.4,109.4s-2.8-1.1-4.6,0c-1,.5,0,.9,0,.9,0,0,.7-.4,1.2.5s-.5,1.3-1,1.6c-.5.2-1.5.2-1.9-1.3-.4-1.5.8-2.1,1.8-2.5,1-.4,2.9-.4,4.5.8Z" style="fill: rgb(169, 131, 64); stroke: rgb(169, 131, 64); stroke-linecap: round; stroke-linejoin: round; stroke-width: 0.3px;"/>
    </g>
    <path class="st0" d="M148.7,158.1c0,0,0-.2-.1-.2-.4-.8-.9-1.5-1.5-2.2-.3-.3-.5-.7-.8-1.1-.3-.5-.1-1,.3-1.3.4-.2.7-.2,1.1,0,.6.3,1,.8,1.4,1.3.5.9.7,1.8.8,2.8,0,.5,0,1,0,1.5,0,.4,0,.9,0,1.3,0,.3,0,.6,0,.8,0,.1,0,.2,0,.4,0,.2,0,.4,0,.6,0,0-.1.1-.2.2,0,0-.1-.1-.2-.2,0,0,0-.2,0-.3-.4-1.8-1.5-2.9-3.3-3.3-.8-.2-1.6-.2-2.4-.4-.3,0-.6-.1-.9-.3-.6-.3-.9-.8-.8-1.4,0-.6.4-1.1,1-1.3.7-.3,1.4-.2,2.1,0,1.2.4,2.2,1.2,2.9,2.2.2.3.4.5.6.8,0,0,0,0,0,0Z" style="fill: rgb(169, 131, 64); stroke: rgb(169, 131, 64); stroke-linecap: round; stroke-linejoin: round; stroke-width: 0.2px;"/>
    <g>
      <path class="st0" d="M145.1,118.8c-.6.3-1.3.4-1.9.3-.7,0-1.3-.2-1.9-.4-.1,0-.2-.2-.3-.3,0,0,.2-.2.3-.2.9-.3,1.7-.7,2.4-1.2.4-.3.8-.5,1.3-.7.8-.3,1.5-.3,2.3,0,.2,0,.3,0,.5,0,0,0,.2,0,.2.1,0,0,0,.1,0,.2,0,0-.2.1-.3.2-.4.3-.8.7-1.2,1-.4.4-.8.8-1.3,1Z" style="fill: rgb(169, 131, 64); stroke: rgb(169, 131, 64); stroke-linecap: round; stroke-linejoin: round; stroke-width: 0.2px;"/>
      <path class="st0" d="M148.9,120.8c1-.5,2-.4,2.9,0,.2,0,.5.2.7.3.1,0,.2.1,0,.3-.3.1-.5.3-.7.5-.6.5-1.2.6-1.9.6-.5,0-1.1,0-1.6,0-.1,0-.2,0-.4.1,0,0-.2,0-.3,0,0,0,0-.2,0-.3.4-.6.8-1.2,1.4-1.5Z" style="fill: rgb(169, 131, 64); stroke: rgb(169, 131, 64); stroke-linecap: round; stroke-linejoin: round; stroke-width: 0.2px;"/>
      <path class="st0" d="M144.1,137.6c0-.1-.1-.2-.1-.3-.1-1,0-2,.4-2.9.7-1.7,1.8-3.1,3.3-4.2,1.4-1.1,2.9-2.2,4.3-3.3.5-.4,1-.9,1.5-1.3.5-.4.8-1,1-1.6,0-.2,0-.5,0-.7-.4-1-1.5-2.2-3.1-2.1-.8,0-1.6.2-2.4.4,0,0-.2,0-.2,0,0,0,0,0,0,0,0,0,.1-.1.2-.1.7-.2,1.4-.3,2.2-.4,1.6-.2,2.8.6,3.5,2,0,0,0,0,0,.1,0-.1,0-.2,0-.3,0-.7,0-1.3-.2-2-.6-1.6-1.5-2.9-3-3.7-.3-.2-.6-.3-.9-.3-1.4-.3-2.8-.4-4.2.2-.7.3-1.3.5-2,.8-.1,0-.2,0-.3,0,0,0,0,0,0,0,0,0,.1-.1.2-.2,1.1-.5,2.3-1.1,3.5-1.2,1.4-.1,2.8,0,4.1.6,1,.5,1.7,1.3,2.3,2.2.4.7.8,1.4,1,2.1.3,1,.2,2-.2,3,0,.1-.1.2-.1.4,0,0,0-.1.1-.2,1.2-2,1.5-4.1.9-6.3-.4-1.4-1.2-2.5-2.4-3.4-2.4-1.8-5.1-2.3-8-1.9-.9.1-1.8.4-2.7.8-1.7.9-3,2-3.6,3.9-.3.9-.3,1.9-.1,2.8,0,0,0,0,0,0-.2,0-.3,0-.3-.2-.1-.7-.2-1.5,0-2.2.4-1.7,1.4-3,2.8-4,1.6-1.1,3.4-1.6,5.4-1.6,2.5,0,4.8.5,6.9,2.1,2.1,1.6,3.1,3.7,2.8,6.3-.2,2.9-1.8,5.1-4.1,6.8-1,.7-2.1,1.2-3.1,1.9-2.1,1.3-3.8,3-4.8,5.3-.4.9-.5,1.8-.5,2.8,0,0,0,.1,0,.2,0,0,0,0,0,0Z" style="fill: rgb(169, 131, 64); stroke: rgb(169, 131, 64); stroke-linecap: round; stroke-linejoin: round; stroke-width: 0.2px;"/>
    </g>
    <g>
      <path class="st0" d="M195.8,121c.6.2,1.3.2,2,0,.6-.1,1.3-.4,1.9-.6.1,0,.2-.2.2-.3-.1,0-.2-.2-.3-.2-.9-.2-1.7-.6-2.6-1-.4-.2-.9-.4-1.3-.5-.8-.2-1.6,0-2.3.2-.2,0-.3,0-.5.1,0,0-.2,0-.2.1,0,0,0,.1,0,.2.1,0,.2.1.4.2.4.3.9.6,1.3.9.4.3.9.7,1.4.8Z" style="fill: rgb(169, 131, 64); stroke: rgb(169, 131, 64); stroke-linecap: round; stroke-linejoin: round; stroke-width: 0.2px;"/>
      <path class="st0" d="M192.3,123.4c-1.1-.3-2-.1-2.9.3-.2.1-.4.2-.6.4-.1,0-.2.2,0,.3.3.1.5.3.8.5.6.4,1.3.5,2,.4.5,0,1.1-.1,1.6-.1.1,0,.2,0,.4,0,0,0,.2,0,.3,0,0,0,0-.2,0-.3-.4-.6-.9-1.1-1.5-1.3Z" style="fill: rgb(169, 131, 64); stroke: rgb(169, 131, 64); stroke-linecap: round; stroke-linejoin: round; stroke-width: 0.2px;"/>
      <path class="st0" d="M198.8,139.6c0-.1.1-.2.1-.3,0-1-.3-2-.7-2.9-.9-1.6-2.2-2.9-3.7-3.8-1.5-.9-3.1-1.8-4.6-2.8-.6-.3-1.1-.7-1.6-1.1-.5-.4-.9-.9-1.2-1.5,0-.2,0-.5,0-.7.2-1.1,1.3-2.3,2.8-2.4.8,0,1.6,0,2.4.1,0,0,.2,0,.2,0,0,0,0,0,0,0,0,0-.2-.1-.2-.1-.7,0-1.5-.2-2.2-.2-1.6,0-2.7.9-3.3,2.4,0,0,0,0,0,.1,0-.1,0-.2,0-.3-.1-.7-.2-1.3,0-2,.4-1.6,1.2-3,2.6-4,.3-.2.5-.3.8-.4,1.4-.5,2.8-.7,4.2-.3.7.2,1.4.4,2.1.5.1,0,.2,0,.3,0,0,0,0,0,0,0,0,0-.1-.1-.2-.1-1.2-.4-2.4-.9-3.6-.9-1.4,0-2.8.3-4,1.1-.9.6-1.5,1.5-2,2.4-.4.7-.6,1.4-.8,2.2-.2,1,0,2,.6,2.9,0,.1.1.2.1.4,0,0-.1-.1-.1-.2-1.4-1.8-1.9-3.9-1.6-6.2.2-1.5.9-2.7,2-3.7,2.2-2.1,4.8-2.8,7.7-2.7.9,0,1.9.2,2.7.5,1.8.7,3.2,1.7,4,3.5.4.9.5,1.8.4,2.8,0,0,0,0,0,0,.2,0,.3,0,.3-.3,0-.7,0-1.5-.2-2.2-.6-1.7-1.7-2.8-3.2-3.7-1.7-.9-3.6-1.2-5.5-1-2.5.2-4.7,1.1-6.6,2.8-1.9,1.8-2.6,4-2.2,6.6.5,2.9,2.3,4.9,4.8,6.3,1,.6,2.2,1,3.3,1.5,2.2,1.1,4.1,2.6,5.4,4.8.5.8.7,1.8.8,2.7,0,0,0,.1,0,.2,0,0,0,0,0,0Z" style="fill: rgb(169, 131, 64); stroke: rgb(169, 131, 64); stroke-linecap: round; stroke-linejoin: round; stroke-width: 0.2px;"/>
    </g>
    <g>
      <path class="st0" d="M156.6,139.3c.9-.3,1.8-.6,2.7-.9,2.1-.6,4.3-1,6.5-.9,1,0,2,.2,2.8.7.3.2.6.4.8.7.5.6.3,1.3-.4,1.6-.6.2-1.1.2-1.7,0-1.8-.5-3.6-.8-5.5-1-1-.1-2,0-3,.1-1.7.3-3.3.7-4.9,1.3-.2,0-.4.2-.6.3,0,0-.1,0-.2,0,0,0,0-.1,0-.2,0-.3.3-.5.4-.7.6-.8,1.3-1.7,2.1-2.3.3-.3.7-.5,1.1-.7.2-.1.5,0,.8,0,.3,0,.5.3.3.6,0,.2-.3.5-.4.6-.3.2-.6.4-.9.6,0,0,0,0,0,0Z" style="fill: rgb(169, 131, 64); stroke: rgb(169, 131, 64); stroke-linecap: round; stroke-linejoin: round; stroke-width: 0.2px;"/>
      <path class="st0" d="M177.8,147.8c-.3.8-.7,1.3-1.4,1.6-.8.3-1.6.2-2.4,0-.3,0-.6-.1-1-.2,0,0-.2-.1-.2-.2,0,0,0-.2.1-.3.5-.4,1-.8,1.6-1.2.6-.5,1.4-.6,2.2-.6.2,0,.5,0,.7,0,.3,0,.4,0,.4.3,0,.2,0,.4,0,.6Z" style="fill: rgb(169, 131, 64); stroke: rgb(169, 131, 64); stroke-linecap: round; stroke-linejoin: round; stroke-width: 0.2px;"/>
      <path class="st0" d="M172.2,137.3c.1.1.3.2.4.3.9.7,1.4,1.6,1.6,2.8.1.9-.1,1.7-.7,2.5-.5.6-1.5.9-2.2.6-.4-.2-.6-.9-.3-1.3,0,0,.1,0,.2-.1,0,.2,0,.3,0,.5,0,.4.1.6.5.7.7.2,1.4-.2,1.8-1,.3-.7.4-1.4.1-2.1-.4-1.4-1.4-2.4-2.7-3-1-.5-2.2-.6-3.3-.6-3.3-.2-6.3.6-9.3,2-1.7.8-3.3,1.6-4.7,2.7-.3.2-.5.3-.8.5,0,0,0,0,0,0,0,0,0-.2.2-.2.4-.4.9-.7,1.3-1,2.6-1.8,5.5-3.2,8.6-3.9,2.2-.5,4.4-.6,6.5-.3,2.7.4,5.1,1.4,7,3.4,1.3,1.3,2.1,2.9,2.3,4.8,0,.9,0,1.8-.5,2.6-.7,1.1-1.7,1.7-3,1.8,0,0-.1,0-.1,0,0,0-.1,0-.2-.1,0,0,0-.2.1-.2.2,0,.5-.1.7-.2,1-.3,1.8-.8,2.3-1.8.3-.6.4-1.2.4-1.8,0-1.6-.7-3.1-1.7-4.3-1.2-1.4-2.7-2.4-4.4-3Z" style="fill: rgb(169, 131, 64); stroke: rgb(169, 131, 64); stroke-linecap: round; stroke-linejoin: round; stroke-width: 0.2px;"/>
    </g>
    <g>
      <path class="st0" d="M155.6,83.2c.5.8.7,2,.4,3.2,0,.2-.2.4-.3.6-.2.2-.4.2-.6,0-.3-.2-.6-.4-.8-.7-.5-.5-.7-1.1-.6-1.8,0-.3,0-.6,0-.8,0-.6,0-1.2-.4-1.8,0-.1-.2-.3,0-.5.2-.2.4,0,.5,0,0,0,0,0,0,0,.6.3,1.2.9,1.7,1.8Z" style="fill: rgb(169, 131, 64); stroke: rgb(169, 131, 64); stroke-linecap: round; stroke-linejoin: round; stroke-width: 0.2px;"/>
      <path class="st0" d="M162.4,92.7c-.5-.8-.3-1.6.6-1.8.4-.1.9,0,1.3,0,1.2.5,2,1.4,2.5,2.6,0,.1,0,.3,0,.4,0,0-.3,0-.4,0-.5-.2-.9-.4-1.5-.4-.6,0-1.1,0-1.6-.3-.3-.1-.7-.3-.8-.6Z" style="fill: rgb(169, 131, 64); stroke: rgb(169, 131, 64); stroke-linecap: round; stroke-linejoin: round; stroke-width: 0.2px;"/>
      <path class="st0" d="M148.7,103.7c.3-2.1.8-4.2,2.1-5.9,0,0,0,0,0,0,0,0-.2.2-.3.3,0,0-.2.2-.3.2,0,0,0,0,0,0,0-.1.1-.2.2-.3.6-.8,1.2-1.6,1.8-2.4,1.2-1.7,2-3.5,2.6-5.5.2-.6.3-1.2.5-1.8.3-1.5,0-2.9-.5-4.3-.1-.3-.3-.6-.4-1,0,0,0,0,0,0,.1.1.2.2.3.4.5.9.8,1.9,1,2.9.1.9,0,1.8-.2,2.8-.5,2.2-1.4,4.2-2.5,6.1,0,0,0,0,0,.2.2-.2.5-.5.7-.7,2.2-2,4.6-3.2,7.7-3.1,1.2,0,2.3.4,3.4,1,.3.2.5.4.6.6,0,0,0,0,0,0,0,0-.2,0-.2,0-1.2-.9-2.5-1.3-4-1.3-1.5,0-2.9.3-4.3,1-2.7,1.3-4.6,3.5-6.1,6-.9,1.5-1.3,3-1.7,4.7,0,.1,0,.2-.1.4,0,0,0,0-.1,0Z" style="fill: rgb(169, 131, 64); stroke: rgb(169, 131, 64); stroke-linecap: round; stroke-linejoin: round; stroke-width: 0.2px;"/>
    </g>
    <g>
      <path class="st0" d="M165.4,99.4c.8-.6,1.9-.8,3.1-.6.2,0,.4.1.6.3.2.2.2.4,0,.6-.2.3-.4.6-.6.8-.5.5-1.1.8-1.8.7-.3,0-.6,0-.9,0-.6,0-1.2,0-1.8.5-.1.1-.3.2-.5,0-.2-.2-.1-.3,0-.5,0,0,0,0,0,0,.3-.6.9-1.2,1.7-1.8Z" style="fill: rgb(169, 131, 64); stroke: rgb(169, 131, 64); stroke-linecap: round; stroke-linejoin: round; stroke-width: 0.2px;"/>
      <path class="st0" d="M174.5,92.1c-.8.5-1.6.4-1.9-.5-.1-.4-.1-.9,0-1.3.4-1.2,1.3-2.1,2.4-2.6.1,0,.3,0,.4,0,0,0,0,.3,0,.4-.2.5-.3,1-.3,1.5,0,.6,0,1.1-.2,1.7-.1.4-.3.7-.5.8Z" style="fill: rgb(169, 131, 64); stroke: rgb(169, 131, 64); stroke-linecap: round; stroke-linejoin: round; stroke-width: 0.2px;"/>
      <path class="st0" d="M186.3,105.1c-2.1-.2-4.2-.6-6.1-1.8,0,0,0,0,0,0,0,0,.2.2.3.2,0,0,.2.2.3.3,0,0,0,0,0,0-.1,0-.2-.1-.3-.2-.8-.6-1.7-1.1-2.5-1.7-1.8-1.1-3.7-1.8-5.7-2.2-.6-.1-1.2-.3-1.8-.4-1.5-.2-2.9.2-4.3.7-.3.1-.6.3-.9.5,0,0,0,0,0,0,.1-.1.2-.3.4-.3.9-.6,1.8-.9,2.9-1.1.9-.2,1.8-.2,2.8,0,2.2.4,4.3,1.1,6.3,2.2,0,0,.1,0,.2,0-.3-.2-.5-.5-.8-.7-2.1-2-3.5-4.4-3.5-7.5,0-1.2.3-2.3.9-3.4.1-.3.4-.5.6-.7,0,0,0,0,0,0,0,0,0,.2,0,.2-.9,1.2-1.1,2.6-1.1,4.1,0,1.5.5,2.9,1.2,4.2,1.5,2.6,3.8,4.4,6.4,5.8,1.5.8,3.1,1.1,4.8,1.4.1,0,.3,0,.4,0,0,0,0,0,0,.1Z" style="fill: rgb(169, 131, 64); stroke: rgb(169, 131, 64); stroke-linecap: round; stroke-linejoin: round; stroke-width: 0.2px;"/>
    </g>
    <g>
      <path class="st0" d="M137.8,193.5c.9.5,2,.5,3.2.1.2,0,.4-.2.6-.4.2-.2.2-.4,0-.6-.2-.2-.5-.5-.7-.7-.5-.4-1.2-.6-1.9-.5-.3,0-.6.1-.8.2-.6.1-1.2.1-1.8-.2-.2,0-.3-.2-.5,0-.2.2,0,.4,0,.5,0,0,0,0,0,0,.4.6,1,1.1,1.9,1.6Z" style="fill: rgb(169, 131, 64); stroke: rgb(169, 131, 64); stroke-linecap: round; stroke-linejoin: round; stroke-width: 0.2px;"/>
      <path class="st0" d="M147.9,199.5c-.8-.4-1.6-.2-1.8.7,0,.4,0,.9.2,1.3.6,1.2,1.5,1.9,2.8,2.2.1,0,.3,0,.4,0,0,0,0-.3,0-.4-.3-.4-.4-.9-.5-1.4,0-.6-.1-1.1-.4-1.6-.2-.3-.4-.6-.6-.7Z" style="fill: rgb(169, 131, 64); stroke: rgb(169, 131, 64); stroke-linecap: round; stroke-linejoin: round; stroke-width: 0.2px;"/>
      <path class="st0" d="M157.6,185c-2.1.5-4.1,1.2-5.7,2.6,0,0,0,0,0,0,0,0,.2-.2.3-.3,0,0,.1-.2.2-.3,0,0,0,0,0,0-.1,0-.2.1-.3.2-.8.7-1.5,1.4-2.3,2-1.6,1.3-3.4,2.3-5.3,3-.6.2-1.2.4-1.8.6-1.5.4-2.9.3-4.4-.1-.3,0-.7-.2-1-.3,0,0,0,0,0,0,.1,0,.3.2.4.3,1,.4,2,.7,3,.7.9,0,1.8,0,2.7-.4,2.1-.7,4.1-1.7,5.9-3,0,0,0,0,.2,0-.2.3-.5.5-.7.8-1.8,2.3-2.8,4.9-2.5,7.9.1,1.2.6,2.3,1.3,3.3.2.3.4.4.7.6,0,0,0,0,0,0,0,0,0-.2,0-.2-1-1.1-1.5-2.4-1.6-3.9-.1-1.5,0-2.9.6-4.3,1.1-2.8,3.1-4.9,5.5-6.6,1.4-1,2.9-1.6,4.5-2.1.1,0,.2,0,.4-.1,0,0,0,0,0-.1Z" style="fill: rgb(169, 131, 64); stroke: rgb(169, 131, 64); stroke-linecap: round; stroke-linejoin: round; stroke-width: 0.2px;"/>
    </g>
    <path class="st0" d="M154.4,124.3c.1,0,.2,0,.3,0,.7-.4,1.5-.7,2.2-1.1,2.7-1.5,4.9-3.6,6.3-6.4.7-1.5,1.2-3.2,1-4.9-.3-2.3-1.4-4-3.6-4.9-.9-.4-1.9-.4-2.9-.1-.6.2-1.1.6-1.4,1.2-.6,1,0,2,1.2,2.2.2,0,.4,0,.7,0,.7-.1.9-.9.6-1.5.2,0,.2,0,.3.2.3.7-.1,1.5-.9,1.6-.5.1-1.1,0-1.6-.2-.8-.4-.9-1.5-.6-2.1.5-.9,1.3-1.6,2.4-1.7,2.1-.2,3.7.6,4.9,2.2,1.5,1.9,1.7,4,1.1,6.2-.6,2.3-1.8,4.2-3.5,5.8-1.6,1.6-3.5,2.8-5.5,3.7-.3.1-.6.2-.9.2,0,0,0,0,0-.1Z" style="fill: rgb(169, 131, 64); stroke: rgb(169, 131, 64); stroke-linecap: round; stroke-linejoin: round; stroke-width: 0.2px;"/>
    <path class="st0" d="M198.7,155.3c0,0,.1-.2.2-.3.3-.7.7-1.5,1-2.2,1.1-2.9,1.5-5.9.8-8.9-.4-1.7-1.1-3.2-2.3-4.4-1.7-1.6-3.6-2.2-5.9-1.6-1,.3-1.8.8-2.3,1.7-.3.6-.4,1.2-.4,1.8.1,1.1,1.3,1.6,2.3.9.2-.1.3-.3.5-.4.5-.6,0-1.3-.5-1.5,0-.2.2-.1.3,0,.7.4.8,1.2.3,1.8-.4.4-.8.7-1.4.8-.8.2-1.7-.6-1.8-1.3-.2-1.1,0-2,.8-2.8,1.5-1.5,3.3-1.9,5.2-1.4,2.3.5,3.8,2,4.8,4.1,1,2.1,1.2,4.4,1,6.7-.2,2.3-1,4.3-2,6.4-.1.3-.4.5-.6.8,0,0,0,0-.1,0Z" style="fill: rgb(169, 131, 64); stroke: rgb(169, 131, 64); stroke-linecap: round; stroke-linejoin: round; stroke-width: 0.2px;"/>
    <path class="st0" d="M170.7,183.7c0,0-.2.1-.3.2-.8.3-1.5.5-2.3.8-3,.8-6,.9-9,0-1.6-.6-3.1-1.4-4.1-2.8-1.4-1.8-1.9-3.8-1-6,.4-.9,1-1.7,1.9-2.1.6-.3,1.2-.3,1.9-.2,1.1.2,1.5,1.4.7,2.4-.1.2-.3.3-.5.4-.6.4-1.3,0-1.5-.6-.2,0-.2.2,0,.3.3.7,1.1.9,1.8.5.5-.3.7-.7.9-1.3.3-.8-.5-1.7-1.1-1.9-1-.3-2-.2-2.9.5-1.6,1.3-2.2,3.1-1.9,5.1.3,2.4,1.6,4,3.6,5.2,2,1.2,4.2,1.6,6.6,1.6,2.3,0,4.4-.5,6.5-1.3.3-.1.5-.3.8-.5,0,0,0,0,0-.1Z" style="fill: rgb(169, 131, 64); stroke: rgb(169, 131, 64); stroke-linecap: round; stroke-linejoin: round; stroke-width: 0.2px;"/>
    <g>
      <path class="st0" d="M186.6,149.9c0-.4.2-.8.3-1.1.1-.3.3-.4.7-.3,0,0,.1,0,.2,0,.9.7,1.6,1.5,1.6,2.7,0,.3-.1.7-.3,1-.2.4-.4.7-.7,1.1-.2.2-.4.2-.5,0-.1-.3-.3-.6-.5-.9-.5-.8-.8-1.6-.8-2.5Z" style="fill: rgb(169, 131, 64); stroke: rgb(169, 131, 64); stroke-linecap: round; stroke-linejoin: round; stroke-width: 0.2px;"/>
      <path class="st0" d="M188.1,151.7c0-.2-.1-.5-.2-.7-.4-1.9-1.3-3.5-2.5-4.8-.6-.7-1.3-1.4-2.1-1.9-.4-.3-.9-.6-1.4-.7,0,0,0,0-.1,0,0,0-.2-.1-.3-.2.1,0,.2,0,.3,0,.7,0,1.3.4,1.8.8,1.6,1.2,2.9,2.6,3.8,4.4.5.9.7,1.9.8,2.9,0,.1,0,.3,0,.4,0,0,0,0-.1,0Z" style="fill: rgb(169, 131, 64); stroke: rgb(169, 131, 64); stroke-linecap: round; stroke-linejoin: round; stroke-width: 0.2px;"/>
    </g>
    <g>
      <path class="st0" d="M143.3,150c0,.4-.2.8-.3,1.1-.1.3-.3.4-.7.3,0,0-.1,0-.2,0-.9-.7-1.6-1.5-1.6-2.7,0-.3.1-.7.3-1,.2-.4.4-.7.7-1.1.2-.2.4-.2.5,0,.1.3.3.6.5.9.5.8.8,1.6.8,2.5Z" style="fill: rgb(169, 131, 64); stroke: rgb(169, 131, 64); stroke-linecap: round; stroke-linejoin: round; stroke-width: 0.2px;"/>
      <path class="st0" d="M141.7,148.2c0,.2.1.5.2.7.4,1.9,1.3,3.5,2.5,4.8.6.7,1.3,1.4,2.1,1.9.4.3.9.6,1.4.7,0,0,0,0,.1,0,0,0,.2.1.3.2-.1,0-.2,0-.3,0-.7,0-1.3-.4-1.8-.8-1.6-1.2-2.9-2.6-3.8-4.4-.5-.9-.7-1.9-.8-2.9,0-.1,0-.3,0-.4,0,0,0,0,.1,0Z" style="fill: rgb(169, 131, 64); stroke: rgb(169, 131, 64); stroke-linecap: round; stroke-linejoin: round; stroke-width: 0.2px;"/>
    </g>
    <g>
      <path class="st0" d="M129.3,112c.4.1.7.3,1.1.4.3.2.4.4.2.7,0,0,0,.1-.1.2-.8.8-1.7,1.4-2.9,1.2-.3,0-.7-.2-1-.4-.4-.2-.7-.5-1-.8-.2-.2-.1-.4.1-.5.3-.1.7-.2,1-.3.8-.4,1.7-.6,2.6-.5Z" style="fill: rgb(169, 131, 64); stroke: rgb(169, 131, 64); stroke-linecap: round; stroke-linejoin: round; stroke-width: 0.2px;"/>
      <path class="st0" d="M127.3,113.3c.2,0,.5,0,.7,0,1.9-.1,3.6-.8,5.1-1.9.8-.5,1.5-1.1,2.2-1.8.4-.4.7-.8.9-1.3,0,0,0,0,0-.1,0,0,.2-.2.2-.2,0,.1,0,.2,0,.3-.2.7-.6,1.2-1,1.7-1.4,1.4-3,2.5-4.8,3.1-1,.3-2,.4-3,.4-.1,0-.2,0-.4,0,0,0,0,0,0-.1Z" style="fill: rgb(169, 131, 64); stroke: rgb(169, 131, 64); stroke-linecap: round; stroke-linejoin: round; stroke-width: 0.2px;"/>
    </g>
    <g>
      <path class="st0" d="M184,167.9c.4,0,.8-.1,1.2-.2.3,0,.5.2.5.5,0,0,0,.2,0,.2-.3,1.1-.8,2-1.9,2.5-.3.1-.7.2-1,.1-.4,0-.8-.1-1.3-.2-.3,0-.3-.3-.1-.5.2-.2.5-.5.7-.8.5-.7,1.2-1.3,2-1.7Z" style="fill: rgb(169, 131, 64); stroke: rgb(169, 131, 64); stroke-linecap: round; stroke-linejoin: round; stroke-width: 0.2px;"/>
      <path class="st0" d="M182.9,170c.2-.1.4-.3.6-.4,1.6-1,2.7-2.5,3.5-4.2.4-.9.8-1.7,1-2.7.1-.5.2-1.1.1-1.6,0,0,0,0,0-.1,0-.1,0-.2,0-.3,0,0,.1.2.2.3.2.7.1,1.3,0,2-.5,1.9-1.3,3.6-2.6,5.1-.7.8-1.5,1.3-2.4,1.8-.1,0-.2,0-.4.1,0,0,0,0,0,0Z" style="fill: rgb(169, 131, 64); stroke: rgb(169, 131, 64); stroke-linecap: round; stroke-linejoin: round; stroke-width: 0.2px;"/>
    </g>
    <path class="st0" d="M120.8,168.6c.1,0,.3,0,.4,0,1.3,0,2.5,0,3.8.3.8.2,1.6.6,2.3,1.1.4.4.8.8.9,1.4.1.7-.3,1.3-1.1,1.1-.4,0-.8-.2-1.2-.4-1.1-.5-2.2-1.1-3.2-1.6-1.3-.6-2.7-.9-4.1-.9-.1,0-.3,0-.4,0-.1,0-.2,0-.3,0,0,0-.2,0-.3,0,0-.1,0-.2,0-.3,0,0-.2,0-.3,0,0,0,0,0,0,0,.1,0,.2-.2.3-.3.7-.3,1.4-.6,2.1-.9,1.4-.4,2.7-.9,4.1-1.2,2.5-.5,4.9-.6,7.4.1.7.2,1.3.5,1.9.9.5.4.9.9,1,1.6,0,.7-.3,1.3-.8,1.5-.2,0-.6.1-.8,0-.5-.1-.9-.3-1.4-.5-2.4-1.2-4.9-1.8-7.6-2-.8,0-1.6,0-2.4,0,0,0-.2,0-.2,0,0,0,0,0,0,0Z" style="fill: rgb(169, 131, 64); stroke: rgb(169, 131, 64); stroke-linecap: round; stroke-linejoin: round; stroke-width: 0.2px;"/>
    <path class="st1" d="M175.4,183.9c.1,0,.2.1.3.2,0,0-.2.1-.2.2-.1.4-.5.3-.8.4-1.6.6-3.1,1.4-4.5,2.5-.4.3-.9.6-1.4.7-.3,0-.7,0-.9-.2-.3-.3-.3-.6-.1-1,.2-.5.5-.8.9-1.2.8-.7,1.5-1,2.9-1.3,0,0-.1,0-.1,0-1.6-.5-2.9-1.4-4.1-2.6-.8-.8-1.3-1.7-1.4-2.8,0-.3,0-.7,0-1,.3-.9,1.3-1.3,2-.7.4.3.7.6,1.1,1,.9,1.2,1.9,2.3,3,3.4.5.5,1.1.9,1.6,1.3.5.4,1,.6,1.5.8.3,0,.3.1.2.4Z" style="fill: rgb(169, 131, 64); stroke: rgb(169, 131, 64); stroke-linecap: round; stroke-linejoin: round; stroke-width: 0.2px;"/>
    <g>
      <path class="st13" d="M125.1,127.3c-.4-.3-.9-.7-1.3-1.1-.2-.1-.3-.3-.4-.5-.2-.4,0-.8.4-.8.3,0,.5,0,.8,0,.1,0,.2,0,.3.1,0,0,0-.1-.1-.2-.2-.3-.4-.6-.6-1,0-.2,0-.4,0-.6,0-.3.3-.5.6-.4.2,0,.4,0,.6.2.3.2.6.5,1,.7,0,0,0-.1,0-.2-.1-.5-.2-1-.4-1.4,0,0,0-.1,0-.2,0-.6.5-.9,1-.5.3.2.6.5.9.9.3.4.5.8.7,1.3,0,0,0,.2.1.2,0-.5,0-1,0-1.5,0-.3,0-.6.1-.8,0-.1.1-.3.2-.4.2-.3.6-.4.8-.1.2.2.4.4.5.7.3.6.4,1.3.4,2,0,0,0,.1,0,.2.1-.4.2-.8.4-1.1.1-.3.3-.6.5-.9.2-.3.5-.4.9-.3.4.1.5.4.6.8,0,.5,0,.9-.1,1.3-.3,1.2-.8,2.3-1.3,3.4-.4.8-.9,1.3-1.7,1.6-.2,0-.4.2-.7.2,0,0-.2.1-.2.1-.1,0-.2,0-.3,0-.2,0-.5,0-.7.1-.2.1-.4.2-.6.1-.6,0-1.1,0-1.7-.1-.8-.1-1.6-.4-2.3-.7-.2-.1-.5-.3-.6-.5-.2-.2-.3-.5-.2-.8.1-.3.4-.4.7-.4.5,0,1,.1,1.5.2.2,0,.4.1.5.1Z" style="fill: rgb(169, 131, 64); stroke: rgb(169, 131, 64); stroke-linecap: round; stroke-linejoin: round; stroke-width: 0.2px;"/>
      <g>
        <path class="st22" d="M129.6,128.8c0,0,0,0-.1,0-.2-.3-.6-.4-.9-.6-.9-.5-1.7-1-2.4-1.7-.5-.5-1-1.1-1.5-1.7,1,1.2,2.2,2.3,3.6,3-1.1-.9-2-2-2.8-3.1,1,1.1,1.9,2.2,3.1,3.1,0,0,0,0,0,0,0,0,0-.1-.1-.2-.9-1.1-1.6-2.2-2.1-3.5,0-.1,0-.3,0-.3.5.8.9,1.7,1.5,2.6.5.8,1.2,1.6,1.8,2.5Z" style="fill: rgb(17, 42, 79);"/>
        <path class="st22" d="M128.7,124c.2.6.5,1.1.7,1.7.2.6.3,1.2.4,1.8,0,0,0,0,0,0,0-.5,0-1.1,0-1.6,0-.5,0-1.1-.1-1.6,0-.5-.1-1.1-.1-1.6.3,1.5.4,2.9.5,4.4,0,0,0,0,0,0,.2-1,.4-2,.6-3,0,1.4-.3,2.8-.8,4.2-.2-.7-.3-1.4-.5-2.1-.2-.7-.4-1.4-.7-2,0,0,0,0,0,0Z" style="fill: rgb(17, 42, 79);"/>
        <path class="st22" d="M126.9,123.6c.8,1.3,1.6,2.7,2.3,4.1,0,0,0,0,0,0-.7-1.7-1.4-3.5-2.4-5.1,0,0,0,0,0,0,0,0,.1.1.2.2.4.6.8,1.3,1.1,1.9.5,1.2,1,2.4,1.4,3.7,0,0,0,.1,0,.2-.5-.4-2.7-4.5-2.8-4.9Z" style="fill: rgb(17, 42, 79);"/>
        <path class="st22" d="M131.9,122.7c.2.6-1.4,5.6-1.9,5.8.9-1.8,1.4-3.8,1.9-5.8Z" style="fill: rgb(17, 42, 79);"/>
        <path class="st22" d="M128.2,129.2c-.2,0-.4,0-.6,0-1.2-.3-2.3-.8-3.5-1.2,0,0-.2,0-.3-.2,1.5.5,3,1,4.4,1.4Z" style="fill: rgb(17, 42, 79);"/>
        <path class="st22" d="M128.8,128.6c-.3-.1-.6-.3-1-.4-1-.4-1.8-1.1-2.7-1.7,0,0,0,0,0-.1,1.2.9,2.5,1.7,4,2.2,0,0,0,0,0,0h-.2s0,0,0,0Z" style="fill: rgb(17, 42, 79);"/>
        <path class="st22" d="M128.8,128.6c0,0,.2.1.2.2-.4.1-3.4-1-3.9-1.5.4.2.8.3,1.2.5.8.3,1.6.6,2.3.8,0,0,.1,0,.2,0,0,0,0,0,0,0Z" style="fill: rgb(17, 42, 79);"/>
      </g>
    </g>
    <g>
      <path class="st10" d="M174.1,128.1c-.8.4-1.4,0-1.8-.4-.5-.5-.9-1-1.3-1.5,0,0,0,.1,0,.2,0,.6,0,1.1-.2,1.7,0,.2-.1.3-.2.5-.4.6-1.1.6-1.4,0-.1-.3-.2-.6-.3-.9,0,0,0-.1,0-.2-.1.2-.3.4-.4.6-.4.6-1.1.5-1.3,0-.2-.4-.2-.9,0-1.4.3-1.5,1-2.8,2-4,0-.1.2-.2.3-.3.2-.1.4-.2.6-.1.1,0,.2,0,.4,0,0-.1,0-.2,0-.3,0,0,0,0,0,0,0-.1.1-.2.2-.3,0-.1.2-.2.3-.3.5-.4,1.2-.5,1.8-.6.8,0,1.6-.1,2.3-.1.4,0,.7,0,.9.3.5.4.4,1.1-.3,1.4-.2,0-.4.1-.7.2.2,0,.4.2.6.3.3.1.5.3.7.6.3.5,0,1.1-.6,1.2-.5.1-.9,0-1.3,0-.3,0-.5-.2-.8-.2.1.2.3.3.4.5.3.4.6.8.8,1.2.3.6.3,1.2-.2,1.9l-.2.2Z" style="fill: rgb(169, 131, 64);"/>
      <g>
        <path class="st22" d="M169.9,123c.1,1.1.7,2,1,3,0,0,0,0-.1-.1-.3-.7-.6-1.4-1-2.1,0,0,0-.1,0-.2h0c0,1.3,0,2.6,0,3.9,0,0,0,0,0,0,0-1.4,0-2.8-.1-4.2,0,0,0,0,0,.1-.3,1.2-.6,2.3-.6,3.5,0,.1,0,.3-.1.4-.1-1.3,0-2.5.5-3.8,0-.3.3-.5.4-.8,0-.1,0-.2.1-.3,0-.2.1-.2.3,0,.6.6,1.3,1.1,1.9,1.7.5.5.9,1,1.4,1.4,0,0,0,.1,0,.2-.4-.5-.9-.9-1.3-1.4-.5-.5-1-.9-1.5-1.3,0,0,0,0,0,0,1,1.3,1.9,2.6,2.9,3.9,0,0,0,0,0,0-1-1.3-2-2.6-3.1-3.7,0,0,0,0,0,0,.6,1,1.1,2,1.7,3-.8-1-1.4-2.2-2-3.3Z" style="fill: rgb(17, 42, 79);"/>
        <path class="st22" d="M170.5,121.8c1.6-.1,3,.2,4.4.6,0,0,0,0-.1,0,0,0,0,0,0,0,0,0,0,0,.1,0,0,0,0,0,0,0-1.4-.4-2.8-.6-4.3-.7,0,0,0,0,0-.1Z" style="fill: rgb(17, 42, 79);"/>
        <path class="st22" d="M168,127.2c-.2-1.1.7-4.1,1.4-4.4-.9,1.4-1.3,2.8-1.4,4.4Z" style="fill: rgb(17, 42, 79);"/>
        <path class="st22" d="M170.3,122.1c1.5.3,2.8.9,4.1,1.6,0,0-.2,0-.3,0-.9-.3-1.8-.7-2.8-1-.3-.1-.6-.2-.8-.3,0,0-.2,0-.3-.1,0,0,0,0,0,0Z" style="fill: rgb(17, 42, 79);"/>
        <path class="st22" d="M170.2,122.4c1.3.5,2.4,1.1,3.2,2.2-1-.8-2-1.6-3.2-2.2Z" style="fill: rgb(17, 42, 79);"/>
        <path class="st22" d="M174.4,121.7c-1.2-.1-2.4-.3-3.7,0,0,0,0,0,0-.1,1.3-.3,2.5,0,3.7.2Z" style="fill: rgb(17, 42, 79);"/>
      </g>
    </g>
    <g>
      <path class="st7" d="M151.5,95.1s-4-1.1-5.7.7c-.9,1,0,1.5,0,1.5,0,0,.7.8,1.4-.2.6-.8-.3-1.2-.4-1.2-.1,0,0,0,0,0,0,0,.7-.9,4.8-.9Z" style="fill: rgb(169, 131, 64); stroke: rgb(169, 131, 64); stroke-linecap: round; stroke-linejoin: round; stroke-width: 0.2px;"/>
      <path class="st7" d="M152.2,94.6s-6.8-2.5-11.1,1.1c0,0-1.5,1-.8,1.8,0,0,1.1-1,1.9,0s-.3,1.8-.3,1.8c0,0-1.2.8-2-.1s-1.5-2.5,1-4.4c2.5-1.9,8.6-2.1,11.3-.2Z" style="fill: rgb(169, 131, 64); stroke: rgb(169, 131, 64); stroke-linecap: round; stroke-linejoin: round; stroke-width: 0.2px;"/>
    </g>
    <g>
      <path class="st0" d="M146.7,178.8c.1.4.3.7.3,1.1,0,.3,0,.5-.4.6,0,0-.1,0-.2,0-1.1-.1-2.1-.5-2.8-1.5-.2-.3-.3-.7-.3-1,0-.4,0-.9,0-1.3,0-.3.2-.4.4-.2.3.2.6.4.9.5.8.4,1.5,1,2,1.7Z" style="fill: rgb(169, 131, 64); stroke: rgb(169, 131, 64); stroke-linecap: round; stroke-linejoin: round; stroke-width: 0.2px;"/>
      <path class="st0" d="M144.4,178.1c.2.2.3.4.5.5,1.3,1.4,2.9,2.3,4.7,2.8.9.3,1.8.5,2.8.5.5,0,1.1,0,1.6-.1,0,0,0,0,.1,0,.1,0,.2,0,.3,0,0,0-.2.2-.3.2-.6.3-1.3.3-2,.3-2-.2-3.8-.7-5.5-1.8-.9-.5-1.6-1.3-2.2-2.1,0-.1-.1-.2-.2-.3,0,0,0,0,0,0Z" style="fill: rgb(169, 131, 64); stroke: rgb(169, 131, 64); stroke-linecap: round; stroke-linejoin: round; stroke-width: 0.2px;"/>
    </g>
  </g>
  <path class="st14" d="M 263.61 55.745 C 263.61 55.745 263.61 55.545 263.61 55.445 C 263.81 54.445 263.91 53.445 263.91 52.345 C 263.91 51.845 263.91 51.245 264.11 50.745 C 264.21 50.145 264.81 49.745 265.31 49.845 C 265.81 49.845 266.11 50.245 266.31 50.645 C 266.61 51.345 266.61 52.145 266.51 52.845 C 266.31 54.045 265.81 55.045 265.01 55.945 C 264.61 56.345 264.21 56.745 263.91 57.245 C 263.61 57.645 263.31 58.045 263.01 58.445 C 262.81 58.745 262.51 58.945 262.31 59.145 C 262.31 59.245 262.11 59.345 262.01 59.445 C 261.81 59.645 261.71 59.845 261.51 59.945 C 261.51 59.945 261.31 59.945 261.21 59.945 C 261.21 59.945 261.21 59.745 261.21 59.645 C 261.21 59.545 261.21 59.445 261.31 59.345 C 262.31 57.445 262.11 55.645 260.91 53.945 C 260.31 53.145 259.61 52.545 259.01 51.745 C 258.81 51.445 258.61 51.145 258.41 50.845 C 258.11 50.145 258.21 49.545 258.71 48.945 C 259.21 48.445 259.91 48.245 260.61 48.445 C 261.41 48.745 262.01 49.345 262.51 50.045 C 263.31 51.345 263.51 52.745 263.41 54.245 C 263.41 54.645 263.41 55.045 263.41 55.345 C 263.41 55.345 263.41 55.345 263.41 55.345 L 263.61 55.745 Z" style="fill: rgb(169, 131, 64); stroke: rgb(169, 131, 64); stroke-linecap: round; stroke-linejoin: round; stroke-width: 0.2px;" transform="matrix(1, 0, 0, 1, 0, -1.4210854715202004e-14)"/>
  <g transform="matrix(1, 0, 0, 1, -70.08910369873047, -58.155101776123054)">
    <path class="st19" d="M223.5,207.4v7.2c0,.5.2.9.5,1.3.3.4.7.5,1.2.5h.3v.3s-8,0-8,0v-.3h.3c.5,0,.9-.2,1.2-.5.3-.4.5-.8.5-1.3v-16c0-.5-.2-.9-.5-1.2s-.7-.5-1.2-.5h-.3v-.3h10.2c.8,0,1.5,0,2-.2.6-.1,1-.2,1.1-.3v4.8h-.3v-.3c0-1.1-.4-2-1.2-2.4-.4-.2-.8-.4-1.3-.4h-4.5v8.3h7.6c.7,0,1.2-.3,1.6-.7.4-.5.6-1,.6-1.7v-.3h.3v6.6h-.3v-.2c0-.7-.2-1.3-.6-1.7-.4-.5-.9-.7-1.6-.7h-7.7Z" style="fill: rgb(64, 27, 121);"/>
    <path class="st19" d="M236.5,216.4c.5,0,.9-.2,1.2-.5.3-.4.5-.8.5-1.3v-16c0-.7-.3-1.2-.9-1.5-.3-.2-.5-.2-.8-.2h-.3v-.3h10.2c.5,0,1.1,0,1.8-.2.7-.1,1.1-.2,1.4-.3v5h-.3v-.3c0-.9-.2-1.6-.7-2.1-.5-.5-1.1-.8-1.9-.8h-4.5v8.3h3.5c.7,0,1.2-.3,1.6-.7.4-.5.6-1,.6-1.7v-.3h.3v6.6h-.3v-.2c0-1-.4-1.7-1.1-2.1-.4-.2-.7-.3-1.2-.3h-3.5v8h3.5c1.3,0,2.4-.4,3.3-1.2.9-.8,1.5-1.9,2-3.4h.3l-1.2,5.8h-13.7v-.3h.3Z" style="fill: rgb(64, 27, 121);"/>
    <path class="st19" d="M254.4,214c0-1.4.3-2.5.8-3.5h.2c0,.2,0,.3,0,.5,0,1.3.4,2.5,1.3,3.5s2.1,1.5,3.6,1.5,2.1-.3,2.8-.9c.7-.6,1-1.4,1-2.3s-.7-2.1-2.1-2.9l-4.6-3.3c-.9-.6-1.6-1.3-2-2.1-.4-.8-.6-1.6-.6-2.5,0-1.8.5-3.2,1.6-4.2,1.1-1,2.4-1.5,4-1.5s2.2,0,3.6.3h1.7l-.3,4.2h-.3c0-1-.3-1.8-1-2.4-.7-.6-1.6-.9-2.7-.9s-2.4.5-3,1.4c-.3.4-.5.9-.5,1.5,0,.9.6,1.8,1.9,2.5l5.1,3.6c1.6,1,2.4,2.5,2.4,4.4s-.6,3.6-1.9,4.7-3,1.6-5.1,1.6-2.3-.2-3.3-.5c-1-.3-1.8-.7-2.2-1.3-.1-.4-.2-.8-.2-1.3Z" style="fill: rgb(64, 27, 121);"/>
    <path class="st19" d="M280.6,197.8v16.8c0,.5.2.9.5,1.3.3.3.7.5,1.2.5h.3v.3s-8,0-8,0v-.3h.3c.4,0,.8-.2,1.2-.5s.5-.8.5-1.2v-16.8h-3.6c-.8,0-1.5.3-1.9.8-.5.5-.7,1.2-.7,2.1v.3h-.3v-5c.2.1.7.2,1.3.3.6.1,1.2.2,1.8.2h10.7c.9,0,1.6,0,2.1-.2.5-.1.9-.2,1-.3v5h-.3v-.3c0-.9-.2-1.6-.7-2.1-.5-.5-1.1-.8-1.9-.8h-3.6Z" style="fill: rgb(64, 27, 121);"/>
    <path class="st19" d="M290.2,216.4c.5,0,.9-.2,1.2-.5.3-.4.5-.8.5-1.3v-15.9c0-.5-.2-.9-.5-1.3s-.7-.5-1.2-.5h-.3v-.3h8.1v.3h-.3c-.5,0-.9.2-1.2.5s-.5.8-.5,1.3v15.9c0,.5.2.9.5,1.3.3.4.7.5,1.2.5h.3v.3s-8,0-8,0v-.3h.3Z" style="fill: rgb(64, 27, 121);"/>
    <path class="st19" d="M324.9,189.5c.4,0,.8,0,1.1,0v.3c-1.1,0-2,.3-2.8.9-.9.6-1.5,1.1-1.9,1.6-.4.5-.7.9-.9,1.2-.2.3-.4.7-.7,1.1-.3.7-.6,1.3-.9,2l-7.1,16.8c-.8,1.9-1.2,3.1-1.3,3.8h-.2l-8-18.7c-.3-.5-.6-.9-1-1.2s-.8-.4-1.2-.4h-.2v-.3h8.4v.3h-.2c-.4,0-.7.1-.9.4s-.3.5-.3.7,0,.5.1.7l4.5,11.8,5.5-13.8c.8-2.1,1.8-3.7,2.9-4.8,1.6-1.6,3.4-2.4,5.2-2.4Z" style="fill: rgb(64, 27, 121);"/>
    <path class="st19" d="M337.2,216.4h.2v.3h-8.5v-.3h.2c.4,0,.7-.1.9-.4s.3-.5.3-.7,0-.5-.1-.7l-1.3-3.5h-6.2l-1.4,3.5c0,.2-.1.5-.1.7s0,.5.3.7c.2.3.5.4.9.4h.2v.3h-5.7v-.3h.2c.4,0,.8-.1,1.2-.4.4-.3.7-.7,1-1.2l6.1-15c.8-1.9,1.3-3.1,1.3-3.8h.2l7.9,18.7c.3.6.6,1,1,1.2.4.3.8.4,1.2.4ZM323.2,209.8h5.3l-2.6-7-2.7,7Z" style="fill: rgb(64, 27, 121);"/>
    <path class="st19" d="M339.4,216.4c.5,0,.9-.2,1.2-.5.3-.4.5-.8.5-1.3v-15.9c0-.5-.2-.9-.5-1.3-.3-.4-.7-.5-1.2-.5h-.3v-.3h8.1v.3h-.3c-.5,0-.9.2-1.2.5-.3.4-.5.8-.5,1.3v16.7h3.5c1.3,0,2.4-.4,3.3-1.2.9-.8,1.5-1.9,2-3.4h.3l-1.2,5.8h-13.7v-.3h.3Z" style="fill: rgb(64, 27, 121);"/>
    <path class="st19" d="M361.1,194.7c1-.5,1.9-.7,2.6-.7s1.4,0,2,.2c.6.2,1.1.4,1.7.8.6.4,1.1.8,1.7,1.3,1,1,1.8,2.2,2.5,3.4l5.3,10.7,7.7-14.3h.2l2.8,16.8c.4,2.6,1.2,4.7,2.2,6.2,1,1.5,2.5,2.3,4.3,2.3h.3v.3c-1,.3-1.9.4-2.9.4-1.9,0-3.7-.8-5.2-2.4-1.5-1.5-2.6-3.8-3.1-6.8l-1.3-8.3-5,9.3c-.7,1.2-1,2.3-1,3.2h-.2l-6.6-13.5-1.3,11.5c0,.4.1.8.5,1.1.2.1.3.2.5.2h.4v.3h-5.5v-.3h.4c.5,0,.9-.1,1.2-.4.4-.3.6-.7.7-1.2l1.8-13.7c-.8-1.5-1.7-2.9-2.7-4.1-1.2-1.3-2.4-2-3.6-2s-.2,0-.3,0v-.3Z" style="fill: rgb(64, 27, 121);"/>
    <path class="st19" d="M392.1,216.4c.5,0,.9-.2,1.2-.5.3-.4.5-.8.5-1.3v-16c0-.7-.3-1.2-.9-1.5-.3-.2-.5-.2-.8-.2h-.3v-.3h10.2c.5,0,1.1,0,1.8-.2.7-.1,1.1-.2,1.4-.3v5h-.3v-.3c0-.9-.2-1.6-.7-2.1-.5-.5-1.1-.8-1.9-.8h-4.5v8.3h3.5c.7,0,1.2-.3,1.6-.7.4-.5.6-1,.6-1.7v-.3h.3v6.6h-.3v-.2c0-1-.4-1.7-1.1-2.1-.4-.2-.7-.3-1.2-.3h-3.5v8h3.5c1.3,0,2.4-.4,3.3-1.2.9-.8,1.5-1.9,2-3.4h.3l-1.2,5.8h-13.7v-.3h.3Z" style="fill: rgb(64, 27, 121);"/>
    <path class="st19" d="M426.8,199.3c1.8,1.8,2.7,4.2,2.7,7.3s-.9,5.5-2.7,7.3c-1.8,1.8-4.3,2.7-7.4,2.7h-9.6v-.3h.3c.5,0,.9-.2,1.2-.5.3-.4.5-.8.5-1.3v-16c0-.5-.2-.8-.6-1.2-.3-.3-.7-.5-1.1-.5h-.3v-.3h9.6c3.1,0,5.6.9,7.4,2.7ZM419,215.4c1.3,0,2.4-.4,3.3-1.1.9-.7,1.6-1.7,2.1-3.1s.7-2.9.7-4.7c0-2.7-.6-4.9-1.7-6.4-1.1-1.6-2.6-2.4-4.5-2.4h-3.3v17.6h3.3Z" style="fill: rgb(64, 27, 121);"/>
    <path class="st19" d="M432.8,216.4c.5,0,.9-.2,1.2-.5.3-.4.5-.8.5-1.3v-15.9c0-.5-.2-.9-.5-1.3s-.7-.5-1.2-.5h-.3v-.3h8.1v.3h-.3c-.5,0-.9.2-1.2.5s-.5.8-.5,1.3v15.9c0,.5.2.9.5,1.3.3.4.7.5,1.2.5h.3v.3s-8,0-8,0v-.3h.3Z" style="fill: rgb(64, 27, 121);"/>
    <path class="st19" d="M444.4,216.4c.5,0,.9-.2,1.2-.5.3-.4.5-.8.5-1.3v-16c0-.7-.3-1.2-.9-1.5-.3-.2-.5-.2-.8-.2h-.3v-.3h10.2c.5,0,1.1,0,1.8-.2.7-.1,1.1-.2,1.4-.3v5h-.3v-.3c0-.9-.2-1.6-.7-2.1-.5-.5-1.1-.8-1.9-.8h-4.5v8.3h3.5c.7,0,1.2-.3,1.6-.7.4-.5.6-1,.6-1.7v-.3h.3v6.6h-.3v-.2c0-1-.4-1.7-1.1-2.1-.4-.2-.7-.3-1.2-.3h-3.5v8h3.5c1.3,0,2.4-.4,3.3-1.2.9-.8,1.5-1.9,2-3.4h.3l-1.2,5.8h-13.7v-.3h.3Z" style="fill: rgb(64, 27, 121);"/>
    <path class="st19" d="M481.1,196.9h-.2c-.4,0-.8.1-1.2.4-.4.3-.7.7-1,1.2l-6.3,15c-.8,1.9-1.2,3.1-1.3,3.8h-.2l-8-18.7c-.3-.5-.6-.9-1-1.2s-.8-.4-1.2-.4h-.2v-.3h8.4v.3h-.2c-.4,0-.7.1-.9.4s-.3.5-.3.7,0,.5.1.7l4.5,11.8,4.7-11.8c0-.2.1-.5.1-.7s0-.5-.3-.7c-.2-.3-.5-.4-.9-.4h-.2v-.3h5.7v.3Z" style="fill: rgb(64, 27, 121);"/>
    <path class="st19" d="M498.2,216.4h.2v.3h-8.5v-.3h.2c.4,0,.7-.1.9-.4s.3-.5.3-.7,0-.5-.1-.7l-1.3-3.5h-6.2l-1.4,3.5c0,.2-.1.5-.1.7s0,.5.3.7c.2.3.5.4.9.4h.2v.3h-5.7v-.3h.2c.4,0,.8-.1,1.2-.4.4-.3.7-.7,1-1.2l6.1-15c.8-1.9,1.3-3.1,1.3-3.8h.2l7.9,18.7c.3.6.6,1,1,1.2.4.3.8.4,1.2.4ZM484.2,209.8h5.3l-2.6-7-2.7,7Z" style="fill: rgb(64, 27, 121);"/>
    <path class="st19" d="M500.4,216.4c.5,0,.9-.2,1.2-.5.3-.4.5-.8.5-1.3v-15.9c0-.5-.2-.9-.5-1.3-.3-.4-.7-.5-1.2-.5h-.3v-.3h8.1v.3h-.3c-.5,0-.9.2-1.2.5-.3.4-.5.8-.5,1.3v16.7h3.5c1.3,0,2.4-.4,3.3-1.2.9-.8,1.5-1.9,2-3.4h.3l-1.2,5.8h-13.7v-.3h.3Z" style="fill: rgb(64, 27, 121);"/>
  </g>
  <path class="st19" d="M 417.01 96.045 C 411.61 96.045 406.91 94.945 403.11 92.745 C 398.51 90.245 396.31 86.945 396.31 82.645 C 396.31 78.345 396.91 79.245 398.21 77.945 C 399.51 76.545 400.81 75.845 402.21 75.845 C 403.61 75.845 403.71 76.045 405.51 76.845 C 406.11 77.045 406.31 77.245 406.41 77.345 C 406.41 77.345 406.21 77.545 405.91 77.745 C 404.01 78.945 403.11 81.045 403.11 83.845 C 403.11 86.645 404.61 89.145 407.51 90.945 C 410.31 92.645 413.61 93.445 417.31 93.445 C 421.01 93.445 426.01 91.745 429.41 88.345 C 432.71 84.945 434.41 81.145 434.41 76.845 C 434.41 72.545 433.41 71.645 431.51 69.445 C 429.61 67.145 427.31 66.045 424.71 66.045 C 422.11 66.045 420.81 67.045 419.41 69.045 C 418.21 70.745 417.61 72.145 417.61 73.245 C 417.61 74.345 417.81 74.845 418.31 75.445 C 418.51 75.645 418.71 75.845 418.81 76.045 L 418.81 76.345 C 413.31 76.145 408.71 74.645 405.21 71.845 C 402.51 69.645 400.51 66.545 399.81 64.745 C 399.21 63.045 398.61 60.045 398.51 56.545 C 398.41 53.045 400.21 47.445 403.61 44.445 C 406.61 41.645 410.41 40.145 414.81 40.145 C 419.21 40.145 420.41 40.645 423.11 41.745 C 425.91 42.845 428.81 43.945 431.81 45.045 L 432.01 45.045 C 432.01 45.045 432.21 45.045 432.21 45.045 C 433.01 45.045 433.91 44.545 434.81 43.445 C 435.31 42.845 435.81 42.545 436.21 42.545 L 437.21 42.545 L 433.61 48.745 C 432.31 51.145 430.41 52.345 428.01 52.345 L 424.31 52.345 C 423.71 52.345 421.91 51.845 416.61 48.845 C 412.31 46.245 409.01 44.945 406.61 44.945 L 406.21 44.945 C 405.11 45.545 404.41 46.045 403.91 46.445 C 402.31 47.945 401.51 50.045 401.51 52.545 C 401.51 55.045 403.01 57.545 405.91 59.845 C 409.11 62.445 413.01 63.745 417.71 63.745 C 422.41 63.745 420.11 63.245 425.11 59.645 C 426.51 58.545 427.91 58.045 429.21 58.045 L 432.51 58.045 C 434.81 58.045 437.21 59.245 439.71 61.645 C 442.71 64.445 444.21 67.545 444.21 71.045 L 444.21 75.545 C 444.21 80.045 441.71 84.445 436.81 88.645 C 431.31 93.345 424.71 95.745 416.91 95.745 L 417.01 96.045 Z M 398.61 56.845" style="fill: rgb(64, 27, 121);" transform="matrix(1, 0, 0, 1, 0, -1.4210854715202004e-14)"/>
  <path class="st17" d="M 437.81 82.045 C 438.21 80.445 438.51 78.745 438.51 76.945 C 438.51 73.245 437.21 69.845 434.71 66.845 C 432.91 64.745 430.81 63.345 428.51 62.545 C 428.91 62.345 429.21 62.245 429.31 62.245 L 432.61 62.245 C 433.81 62.245 435.31 63.145 437.01 64.745 C 439.21 66.745 440.21 68.845 440.21 71.245 L 440.21 75.745 C 440.21 77.745 439.41 79.945 437.81 82.045 Z M 413.81 71.545 C 411.51 70.945 409.51 69.945 407.91 68.645 C 405.81 66.945 404.31 64.745 403.81 63.545 C 407.01 66.045 410.91 67.545 415.31 67.945 C 414.51 69.245 414.01 70.445 413.71 71.545 L 413.81 71.545 Z M 424.71 48.445 C 424.31 48.345 422.71 47.745 418.81 45.445 C 418.11 45.045 417.51 44.645 416.91 44.345 C 418.51 44.545 420.11 44.945 421.71 45.545 C 424.11 46.445 426.51 47.345 428.81 48.245 C 428.51 48.345 428.31 48.345 428.01 48.345 L 424.61 48.345 L 424.71 48.445 Z" style="fill: rgb(65, 122, 185);" transform="matrix(1, 0, 0, 1, 0, -1.4210854715202004e-14)"/>
  <g transform="matrix(1, 0, 0, 1, -70.08910369873047, -58.155101776123054)">
    <path class="st10" d="M482.6,127.5c.5-.5,1-.5,1.5-.3.5.2,1,.5,1.5.7,0,0,0-.1,0-.2-.2-.4-.4-.8-.4-1.3,0-.1,0-.3,0-.4,0-.6.6-.8,1-.5.2.2.3.4.5.6,0,0,0,0,.1.2,0-.2,0-.4.1-.6.2-.6.6-.7,1-.4.3.3.4.6.5,1,.2,1.2.1,2.4-.3,3.6,0,.1,0,.2-.2.3,0,.2-.2.3-.4.3,0,0-.2,0-.3,0,0,0,.1.1.2.2,0,0,0,0,0,0,0,.1,0,.2,0,.3,0,.1,0,.2-.1.3-.3.5-.7.8-1.1,1-.6.3-1.1.6-1.7.8-.3.1-.5.2-.8,0-.5-.2-.6-.7-.2-1.2.1-.1.3-.2.4-.3-.2,0-.3,0-.5,0-.3,0-.5,0-.7-.3-.4-.3-.3-.8,0-1.1.3-.2.7-.3,1-.4.2,0,.4,0,.7,0-.2,0-.3-.1-.5-.2-.3-.2-.7-.4-1-.7-.4-.4-.6-.8-.4-1.5v-.2Z" style="fill: rgb(169, 131, 64);"/>
    <g>
      <path class="st22" d="M487.4,129.9c-.4-.8-1.2-1.3-1.7-1.9,0,0,0,0,.1,0,.5.4.9.8,1.4,1.3,0,0,0,0,.1,0h0c-.4-1-.8-2-1.2-2.9,0,0,0,0,0,0,.5,1,.9,2.1,1.4,3.1,0,0,0,0,0-.1-.1-1-.3-2-.7-2.8,0-.1,0-.2,0-.3.5.9.8,1.9.8,3,0,.2,0,.5,0,.7,0,0,0,.2,0,.3,0,.1,0,.2-.2.2-.7-.2-1.3-.4-2-.6-.5-.2-1-.4-1.5-.7,0,0-.1,0-.1-.1.5.2,1,.4,1.5.6.5.2,1,.3,1.5.5,0,0,0,0,0,0-1.1-.7-2.3-1.3-3.4-2,0,0,0,0,0,0,1.2.6,2.3,1.3,3.5,1.8,0,0,0,0,0,0-.7-.6-1.5-1.1-2.2-1.7.9.5,1.8,1.2,2.6,1.9Z" style="fill: rgb(17, 42, 79);"/>
      <path class="st22" d="M487.3,131c-1.2.6-2.3.8-3.5.9,0,0,0,0,0-.1,0,0,0,0,0,0,0,0,0,0,0,0,0,0,0,0,0,0,1.2-.1,2.3-.4,3.5-.8,0,0,0,0,0,0Z" style="fill: rgb(17, 42, 79);"/>
      <path class="st22" d="M487.5,126.1c.5.8.7,3.3.3,3.7.2-1.3,0-2.5-.3-3.7Z" style="fill: rgb(17, 42, 79);"/>
      <path class="st22" d="M487.4,130.8c-1.2.2-2.4.2-3.6,0,0,0,.2,0,.2,0,.8,0,1.6,0,2.4-.1.2,0,.5,0,.7,0,0,0,.2,0,.2,0,0,0,0,0,0,0Z" style="fill: rgb(17, 42, 79);"/>
      <path class="st22" d="M487.4,130.5c-1.1,0-2.2-.1-3.1-.6,1,.3,2,.6,3.1.6Z" style="fill: rgb(17, 42, 79);"/>
      <path class="st22" d="M484.4,132.3c1-.3,1.9-.6,2.8-1.1,0,0,0,0,0,0-.9.7-1.9.8-2.8,1.1Z" style="fill: rgb(17, 42, 79);"/>
    </g>
  </g>
</svg>