<?xml version="1.0" encoding="UTF-8"?>
<svg id="Camada_1" xmlns="http://www.w3.org/2000/svg" version="1.1" viewBox="0 0 800 786">
  <!-- Generator: Adobe Illustrator 29.4.0, SVG Export Plug-In . SVG Version: 2.1.0 Build 152)  -->
  <defs>
    <style>
      .st0 {
        fill: #fff;
      }
    </style>
  </defs>
  <path class="st0" d="M579.7,296.1c-63.8,16.3-104.6,93.4-113.3,117-11.2,30.2-20.4,61.3-22.3,91.9h-20.4c-5-53.3,12.7-124.3,40.2-208.9,31.1-95.9-37.3-201.9-63.9-201.9s-95.1,106-63.9,201.9c27.5,84.6,45.2,155.7,40.2,208.9h-20.4c-1.9-30.5-11.1-61.7-22.3-91.9-8.7-23.7-49.5-100.7-113.3-117-53.5-13.7-126.3,30.9-129.5,110.8-1.3,31.1,18.6,93.4,73.4,97.1,23.7,1.6,48.6-11.2,42.3-21.2-12.7-20.3-11.2-44.8-7.5-51,14.9-24.9,46.1-23.6,66-8.7,29.2,21.9,48.6,41,61.2,81.9h-30.9c-19.4,0-21.7,37.4,0,37.4h62.3c-3.9,2.8-8.3,5.7-12.9,8.9-17.4,12.5-37.7,24.8-57.2,19.9-10-2.5-17.5-.7-16.2,6.2,9.9,54.8,70.9,48.5,87.1,27.4-19.9,23.6,27.4,86.9,41.5,86.9s61.4-63.3,41.5-86.9c16.2,21.1,77.2,27.4,87.1-27.4,1.3-6.9-6.2-8.7-16.2-6.2-19.5,4.9-39.8-7.5-57.2-19.9-4.6-3.2-9-6.1-12.9-8.9h62.2c21.7,0,19.4-37.4,0-37.4h-30.9c12.7-40.9,32-60,61.2-81.9,19.9-14.9,51.1-16.2,66,8.7,3.7,6.2,5.2,30.7-7.5,51-6.3,10,18.7,22.8,42.3,21.2,54.8-3.7,74.7-66,73.5-97.1-3.2-79.8-75.9-124.5-129.5-110.8Z"/>
</svg>