<svg xmlns="http://www.w3.org/2000/svg" viewBox="0 0 600 50">
  <defs>
    <style>
      .st9 { fill: #000; }
      .st19 { fill: #000; }
      .st21 { fill: none; stroke: #000; stroke-width: 2; }
    </style>
  </defs>
  <g>
    <path class="st9" d="M318.5,25.2c-4.2,1.7-8.2,4.3-12.1,4.3,3.9,0,7.9,2.6,12.1,4.3,2.4-1.7,3.7-2.9,7.6-4.3-3.9-1.4-5.3-2.6-7.6-4.3Z"/>
    <path class="st9" d="M470.9,31.4h-148.8c-.8,0-1.5-.9-1.5-1.7s.7-1.7,1.5-1.7h148.8c.8,0,1.5.9,1.5,1.7s-.7,1.7-1.5,1.7Z"/>
    <path class="st19" d="M301.2,24.3c-2.5.6-4.1,3.7-4.5,4.6-.4,1.2-.8,2.4-.9,3.6h-.8c-.2-2.1.5-4.9,1.6-8.2,1.2-3.8-1.5-8-2.5-8s-3.8,4.2-2.5,8c1.1,3.3,1.8,6.1,1.6,8.2h-.8c0-1.2-.4-2.4-.9-3.6-.3-.9-2-4-4.5-4.6-2.1-.5-5,1.2-5.1,4.4,0,1.2.7,3.7,2.9,3.8.9,0,1.9-.4,1.7-.8-.5-.8-.4-1.8-.3-2,.6-1,1.8-.9,2.6-.3,1.2.9,1.9,1.6,2.4,3.2h-1.2c-.8,0-.9,1.5,0,1.5h2.5c-.2.1-.3.2-.5.4-.7.5-1.5,1-2.3.8-.4,0-.7,0-.6.2.4,2.2,2.8,1.9,3.4,1.1-.8.9,1.1,3.4,1.6,3.4s2.4-2.5,1.6-3.4c.6.8,3,1.1,3.4-1.1,0-.3-.2-.3-.6-.2-.8.2-1.6-.3-2.3-.8-.2-.1-.4-.2-.5-.4h2.5c.9,0,.8-1.5,0-1.5h-1.2c.5-1.6,1.3-2.4,2.4-3.2.8-.6,2-.6,2.6.3.1.2.2,1.2-.3,2-.2.4.7.9,1.7.8,2.2-.1,2.9-2.6,2.9-3.8-.1-3.2-3-4.9-5.1-4.4Z"/>
    <path class="st9" d="M478.2,35c-.5-1.9-2.8-3.1-3.5-3.4-.9-.3-1.8-.6-2.8-.7v-.6c1.6-.2,3.7.4,6.3,1.2,2.9.9,6.1-1.1,6.1-1.9s-3.2-2.9-6.1-1.9c-2.5.8-4.7,1.4-6.3,1.2v-.6c.9,0,1.9-.3,2.8-.7.7-.3,3-1.5,3.5-3.4.4-1.6-.9-3.8-3.3-3.9-.9,0-2.8.6-2.9,2.2,0,.7.3,1.5.6,1.3.6-.4,1.3-.3,1.5-.2.7.5.7,1.4.3,2-.7.9-1.2,1.5-2.5,1.8v-.9c0-.6-1.1-.7-1.1,0v1.9c0-.1-.2-.3-.3-.4-.4-.5-.7-1.1-.6-1.7,0-.3,0-.5-.2-.5-1.6.3-1.5,2.1-.8,2.6-.7-.6-2.6.8-2.6,1.2s1.9,1.8,2.6,1.2c-.6.5-.8,2.3.8,2.6.2,0,.3-.2.2-.5-.1-.6.2-1.2.6-1.7,0-.1.2-.3.3-.4v1.9c0,.7,1.1.6,1.1,0v-.9c1.2.4,1.8,1,2.5,1.8.4.6.5,1.5-.3,2-.2.1-.9.2-1.5-.2-.3-.2-.7.6-.6,1.3.1,1.6,2,2.2,2.9,2.2,2.4,0,3.7-2.3,3.3-3.9Z"/>
    <path class="st9" d="M268.9,25.2c4.2,1.7,8.2,4.3,12.1,4.3-3.9,0-7.9,2.6-12.1,4.3-2.4-1.7-3.7-2.9-7.6-4.3,3.9-1.4,5.3-2.6,7.6-4.3Z"/>
    <path class="st9" d="M116.5,31.4h148.8c.8,0,1.5-.9,1.5-1.7s-.7-1.7-1.5-1.7H116.5c-.8,0-1.5.9-1.5,1.7s.7,1.7,1.5,1.7Z"/>
    <path class="st9" d="M109.2,35c.5-1.9,2.8-3.1,3.5-3.4.9-.3,1.8-.6,2.8-.7v-.6c-1.6-.2-3.7.4-6.3,1.2-2.9.9-6.1-1.1-6.1-1.9s3.2-2.9,6.1-1.9c2.5.8,4.7,1.4,6.3,1.2v-.6c-.9,0-1.9-.3-2.8-.7-.7-.3-3-1.5-3.5-3.4-.4-1.6.9-3.8,3.3-3.9.9,0,2.8.6,2.9,2.2,0,.7-.3,1.5-.6,1.3-.6-.4-1.3-.3-1.5-.2-.7.5-.7,1.4-.3,2,.7.9,1.2,1.5,2.5,1.8v-.9c0-.6,1.1-.7,1.1,0v1.9c0-.1.2-.3.3-.4.4-.5.7-1.1.6-1.7,0-.3,0-.5.2-.5,1.6.3,1.5,2.1.8,2.6.7-.6,2.6.8,2.6,1.2s-1.9,1.8-2.6,1.2c.6.5.8,2.3-.8,2.6-.2,0-.3-.2-.2-.5.1-.6-.2-1.2-.6-1.7,0-.1-.2-.3-.3-.4v1.9c0,.7-1.1.6-1.1,0v-.9c-1.2.4-1.8,1,2.5,1.8-.4.6-.5,1.5.3,2,.2.1.9.2,1.5-.2.3-.2.7.6.6,1.3-.1,1.6-2,2.2-2.9,2.2-2.4,0-3.7-2.3-3.3-3.9Z"/>
    <line class="st21" x1="121.1" y1="29.5" x2="265.3" y2="29.5"/>
    <line class="st21" x1="322.8" y1="29.5" x2="467" y2="29.5"/>
  </g>
</svg>